<svg width="24" height="24" viewBox="0 0 24 24" fill="none" xmlns="http://www.w3.org/2000/svg">
<path d="M11.396 20.743C11.525 20.914 11.782 21 11.996 21C12.21 21 12.468 20.914 12.596 20.743C13.325 19.971 14.267 19.2 15.253 18.343C18.382 15.686 22.282 12.343 22.282 8.143C22.282 5.1 20.182 3 17.139 3C14.739 3 13.196 4.286 11.996 5.829C10.796 4.243 9.25296 3 6.85296 3C3.80996 3 1.70996 5.1 1.70996 8.143C1.70996 12.343 5.60996 15.686 8.73896 18.343C9.72496 19.2 10.667 20.014 11.396 20.743Z" fill="#FFEA7D"/>
</svg>
