<svg width="23" height="33" viewBox="0 0 23 33" fill="none" xmlns="http://www.w3.org/2000/svg">
<g clip-path="url(#clip0_1474_11796)">
<path d="M18.8779 13.9412C18.8779 18.0996 13.6779 24 10.8779 24C8.07793 24 2.87793 17.6878 2.87793 13.5294C2.87793 9.17647 6.7542 6 10.8779 6C15.0017 6 18.8779 9.17647 18.8779 13.9412Z" stroke="#7353F4" stroke-width="2" stroke-linecap="round" stroke-linejoin="round"/>
<path d="M14.0398 13.9036C14.0398 15.6579 12.6071 17.0801 10.8398 17.0801C9.07249 17.0801 7.6398 15.6579 7.6398 13.9036C7.6398 12.1493 9.07249 10.7271 10.8398 10.7271C12.6071 10.7271 14.0398 12.1493 14.0398 13.9036Z" stroke="#7353F4" stroke-width="2" stroke-linecap="round" stroke-linejoin="round"/>
<path d="M14.8857 22.2012C15.6033 23.3645 17.0385 25.6913 17.0385 25.6913C17.5536 25.4867 18.5839 25.0776 18.5839 25.0776" stroke="#7353F4" stroke-width="2" stroke-linecap="round" stroke-linejoin="round"/>
<path d="M21.5046 15.9946L21.8737 16.924C22.1891 16.7987 22.4195 16.5219 22.4855 16.189L21.5046 15.9946ZM23.0353 13.4147C23.1427 12.873 22.7906 12.3468 22.2488 12.2394C21.7071 12.132 21.1809 12.4842 21.0735 13.0259L23.0353 13.4147ZM18.0017 18.4616L21.8737 16.924L21.1355 15.0652L17.2635 16.6028L18.0017 18.4616ZM22.4855 16.189L23.0353 13.4147L21.0735 13.0259L20.5237 15.8002L22.4855 16.189Z" fill="#7353F4"/>
<path d="M7.73696 23.5064C7.48379 24.7997 6.97741 27.3863 6.97741 27.3863C6.31615 27.2229 4.99364 26.8961 4.99364 26.8961" stroke="#7353F4" stroke-width="2" stroke-linecap="round" stroke-linejoin="round"/>
<path d="M1.21007 19.7112L0.291909 19.315C0.141837 19.6628 0.201134 20.0655 0.445077 20.3553L1.21007 19.7112ZM1.78055 21.9415C2.13624 22.364 2.76709 22.4182 3.18958 22.0625C3.61208 21.7068 3.66623 21.076 3.31054 20.6535L1.78055 21.9415ZM2.129 15.0578L0.291909 19.315L2.12823 20.1074L3.96532 15.8502L2.129 15.0578ZM0.445077 20.3553L1.78055 21.9415L3.31054 20.6535L1.97506 19.0672L0.445077 20.3553Z" fill="#7353F4"/>
</g>
<defs>
<clipPath id="clip0_1474_11796">
<rect width="23" height="33" fill="white"/>
</clipPath>
</defs>
</svg>
