<svg width="25" height="24" viewBox="0 0 25 24" fill="none" xmlns="http://www.w3.org/2000/svg">
<g id="ChatTeardropDots">
<path id="Vector" d="M12.875 20.25H4.96906C4.8746 20.2501 4.78104 20.2316 4.69374 20.1955C4.60645 20.1594 4.52713 20.1065 4.46033 20.0397C4.39354 19.9729 4.34058 19.8936 4.30448 19.8063C4.26839 19.719 4.24988 19.6254 4.25 19.5309V11.625C4.25 9.33751 5.1587 7.14371 6.7762 5.5262C8.39371 3.9087 10.5875 3 12.875 3C14.0077 3 15.1292 3.22309 16.1756 3.65654C17.2221 4.08999 18.1729 4.7253 18.9738 5.5262C19.7747 6.32711 20.41 7.27792 20.8435 8.32436C21.2769 9.37079 21.5 10.4923 21.5 11.625C21.5 12.7577 21.2769 13.8792 20.8435 14.9256C20.41 15.9721 19.7747 16.9229 18.9738 17.7238C18.1729 18.5247 17.2221 19.16 16.1756 19.5935C15.1292 20.0269 14.0077 20.25 12.875 20.25Z" stroke="#B9B7C2" stroke-width="2" stroke-linecap="round" stroke-linejoin="round"/>
<path id="Vector_2" d="M12.875 13.125C13.4963 13.125 14 12.6213 14 12C14 11.3787 13.4963 10.875 12.875 10.875C12.2537 10.875 11.75 11.3787 11.75 12C11.75 12.6213 12.2537 13.125 12.875 13.125Z" fill="#B9B7C2"/>
<path id="Vector_3" d="M8.75 13.125C9.37132 13.125 9.875 12.6213 9.875 12C9.875 11.3787 9.37132 10.875 8.75 10.875C8.12868 10.875 7.625 11.3787 7.625 12C7.625 12.6213 8.12868 13.125 8.75 13.125Z" fill="#B9B7C2"/>
<path id="Vector_4" d="M17 13.125C17.6213 13.125 18.125 12.6213 18.125 12C18.125 11.3787 17.6213 10.875 17 10.875C16.3787 10.875 15.875 11.3787 15.875 12C15.875 12.6213 16.3787 13.125 17 13.125Z" fill="#B9B7C2"/>
</g>
</svg>
