<svg width="24" height="24" viewBox="0 0 24 24" fill="none" xmlns="http://www.w3.org/2000/svg">
<g id="plus" clip-path="url(#clip0_1_10323)">
<path id="Union" fill-rule="evenodd" clip-rule="evenodd" d="M20.1317 3.86806C19.5459 3.28227 18.5962 3.28227 18.0104 3.86806L12 9.87846L5.98959 3.86806C5.40381 3.28227 4.45406 3.28227 3.86827 3.86806C3.28249 4.45384 3.28249 5.40359 3.86827 5.98938L9.87868 11.9998L3.86827 18.0102C3.28249 18.596 3.28249 19.5457 3.86827 20.1315C4.45406 20.7173 5.40381 20.7173 5.98959 20.1315L12 14.1211L18.0104 20.1315C18.5962 20.7173 19.5459 20.7173 20.1317 20.1315C20.7175 19.5457 20.7175 18.596 20.1317 18.0102L14.1213 11.9998L20.1317 5.98938C20.7175 5.40359 20.7175 4.45384 20.1317 3.86806Z" fill="white"/>
</g>
<defs>
<clipPath id="clip0_1_10323">
<rect width="24" height="24" fill="white"/>
</clipPath>
</defs>
</svg>
