<svg width="375" height="375" viewBox="0 0 375 375" fill="none" xmlns="http://www.w3.org/2000/svg">
<rect width="375" height="375" fill="#F9FAFB"/>
<path d="M73.6637 228.035C73.3487 228.715 72.9119 229.895 72.0313 228.945C68.3349 224.965 57.9207 201.91 58.2465 200.783C58.8282 198.769 59.1021 202.807 71.3009 223.591C73.7998 227.849 73.329 227.117 73.6637 228.035Z" fill="#E2E1E7"/>
<path d="M102.76 194.954C102.909 194.679 103.542 194.294 103.145 195.561C96.2016 217.689 95.7344 220.814 95.1348 222.483C94.7124 223.657 93.0942 223.696 93.0315 222.918C92.7058 218.854 99.2267 201.509 102.76 194.954Z" fill="#E2E1E7"/>
<path d="M59.5442 244.539C59.4708 249.016 39.8847 231.522 35.3882 227.667C34.844 227.199 35.1626 226.521 35.5206 226.729C35.56 226.752 58.515 243.018 59.546 244.539H59.5442Z" fill="#E2E1E7"/>
<path d="M111.583 236.778C112.641 234.989 130.94 224.924 131.012 225.053C131.758 226.408 108.388 242.183 111.583 236.778Z" fill="#E2E1E7"/>
<path d="M356.07 47.4631C355.012 45.4959 353.818 43.8401 352.503 42.4583C351.885 44.7799 351.237 46.4267 350.62 46.7435C345.405 49.4124 340.018 52.5932 322.613 56.2788C321.018 56.6172 320.909 56.175 315.559 51.0377C310.386 46.0705 310.887 46.5878 307.565 42.8789C306.847 43.1027 306.127 43.3282 305.406 43.5537C298.588 45.6838 291.888 47.0084 285.297 47.771C283.965 54.0038 282.1 60.2007 280.129 65.8446C277.659 72.9151 277.665 73.2194 276.716 73.6579C268.895 77.2684 255.265 80.9862 248.137 82.1354C242.565 83.0322 220.397 56.6136 219.78 55.4089C219.511 54.8844 219.593 54.5569 220.148 54.3349C227.239 51.5031 242.645 49.7042 247.396 49.3336C247.646 49.314 247.979 48.6588 248.37 47.6331C226.555 45.836 205.846 42.8288 185.811 49.092C165.314 55.502 151.425 70.3679 145.124 87.8598C147.442 87.1975 149.87 86.5621 152.256 86.0143C165.699 82.9373 164.906 83.7553 165.525 82.309C167.413 77.8949 168.045 76.6043 171.051 70.4986C172.245 68.0732 172.334 68.39 173.252 67.998C173.489 67.8959 175.846 70.0046 176.029 70.171C179.603 73.4449 180.103 74.0768 183.717 77.9683C184.639 78.9599 183.949 77.127 199.862 72.4264C204.735 70.9873 208.853 70.1173 208.891 70.1155C210.774 70.0833 210.531 69.8936 210.533 72.3871C210.534 75.7934 207.903 89.0609 207.208 92.3993C204.001 107.783 203.847 108.59 201.772 109.895C190.195 117.169 167.481 121.154 165.412 121.682C164.297 121.966 163.409 121.61 162.503 121.079C156.958 117.817 147.56 110.663 141.453 105.498C139.459 141.368 175.923 152.203 193.272 171.779C200.539 179.976 206.283 189.642 206.022 201.638C209.978 200.706 213.658 199.941 216.717 199.436C217.914 199.24 216.772 199.186 226.617 178.507C228.366 174.832 230.135 177.388 243.868 190.878C244.754 191.748 244.63 191.781 245.26 191.423C252.8 187.141 270.786 181.436 278.617 179.686C282.684 178.776 282.65 178.733 282.65 182.449C283.004 182.482 281.662 194.831 276.043 222.574C273.589 234.687 273.519 233.611 272.418 235.523C271.811 236.575 265.326 239.983 263.948 240.631C252.714 245.921 242.459 248.805 231.341 251.613C215.922 255.506 216.968 255.363 213.531 253.281C207.056 249.361 197.679 242.853 188.712 235.79C180.957 241.312 172.339 245.468 166.42 258.571C159.623 273.612 169.484 297.92 138.181 310.477C136.731 311.059 135.086 311.777 133.178 312.581C132.05 314.716 131.107 316.402 130.384 317.661C128.345 321.214 128.964 321.339 123.412 323.564C106.407 330.375 74.4891 333.266 60.971 333.96C71.5983 334.649 91.2185 334.397 117.007 336.724C143.912 339.153 169.513 345.488 187.68 334.762C213.652 319.425 201.026 278.13 259.29 261.696C266.069 259.788 293.818 250.007 300.802 245.975C349.703 217.739 333.949 179.63 330.275 160.648C322.318 119.541 324.772 116.645 346.231 83.8269C353.222 73.1317 362.054 58.5844 356.074 47.4595L356.07 47.4631ZM164.651 306.341C178.698 292.533 175.626 280.96 179.993 269.075C182.883 261.202 190.082 252.299 191.025 253.645C191.193 253.883 190.939 254.201 189.704 255.966C177.532 273.363 182.469 281.116 175.411 295.162C172.923 300.113 167.41 306.682 165.239 307.279C164.474 307.495 164.014 306.971 164.653 306.342L164.651 306.341ZM201.199 288.095C186.681 314.261 184.923 326.6 163.982 327.939C161.816 328.077 141.911 329.501 142.074 327.382C142.165 326.208 143.443 327.386 159.911 326.043C188.252 323.732 181.585 310.318 200.215 287.707C201.026 286.724 201.293 286.91 201.378 286.966C201.597 287.114 201.538 287.483 201.198 288.093L201.199 288.095ZM283.006 70.8996C283.162 70.708 308.87 54.8916 313.801 56.4919C315.421 57.0145 304.608 60.1148 296.325 65.5242C296.245 65.5779 286.923 71.1305 284.019 71.424C283.541 71.4401 283.681 71.4652 283.069 71.1752C282.965 71.1251 282.931 70.9926 283.006 70.8996ZM291.603 76.1156C305.889 69.6251 311.148 64.5737 311.587 65.7837C311.889 66.6465 303.591 72.4014 299.313 74.723C289.137 80.2434 281.05 82.9731 260.058 84.5626H260.019C259.013 84.3729 258.658 84.2064 258.664 83.9272C258.687 82.4791 279.557 81.5948 291.605 76.1174L291.603 76.1156ZM224.11 92.6982C224.197 92.8736 224.081 93.0759 223.988 93.1278C216.849 97.2251 213.962 99.5664 211.855 101.278C211.676 101.423 208.975 103.635 208.632 103.587C208.583 103.572 208.542 103.538 208.521 103.494C206.988 100.356 223.367 91.2089 224.111 92.7L224.11 92.6982ZM175.1 123.858C175.069 123.88 175.035 123.893 174.996 123.893C172.953 123.893 172.778 123.728 172.753 123.495C172.631 122.35 193.436 119.156 204.509 115.288C219.194 110.16 233.589 101.722 238.258 98.4369C238.743 98.095 239.599 97.5741 239.897 97.9429C241.052 99.3767 224.244 108.658 221.244 110.405C200.254 122.525 176.637 123.513 175.1 123.858ZM257.18 160.503C253.602 160.507 232.983 141.98 219.525 126.878C218.693 125.946 218.949 124.882 219.728 124.53C228.275 120.64 251.312 116.733 254.038 116.387C256.131 116.122 256.421 116.344 256.586 115.721C261.272 97.9339 261.419 98.1487 262.392 98.3062C264.94 98.7251 276.707 107.722 278.764 109.284C279.619 109.934 279.865 109.112 282.057 108.04C287.792 105.235 301.132 100.707 306.378 98.6947C307.463 98.2794 308.275 97.8677 308.308 99.1529C308.555 109.256 302.197 134.439 298.998 143.796C298.033 146.615 298.783 146.874 289.085 150.793C283.271 153.141 262.654 160.494 257.182 160.502L257.18 160.503ZM279.15 162.12C278.955 162.193 278.662 161.832 278.714 161.59C279 160.283 287.536 161.166 303.138 147.939C309.38 142.645 314.832 128.36 316.91 124.587C318.401 121.868 318.729 122.02 318.901 122.099C319.067 122.174 319.458 122.351 318.226 125.724C314.394 136.24 310.096 143.983 305.456 148.734C298.873 155.475 289.532 160.228 279.152 162.118L279.15 162.12ZM304.758 220.827C275.855 243.168 273.535 241.301 303.718 217.782C314.675 209.246 318.314 197.197 315.169 179.865C314.524 176.309 311.419 158.459 313.595 156.295C313.663 156.225 313.785 156.223 313.857 156.304C314.65 157.224 313.534 156.377 316.805 172.002C320.308 188.72 323.927 206.007 304.756 220.823L304.758 220.827ZM331.329 79.9874C331.204 80.5477 322.882 91.7011 319.209 98.956C315.255 106.762 315.111 115.879 312.011 119.074C311.977 119.11 311.931 119.128 311.882 119.128C311.632 119.104 311.173 118.542 312.405 114.275C316.219 101.074 314.229 99.9548 325.701 85.1569C325.748 85.0961 330.443 79.1765 331.196 79.5417C331.334 79.6079 331.379 79.7583 331.329 79.9874Z" fill="#E2E1E7"/>
<path d="M66.6863 274.104C68.9417 274.212 69.1601 274.545 69.4734 273.881C69.8618 273.056 75.835 261.025 78.9299 255.632C84.2534 246.358 85.0124 244.917 86.0702 245.676C98.3926 254.542 108.923 270.047 110.103 269.47C114.943 267.107 134.515 259.861 147.87 256.505C151.26 255.653 152.386 255.42 153.054 256.79C154.686 260.137 149.114 275.098 148.062 278.026C140.655 298.627 134.198 310.912 130.963 316.647C128.794 320.492 129.954 321.758 118.079 325.436C96.454 332.136 60.5735 334.263 55.3145 334.13C52.8604 334.068 37.7868 318.484 20.6511 284.533C16.9995 277.3 16.6773 276.743 22.0634 275.644C33.8183 273.245 54.8222 273.535 66.6899 274.104H66.6863ZM54.2208 331.259C67.2484 311.972 91.6533 297.224 90.8012 296.607C89.8794 295.937 24.0521 278.381 20.3682 278.318C20.7799 282.829 50.4206 327.638 54.219 331.259H54.2208ZM151.228 258.753C150.874 258.279 151.139 258.612 140.386 265.48C114.424 282.065 116.312 281.44 102.638 291.238C102.599 291.265 95.7935 296.336 95.7559 296.372C95.2547 296.83 95.8687 296.727 98.2494 298.087C104.933 301.91 116.617 310.035 126.796 318.806C127.181 319.137 147.249 277.944 151.228 258.753ZM57.5985 331.664C64.7889 331.087 86.072 330.219 112.059 324.275C124.978 321.319 125.525 321.124 124.858 320.612C112.698 311.292 103.986 304.74 94.0232 298.092C93.2141 297.552 93.1944 297.537 92.4713 298.135C82.3023 306.545 71.2132 316.254 62.061 325.76C55.6026 332.469 56.2757 331.574 57.5985 331.664ZM93.5489 294.942C94.3579 294.568 93.6616 295.071 96.1193 292.726C96.4809 292.38 96.3645 292.275 95.8973 290.451C89.3835 265.002 92.5071 275.071 85.2576 249.589C84.8459 248.142 67.934 284.719 67.9179 284.759C66.7758 287.444 67.0032 287.046 69.0849 287.585C69.6416 287.73 89.8668 293.546 93.5489 294.942ZM113.88 279.313C111.635 276.176 94.997 257.364 89.5088 251.337C86.0094 247.494 87.4467 249.136 89.1705 254.216C98.2655 281.025 97.8162 291.544 99.3896 290.202C102.528 287.528 113.708 279.605 113.88 279.313ZM32.2521 277.377C22.6039 277.727 27.7574 276.467 63.7901 286.123C65.0807 286.468 64.1016 286.235 68.0646 277.028C66.3802 276.875 46.3967 276.865 32.2539 277.378L32.2521 277.377ZM117.766 269.424C111.182 271.849 111.349 271.516 111.723 271.99C116.307 277.813 116.194 278.041 116.754 277.656C145.328 258.048 162.099 253.09 117.766 269.424Z" fill="#E2E1E7"/>
<path d="M276.041 222.576C273.587 234.689 273.517 233.613 272.416 235.525C271.81 236.579 265.324 239.985 263.946 240.635C252.712 245.924 242.457 248.81 231.339 251.617C215.92 255.51 216.966 255.367 213.529 253.285C201.087 245.751 177.917 228.658 167.556 216.431C167.155 215.956 167.189 214.78 167.669 214.374C172.155 210.556 201.803 201.898 216.713 199.438C217.911 199.241 216.769 199.188 226.614 178.509C228.363 174.835 230.131 177.391 243.864 190.88C244.75 191.752 244.627 191.782 245.257 191.424C252.796 187.143 270.782 181.44 278.613 179.687C282.68 178.778 282.646 178.735 282.646 182.453C283.001 182.483 281.658 194.834 276.039 222.578L276.041 222.576ZM173.048 218.065C173.028 218.111 200.972 243.048 216.228 252.317C217.803 253.274 214.198 252.317 227.296 231.92C235.598 218.99 240.968 215.058 239.296 214.957C222.613 213.951 173.186 217.727 173.048 218.065ZM280.897 182.616C280.897 180.964 281.014 181.196 277.939 184.008C271.355 190.025 248.899 208.121 244.149 213.119C243.27 214.045 244.614 213.255 253.074 219.364C261.959 225.782 270.363 234.281 270.403 234.316C270.856 234.73 271.099 234.728 271.57 234.32C272.191 233.783 278.993 196.513 280.899 182.616H280.897ZM269.465 235.378C269.13 235.023 243.29 214.224 242.053 215.627C239.634 218.373 241.849 215.475 236.321 223.238C229.417 232.931 229.895 231.433 218.783 251.878C218.097 253.138 218.611 252.709 221.656 251.908C237.139 247.84 242.239 245.72 249.619 243.252C260.017 239.774 268.654 235.956 269.463 235.378H269.465ZM239.81 212.838C240.751 212.811 240.615 214.743 228.191 182.381C227.144 179.655 227.434 180.453 224.861 187.238C215.772 211.227 216.715 209.543 215.906 211.37C215.183 213.003 215.502 212.256 221.521 212.28C228.696 212.306 237.9 212.892 239.81 212.838ZM212.138 212.46C213.515 212.417 213.013 212.199 213.246 211.143C215.459 201.14 218.394 200.838 213.592 202.138C207.984 203.654 174.82 213.057 172.067 214.691C173.728 215.285 186.883 213.253 212.136 212.462L212.138 212.46ZM241.789 212.682C242.661 212.006 244.748 209.314 249.418 205.096C253.024 201.84 252.662 203.365 248.457 199.136C224.289 174.811 228.943 177.86 233.23 189.033C242.239 212.521 241.004 211.857 241.789 212.682ZM275.563 182.868C274.505 183.004 258.256 188.637 257.792 188.802C245.778 193.102 245.574 192.702 246.728 193.92C253.697 201.266 253.417 201.456 254.031 200.919C270.967 186.126 276.36 183.366 275.563 182.868Z" fill="#E2E1E7"/>
<path d="M308.485 99.1526C308.451 97.8119 307.627 98.0285 306.528 98.4455C297.294 101.965 287.161 105.346 281.977 107.881C279.772 108.958 279.607 109.703 278.871 109.144C276.725 107.514 265.008 98.5583 262.391 98.1269C261.256 97.9407 261.107 97.9175 256.412 115.676C256.331 115.986 256.294 116 255.42 116.07C250.607 116.442 227.53 120.783 219.654 124.367C218.783 124.764 218.468 125.961 219.393 126.998C233.131 142.428 253.612 160.686 257.18 160.684C262.727 160.68 283.357 153.302 289.151 150.961C298.824 147.055 298.16 146.786 299.157 143.876C301.294 138.651 308.748 109.855 308.485 99.1526ZM226.539 124.007C230.074 122.725 246.046 119.761 249.721 119.066C253.475 118.357 255.463 117.597 255.775 117.91C256.031 118.17 255.508 119.557 254.989 121.936C254.427 124.488 254.817 124.372 253.77 124.365C253.639 124.112 226.718 124.014 226.539 124.007ZM256.616 158.393C248.978 152.663 234.359 138.962 226.324 131.306C223.111 128.242 220.957 126.534 221.024 126.203C221.53 125.433 270.068 127.904 272.069 127.726C274.489 127.512 272.212 127.141 262.172 146.815C256.412 158.101 257.337 158.935 256.616 158.393ZM267.719 113.2C273.082 125.079 273.508 125.047 273.447 125.353C273.186 125.525 270.32 124.95 263.823 124.75C259.194 124.605 258.147 124.44 257.2 124.377C256.958 124.035 258.238 119.011 261.252 104.977C261.87 102.104 261.997 101.521 262.136 101.329C262.754 102.194 265.609 108.523 267.719 113.2ZM282.007 118.538C281.361 119.145 275.816 124.383 275.286 124.982C274.994 125.312 275.157 125.863 271.84 117.912C271.359 116.757 265.131 102.113 265.054 101.897C267.07 103.076 274.265 108.652 284.003 116.201C284.27 116.406 284.587 116.109 282.005 118.538H282.007ZM274.307 128.824C274.795 128.21 275.017 128.077 275.118 128.077C275.182 128.077 275.252 128.152 275.357 128.276C275.438 128.369 275.531 128.475 275.653 128.568C285.045 135.701 294.884 144.085 296.232 145.356C293.465 147.354 262.639 157.868 259.401 158.491C260.538 154.691 274.185 128.997 274.307 128.824ZM277.097 126.694C276.666 126.477 276.403 126.701 279.07 124.331C285.238 118.834 286.94 117.226 296.633 109.168C306.917 100.619 306.314 100.49 306.688 100.354C306.677 101.277 306.104 105.069 305.195 110.208C304.087 116.467 298.182 139.768 296.825 143.299C295.935 142.345 293.254 138.794 288.281 135.031C287.064 134.109 280.251 128.296 277.099 126.695L277.097 126.694ZM292.779 105.792C295.429 104.716 301.951 101.941 302.521 101.757C302.053 102.19 300.885 103.091 299.386 104.247C285.777 114.738 286.305 115.182 285.755 114.709C285.12 114.169 281.316 111.056 281.23 110.993C280.552 110.487 280.16 110.909 292.779 105.792Z" fill="#E2E1E7"/>
<path d="M210.49 70.1086C210.223 69.849 209.765 69.926 208.889 69.9421C208.83 69.9421 204.69 70.8174 199.809 72.2584C184.212 76.8676 184.604 78.6683 183.845 77.8503C180.163 73.8855 179.626 73.2303 176.146 70.0441C175.18 69.1581 173.522 67.6974 173.179 67.8371C172.221 68.2255 172.072 68.0143 170.887 70.4236C168.471 75.3336 167.243 77.7465 165.295 82.3915C164.821 83.521 165.031 82.9124 152.214 85.8445C146.384 87.1798 136.86 90.0008 132.27 92.0289C131.071 92.5587 130.204 92.9418 130.077 93.7061C129.877 94.9412 131.549 96.8351 138.215 102.916C143.925 108.13 155.991 117.465 162.41 121.238C164.343 122.373 164.995 121.94 167.153 121.498C173.231 120.245 191.725 116.432 201.864 110.051C203.99 108.717 204.187 107.818 207.312 92.7664C207.676 91.0122 211.773 71.358 210.488 70.1104L210.49 70.1086ZM180.571 92.761C180.537 92.7914 180.471 92.8505 180.471 92.8505C164.413 91.8141 165.211 92.5176 164.046 92.2652C163.944 91.9251 165.125 88.9895 172.189 71.0412C172.328 70.8067 179.295 89.1613 180.571 92.761ZM171.727 94.3129C187.57 94.4132 178.056 91.7998 166.382 114.343C163.885 119.162 164.316 119.665 164.091 119.699C161.626 120.071 136.892 98.4496 134.524 95.9651C138.179 95.4747 171.181 94.3094 171.727 94.3129ZM194.902 76.1248C200.476 74.2363 204.516 72.747 205.272 72.747C204.749 73.5597 199.606 77.1236 191.727 83.5354C190.327 84.6738 190.332 85.0103 189.897 84.5163C188.789 83.2615 186.33 80.4404 185.859 79.9464C185.177 79.2286 183.922 79.8444 194.902 76.1248ZM187.59 87.1637C181.549 92.5784 182.093 93.3642 181.776 92.1757C180.204 86.3188 175.556 73.9105 174.466 71.4636C174.203 70.8711 173.936 70.6688 176.018 72.824C176.512 73.3359 188.111 85.1356 188.865 85.968C188.575 86.2812 188.152 86.6607 187.59 87.1637ZM166.729 117.98C170.932 110.675 176.121 101.899 182.091 95.19C182.293 94.9573 182.449 94.9305 182.7 95.1005C192.366 101.623 196.542 105.735 200.476 108.748C199.614 110.145 176.927 117.597 165.822 120.118C165.56 120.118 165.376 120.331 166.729 117.98ZM183.629 93.3965C183.537 92.8469 192.142 86.0467 195.42 83.385C206.455 74.4189 208.401 72.33 209.161 71.92C209.217 75.3944 203.691 101.179 203.066 104.641C202.692 106.727 202.467 107.985 202.091 108.098C201.756 108.203 200.985 107.414 199.821 106.218C189.781 95.8935 183.713 93.8959 183.629 93.3965ZM164.014 85.3379C163.085 87.9781 162.313 89.4835 161.918 91.9519C161.828 92.5033 161.771 92.1864 157.709 92.3225C157.008 92.4227 156.39 92.2437 141.691 93.1047C137.604 93.3446 134.559 93.5218 133.838 93.3786C134.717 92.8505 140.105 91.4114 149.431 88.9071C164.963 84.7364 164.198 84.8063 164.014 85.3379Z" fill="#E2E1E7"/>
<path d="M284.47 38.4164C278.203 40.1921 275.74 41.0513 269.082 43.3031C265.376 44.5561 265.265 45.4923 264.422 44.7602C263.135 43.6468 253.643 35.701 252.383 36.1467C251.293 36.5441 248.26 48.9309 247.383 49.1546C243.503 49.4589 227.495 51.2042 220.082 54.1666C219.463 54.4137 219.284 54.8343 219.62 55.4877C220.623 57.4388 242.625 83.2166 248.166 82.309C255.564 81.1187 269.139 77.3382 276.789 73.8173C277.692 73.3984 277.794 73.103 279.505 68.1823C284.726 53.1589 285.655 47.6278 286.912 39.3938C286.912 37.1885 286.403 37.8633 284.472 38.4129L284.47 38.4164ZM259.46 58.7097C256.102 63.4603 249.25 74.1502 246.861 80.0232C246.832 80.093 246.701 80.5316 246.637 80.5459C245.425 80.6909 221.65 56.2019 221.239 55.5378C221.366 55.5181 221.677 55.5253 221.933 55.527C222.176 55.7562 222.178 55.2478 237.039 56.6512C254.556 58.3033 258.705 58.4877 259.459 58.7079L259.46 58.7097ZM259.863 56.7067C259.267 56.823 256.297 56.0103 249.682 55.6452C248.003 55.5521 248.031 55.5736 248.149 55.1028C249.966 48.0448 252.107 40.1778 252.184 39.8323C252.288 39.3651 252.408 38.8353 252.465 38.7691C253.018 38.9731 258.456 53.524 259.587 56.0247C259.72 56.3182 259.847 56.5975 259.863 56.7067ZM268.359 45.4082C276.279 42.5836 281.01 40.7363 282.091 40.5626C281.34 41.3198 277.419 43.8634 271.484 48.1111C269.535 49.5073 270.174 50.0693 268.086 48.0771C266.198 46.2745 266.336 46.4643 266.182 46.2853C266.295 46.1063 267.807 45.6033 268.359 45.4064V45.4082ZM266.674 51.8898C262.546 55.1511 261.517 56.6512 261.218 56.6512C261.08 56.5742 254.848 39.6336 254.776 39.3848C256.822 40.5734 266.896 49.3444 268.176 50.567C267.986 50.7782 267.574 51.1756 266.674 51.8898ZM256.698 66.0075C260.984 58.7956 260.744 58.5879 261.446 59.1876C268.324 65.1125 271.475 68.1519 275.825 72.1794C276.242 72.5643 276.809 72.4694 266.823 75.575C252.957 79.8925 251.386 79.9426 248.575 80.7965C248.722 79.4611 252.775 72.6269 256.7 66.0057L256.698 66.0075ZM262.494 57.7341C266.04 54.4423 279.482 44.5615 284.354 40.5662C285.557 39.5799 285.403 39.6999 285.398 39.8824C285.278 44.4666 276.877 70.4789 276.628 70.8673C276.476 70.6883 275.015 68.1304 268.668 62.6548C264.301 58.6846 262.942 58.1279 262.494 57.7341ZM247.224 50.7531C246.42 53.7818 246.161 55.178 245.942 55.2908C245.892 55.3212 245.72 55.2335 245.661 55.2317C242.885 55.0885 240.959 54.8272 240.2 54.7931C232.387 54.4244 226.705 54.2919 225.515 54.0163C226.75 53.5688 233.409 52.6702 246.529 50.6761C247.072 50.5938 247.199 50.6385 247.229 50.6708C247.229 50.6708 247.238 50.6958 247.224 50.7531Z" fill="#E2E1E7"/>
<path d="M355.957 20.7056C355.703 19.4831 356.577 16.5582 354.848 17.0809C354.04 17.3297 342.305 22.9091 338.117 25.6604C337.71 25.9271 337.701 25.9235 334.8 23.1329C329.192 17.7342 328.857 17.3351 328.254 17.489C327.275 17.7306 326.691 20.2259 324.006 27.9838C323.589 29.1938 320.283 28.1789 308.497 30.1139C303.009 31.0143 300.444 31.5871 299.757 32.5877C299.055 33.6026 299.972 34.6909 307.919 43.5425C311.521 47.5538 310.832 46.6893 317.533 53.1959C320.788 56.3571 321.174 56.7652 322.647 56.4537C338.392 53.1243 343.531 50.5575 350.702 46.9023C353.269 45.2519 356.308 22.3166 355.956 20.7039L355.957 20.7056ZM339.139 26.72C341.326 25.4832 348.436 21.3214 350.63 20.3763C348.824 22.1555 341.849 28.4062 340.864 29.2028C340.807 29.1616 340.75 29.1204 340.701 29.0721C338.65 26.9742 338.553 27.0584 339.139 26.72ZM339.839 30.1193C339.523 30.7368 339.645 30.2016 334.966 35.1474C334.463 35.6808 334.436 35.6951 334.123 35.5967C332.768 35.1706 332.458 35.5877 332.356 35.006C329.788 20.3906 329.265 20.6519 329.249 19.8124C330.754 21.1156 338.786 29.0614 339.839 30.1193ZM324.869 30.0244C326.721 24.1496 327.665 20.6126 328.06 20.2331C328.295 20.5499 328.884 24.368 330.484 32.0005C331.202 35.423 331.123 35.1241 330.928 35.1169C325.06 34.2649 324.013 34.204 323.899 34.025C323.725 33.7476 324.079 32.534 324.869 30.0244ZM323.442 29.8812C322.669 33.9015 322.472 33.8675 322.053 33.8138C316.628 33.1193 306.94 32.3227 305.854 32.1885C311.433 30.9319 322.028 29.6861 323.442 29.8812ZM321.668 54.0695C321.514 54.4203 321.38 54.7246 321.337 54.7604C320.628 54.6064 302.753 35.7005 301.55 33.4129C301.919 33.2589 301.57 33.2929 320.172 35.4481C334.064 37.0573 333.294 37.009 333.205 37.2184C333.131 37.3974 325.078 46.2973 321.666 54.0677L321.668 54.0695ZM349.581 46.1863C341.756 50.1207 325.918 54.2556 322.601 55.0987C322.853 53.0921 334.633 37.3061 334.855 37.3061C335.65 37.3061 349.732 46.1111 349.581 46.1863ZM351.658 39.5973C350.822 44.5055 350.829 44.7614 350.716 44.808C350.315 44.808 344.516 40.2453 336.992 36.7029C336.461 36.4523 336.04 36.2554 335.997 36.1873C336.049 36.0048 352.143 20.6502 354.561 18.7796C354.819 21.0243 352.778 33.019 351.66 39.5955L351.658 39.5973Z" fill="#E2E1E7"/>
<path d="M121.244 116.504V117.926H109.869V116.504H121.244ZM111.168 120.961C111.168 119.498 112.809 118.671 115.529 118.678C118.229 118.671 119.85 119.498 119.863 120.961C119.85 122.431 118.229 123.265 115.529 123.258C112.809 123.265 111.168 122.431 111.168 120.961ZM111.25 115.629V111.145H119.877V112.553H112.986V114.248H119.945V115.629H111.25ZM112.945 120.961C112.938 121.617 113.807 121.932 115.529 121.932C117.218 121.932 118.106 121.617 118.113 120.961C118.106 120.332 117.218 120.004 115.529 120.004C113.807 120.004 112.938 120.332 112.945 120.961ZM133.484 117.488V118.883H122.095V117.488H126.921V116.586H123.517V113.168H130.353V112.402H123.49V111.049H132.103V114.426H125.253V115.246H132.335V116.586H128.658V117.488H133.484ZM123.367 120.961V119.594H132.171V123.203H130.408V120.961H123.367ZM141.608 114.631V116.025H139.38V117.283C140.364 117.235 141.342 117.174 142.264 117.078L142.387 118.322C139.749 118.691 136.939 118.76 134.635 118.76L134.403 117.379C135.401 117.379 136.502 117.365 137.63 117.338V116.025H135.456V111.568H141.499V112.963H137.206V114.631H141.608ZM136.331 123.039V119.471H138.094V121.645H145.135V123.039H136.331ZM143.03 120.182V110.803H144.807V120.182H143.03ZM154.535 113.633C154.528 115.861 155.478 118.11 157.474 119.074L156.421 120.469C155.088 119.806 154.186 118.575 153.673 117.078C153.126 118.685 152.169 120.004 150.761 120.701L149.681 119.293C151.793 118.322 152.785 115.943 152.785 113.633V111.773H154.535V113.633ZM158.021 123.258V110.816H159.771V115.615H161.603V117.092H159.771V123.258H158.021ZM167.048 113.277C167.041 114.761 167.971 116.278 170.014 116.9L169.126 118.268C167.731 117.823 166.754 116.928 166.193 115.807C165.626 117.037 164.614 118.015 163.151 118.5L162.249 117.133C164.32 116.47 165.27 114.85 165.27 113.277V113.1H162.714V111.705H169.55V113.1H167.048V113.277ZM164.272 123.039V119.006H166.036V121.645H172.94V123.039H164.272ZM170.862 119.826V110.83H172.612V119.826H170.862ZM184.852 110.816V123.285H183.088V110.816H184.852ZM174.803 116.121C174.796 113.407 176.184 111.691 178.098 111.691C179.971 111.691 181.365 113.407 181.365 116.121C181.365 118.855 179.971 120.564 178.098 120.564C176.184 120.564 174.796 118.855 174.803 116.121ZM176.485 116.121C176.478 117.974 177.127 118.985 178.098 118.979C179.041 118.985 179.677 117.974 179.684 116.121C179.677 114.275 179.041 113.264 178.098 113.264C177.127 113.264 176.478 114.275 176.485 116.121ZM193.39 111.691C195.29 111.691 196.664 113.407 196.671 116.121C196.664 118.855 195.29 120.564 193.39 120.564C191.482 120.564 190.101 118.855 190.108 116.121C190.101 113.407 191.482 111.691 193.39 111.691ZM191.79 116.121C191.79 117.974 192.439 118.985 193.39 118.979C194.36 118.985 194.996 117.974 195.003 116.121C194.996 114.275 194.36 113.264 193.39 113.264C192.439 113.264 191.79 114.275 191.79 116.121ZM198.106 123.258V110.816H199.856V115.506H201.688V116.955H199.856V123.258H198.106ZM212.698 110.816V118.309H210.948V110.816H212.698ZM202.334 116.764C204.392 116.101 205.342 114.487 205.356 112.936H202.799V111.541H209.635V112.936H207.133C207.14 114.398 208.07 115.916 210.1 116.531L209.211 117.885C207.817 117.447 206.839 116.552 206.279 115.424C205.711 116.654 204.699 117.632 203.237 118.117L202.334 116.764ZM204.139 120.25V118.855H212.698V123.258H210.948V120.25H204.139ZM220.88 118.09V119.334H222.22V118.09H223.833V121.87C225.214 121.241 225.802 120.079 225.802 118.951V117.994H227.552V118.951C227.545 120.223 228.153 121.426 229.712 121.932L228.81 123.23C227.736 122.861 227.046 122.15 226.649 121.255C226.239 122.123 225.556 122.841 224.544 123.23L223.833 122.157V123.121H219.267V118.09H220.88ZM218.05 114.207C218.036 112.498 219.444 111.288 221.358 111.281C222.937 111.288 224.202 112.163 224.544 113.482H226.636V110.816H228.372V117.406H226.636V114.918H224.551C224.216 116.265 222.944 117.16 221.358 117.16C219.444 117.16 218.036 115.943 218.05 114.207ZM219.704 114.207C219.697 115.15 220.381 115.731 221.358 115.738C222.302 115.731 222.978 115.15 222.985 114.207C222.978 113.291 222.302 112.724 221.358 112.717C220.381 112.724 219.697 113.291 219.704 114.207ZM220.88 121.795H222.22V120.619H220.88V121.795ZM232.354 112.006V118.78C233.495 118.76 234.548 118.678 235.717 118.432L235.95 119.895C234.418 120.229 233.078 120.284 231.479 120.277H230.604V112.006H232.354ZM234.104 116.162V114.754H236.592V111.049H238.246V122.711H236.592V116.162H234.104ZM239.272 123.258V110.816H240.912V123.258H239.272ZM253.754 120.373V121.809H242.365V120.373H244.908V117.324C243.944 116.743 243.363 115.861 243.363 114.768C243.363 112.751 245.332 111.425 248.039 111.418C250.732 111.425 252.721 112.751 252.728 114.768C252.721 115.841 252.161 116.709 251.224 117.29V120.373H253.754ZM245.086 114.768C245.086 115.984 246.255 116.736 248.039 116.736C249.796 116.736 250.999 115.984 251.006 114.768C250.999 113.517 249.796 112.792 248.039 112.799C246.255 112.792 245.086 113.517 245.086 114.768ZM246.631 120.373H249.461V117.953C249.016 118.042 248.538 118.09 248.039 118.09C247.54 118.09 247.068 118.042 246.631 117.96V120.373ZM256.218 122.123C255.575 122.123 255.056 121.61 255.069 120.975C255.056 120.346 255.575 119.833 256.218 119.84C256.826 119.833 257.353 120.346 257.353 120.975C257.353 121.61 256.826 122.123 256.218 122.123ZM260.309 122.123C259.666 122.123 259.147 121.61 259.161 120.975C259.147 120.346 259.666 119.833 260.309 119.84C260.917 119.833 261.444 120.346 261.444 120.975C261.444 121.61 260.917 122.123 260.309 122.123ZM264.4 122.123C263.758 122.123 263.238 121.61 263.252 120.975C263.238 120.346 263.758 119.833 264.4 119.84C265.009 119.833 265.535 120.346 265.535 120.975C265.535 121.61 265.009 122.123 264.4 122.123Z" fill="#242424"/>
<path d="M147.25 139.461V140.387H142.961V143.996H141.871V140.387H137.641V139.461H147.25ZM138.684 136.227C138.689 134.797 140.201 133.895 142.422 133.895C144.643 133.895 146.166 134.797 146.16 136.227C146.166 137.639 144.643 138.535 142.422 138.535C140.201 138.535 138.689 137.639 138.684 136.227ZM139.832 136.227C139.826 137.1 140.863 137.645 142.422 137.645C143.986 137.645 145.018 137.1 145.023 136.227C145.018 135.342 143.986 134.791 142.422 134.785C140.863 134.791 139.826 135.342 139.832 136.227ZM156.682 133.496V144.02H155.569V133.496H156.682ZM148.549 135.348V134.445H153.471V138.277H149.698V140.574C151.403 140.568 152.885 140.486 154.643 140.199L154.749 141.113C152.891 141.424 151.309 141.494 149.452 141.5H148.561V137.387H152.334V135.348H148.549ZM170.754 141.758V142.684H161.144V141.758H165.375V139.332H162.246V134.34H169.605V139.332H166.476V141.758H170.754ZM163.324 138.453H168.515V135.23H163.324V138.453ZM180.162 133.508V139.484H179.049V133.508H180.162ZM171.666 136.52C171.672 135.037 172.856 134.029 174.467 134.035C176.072 134.029 177.256 135.037 177.256 136.52C177.256 137.961 176.072 138.98 174.467 138.98C172.856 138.98 171.672 137.961 171.666 136.52ZM172.756 136.52C172.75 137.422 173.471 138.043 174.467 138.043C175.451 138.043 176.166 137.422 176.166 136.52C176.166 135.588 175.451 134.967 174.467 134.973C173.471 134.967 172.75 135.588 172.756 136.52ZM173.26 143.867V140.012H180.162V143.867H173.26ZM174.361 142.965H179.072V140.902H174.361V142.965ZM186.548 133.672C188.915 133.666 190.292 134.305 190.298 135.477C190.292 136.654 188.915 137.293 186.548 137.293C184.18 137.293 182.792 136.654 182.798 135.477C182.792 134.305 184.18 133.666 186.548 133.672ZM181.766 138.828V137.938H191.341V138.828H181.766ZM182.915 140.469V139.637H190.134V142.098H184.016V143.035H190.426V143.891H182.926V141.289H189.032V140.469H182.915ZM183.958 135.477C183.952 136.127 184.878 136.461 186.548 136.461C188.229 136.461 189.155 136.127 189.149 135.477C189.155 134.855 188.229 134.492 186.548 134.492C184.878 134.492 183.952 134.855 183.958 135.477ZM203.959 133.496V143.996H202.892V138.57H201.533V143.457H200.514V133.707H201.533V137.656H202.892V133.496H203.959ZM195.299 141.477V134.762H199.236V135.664H196.412V140.527C197.701 140.521 198.674 140.463 199.799 140.246L199.881 141.16C198.621 141.424 197.531 141.465 196.002 141.477H195.299ZM214.868 141.84V142.754H205.258V141.84H207.836V139.508H206.102V138.605H207.672V135.336H206.079V134.422H213.989V135.336H212.383V138.605H213.954V139.508H212.231V141.84H214.868ZM208.774 138.605H211.293V135.336H208.774V138.605ZM208.95 141.84H211.118V139.508H208.95V141.84ZM223.749 133.496V137.75H225.436V138.676H223.749V143.996H222.647V133.496H223.749ZM215.511 136.051V135.137H218.101V133.637H219.214V135.137H221.733V136.051H215.511ZM216.05 139.262C216.05 137.832 217.151 136.824 218.663 136.824C220.169 136.824 221.27 137.832 221.276 139.262C221.27 140.703 220.169 141.705 218.663 141.711C217.151 141.705 216.05 140.703 216.05 139.262ZM217.116 139.262C217.11 140.176 217.767 140.785 218.663 140.773C219.554 140.785 220.204 140.176 220.21 139.262C220.204 138.365 219.554 137.744 218.663 137.738C217.767 137.744 217.11 138.365 217.116 139.262ZM234.376 136.566V137.457H227.146V133.871H228.248V136.566H234.376ZM225.869 139.672V138.781H235.478V139.672H225.869ZM227.064 143.75V140.668H228.177V142.836H234.447V143.75H227.064ZM96.5952 151.496V158.621H95.4819V155.023H93.1967V156.992H88.3217V152.258H93.1967V154.109H95.4819V151.496H96.5952ZM89.0952 161.07C91.0463 160.754 92.5815 159.576 92.5873 158.258V157.895H93.7241V158.258C93.7182 159.617 95.2241 160.766 97.228 161.07L96.7827 161.949C95.142 161.68 93.7768 160.865 93.1498 159.717C92.5112 160.854 91.1401 161.68 89.4936 161.949L89.0952 161.07ZM89.4233 156.09H92.1069V153.172H89.4233V156.09ZM102.043 153.688C102.043 155.047 103.045 156.324 104.668 156.84L104.094 157.707C102.887 157.309 101.979 156.482 101.498 155.434C101.029 156.576 100.092 157.479 98.8437 157.918L98.2695 157.039C99.9043 156.482 100.912 155.123 100.918 153.688V153.23H98.5625V152.328H104.352V153.23H102.043V153.688ZM99.9922 161.773V158.445H101.117V160.871H107.176V161.773H99.9922ZM105.746 159.172V151.508H106.859V159.172H105.746ZM120.251 151.496V157.59H119.138V154.59H117.638V153.688H119.138V151.496H120.251ZM111.216 156.277C112.417 155.551 112.821 154.08 112.821 152.996V152.094H113.876V152.996C113.876 153.846 114.052 155.041 114.802 155.885C115.534 155.059 115.704 153.881 115.704 152.996V152.094H116.747V152.996C116.753 154.191 117.163 155.58 118.388 156.277L117.755 157.074C116.982 156.629 116.507 155.891 116.243 155.053C116.003 155.908 115.558 156.711 114.79 157.18C114.005 156.688 113.566 155.867 113.331 155C113.067 155.844 112.593 156.611 111.825 157.074L111.216 156.277ZM113.114 161.844V158.082H120.251V161.844H113.114ZM114.204 160.965H119.15V158.961H114.204V160.965ZM123.238 152.586V158.422C124.316 158.404 125.33 158.34 126.496 158.094L126.648 159.043C125.283 159.33 124.117 159.383 122.816 159.383H122.125V152.586H123.238ZM125.066 155.867V154.953H127.363V151.73H128.418V161.48H127.363V155.867H125.066ZM129.613 161.996V151.496H130.668V161.996H129.613ZM134.932 151.848C136.514 151.859 137.68 152.826 137.686 154.203C137.68 155.586 136.514 156.547 134.932 156.547C133.332 156.547 132.172 155.586 132.166 154.203C132.172 152.826 133.332 151.859 134.932 151.848ZM133.256 154.203C133.25 155.07 133.965 155.645 134.932 155.645C135.893 155.645 136.608 155.07 136.608 154.203C136.608 153.348 135.893 152.773 134.932 152.785C133.965 152.773 133.25 153.348 133.256 154.203ZM133.76 158.211V157.32H140.662V159.969H134.873V160.977H141.014V161.867H133.795V159.137H139.561V158.211H133.76ZM139.549 156.84V151.496H140.662V156.84H139.549ZM148.781 154.168C148.769 156.025 149.853 157.93 151.417 158.691L150.726 159.582C149.583 158.984 148.699 157.812 148.236 156.412C147.767 157.9 146.847 159.16 145.652 159.781L144.96 158.879C146.572 158.105 147.661 156.09 147.667 154.168V152.375H148.781V154.168ZM152.202 161.996V151.496H153.316V155.68H155.003V156.629H153.316V161.996H152.202ZM159.338 153.688C159.338 155.047 160.34 156.324 161.963 156.84L161.389 157.707C160.182 157.309 159.273 156.482 158.793 155.434C158.324 156.576 157.387 157.479 156.139 157.918L155.564 157.039C157.199 156.482 158.207 155.123 158.213 153.688V153.23H155.857V152.328H161.646V153.23H159.338V153.688ZM157.287 161.773V158.445H158.412V160.871H164.471V161.773H157.287ZM163.041 159.172V151.508H164.154V159.172H163.041ZM170.54 151.672C172.907 151.666 174.284 152.305 174.29 153.477C174.284 154.654 172.907 155.293 170.54 155.293C168.172 155.293 166.784 154.654 166.79 153.477C166.784 152.305 168.172 151.666 170.54 151.672ZM165.758 156.828V155.938H175.332V156.828H165.758ZM166.907 158.469V157.637H174.125V160.098H168.008V161.035H174.418V161.891H166.918V159.289H173.024V158.469H166.907ZM167.95 153.477C167.944 154.127 168.87 154.461 170.54 154.461C172.221 154.461 173.147 154.127 173.141 153.477C173.147 152.855 172.221 152.492 170.54 152.492C168.87 152.492 167.944 152.855 167.95 153.477ZM188.525 156.43V157.344H178.939V156.43H188.525ZM180.076 160.074C180.076 158.855 181.441 158.164 183.72 158.164C185.982 158.164 187.336 158.855 187.341 160.074C187.336 161.293 185.982 161.979 183.72 161.973C181.441 161.979 180.076 161.293 180.076 160.074ZM180.134 155.516V151.871H187.341V152.785H181.236V154.613H187.412V155.516H180.134ZM181.201 160.074C181.195 160.748 182.115 161.111 183.72 161.117C185.302 161.111 186.228 160.748 186.228 160.074C186.228 159.406 185.302 159.031 183.72 159.02C182.115 159.031 181.195 159.406 181.201 160.074ZM198.848 157.227V158.129H189.238V157.227H193.492V156.23H190.469V153.559H196.527V152.621H190.445V151.742H197.641V154.379H191.57V155.363H197.852V156.23H194.594V157.227H198.848ZM190.317 159.758V158.867H197.699V161.914H196.574V159.758H190.317ZM204.753 153.23V154.133H199.538V153.23H201.6V151.801H202.702V153.23H204.753ZM199.878 157.18C199.872 155.768 200.833 154.766 202.151 154.766C203.481 154.766 204.43 155.768 204.436 157.18C204.43 158.615 203.481 159.623 202.151 159.617C200.833 159.623 199.872 158.615 199.878 157.18ZM200.862 157.18C200.856 158.07 201.395 158.668 202.151 158.668C202.907 158.668 203.452 158.07 203.452 157.18C203.452 156.307 202.907 155.697 202.151 155.691C201.395 155.697 200.856 156.307 200.862 157.18ZM205.233 161.504V151.73H206.288V155.867H207.495V151.496H208.55V161.996H207.495V156.781H206.288V161.504H205.233ZM211.536 152.352V153.863H214.607V152.352H215.708V157.109H213.622V158.902C214.542 158.861 215.462 158.791 216.318 158.68L216.4 159.5C214.179 159.869 211.736 159.893 209.919 159.898L209.743 158.973C210.57 158.967 211.531 158.967 212.521 158.938V157.109H210.423V152.352H211.536ZM211.536 156.219H214.607V154.707H211.536V156.219ZM216.95 161.996V151.496H218.064V155.832H219.681V156.77H218.064V161.996H216.95ZM229.793 159.758V160.684H220.183V159.758H222.48V157.016C221.619 156.541 221.092 155.791 221.098 154.848C221.092 153.195 222.715 152.111 224.965 152.105C227.221 152.111 228.844 153.195 228.844 154.848C228.844 155.773 228.34 156.518 227.496 156.992V159.758H229.793ZM222.176 154.848C222.176 155.973 223.318 156.705 224.965 156.711C226.599 156.705 227.76 155.973 227.765 154.848C227.76 153.717 226.599 152.996 224.965 152.996C223.318 152.996 222.176 153.717 222.176 154.848ZM223.582 159.758H226.371V157.426C225.943 157.525 225.469 157.578 224.965 157.578C224.473 157.578 224.004 157.525 223.582 157.426V159.758ZM232.428 152.516L232.323 158.551H231.162L231.057 152.516H232.428ZM230.916 160.25C230.911 159.793 231.291 159.418 231.748 159.418C232.2 159.418 232.575 159.793 232.58 160.25C232.575 160.707 232.2 161.076 231.748 161.082C231.291 161.076 230.911 160.707 230.916 160.25ZM237.218 157.766C237.23 155.557 237.857 153.723 238.953 152.152H240.101C239.292 153.312 238.519 155.674 238.519 157.766C238.519 159.863 239.292 162.225 240.101 163.391H238.953C237.857 161.814 237.23 159.98 237.218 157.766ZM244.4 152.516V161H243.1V153.805H243.053L241.025 155.129V153.898L243.135 152.516H244.4ZM247.516 152.516L249.532 155.82H249.602L251.63 152.516H253.118L250.469 156.758L253.141 161H251.63L249.602 157.73H249.532L247.493 161H245.993L248.7 156.758L246.005 152.516H247.516ZM257.3 152.516V161H255.999V153.805H255.952L253.925 155.129V153.898L256.034 152.516H257.3ZM267 154.754C266.918 153.963 266.227 153.512 265.254 153.512C264.217 153.512 263.561 154.045 263.555 154.766C263.555 155.568 264.428 155.885 265.102 156.043L265.922 156.266C267.006 156.529 268.366 157.121 268.371 158.656C268.366 160.092 267.223 161.141 265.219 161.141C263.321 161.141 262.125 160.191 262.043 158.645H263.332C263.409 159.57 264.229 160.01 265.219 160.016C266.303 160.01 267.088 159.465 267.094 158.633C267.088 157.895 266.385 157.596 265.489 157.355L264.481 157.086C263.116 156.711 262.272 156.02 262.266 154.836C262.272 153.371 263.573 152.398 265.289 152.398C267.012 152.398 268.213 153.383 268.254 154.754H267ZM269.589 161V154.637H270.843V161H269.589ZM269.425 152.914C269.431 152.504 269.788 152.176 270.222 152.176C270.649 152.176 271.007 152.504 271.007 152.914C271.007 153.324 270.649 153.658 270.222 153.652C269.788 153.658 269.431 153.324 269.425 152.914ZM272.165 161V160.145L275.611 155.773V155.715H272.283V154.637H277.169V155.539L273.865 159.863V159.922H277.287V161H272.165ZM281.094 161.129C279.219 161.129 278.064 159.834 278.07 157.859C278.064 155.902 279.236 154.555 281.012 154.555C282.459 154.555 283.836 155.451 283.836 157.754V158.199H279.312C279.348 159.412 280.062 160.098 281.105 160.098C281.814 160.098 282.277 159.793 282.488 159.406H283.754C283.473 160.438 282.494 161.129 281.094 161.129ZM279.318 157.262H282.605C282.605 156.295 281.979 155.58 281.023 155.586C280.021 155.58 279.371 156.365 279.318 157.262ZM287.526 157.766C287.514 159.98 286.887 161.814 285.792 163.391H284.643C285.452 162.225 286.225 159.863 286.225 157.766C286.225 155.674 285.452 153.312 284.643 152.152H285.792C286.887 153.723 287.514 155.557 287.526 157.766Z" fill="#4F4E55"/>
</svg>
