<svg width="24" height="24" viewBox="0 0 24 24" fill="none" xmlns="http://www.w3.org/2000/svg">
<g id="Icons 24 / GearSix">
<path id="Vector" d="M11.7485 15.8555C13.8196 15.8555 15.4985 14.1765 15.4985 12.1055C15.4985 10.0344 13.8196 8.35547 11.7485 8.35547C9.67747 8.35547 7.99854 10.0344 7.99854 12.1055C7.99854 14.1765 9.67747 15.8555 11.7485 15.8555Z" stroke="#242424" stroke-width="2" stroke-linecap="round" stroke-linejoin="round"/>
<path id="Vector_2" d="M11.9406 19.4283C11.8149 19.4283 11.6884 19.4283 11.5656 19.4283L8.56088 21.1055C7.39118 20.712 6.30626 20.1013 5.36306 19.3055L5.35181 15.9305C5.28525 15.8255 5.22244 15.7195 5.16431 15.6108L2.1765 13.9092C1.94117 12.7189 1.94117 11.4939 2.1765 10.3036L5.1615 8.60672C5.22244 8.49891 5.28525 8.39203 5.349 8.28703L5.364 4.91203C6.30634 4.11388 7.39099 3.50095 8.56088 3.10547L11.5609 4.78266C11.6865 4.78266 11.8131 4.78266 11.9359 4.78266L14.9359 3.10547C16.1056 3.49892 17.1905 4.10961 18.1337 4.90547L18.1449 8.28047C18.2115 8.38547 18.2743 8.49141 18.3324 8.60016L21.3184 10.3008C21.5537 11.4911 21.5537 12.7161 21.3184 13.9064L18.3334 15.6033C18.2724 15.7111 18.2096 15.818 18.1459 15.923L18.1309 19.298C17.1892 20.0962 16.1052 20.7095 14.9359 21.1055L11.9406 19.4283Z" stroke="#242424" stroke-width="2" stroke-linecap="round" stroke-linejoin="round"/>
</g>
</svg>
