<svg width="52" height="52" viewBox="0 0 52 52" fill="none" xmlns="http://www.w3.org/2000/svg">
<g id="Frame 39">
<circle id="Ellipse 41" cx="26" cy="26" r="26" fill="white"/>
<path id="Vector" d="M36.8055 24.0415H36V24H27V28H32.6515C31.827 30.3285 29.6115 32 27 32C23.6865 32 21 29.3135 21 26C21 22.6865 23.6865 20 27 20C28.5295 20 29.921 20.577 30.9805 21.5195L33.809 18.691C32.023 17.0265 29.634 16 27 16C21.4775 16 17 20.4775 17 26C17 31.5225 21.4775 36 27 36C32.5225 36 37 31.5225 37 26C37 25.3295 36.931 24.675 36.8055 24.0415Z" fill="#FFC107"/>
<path id="Vector_2" d="M18.1528 21.3455L21.4383 23.755C22.3273 21.554 24.4803 20 26.9998 20C28.5293 20 29.9208 20.577 30.9803 21.5195L33.8088 18.691C32.0228 17.0265 29.6338 16 26.9998 16C23.1588 16 19.8278 18.1685 18.1528 21.3455Z" fill="#FF3D00"/>
<path id="Vector_3" d="M27.0002 36.0003C29.5832 36.0003 31.9302 35.0118 33.7047 33.4043L30.6097 30.7853C29.5719 31.5745 28.3039 32.0014 27.0002 32.0003C24.3992 32.0003 22.1907 30.3418 21.3587 28.0273L18.0977 30.5398C19.7527 33.7783 23.1137 36.0003 27.0002 36.0003Z" fill="#4CAF50"/>
<path id="Vector_4" d="M36.8055 24.0415H36V24H27V28H32.6515C32.2571 29.1082 31.5467 30.0766 30.608 30.7855L30.6095 30.7845L33.7045 33.4035C33.4855 33.6025 37 31 37 26C37 25.3295 36.931 24.675 36.8055 24.0415Z" fill="#1976D2"/>
</g>
</svg>
