<svg width="24" height="24" viewBox="0 0 24 24" fill="none" xmlns="http://www.w3.org/2000/svg">
<g id="heart">
<path id="Vector" d="M12 21C11.786 21 11.529 20.914 11.4 20.743C10.671 20.014 9.72899 19.2 8.74299 18.343C5.61399 15.686 1.71399 12.343 1.71399 8.143C1.71399 5.1 3.81399 3 6.85699 3C9.25699 3 10.8 4.243 12 5.829C13.2 4.286 14.743 3 17.143 3C20.186 3 22.286 5.1 22.286 8.143C22.286 12.343 18.386 15.686 15.257 18.343C14.271 19.2 13.329 19.971 12.6 20.743C12.472 20.914 12.214 21 12 21ZM6.85699 4.714C4.75699 4.714 3.42899 6.043 3.42899 8.143C3.42899 11.571 6.85699 14.486 9.85699 17.057C10.629 17.7 11.357 18.343 12 18.943C12.643 18.343 13.371 17.7 14.143 17.057C17.143 14.486 20.571 11.571 20.571 8.143C20.571 6.043 19.243 4.714 17.143 4.714C15.129 4.714 13.972 5.871 12.729 7.757C12.6508 7.87847 12.5427 7.97779 12.415 8.04539C12.2873 8.11299 12.1444 8.1466 12 8.143C11.8556 8.1466 11.7127 8.11299 11.585 8.04539C11.4573 7.97779 11.3492 7.87847 11.271 7.757C10.029 5.871 8.87099 4.714 6.85699 4.714Z" fill="current"/>
</g>
</svg>
