<svg width="25" height="24" viewBox="0 0 25 24" fill="none" xmlns="http://www.w3.org/2000/svg">
<g id="House">
<path id="Vector" d="M14.75 19.5V15C14.75 14.8011 14.671 14.6103 14.5303 14.4697C14.3897 14.329 14.1989 14.25 14 14.25H11C10.8011 14.25 10.6103 14.329 10.4697 14.4697C10.329 14.6103 10.25 14.8011 10.25 15V19.5C10.25 19.6989 10.171 19.8897 10.0303 20.0303C9.88968 20.171 9.69891 20.25 9.5 20.25H5C4.80109 20.25 4.61032 20.171 4.46967 20.0303C4.32902 19.8897 4.25 19.6989 4.25 19.5V10.8319C4.25001 10.7273 4.27187 10.624 4.31416 10.5284C4.35646 10.4328 4.41827 10.3472 4.49562 10.2769L11.9956 3.19499C12.1337 3.06929 12.3137 2.99963 12.5005 2.99963C12.6872 2.99963 12.8672 3.06929 13.0053 3.19499L20.5053 10.2769C20.5827 10.3472 20.6445 10.4328 20.6868 10.5284C20.7291 10.624 20.7509 10.7273 20.7509 10.8319V19.5C20.7509 19.6989 20.6719 19.8897 20.5313 20.0303C20.3906 20.171 20.1998 20.25 20.0009 20.25H15.5C15.3011 20.25 15.1103 20.171 14.9697 20.0303C14.829 19.8897 14.75 19.6989 14.75 19.5Z" stroke="current" stroke-width="2" stroke-linecap="round" stroke-linejoin="round"/>
</g>
</svg>
