<svg width="52" height="52" viewBox="0 0 52 52" fill="none" xmlns="http://www.w3.org/2000/svg">
<circle cx="26" cy="26" r="26" fill="#FED707"/>
<path d="M26.1875 18C27.8486 18 29.385 18.3095 30.7966 18.9286C32.2083 19.5476 33.3242 20.3894 34.1445 21.4538C34.9648 22.5183 35.375 23.6794 35.375 24.9371C35.375 26.1949 34.9648 27.3576 34.1445 28.4254C33.3242 29.4931 32.21 30.3365 30.8018 30.9556C29.3936 31.5746 27.8555 31.8841 26.1875 31.8841C25.6611 31.8841 25.1177 31.8481 24.5571 31.776C22.1235 33.394 20.8281 34.2129 20.6709 34.2325C20.5957 34.2587 20.5239 34.2555 20.4556 34.2227C20.4282 34.2031 20.4077 34.1769 20.394 34.1441C20.3804 34.1113 20.3735 34.0819 20.3735 34.0557V34.0164C20.4146 33.7609 20.7256 32.6964 21.3066 30.8229C19.9873 30.1941 18.9397 29.3605 18.1638 28.3222C17.3879 27.2839 17 26.1556 17 24.9371C17 23.6794 17.4102 22.5183 18.2305 21.4538C19.0508 20.3894 20.1667 19.5476 21.5784 18.9286C22.99 18.3095 24.5264 18 26.1875 18Z" fill="#3C1E1E"/>
</svg>
