<svg width="24" height="24" viewBox="0 0 24 24" fill="none" xmlns="http://www.w3.org/2000/svg">
<g id="Mappin">
<path id="Vector" fill-rule="evenodd" clip-rule="evenodd" d="M3.02115 10.4166C2.65409 5.5831 7.12259 2 12 2C16.8774 2 21.3459 5.5831 20.9789 10.4166C20.9349 10.9955 20.8664 11.5428 20.7617 12.0103C20.2534 14.2803 18.7089 16.3951 17.1464 18.0594C15.5712 19.7373 13.9062 21.0319 13.0474 21.6592C12.4254 22.1136 11.5746 22.1136 10.9526 21.6592C10.0938 21.0319 8.42877 19.7373 6.85358 18.0594C5.29114 16.3951 3.74659 14.2803 3.23828 12.0103C3.13359 11.5428 3.06511 10.9955 3.02115 10.4166Z" stroke="#757575" stroke-width="2" stroke-linecap="round" stroke-linejoin="round"/>
<path id="Vector_2" d="M9.15625 10.6297C9.15625 9.13176 10.4296 7.91748 12.0003 7.91748C13.571 7.91748 14.8443 9.13176 14.8443 10.6297C14.8443 12.1276 13.571 13.3418 12.0003 13.3418C10.4296 13.3418 9.15625 12.1276 9.15625 10.6297Z" stroke="#757575" stroke-width="2" stroke-linecap="round" stroke-linejoin="round"/>
</g>
</svg>
