<svg width="16" height="16" viewBox="0 0 16 16" fill="none" xmlns="http://www.w3.org/2000/svg">
<g id="Megaphone">
<path id="Vector" d="M9.5 5V12.5419C9.50005 12.6241 9.52038 12.7051 9.55919 12.7776C9.598 12.8501 9.65409 12.9119 9.7225 12.9575L10.41 13.4156C10.4767 13.4601 10.5531 13.4879 10.6328 13.4966C10.7124 13.5054 10.793 13.4948 10.8678 13.4659C10.9425 13.437 11.0092 13.3905 11.0623 13.3304C11.1153 13.2704 11.1531 13.1984 11.1725 13.1206L12 10" stroke="#7353F4" stroke-width="1.5" stroke-linecap="round" stroke-linejoin="round"/>
<path id="Vector_2" d="M2 12.5002C2.00002 12.5955 2.02723 12.6887 2.07844 12.769C2.12964 12.8493 2.2027 12.9133 2.28903 12.9534C2.37536 12.9936 2.47137 13.0083 2.56576 12.9958C2.66015 12.9832 2.74901 12.944 2.82188 12.8827C6.09688 10.1352 9.5 10.0002 9.5 10.0002H12C12.663 10.0002 13.2989 9.73684 13.7678 9.268C14.2366 8.79916 14.5 8.16328 14.5 7.50023C14.5 6.83719 14.2366 6.20131 13.7678 5.73247C13.2989 5.26363 12.663 5.00023 12 5.00023H9.5C9.5 5.00023 6.09688 4.86523 2.82188 2.11836C2.74905 2.05709 2.66025 2.01789 2.56591 2.00534C2.47158 1.99279 2.37562 2.00743 2.28931 2.04753C2.20301 2.08763 2.12994 2.15153 2.07869 2.23173C2.02744 2.31192 2.00014 2.40507 2 2.50023V12.5002Z" stroke="#7353F4" stroke-width="1.5" stroke-linecap="round" stroke-linejoin="round"/>
</g>
</svg>
