<svg width="65" height="63" viewBox="0 0 65 63" fill="none" xmlns="http://www.w3.org/2000/svg">
<path d="M12.7586 46.0131C13.2776 48.997 13.0775 52.3096 11.0555 54.5646C9.81527 55.9478 8.28214 56.6383 6.87005 56.2599C5.45796 55.8816 4.47548 54.517 4.09299 52.699C3.46944 49.7352 4.95242 46.7663 6.8939 44.4417C8.12681 42.9655 9.57122 41.6814 10.6957 41.9827C11.8201 42.284 12.4289 44.1183 12.7586 46.0131Z" fill="#E2E1E7"/>
<path d="M23.825 51.5444C24.344 54.5282 24.1439 57.8409 22.1219 60.0958C20.8817 61.479 19.3485 62.1695 17.9365 61.7912C16.5244 61.4128 15.5419 60.0483 15.1594 58.2302C14.5358 55.2665 16.0188 52.2975 17.9603 49.973C19.1932 48.4968 20.6376 47.2127 21.7621 47.5139C22.8865 47.8152 23.4953 49.6495 23.825 51.5444Z" fill="#E2E1E7"/>
<path d="M47.3338 51.5444C47.8528 54.5282 47.6526 57.8409 45.6307 60.0958C44.3905 61.479 42.8573 62.1695 41.4452 61.7912C40.0332 61.4128 39.0507 60.0483 38.6682 58.2302C38.0446 55.2665 39.5276 52.2975 41.4691 49.973C42.702 48.4968 44.1464 47.2127 45.2709 47.5139C46.3953 47.8152 47.0041 49.6495 47.3338 51.5444Z" fill="#E2E1E7"/>
<path d="M36.0955 46.0131C36.6146 48.997 36.4144 52.3096 34.3925 54.5646C33.1522 55.9478 31.619 56.6383 30.207 56.2599C28.7949 55.8816 27.8124 54.517 27.4299 52.699C26.8064 49.7352 28.2893 46.7663 30.2308 44.4417C31.4637 42.9655 32.9081 41.6814 34.0326 41.9827C35.157 42.284 35.7658 44.1183 36.0955 46.0131Z" fill="#E2E1E7"/>
<path d="M59.6043 46.0131C60.1233 48.997 59.9232 52.3096 57.9012 54.5646C56.661 55.9478 55.1278 56.6383 53.7158 56.2599C52.3037 55.8816 51.3212 54.517 50.9387 52.699C50.3151 49.7352 51.7981 46.7663 53.7396 44.4417C54.9725 42.9655 56.4169 41.6814 57.5414 41.9827C58.6658 42.284 59.2746 44.1183 59.6043 46.0131Z" fill="#E2E1E7"/>
<path fill-rule="evenodd" clip-rule="evenodd" d="M48.8812 16.4936C49.1547 15.4165 49.3 14.285 49.3 13.1179C49.3 5.8732 43.6885 0 36.7667 0C31.3396 0 26.7177 3.61072 24.975 8.66222C23.3964 7.27059 21.3146 6.4251 19.0333 6.4251C14.0995 6.4251 10.1 10.3804 10.1 15.2596C10.1 15.6421 10.1245 16.0188 10.1724 16.3885C4.62917 17.674 0.5 22.6139 0.5 28.5114C0.5 35.3867 6.11146 40.96 13.0333 40.96C13.2073 40.96 13.3802 40.9566 13.5521 40.9495C13.6448 40.9566 13.7385 40.96 13.8333 40.96H58.7286C58.8198 40.96 58.9104 40.9569 58.9995 40.9506C59.099 40.9569 59.199 40.96 59.3 40.96C62.1719 40.96 64.5 38.383 64.5 35.2042C64.5 32.1498 62.3505 29.6512 59.6349 29.4601C60.1896 28.24 60.5 26.8745 60.5 25.4327C60.5 20.2578 56.5005 16.0627 51.5667 16.0627C50.9479 16.0627 50.3437 16.1286 49.7604 16.2544C49.4615 16.3187 49.1682 16.3987 48.8812 16.4936Z" fill="#E2E1E7"/>
</svg>
