<svg width="24" height="24" viewBox="0 0 24 24" fill="none" xmlns="http://www.w3.org/2000/svg">
<g id="NavigationArrow" clip-path="url(#clip0_1225_10786)">
<path id="Vector" d="M9.9129 21.2456C9.96461 21.3952 10.0623 21.5245 10.192 21.6152C10.3217 21.7059 10.4768 21.7532 10.6351 21.7504C10.7933 21.7476 10.9466 21.6948 11.073 21.5996C11.1994 21.5044 11.2925 21.3716 11.3388 21.2203L13.5467 14.0437C13.5826 13.9266 13.6467 13.8201 13.7333 13.7335C13.8199 13.6469 13.9264 13.5828 14.0435 13.5468L21.2201 11.3437C21.3714 11.2973 21.5042 11.2043 21.5994 11.0779C21.6946 10.9515 21.7474 10.7982 21.7503 10.6399C21.7531 10.4817 21.7057 10.3266 21.6151 10.1969C21.5244 10.0672 21.395 9.96947 21.2454 9.91776L4.7454 3.79776C4.61304 3.75274 4.47073 3.74561 4.33453 3.77719C4.19834 3.80876 4.07368 3.87777 3.97462 3.97644C3.87557 4.0751 3.80606 4.19949 3.77395 4.33556C3.74185 4.47163 3.74841 4.61397 3.7929 4.74651L9.9129 21.2456Z" stroke="white" stroke-width="2" stroke-linecap="round" stroke-linejoin="round"/>
</g>
<defs>
<clipPath id="clip0_1225_10786">
<rect width="24" height="24" fill="white"/>
</clipPath>
</defs>
</svg>
