<svg width="41" height="42" viewBox="0 0 41 42" fill="none" xmlns="http://www.w3.org/2000/svg">
<g id="Group 17">
<path id="Ellipse 61" d="M7.95004 30.7518C8.28004 32.6488 8.15278 34.7547 6.86739 36.1883C6.07891 37.0676 5.10425 37.5066 4.20654 37.2661C3.30883 37.0255 2.68424 36.158 2.44107 35.0022C2.04466 33.1181 2.98743 31.2306 4.22169 29.7528C5.00549 28.8144 5.92374 27.998 6.63859 28.1895C7.35343 28.3811 7.74048 29.5472 7.95004 30.7518Z" fill="#E2E1E7"/>
<path id="Ellipse 64" d="M14.9852 34.2684C15.3152 36.1654 15.1879 38.2713 13.9025 39.7049C13.1141 40.5842 12.1394 41.0232 11.2417 40.7827C10.344 40.5421 9.7194 39.6746 9.47623 38.5188C9.07982 36.6347 10.0226 34.7472 11.2568 33.2694C12.0406 32.331 12.9589 31.5146 13.6737 31.7061C14.3886 31.8977 14.7756 33.0638 14.9852 34.2684Z" fill="#E2E1E7"/>
<path id="Ellipse 65" d="M29.9305 34.2684C30.2605 36.1654 30.1333 38.2713 28.8479 39.7049C28.0594 40.5842 27.0847 41.0232 26.187 40.7827C25.2893 40.5421 24.6647 39.6746 24.4215 38.5188C24.0251 36.6347 24.9679 34.7472 26.2022 33.2694C26.986 32.331 27.9042 31.5146 28.6191 31.7061C29.3339 31.8977 29.7209 33.0638 29.9305 34.2684Z" fill="#E2E1E7"/>
<path id="Ellipse 62" d="M22.786 30.7518C23.116 32.6488 22.9887 34.7547 21.7033 36.1883C20.9149 37.0676 19.9402 37.5066 19.0425 37.2661C18.1448 37.0255 17.5202 36.158 17.277 35.0022C16.8806 33.1181 17.8234 31.2306 19.0576 29.7528C19.8414 28.8144 20.7597 27.998 21.4745 28.1895C22.1894 28.3811 22.5764 29.5472 22.786 30.7518Z" fill="#E2E1E7"/>
<path id="Ellipse 63" d="M37.7313 30.7518C38.0613 32.6488 37.934 34.7547 36.6486 36.1883C35.8602 37.0676 34.8855 37.5066 33.9878 37.2661C33.0901 37.0255 32.4655 36.158 32.2223 35.0022C31.8259 33.1181 32.7687 31.2306 34.0029 29.7528C34.7867 28.8144 35.705 27.998 36.4198 28.1895C37.1347 28.3811 37.5217 29.5472 37.7313 30.7518Z" fill="#E2E1E7"/>
<path id="Union" fill-rule="evenodd" clip-rule="evenodd" d="M30.9143 10.9855C31.0881 10.3008 31.1805 9.58142 31.1805 8.83948C31.1805 4.23379 27.6131 0.5 23.2126 0.5C19.7625 0.5 16.8242 2.79545 15.7163 6.00686C14.7127 5.12215 13.3892 4.58464 11.939 4.58464C8.80237 4.58464 6.25977 7.09915 6.25977 10.201C6.25977 10.4442 6.27533 10.6837 6.3058 10.9187C2.78178 11.7359 0.156738 14.8764 0.156738 18.6256C0.156738 22.9965 3.72412 26.5396 8.12459 26.5396C8.23518 26.5396 8.34511 26.5374 8.45437 26.533C8.51331 26.5374 8.57291 26.5396 8.63317 26.5396H37.1746C37.2325 26.5396 37.2901 26.5376 37.3468 26.5336C37.41 26.5376 37.4736 26.5396 37.5378 26.5396C39.3636 26.5396 40.8436 24.9013 40.8436 22.8804C40.8436 20.9387 39.4771 19.3503 37.7507 19.2288C38.1033 18.4531 38.3007 17.585 38.3007 16.6684C38.3007 13.3785 35.7581 10.7116 32.6215 10.7116C32.2281 10.7116 31.844 10.7535 31.4732 10.8334C31.2831 10.8743 31.0967 10.9252 30.9143 10.9855Z" fill="#E2E1E7"/>
</g>
</svg>
