<svg width="24" height="24" viewBox="0 0 24 24" fill="none" xmlns="http://www.w3.org/2000/svg">
<rect width="24" height="24" rx="12" fill="#242424"/>
<path d="M9.79313 17.5001H7C6.86739 17.5001 6.74021 17.4474 6.64645 17.3536C6.55268 17.2599 6.5 17.1327 6.5 17.0001V14.207C6.50006 14.0745 6.55266 13.9475 6.64625 13.8538L14.3538 6.14633C14.4475 6.05263 14.5746 6 14.7072 6C14.8397 6 14.9669 6.05263 15.0606 6.14633L17.8538 8.93758C17.9474 9.03134 18.0001 9.15847 18.0001 9.29102C18.0001 9.42357 17.9474 9.5507 17.8538 9.64446L10.1462 17.3538C10.0526 17.4474 9.92556 17.5 9.79313 17.5001Z" stroke="white" stroke-width="1.5" stroke-linecap="round" stroke-linejoin="round"/>
<path d="M12.5 8L16 11.5" stroke="white" stroke-width="1.5" stroke-linecap="round" stroke-linejoin="round"/>
</svg>
