<svg width="218" height="115" viewBox="0 0 218 115" fill="none" xmlns="http://www.w3.org/2000/svg">
<g filter="url(#filter0_d_11_20)">
<path d="M51.3516 45.3789V51.707H46.4688V77H38.2461V51.707H33.3828V45.3789H51.3516ZM60.8828 45.3789V52.4883C61.5599 51.8633 62.2891 51.3945 63.0703 51.082C63.8646 50.7695 64.7109 50.6133 65.6094 50.6133C66.9896 50.6133 68.1615 50.9648 69.125 51.668C70.1016 52.3711 70.694 53.1849 70.9023 54.1094C71.1237 55.0208 71.2344 56.694 71.2344 59.1289V77H63.3438V58.7578C63.3438 57.2474 63.2656 56.2773 63.1094 55.8477C62.9661 55.418 62.6341 55.2031 62.1133 55.2031C61.6315 55.2031 61.306 55.4245 61.1367 55.8672C60.9674 56.3099 60.8828 57.1888 60.8828 58.5039V77H52.9922V45.3789H60.8828ZM91.8398 64.5H81.625V70.1055C81.625 71.2773 81.7096 72.0326 81.8789 72.3711C82.0482 72.7096 82.3737 72.8789 82.8555 72.8789C83.4544 72.8789 83.8516 72.6576 84.0469 72.2148C84.2552 71.7591 84.3594 70.8867 84.3594 69.5977V66.1797H91.8398V68.0938C91.8398 69.6953 91.7357 70.9258 91.5273 71.7852C91.332 72.6445 90.8633 73.5625 90.1211 74.5391C89.3789 75.5156 88.4349 76.2513 87.2891 76.7461C86.1562 77.2279 84.7305 77.4688 83.0117 77.4688C81.3451 77.4688 79.8737 77.2279 78.5977 76.7461C77.3216 76.2643 76.3255 75.6068 75.6094 74.7734C74.9062 73.9271 74.418 73.0026 74.1445 72C73.8711 70.9844 73.7344 69.513 73.7344 67.5859V60.0273C73.7344 57.7617 74.0404 55.9779 74.6523 54.6758C75.2643 53.3607 76.2669 52.3581 77.6602 51.668C79.0534 50.9648 80.6549 50.6133 82.4648 50.6133C84.6784 50.6133 86.5013 51.0365 87.9336 51.8828C89.3789 52.7161 90.388 53.8294 90.9609 55.2227C91.5469 56.6029 91.8398 58.5495 91.8398 61.0625V64.5ZM83.9297 60.2812V58.3867C83.9297 57.0456 83.8581 56.1797 83.7148 55.7891C83.5716 55.3984 83.2786 55.2031 82.8359 55.2031C82.2891 55.2031 81.9505 55.3724 81.8203 55.7109C81.6901 56.0365 81.625 56.9284 81.625 58.3867V60.2812H83.9297ZM120.941 59.168H112.719V53.6602C112.719 52.0586 112.628 51.0625 112.445 50.6719C112.276 50.2682 111.892 50.0664 111.293 50.0664C110.616 50.0664 110.186 50.3073 110.004 50.7891C109.822 51.2708 109.73 52.3125 109.73 53.9141V68.6016C109.73 70.138 109.822 71.1406 110.004 71.6094C110.186 72.0781 110.596 72.3125 111.234 72.3125C111.846 72.3125 112.243 72.0781 112.426 71.6094C112.621 71.1406 112.719 70.0404 112.719 68.3086V64.3438H120.941V65.5742C120.941 68.8424 120.707 71.1602 120.238 72.5273C119.783 73.8945 118.76 75.0924 117.172 76.1211C115.596 77.1497 113.65 77.6641 111.332 77.6641C108.923 77.6641 106.938 77.2279 105.375 76.3555C103.812 75.4831 102.777 74.2786 102.27 72.7422C101.762 71.1927 101.508 68.8685 101.508 65.7695V56.5312C101.508 54.2526 101.586 52.5469 101.742 51.4141C101.898 50.2682 102.361 49.168 103.129 48.1133C103.91 47.0586 104.984 46.2318 106.352 45.6328C107.732 45.0208 109.314 44.7148 111.098 44.7148C113.52 44.7148 115.518 45.1836 117.094 46.1211C118.669 47.0586 119.704 48.2305 120.199 49.6367C120.694 51.0299 120.941 53.2044 120.941 56.1602V59.168ZM131.547 51.082L131.234 54.4805C132.38 52.0456 134.04 50.7565 136.215 50.6133V59.7344C134.77 59.7344 133.708 59.9297 133.031 60.3203C132.354 60.7109 131.938 61.2578 131.781 61.9609C131.625 62.651 131.547 64.2526 131.547 66.7656V77H123.656V51.082H131.547ZM155.863 64.5H145.648V70.1055C145.648 71.2773 145.733 72.0326 145.902 72.3711C146.072 72.7096 146.397 72.8789 146.879 72.8789C147.478 72.8789 147.875 72.6576 148.07 72.2148C148.279 71.7591 148.383 70.8867 148.383 69.5977V66.1797H155.863V68.0938C155.863 69.6953 155.759 70.9258 155.551 71.7852C155.355 72.6445 154.887 73.5625 154.145 74.5391C153.402 75.5156 152.458 76.2513 151.312 76.7461C150.18 77.2279 148.754 77.4688 147.035 77.4688C145.368 77.4688 143.897 77.2279 142.621 76.7461C141.345 76.2643 140.349 75.6068 139.633 74.7734C138.93 73.9271 138.441 73.0026 138.168 72C137.895 70.9844 137.758 69.513 137.758 67.5859V60.0273C137.758 57.7617 138.064 55.9779 138.676 54.6758C139.288 53.3607 140.29 52.3581 141.684 51.668C143.077 50.9648 144.678 50.6133 146.488 50.6133C148.702 50.6133 150.525 51.0365 151.957 51.8828C153.402 52.7161 154.411 53.8294 154.984 55.2227C155.57 56.6029 155.863 58.5495 155.863 61.0625V64.5ZM147.953 60.2812V58.3867C147.953 57.0456 147.882 56.1797 147.738 55.7891C147.595 55.3984 147.302 55.2031 146.859 55.2031C146.312 55.2031 145.974 55.3724 145.844 55.7109C145.714 56.0365 145.648 56.9284 145.648 58.3867V60.2812H147.953ZM183.949 51.082L180.805 77H172.23C171.762 73.8359 171.221 69.6693 170.609 64.5C170.401 66.7656 170.108 69.0573 169.73 71.375L168.852 77H160.277L156.938 51.082H163.734C163.786 51.7591 164.359 56.7005 165.453 65.9062C165.531 64.9688 166.117 60.0273 167.211 51.082H173.754L175.355 65.9062C175.603 61.5833 176.202 56.6419 177.152 51.082H183.949Z" fill="white"/>
<path d="M51.3516 45.3789H52.3516V44.3789H51.3516V45.3789ZM51.3516 51.707V52.707H52.3516V51.707H51.3516ZM46.4688 51.707V50.707H45.4688V51.707H46.4688ZM46.4688 77V78H47.4688V77H46.4688ZM38.2461 77H37.2461V78H38.2461V77ZM38.2461 51.707H39.2461V50.707H38.2461V51.707ZM33.3828 51.707H32.3828V52.707H33.3828V51.707ZM33.3828 45.3789V44.3789H32.3828V45.3789H33.3828ZM50.3516 45.3789V51.707H52.3516V45.3789H50.3516ZM51.3516 50.707H46.4688V52.707H51.3516V50.707ZM45.4688 51.707V77H47.4688V51.707H45.4688ZM46.4688 76H38.2461V78H46.4688V76ZM39.2461 77V51.707H37.2461V77H39.2461ZM38.2461 50.707H33.3828V52.707H38.2461V50.707ZM34.3828 51.707V45.3789H32.3828V51.707H34.3828ZM33.3828 46.3789H51.3516V44.3789H33.3828V46.3789ZM60.8828 45.3789H61.8828V44.3789H60.8828V45.3789ZM60.8828 52.4883H59.8828V54.7723L61.5611 53.2231L60.8828 52.4883ZM63.0703 51.082L62.7042 50.1515L62.6989 50.1536L63.0703 51.082ZM69.125 51.668L68.5355 52.4758L68.5407 52.4795L69.125 51.668ZM70.9023 54.1094L69.9268 54.3292L69.9286 54.3373L69.9306 54.3454L70.9023 54.1094ZM71.2344 77V78H72.2344V77H71.2344ZM63.3438 77H62.3438V78H63.3438V77ZM63.1094 55.8477L62.1607 56.1639L62.165 56.1767L62.1696 56.1894L63.1094 55.8477ZM60.8828 77V78H61.8828V77H60.8828ZM52.9922 77H51.9922V78H52.9922V77ZM52.9922 45.3789V44.3789H51.9922V45.3789H52.9922ZM59.8828 45.3789V52.4883H61.8828V45.3789H59.8828ZM61.5611 53.2231C62.1571 52.6729 62.784 52.2736 63.4417 52.0105L62.6989 50.1536C61.7941 50.5155 60.9627 51.0536 60.2045 51.7535L61.5611 53.2231ZM63.4364 52.0126C64.108 51.7484 64.8296 51.6133 65.6094 51.6133V49.6133C64.5923 49.6133 63.6211 49.7907 62.7042 50.1515L63.4364 52.0126ZM65.6094 51.6133C66.8122 51.6133 67.7691 51.9165 68.5355 52.4758L69.7145 50.8602C68.5538 50.0132 67.167 49.6133 65.6094 49.6133V51.6133ZM68.5407 52.4795C69.3742 53.0796 69.7855 53.7021 69.9268 54.3292L71.8779 53.8895C71.6025 52.6677 70.829 51.6626 69.7093 50.8564L68.5407 52.4795ZM69.9306 54.3454C70.1201 55.1257 70.2344 56.6865 70.2344 59.1289H72.2344C72.2344 56.7015 72.1273 54.916 71.8741 53.8734L69.9306 54.3454ZM70.2344 59.1289V77H72.2344V59.1289H70.2344ZM71.2344 76H63.3438V78H71.2344V76ZM64.3438 77V58.7578H62.3438V77H64.3438ZM64.3438 58.7578C64.3438 57.9887 64.324 57.3392 64.2819 56.8172C64.2419 56.3198 64.1762 55.8554 64.0492 55.5059L62.1696 56.1894C62.1988 56.2696 62.2503 56.505 62.2884 56.9777C62.3245 57.4257 62.3438 58.0165 62.3438 58.7578H64.3438ZM64.0581 55.5314C63.9256 55.1341 63.6801 54.7731 63.2962 54.5247C62.9244 54.2841 62.5065 54.2031 62.1133 54.2031V56.2031C62.1758 56.2031 62.2105 56.2097 62.2242 56.2131C62.2365 56.2162 62.2282 56.2158 62.2097 56.2038C62.2008 56.1981 62.1915 56.1909 62.1826 56.1825C62.1737 56.1741 62.1667 56.1659 62.1617 56.1592C62.1514 56.1452 62.1537 56.143 62.1607 56.1639L64.0581 55.5314ZM62.1133 54.2031C61.7172 54.2031 61.308 54.2957 60.9455 54.5422C60.5817 54.7896 60.3451 55.1375 60.2027 55.5101L62.0708 56.2243C62.0849 56.1873 62.0951 56.1737 62.0949 56.1741C62.0947 56.1744 62.0925 56.1773 62.0878 56.1818C62.0831 56.1863 62.0771 56.1913 62.0701 56.1961C62.0631 56.2008 62.0567 56.2043 62.0516 56.2066C62.0466 56.2089 62.0443 56.2094 62.0457 56.209C62.0486 56.2082 62.069 56.2031 62.1133 56.2031V54.2031ZM60.2027 55.5101C60.0693 55.8589 59.9958 56.2965 59.9509 56.7625C59.9044 57.2452 59.8828 57.8282 59.8828 58.5039H61.8828C61.8828 57.8645 61.9035 57.3505 61.9417 56.9543C61.9814 56.5414 62.0349 56.3182 62.0708 56.2243L60.2027 55.5101ZM59.8828 58.5039V77H61.8828V58.5039H59.8828ZM60.8828 76H52.9922V78H60.8828V76ZM53.9922 77V45.3789H51.9922V77H53.9922ZM52.9922 46.3789H60.8828V44.3789H52.9922V46.3789ZM91.8398 64.5V65.5H92.8398V64.5H91.8398ZM81.625 64.5V63.5H80.625V64.5H81.625ZM84.0469 72.2148L83.1373 71.799L83.132 71.8112L84.0469 72.2148ZM84.3594 66.1797V65.1797H83.3594V66.1797H84.3594ZM91.8398 66.1797H92.8398V65.1797H91.8398V66.1797ZM91.5273 71.7852L90.5555 71.5496L90.5538 71.5565L90.5522 71.5635L91.5273 71.7852ZM87.2891 76.7461L87.6804 77.6663L87.6855 77.6642L87.2891 76.7461ZM75.6094 74.7734L74.8402 75.4125L74.8455 75.4189L74.851 75.4252L75.6094 74.7734ZM74.1445 72L73.1789 72.26L73.1798 72.2631L74.1445 72ZM74.6523 54.6758L75.5574 55.1011L75.559 55.0977L74.6523 54.6758ZM77.6602 51.668L78.104 52.5641L78.1107 52.5607L77.6602 51.668ZM87.9336 51.8828L87.4248 52.7438L87.4341 52.7491L87.9336 51.8828ZM90.9609 55.2227L90.036 55.603L90.0405 55.6134L90.9609 55.2227ZM83.9297 60.2812V61.2812H84.9297V60.2812H83.9297ZM81.8203 55.7109L82.7489 56.0824L82.7537 56.0699L81.8203 55.7109ZM81.625 60.2812H80.625V61.2812H81.625V60.2812ZM91.8398 63.5H81.625V65.5H91.8398V63.5ZM80.625 64.5V70.1055H82.625V64.5H80.625ZM80.625 70.1055C80.625 70.711 80.6467 71.2334 80.6947 71.6622C80.7396 72.0632 80.8172 72.4838 80.9845 72.8183L82.7733 71.9239C82.7786 71.9345 82.7636 71.9061 82.7419 71.8129C82.7214 71.7246 82.7005 71.6021 82.6823 71.4394C82.6457 71.1129 82.625 70.6718 82.625 70.1055H80.625ZM80.9845 72.8183C81.3719 73.5931 82.1178 73.8789 82.8555 73.8789V71.8789C82.7267 71.8789 82.6941 71.8557 82.7114 71.8647C82.7211 71.8698 82.7363 71.8799 82.7514 71.8954C82.7662 71.9106 82.7727 71.9225 82.7733 71.9239L80.9845 72.8183ZM82.8555 73.8789C83.273 73.8789 83.7021 73.8022 84.0894 73.5864C84.4906 73.3628 84.7824 73.0252 84.9618 72.6185L83.132 71.8112C83.1216 71.8346 83.115 71.8412 83.1164 71.8396C83.1182 71.8376 83.1197 71.8372 83.1157 71.8394C83.1058 71.8449 83.0369 71.8789 82.8555 71.8789V73.8789ZM84.9563 72.6306C85.1242 72.2633 85.2176 71.8112 85.2742 71.3373C85.3326 70.8482 85.3594 70.2653 85.3594 69.5977H83.3594C83.3594 70.219 83.3341 70.7169 83.2883 71.1002C83.2407 71.4986 83.1778 71.7106 83.1374 71.7991L84.9563 72.6306ZM85.3594 69.5977V66.1797H83.3594V69.5977H85.3594ZM84.3594 67.1797H91.8398V65.1797H84.3594V67.1797ZM90.8398 66.1797V68.0938H92.8398V66.1797H90.8398ZM90.8398 68.0938C90.8398 69.6689 90.7358 70.8058 90.5555 71.5496L92.4992 72.0208C92.7356 71.0458 92.8398 69.7217 92.8398 68.0938H90.8398ZM90.5522 71.5635C90.3984 72.2405 90.0124 73.0294 89.3249 73.934L90.9173 75.1441C91.7141 74.0956 92.2657 73.0486 92.5025 72.0068L90.5522 71.5635ZM89.3249 73.934C88.6887 74.7711 87.8834 75.4002 86.8926 75.828L87.6855 77.6642C88.9864 77.1024 90.0691 76.2602 90.9173 75.1441L89.3249 73.934ZM86.8977 75.8259C85.9273 76.2385 84.6456 76.4688 83.0117 76.4688V78.4688C84.8153 78.4688 86.3852 78.2172 87.6804 77.6663L86.8977 75.8259ZM83.0117 76.4688C81.4398 76.4688 80.0921 76.2414 78.9509 75.8106L78.2444 77.6816C79.6553 78.2143 81.2503 78.4688 83.0117 78.4688V76.4688ZM78.9509 75.8106C77.7943 75.3739 76.9515 74.8008 76.3678 74.1217L74.851 75.4252C75.6996 76.4127 76.849 77.1548 78.2444 77.6816L78.9509 75.8106ZM76.3786 74.1344C75.7613 73.3914 75.343 72.5936 75.1093 71.7369L73.1798 72.2631C73.493 73.4116 74.0512 74.4628 74.8402 75.4125L76.3786 74.1344ZM75.1101 71.74C74.8711 70.8522 74.7344 69.4851 74.7344 67.5859H72.7344C72.7344 69.5409 72.8711 71.1165 73.1789 72.26L75.1101 71.74ZM74.7344 67.5859V60.0273H72.7344V67.5859H74.7344ZM74.7344 60.0273C74.7344 57.8332 75.0336 56.2155 75.5574 55.1011L73.7473 54.2504C73.0471 55.7403 72.7344 57.6903 72.7344 60.0273H74.7344ZM75.559 55.0977C76.0679 54.004 76.8988 53.1611 78.104 52.5641L77.2163 50.7719C75.6351 51.5551 74.4607 52.7174 73.7457 54.2539L75.559 55.0977ZM78.1107 52.5607C79.3435 51.9386 80.7864 51.6133 82.4648 51.6133V49.6133C80.5235 49.6133 78.7633 49.9911 77.2096 50.7752L78.1107 52.5607ZM82.4648 51.6133C84.5568 51.6133 86.1895 52.0137 87.4249 52.7437L88.4423 51.0219C86.8131 50.0592 84.8 49.6133 82.4648 49.6133V51.6133ZM87.4341 52.7491C88.7095 53.4845 89.5564 54.4364 90.0361 55.603L91.8858 54.8423C91.2197 53.2224 90.0483 51.9478 88.4331 51.0165L87.4341 52.7491ZM90.0405 55.6134C90.5501 56.8139 90.8398 58.6051 90.8398 61.0625H92.8398C92.8398 58.4939 92.5437 56.3919 91.8814 54.8319L90.0405 55.6134ZM90.8398 61.0625V64.5H92.8398V61.0625H90.8398ZM84.9297 60.2812V58.3867H82.9297V60.2812H84.9297ZM84.9297 58.3867C84.9297 57.7017 84.9115 57.1199 84.8726 56.649C84.8356 56.2017 84.7744 55.774 84.6537 55.4448L82.776 56.1333C82.7985 56.1948 82.8448 56.3953 82.8794 56.8139C82.9121 57.2089 82.9297 57.7306 82.9297 58.3867H84.9297ZM84.6537 55.4448C84.5227 55.0875 84.2959 54.7532 83.9424 54.5176C83.5939 54.2853 83.2039 54.2031 82.8359 54.2031V56.2031C82.8737 56.2031 82.8874 56.2073 82.8833 56.2063C82.8778 56.2048 82.8582 56.1984 82.833 56.1817C82.8074 56.1646 82.7885 56.145 82.7772 56.1299C82.7669 56.116 82.7688 56.1138 82.776 56.1333L84.6537 55.4448ZM82.8359 54.2031C82.1205 54.2031 81.2376 54.4402 80.887 55.352L82.7537 56.0699C82.7431 56.0974 82.7232 56.133 82.6918 56.167C82.6609 56.2005 82.6323 56.2179 82.6191 56.2245C82.6078 56.2301 82.6154 56.2242 82.6526 56.2171C82.69 56.2099 82.7494 56.2031 82.8359 56.2031V54.2031ZM80.8918 55.3395C80.7621 55.6639 80.7084 56.1135 80.6765 56.5512C80.6414 57.0316 80.625 57.6463 80.625 58.3867H82.625C82.625 57.6688 82.6411 57.1083 82.6712 56.6968C82.6862 56.491 82.7039 56.334 82.7222 56.2197C82.7423 56.0944 82.7568 56.0623 82.7488 56.0823L80.8918 55.3395ZM80.625 58.3867V60.2812H82.625V58.3867H80.625ZM81.625 61.2812H83.9297V59.2812H81.625V61.2812ZM120.941 59.168V60.168H121.941V59.168H120.941ZM112.719 59.168H111.719V60.168H112.719V59.168ZM112.445 50.6719L111.523 51.0586L111.531 51.0768L111.539 51.0948L112.445 50.6719ZM110.004 50.7891L109.069 50.4352L110.004 50.7891ZM110.004 71.6094L109.072 71.9718L110.004 71.6094ZM112.426 71.6094L111.503 71.2248L111.498 71.2358L111.494 71.2469L112.426 71.6094ZM112.719 64.3438V63.3438H111.719V64.3438H112.719ZM120.941 64.3438H121.941V63.3438H120.941V64.3438ZM120.238 72.5273L119.292 72.203L119.29 72.2111L120.238 72.5273ZM117.172 76.1211L116.628 75.2817L116.625 75.2838L117.172 76.1211ZM102.27 72.7422L101.319 73.0536L101.32 73.056L102.27 72.7422ZM101.742 51.4141L102.733 51.5507L102.733 51.5492L101.742 51.4141ZM103.129 48.1133L102.325 47.518L102.321 47.5245L103.129 48.1133ZM106.352 45.6328L106.753 46.5488L106.757 46.547L106.352 45.6328ZM120.199 49.6367L119.256 49.9686L119.257 49.9714L120.199 49.6367ZM120.941 58.168H112.719V60.168H120.941V58.168ZM113.719 59.168V53.6602H111.719V59.168H113.719ZM113.719 53.6602C113.719 52.8447 113.696 52.1615 113.646 51.6208C113.6 51.1196 113.523 50.6169 113.351 50.249L111.539 51.0948C111.536 51.0878 111.557 51.1342 111.584 51.2718C111.609 51.4007 111.634 51.5755 111.655 51.803C111.696 52.2584 111.719 52.8741 111.719 53.6602H113.719ZM113.368 50.2851C113.194 49.8712 112.895 49.5425 112.495 49.3325C112.116 49.1331 111.696 49.0664 111.293 49.0664V51.0664C111.489 51.0664 111.561 51.1006 111.565 51.103C111.566 51.1033 111.563 51.1017 111.557 51.0977C111.552 51.0937 111.546 51.0883 111.54 51.0816C111.527 51.0671 111.522 51.0564 111.523 51.0586L113.368 50.2851ZM111.293 49.0664C110.844 49.0664 110.384 49.1451 109.974 49.3748C109.544 49.6158 109.239 49.9853 109.069 50.4352L110.939 51.143C110.948 51.1197 110.953 51.1152 110.95 51.1192C110.946 51.1236 110.944 51.1236 110.952 51.1194C110.972 51.1082 111.064 51.0664 111.293 51.0664V49.0664ZM109.069 50.4352C108.927 50.8108 108.85 51.3059 108.803 51.8445C108.754 52.4052 108.73 53.0977 108.73 53.9141H110.73C110.73 53.1289 110.753 52.4997 110.795 52.0188C110.839 51.5157 110.899 51.2491 110.939 51.143L109.069 50.4352ZM108.73 53.9141V68.6016H110.73V53.9141H108.73ZM108.73 68.6016C108.73 69.3861 108.754 70.0537 108.803 70.5964C108.85 71.1173 108.928 71.6011 109.072 71.9718L110.936 71.2469C110.898 71.1489 110.839 70.897 110.795 70.4153C110.753 69.9554 110.73 69.3535 110.73 68.6016H108.73ZM109.072 71.9718C109.24 72.4049 109.535 72.7664 109.952 73.005C110.352 73.2336 110.8 73.3125 111.234 73.3125V71.3125C111.031 71.3125 110.954 71.2743 110.944 71.2685C110.941 71.2665 110.944 71.2682 110.948 71.2726C110.951 71.2764 110.945 71.2712 110.936 71.2469L109.072 71.9718ZM111.234 73.3125C111.662 73.3125 112.104 73.231 112.499 72.9979C112.909 72.7562 113.193 72.3951 113.358 71.9718L111.494 71.2469C111.483 71.2752 111.475 71.2833 111.477 71.281C111.48 71.278 111.483 71.2754 111.483 71.2755C111.481 71.2768 111.418 71.3125 111.234 71.3125V73.3125ZM113.349 71.994C113.51 71.6073 113.592 71.0822 113.642 70.521C113.694 69.9299 113.719 69.1895 113.719 68.3086H111.719C111.719 69.1595 111.695 69.8351 111.649 70.3442C111.602 70.8833 111.537 71.1427 111.503 71.2248L113.349 71.994ZM113.719 68.3086V64.3438H111.719V68.3086H113.719ZM112.719 65.3438H120.941V63.3438H112.719V65.3438ZM119.941 64.3438V65.5742H121.941V64.3438H119.941ZM119.941 65.5742C119.941 68.8358 119.703 71.0066 119.292 72.203L121.184 72.8517C121.712 71.3137 121.941 68.8491 121.941 65.5742H119.941ZM119.29 72.2111C118.925 73.3037 118.086 74.3375 116.628 75.2817L117.715 76.9605C119.434 75.8474 120.64 74.4853 121.187 72.8436L119.29 72.2111ZM116.625 75.2838C115.246 76.184 113.501 76.6641 111.332 76.6641V78.6641C113.799 78.6641 115.946 78.1155 117.719 76.9584L116.625 75.2838ZM111.332 76.6641C109.037 76.6641 107.233 76.2477 105.862 75.4823L104.888 77.2286C106.642 78.2081 108.809 78.6641 111.332 78.6641V76.6641ZM105.862 75.4823C104.494 74.718 103.64 73.7012 103.219 72.4284L101.32 73.056C101.915 74.8561 103.131 76.2482 104.888 77.2286L105.862 75.4823ZM103.22 72.4308C102.763 71.0355 102.508 68.8399 102.508 65.7695H100.508C100.508 68.897 100.761 71.3499 101.319 73.0536L103.22 72.4308ZM102.508 65.7695V56.5312H100.508V65.7695H102.508ZM102.508 56.5312C102.508 54.2628 102.586 52.6131 102.733 51.5507L100.752 51.2774C100.586 52.4807 100.508 54.2424 100.508 56.5312H102.508ZM102.733 51.5492C102.864 50.5874 103.254 49.6404 103.937 48.702L102.321 47.5245C101.468 48.6956 100.933 49.949 100.751 51.2789L102.733 51.5492ZM103.932 48.7085C104.596 47.8123 105.523 47.0875 106.753 46.5488L105.95 44.7169C104.446 45.376 103.224 46.3049 102.325 47.5181L103.932 48.7085ZM106.757 46.547C107.988 46.0009 109.428 45.7148 111.098 45.7148V43.7148C109.199 43.7148 107.475 44.0407 105.946 44.7186L106.757 46.547ZM111.098 45.7148C113.396 45.7148 115.204 46.16 116.582 46.9805L117.605 45.2617C115.833 44.2072 113.643 43.7148 111.098 43.7148V45.7148ZM116.582 46.9805C118.004 47.8266 118.856 48.8308 119.256 49.9686L121.143 49.3048C120.553 47.6302 119.334 46.2905 117.605 45.2617L116.582 46.9805ZM119.257 49.9714C119.692 51.1963 119.941 53.228 119.941 56.1602H121.941C121.941 53.1808 121.696 50.8636 121.142 49.3021L119.257 49.9714ZM119.941 56.1602V59.168H121.941V56.1602H119.941ZM131.547 51.082L132.543 51.1736L132.643 50.082H131.547V51.082ZM131.234 54.4805L130.239 54.3889L132.139 54.9063L131.234 54.4805ZM136.215 50.6133H137.215V49.5452L136.149 49.6154L136.215 50.6133ZM136.215 59.7344V60.7344H137.215V59.7344H136.215ZM131.781 61.9609L132.757 62.1818L132.757 62.1779L131.781 61.9609ZM131.547 77V78H132.547V77H131.547ZM123.656 77H122.656V78H123.656V77ZM123.656 51.082V50.082H122.656V51.082H123.656ZM130.551 50.9905L130.239 54.3889L132.23 54.572L132.543 51.1736L130.551 50.9905ZM132.139 54.9063C133.173 52.7093 134.559 51.7245 136.281 51.6111L136.149 49.6154C133.521 49.7885 131.587 51.3818 130.33 54.0547L132.139 54.9063ZM135.215 50.6133V59.7344H137.215V50.6133H135.215ZM136.215 58.7344C134.72 58.7344 133.442 58.9291 132.532 59.4541L133.531 61.1865C133.975 60.9302 134.819 60.7344 136.215 60.7344V58.7344ZM132.532 59.4541C131.635 59.9715 131.028 60.7422 130.805 61.744L132.757 62.1779C132.847 61.7734 133.074 61.4504 133.531 61.1865L132.532 59.4541ZM130.806 61.7401C130.62 62.5616 130.547 64.2857 130.547 66.7656H132.547C132.547 64.2195 132.63 62.7405 132.757 62.1818L130.806 61.7401ZM130.547 66.7656V77H132.547V66.7656H130.547ZM131.547 76H123.656V78H131.547V76ZM124.656 77V51.082H122.656V77H124.656ZM123.656 52.082H131.547V50.082H123.656V52.082ZM155.863 64.5V65.5H156.863V64.5H155.863ZM145.648 64.5V63.5H144.648V64.5H145.648ZM148.07 72.2148L147.161 71.799L147.155 71.8112L148.07 72.2148ZM148.383 66.1797V65.1797H147.383V66.1797H148.383ZM155.863 66.1797H156.863V65.1797H155.863V66.1797ZM155.551 71.7852L154.579 71.5496L154.577 71.5565L154.576 71.5635L155.551 71.7852ZM151.312 76.7461L151.704 77.6663L151.709 77.6642L151.312 76.7461ZM139.633 74.7734L138.864 75.4125L138.869 75.4189L138.874 75.4252L139.633 74.7734ZM138.168 72L137.202 72.26L137.203 72.2631L138.168 72ZM138.676 54.6758L139.581 55.1011L139.582 55.0977L138.676 54.6758ZM141.684 51.668L142.127 52.5641L142.134 52.5607L141.684 51.668ZM151.957 51.8828L151.448 52.7438L151.458 52.7491L151.957 51.8828ZM154.984 55.2227L154.059 55.603L154.064 55.6134L154.984 55.2227ZM147.953 60.2812V61.2812H148.953V60.2812H147.953ZM145.844 55.7109L146.772 56.0824L146.777 56.0699L145.844 55.7109ZM145.648 60.2812H144.648V61.2812H145.648V60.2812ZM155.863 63.5H145.648V65.5H155.863V63.5ZM144.648 64.5V70.1055H146.648V64.5H144.648ZM144.648 70.1055C144.648 70.711 144.67 71.2334 144.718 71.6622C144.763 72.0632 144.841 72.4838 145.008 72.8183L146.797 71.9239C146.802 71.9345 146.787 71.9061 146.765 71.8129C146.745 71.7246 146.724 71.6021 146.706 71.4394C146.669 71.1129 146.648 70.6718 146.648 70.1055H144.648ZM145.008 72.8183C145.395 73.5931 146.141 73.8789 146.879 73.8789V71.8789C146.75 71.8789 146.718 71.8557 146.735 71.8647C146.745 71.8698 146.76 71.8799 146.775 71.8954C146.79 71.9106 146.796 71.9225 146.797 71.9239L145.008 72.8183ZM146.879 73.8789C147.296 73.8789 147.726 73.8022 148.113 73.5864C148.514 73.3628 148.806 73.0252 148.985 72.6185L147.155 71.8112C147.145 71.8346 147.138 71.8412 147.14 71.8396C147.142 71.8376 147.143 71.8372 147.139 71.8394C147.129 71.8449 147.06 71.8789 146.879 71.8789V73.8789ZM148.98 72.6306C149.148 72.2633 149.241 71.8112 149.298 71.3373C149.356 70.8482 149.383 70.2653 149.383 69.5977H147.383C147.383 70.219 147.358 70.7169 147.312 71.1002C147.264 71.4986 147.201 71.7106 147.161 71.7991L148.98 72.6306ZM149.383 69.5977V66.1797H147.383V69.5977H149.383ZM148.383 67.1797H155.863V65.1797H148.383V67.1797ZM154.863 66.1797V68.0938H156.863V66.1797H154.863ZM154.863 68.0938C154.863 69.6689 154.759 70.8058 154.579 71.5496L156.523 72.0208C156.759 71.0458 156.863 69.7217 156.863 68.0938H154.863ZM154.576 71.5635C154.422 72.2405 154.036 73.0294 153.348 73.934L154.941 75.1441C155.738 74.0956 156.289 73.0486 156.526 72.0068L154.576 71.5635ZM153.348 73.934C152.712 74.7711 151.907 75.4002 150.916 75.828L151.709 77.6642C153.01 77.1024 154.093 76.2602 154.941 75.1441L153.348 73.934ZM150.921 75.8259C149.951 76.2385 148.669 76.4688 147.035 76.4688V78.4688C148.839 78.4688 150.409 78.2172 151.704 77.6663L150.921 75.8259ZM147.035 76.4688C145.463 76.4688 144.116 76.2414 142.974 75.8106L142.268 77.6816C143.679 78.2143 145.274 78.4688 147.035 78.4688V76.4688ZM142.974 75.8106C141.818 75.3739 140.975 74.8008 140.391 74.1217L138.874 75.4252C139.723 76.4127 140.872 77.1548 142.268 77.6816L142.974 75.8106ZM140.402 74.1344C139.785 73.3914 139.366 72.5936 139.133 71.7369L137.203 72.2631C137.516 73.4116 138.075 74.4628 138.864 75.4125L140.402 74.1344ZM139.134 71.74C138.895 70.8522 138.758 69.4851 138.758 67.5859H136.758C136.758 69.5409 136.895 71.1165 137.202 72.26L139.134 71.74ZM138.758 67.5859V60.0273H136.758V67.5859H138.758ZM138.758 60.0273C138.758 57.8332 139.057 56.2155 139.581 55.1011L137.771 54.2504C137.071 55.7403 136.758 57.6903 136.758 60.0273H138.758ZM139.582 55.0977C140.091 54.004 140.922 53.1611 142.127 52.5641L141.24 50.7719C139.659 51.5551 138.484 52.7174 137.769 54.2539L139.582 55.0977ZM142.134 52.5607C143.367 51.9386 144.81 51.6133 146.488 51.6133V49.6133C144.547 49.6133 142.787 49.9911 141.233 50.7752L142.134 52.5607ZM146.488 51.6133C148.58 51.6133 150.213 52.0137 151.448 52.7437L152.466 51.0219C150.837 50.0592 148.823 49.6133 146.488 49.6133V51.6133ZM151.458 52.7491C152.733 53.4845 153.58 54.4364 154.06 55.603L155.909 54.8423C155.243 53.2224 154.072 51.9478 152.457 51.0165L151.458 52.7491ZM154.064 55.6134C154.574 56.8139 154.863 58.6051 154.863 61.0625H156.863C156.863 58.4939 156.567 56.3919 155.905 54.8319L154.064 55.6134ZM154.863 61.0625V64.5H156.863V61.0625H154.863ZM148.953 60.2812V58.3867H146.953V60.2812H148.953ZM148.953 58.3867C148.953 57.7017 148.935 57.1199 148.896 56.649C148.859 56.2017 148.798 55.774 148.677 55.4448L146.799 56.1333C146.822 56.1948 146.868 56.3953 146.903 56.8139C146.935 57.2089 146.953 57.7306 146.953 58.3867H148.953ZM148.677 55.4448C148.546 55.0875 148.319 54.7532 147.966 54.5176C147.617 54.2853 147.227 54.2031 146.859 54.2031V56.2031C146.897 56.2031 146.911 56.2073 146.907 56.2063C146.901 56.2048 146.882 56.1984 146.856 56.1817C146.831 56.1646 146.812 56.145 146.801 56.1299C146.79 56.116 146.792 56.1138 146.799 56.1333L148.677 55.4448ZM146.859 54.2031C146.144 54.2031 145.261 54.4402 144.91 55.352L146.777 56.0699C146.767 56.0974 146.747 56.133 146.715 56.167C146.684 56.2005 146.656 56.2179 146.643 56.2245C146.631 56.2301 146.639 56.2242 146.676 56.2171C146.713 56.2099 146.773 56.2031 146.859 56.2031V54.2031ZM144.915 55.3395C144.786 55.6639 144.732 56.1135 144.7 56.5512C144.665 57.0316 144.648 57.6463 144.648 58.3867H146.648C146.648 57.6688 146.665 57.1083 146.695 56.6968C146.71 56.491 146.727 56.334 146.746 56.2197C146.766 56.0944 146.78 56.0623 146.772 56.0823L144.915 55.3395ZM144.648 58.3867V60.2812H146.648V58.3867H144.648ZM145.648 61.2812H147.953V59.2812H145.648V61.2812ZM183.949 51.082L184.942 51.2025L185.078 50.082H183.949V51.082ZM180.805 77V78H181.691L181.797 77.1204L180.805 77ZM172.23 77L171.241 77.1465L171.368 78H172.23V77ZM170.609 64.5L171.602 64.3824L169.614 64.4084L170.609 64.5ZM169.73 71.375L168.743 71.2142L168.742 71.2206L169.73 71.375ZM168.852 77V78H169.707L169.84 77.1544L168.852 77ZM160.277 77L159.286 77.1278L159.398 78H160.277V77ZM156.938 51.082V50.082H155.8L155.946 51.2098L156.938 51.082ZM163.734 51.082L164.731 51.0053L164.66 50.082H163.734V51.082ZM165.453 65.9062L164.46 66.0242L166.45 65.9893L165.453 65.9062ZM167.211 51.082V50.082H166.326L166.218 50.9607L167.211 51.082ZM173.754 51.082L174.748 50.9746L174.652 50.082H173.754V51.082ZM175.355 65.9062L174.361 66.0137L176.354 65.9634L175.355 65.9062ZM177.152 51.082V50.082H176.309L176.167 50.9135L177.152 51.082ZM182.956 50.9616L179.812 76.8796L181.797 77.1204L184.942 51.2025L182.956 50.9616ZM180.805 76H172.23V78H180.805V76ZM173.22 76.8535C172.753 73.7031 172.214 69.5472 171.602 64.3824L169.616 64.6176C170.229 69.7913 170.77 73.9688 171.241 77.1465L173.22 76.8535ZM169.614 64.4084C169.407 66.6502 169.117 68.9187 168.743 71.2142L170.717 71.5358C171.099 69.1959 171.395 66.8811 171.605 64.5916L169.614 64.4084ZM168.742 71.2206L167.864 76.8456L169.84 77.1544L170.718 71.5294L168.742 71.2206ZM168.852 76H160.277V78H168.852V76ZM161.269 76.8722L157.929 50.9542L155.946 51.2098L159.286 77.1278L161.269 76.8722ZM156.938 52.082H163.734V50.082H156.938V52.082ZM162.737 51.1587C162.792 51.8631 163.369 56.8387 164.46 66.0242L166.446 65.7883C165.35 56.5623 164.781 51.6551 164.731 51.0053L162.737 51.1587ZM166.45 65.9893C166.526 65.0769 167.108 60.165 168.204 51.2034L166.218 50.9607C165.127 59.8897 164.537 64.8606 164.457 65.8232L166.45 65.9893ZM167.211 52.082H173.754V50.082H167.211V52.082ZM172.76 51.1894L174.361 66.0137L176.35 65.7988L174.748 50.9746L172.76 51.1894ZM176.354 65.9634C176.599 61.687 177.192 56.7839 178.138 51.2505L176.167 50.9135C175.212 56.4999 174.607 61.4797 174.357 65.8491L176.354 65.9634ZM177.152 52.082H183.949V50.082H177.152V52.082Z" fill="black"/>
</g>
<defs>
<filter id="filter0_d_11_20" x="29.3828" y="44.7148" width="158.566" height="40.9492" filterUnits="userSpaceOnUse" color-interpolation-filters="sRGB">
<feFlood flood-opacity="0" result="BackgroundImageFix"/>
<feColorMatrix in="SourceAlpha" type="matrix" values="0 0 0 0 0 0 0 0 0 0 0 0 0 0 0 0 0 0 127 0" result="hardAlpha"/>
<feOffset dy="4"/>
<feGaussianBlur stdDeviation="2"/>
<feComposite in2="hardAlpha" operator="out"/>
<feColorMatrix type="matrix" values="0 0 0 0 0 0 0 0 0 0 0 0 0 0 0 0 0 0 0.25 0"/>
<feBlend mode="normal" in2="BackgroundImageFix" result="effect1_dropShadow_11_20"/>
<feBlend mode="normal" in="SourceGraphic" in2="effect1_dropShadow_11_20" result="shape"/>
</filter>
</defs>
</svg>
