<svg width="226" height="81" viewBox="0 0 226 81" fill="none" xmlns="http://www.w3.org/2000/svg">
<path d="M12.0552 66.074H14.2512L16.3572 70.16L18.6432 66.074H20.8392L17.3472 72.032V77H15.4932V72.032L12.0552 66.074ZM28.411 73.436C28.411 74.552 28.069 75.464 27.385 76.172C26.701 76.88 25.801 77.234 24.685 77.234C23.581 77.234 22.681 76.88 21.985 76.172C21.289 75.464 20.941 74.558 20.941 73.454C20.941 72.338 21.283 71.426 21.967 70.718C22.651 70.01 23.551 69.656 24.667 69.656C25.783 69.656 26.683 70.01 27.367 70.718C28.063 71.414 28.411 72.32 28.411 73.436ZM22.705 73.472C22.705 74.132 22.891 74.672 23.263 75.092C23.635 75.512 24.115 75.722 24.703 75.722C25.291 75.722 25.759 75.5 26.107 75.056C26.467 74.6 26.647 74.066 26.647 73.454C26.647 72.83 26.467 72.296 26.107 71.852C25.747 71.396 25.273 71.168 24.685 71.168C24.109 71.168 23.635 71.384 23.263 71.816C22.891 72.248 22.705 72.8 22.705 73.472ZM31.0823 69.89V73.742C31.0823 75.122 31.5623 75.812 32.5223 75.812C33.4823 75.812 33.9623 75.122 33.9623 73.742V69.89H35.7083V74.066C35.7083 76.178 34.6463 77.234 32.5223 77.234C30.3983 77.234 29.3363 76.178 29.3363 74.066V69.89H31.0823ZM38.8703 70.628C39.3143 69.98 40.0103 69.656 40.9583 69.656C41.2583 69.656 41.5343 69.716 41.7863 69.836L41.5703 71.42C41.3063 71.252 41.0183 71.168 40.7063 71.168C39.4823 71.168 38.8703 72.044 38.8703 73.796V77H37.1243V69.89H38.8703V70.628ZM56.7426 69.638L54.0066 77.144H53.5566L50.9826 69.602L49.7406 77H47.8866L49.7226 65.786H51.0906L53.9346 73.292L56.6526 65.786H58.0386L59.6766 77H57.8226L56.7426 69.638ZM67.2879 77H65.5779V76.352C65.0739 76.94 64.3239 77.234 63.3279 77.234C62.3319 77.234 61.5339 76.85 60.9339 76.082C60.3459 75.314 60.0519 74.414 60.0519 73.382C60.0519 72.35 60.3519 71.474 60.9519 70.754C61.5639 70.022 62.3439 69.656 63.2919 69.656C64.2999 69.656 65.0619 69.956 65.5779 70.556V69.89H67.2879V77ZM65.7759 73.436C65.7759 72.776 65.5899 72.236 65.2179 71.816C64.8459 71.384 64.3659 71.168 63.7779 71.168C63.2019 71.168 62.7279 71.378 62.3559 71.798C61.9959 72.206 61.8159 72.752 61.8159 73.436C61.8159 74.12 62.0019 74.672 62.3739 75.092C62.7459 75.512 63.2259 75.722 63.8139 75.722C64.4019 75.722 64.8759 75.518 65.2359 75.11C65.5959 74.702 65.7759 74.144 65.7759 73.436ZM70.4933 70.538C70.9973 69.95 71.7473 69.656 72.7433 69.656C73.6793 69.656 74.4533 70.028 75.0653 70.772C75.6893 71.516 76.0013 72.392 76.0013 73.4C76.0013 74.492 75.6953 75.404 75.0833 76.136C74.4713 76.868 73.6793 77.234 72.7073 77.234C71.6633 77.234 70.9373 76.934 70.5293 76.334L70.4933 80.006H68.7473V69.89H70.4933V70.538ZM74.2193 73.436C74.2193 72.824 74.0453 72.296 73.6973 71.852C73.3493 71.396 72.8693 71.168 72.2573 71.168C71.6933 71.168 71.2253 71.396 70.8533 71.852C70.4813 72.308 70.2953 72.836 70.2953 73.436C70.2953 74.024 70.4933 74.552 70.8893 75.02C71.2853 75.488 71.7413 75.722 72.2573 75.722C72.8693 75.722 73.3493 75.506 73.6973 75.074C74.0453 74.642 74.2193 74.096 74.2193 73.436ZM85.0925 77H83.3465V71.456H82.5005V70.034H83.3465V67.478H85.0925V70.034H86.4785V71.456H85.0925V77ZM93.9071 73.436C93.9071 74.552 93.5651 75.464 92.8811 76.172C92.1971 76.88 91.2971 77.234 90.1811 77.234C89.0771 77.234 88.1771 76.88 87.4811 76.172C86.7851 75.464 86.4371 74.558 86.4371 73.454C86.4371 72.338 86.7791 71.426 87.4631 70.718C88.1471 70.01 89.0471 69.656 90.1631 69.656C91.2791 69.656 92.1791 70.01 92.8631 70.718C93.5591 71.414 93.9071 72.32 93.9071 73.436ZM88.2011 73.472C88.2011 74.132 88.3871 74.672 88.7591 75.092C89.1311 75.512 89.6111 75.722 90.1991 75.722C90.7871 75.722 91.2551 75.5 91.6031 75.056C91.9631 74.6 92.1431 74.066 92.1431 73.454C92.1431 72.83 91.9631 72.296 91.6031 71.852C91.2431 71.396 90.7691 71.168 90.1811 71.168C89.6051 71.168 89.1311 71.384 88.7591 71.816C88.3871 72.248 88.2011 72.8 88.2011 73.472ZM102.788 75.434H106.082V77H100.934V66.074H102.788V75.434ZM113.7 73.436C113.7 74.552 113.358 75.464 112.674 76.172C111.99 76.88 111.09 77.234 109.974 77.234C108.87 77.234 107.97 76.88 107.274 76.172C106.578 75.464 106.23 74.558 106.23 73.454C106.23 72.338 106.572 71.426 107.256 70.718C107.94 70.01 108.84 69.656 109.956 69.656C111.072 69.656 111.972 70.01 112.656 70.718C113.352 71.414 113.7 72.32 113.7 73.436ZM107.994 73.472C107.994 74.132 108.18 74.672 108.552 75.092C108.924 75.512 109.404 75.722 109.992 75.722C110.58 75.722 111.048 75.5 111.396 75.056C111.756 74.6 111.936 74.066 111.936 73.454C111.936 72.83 111.756 72.296 111.396 71.852C111.036 71.396 110.562 71.168 109.974 71.168C109.398 71.168 108.924 71.384 108.552 71.816C108.18 72.248 107.994 72.8 107.994 73.472ZM119.503 71.744C119.059 71.3 118.561 71.078 118.009 71.078C117.361 71.078 116.851 71.312 116.479 71.78C116.107 72.248 115.921 72.824 115.921 73.508C115.921 74.18 116.131 74.732 116.551 75.164C116.971 75.596 117.481 75.812 118.081 75.812C118.597 75.812 119.071 75.584 119.503 75.128V76.802C118.999 77.09 118.417 77.234 117.757 77.234C116.725 77.234 115.867 76.868 115.183 76.136C114.499 75.404 114.157 74.51 114.157 73.454C114.157 72.398 114.505 71.504 115.201 70.772C115.909 70.028 116.791 69.656 117.847 69.656C118.471 69.656 119.023 69.806 119.503 70.106V71.744ZM127.493 77H125.783V76.352C125.279 76.94 124.529 77.234 123.533 77.234C122.537 77.234 121.739 76.85 121.139 76.082C120.551 75.314 120.257 74.414 120.257 73.382C120.257 72.35 120.557 71.474 121.157 70.754C121.769 70.022 122.549 69.656 123.497 69.656C124.505 69.656 125.267 69.956 125.783 70.556V69.89H127.493V77ZM125.981 73.436C125.981 72.776 125.795 72.236 125.423 71.816C125.051 71.384 124.571 71.168 123.983 71.168C123.407 71.168 122.933 71.378 122.561 71.798C122.201 72.206 122.021 72.752 122.021 73.436C122.021 74.12 122.207 74.672 122.579 75.092C122.951 75.512 123.431 75.722 124.019 75.722C124.607 75.722 125.081 75.518 125.441 75.11C125.801 74.702 125.981 74.144 125.981 73.436ZM130.842 77H129.096V64.706H130.842V77ZM140.515 74.552L139.543 77H137.581L141.829 65.786H143.485L147.625 77H145.645L144.727 74.552H140.515ZM142.549 68.468L140.965 73.094H144.223L142.549 68.468ZM153.24 76.334C152.772 76.934 152.034 77.234 151.026 77.234C150.018 77.234 149.214 76.85 148.614 76.082C148.026 75.314 147.732 74.414 147.732 73.382C147.732 72.35 148.032 71.474 148.632 70.754C149.244 70.022 150.024 69.656 150.972 69.656C151.98 69.656 152.724 69.95 153.204 70.538L153.24 64.706H154.986V77H153.24V76.334ZM153.438 73.436C153.438 72.812 153.246 72.278 152.862 71.834C152.478 71.39 152.016 71.168 151.476 71.168C150.936 71.168 150.468 71.39 150.072 71.834C149.688 72.266 149.496 72.806 149.496 73.454C149.496 74.09 149.682 74.63 150.054 75.074C150.438 75.506 150.918 75.722 151.494 75.722C152.07 75.722 152.538 75.512 152.898 75.092C153.258 74.66 153.438 74.108 153.438 73.436ZM159.343 74.39L161.089 69.89H163.033L159.757 77.144H158.713L155.455 69.89H157.381L159.343 74.39ZM164.843 73.616C164.843 74.3 164.993 74.864 165.293 75.308C165.593 75.752 166.007 75.974 166.535 75.974C167.363 75.974 167.891 75.566 168.119 74.75L169.775 75.02C169.235 76.496 168.155 77.234 166.535 77.234C165.455 77.234 164.591 76.892 163.943 76.208C163.307 75.512 162.989 74.612 162.989 73.508C162.989 72.344 163.295 71.414 163.907 70.718C164.531 70.01 165.371 69.656 166.427 69.656C167.495 69.656 168.323 69.992 168.911 70.664C169.511 71.324 169.811 72.23 169.811 73.382V73.616H164.843ZM168.191 72.644C168.191 72.152 168.035 71.72 167.723 71.348C167.423 70.976 167.027 70.79 166.535 70.79C166.055 70.79 165.659 70.988 165.347 71.384C165.047 71.768 164.897 72.188 164.897 72.644H168.191ZM172.499 70.538C172.991 69.95 173.717 69.656 174.677 69.656C176.309 69.656 177.125 70.658 177.125 72.662V77H175.397V73.238C175.397 71.738 174.935 70.988 174.011 70.988C173.003 70.988 172.499 71.792 172.499 73.4V77H170.753V69.89H172.499V70.538ZM180.717 77H178.971V71.456H178.125V70.034H178.971V67.478H180.717V70.034H182.103V71.456H180.717V77ZM184.258 69.89V73.742C184.258 75.122 184.738 75.812 185.698 75.812C186.658 75.812 187.138 75.122 187.138 73.742V69.89H188.884V74.066C188.884 76.178 187.822 77.234 185.698 77.234C183.574 77.234 182.512 76.178 182.512 74.066V69.89H184.258ZM192.046 70.628C192.49 69.98 193.186 69.656 194.134 69.656C194.434 69.656 194.71 69.716 194.962 69.836L194.746 71.42C194.482 71.252 194.194 71.168 193.882 71.168C192.658 71.168 192.046 72.044 192.046 73.796V77H190.3V69.89H192.046V70.628ZM196.959 73.616C196.959 74.3 197.109 74.864 197.409 75.308C197.709 75.752 198.123 75.974 198.651 75.974C199.479 75.974 200.007 75.566 200.235 74.75L201.891 75.02C201.351 76.496 200.271 77.234 198.651 77.234C197.571 77.234 196.707 76.892 196.059 76.208C195.423 75.512 195.105 74.612 195.105 73.508C195.105 72.344 195.411 71.414 196.023 70.718C196.647 70.01 197.487 69.656 198.543 69.656C199.611 69.656 200.439 69.992 201.027 70.664C201.627 71.324 201.927 72.23 201.927 73.382V73.616H196.959ZM200.307 72.644C200.307 72.152 200.151 71.72 199.839 71.348C199.539 70.976 199.143 70.79 198.651 70.79C198.171 70.79 197.775 70.988 197.463 71.384C197.163 71.768 197.013 72.188 197.013 72.644H200.307ZM206.666 71.366C206.282 71.006 205.88 70.826 205.46 70.826C204.824 70.826 204.506 71.114 204.506 71.69C204.506 72.014 204.794 72.278 205.37 72.482C206.426 72.866 207.08 73.22 207.332 73.544C207.584 73.856 207.71 74.246 207.71 74.714C207.71 75.482 207.44 76.094 206.9 76.55C206.372 77.006 205.718 77.234 204.938 77.234C203.93 77.234 203.096 76.838 202.436 76.046L203.21 75.056C203.81 75.656 204.362 75.956 204.866 75.956C205.598 75.956 205.964 75.602 205.964 74.894C205.964 74.534 205.772 74.27 205.388 74.102C205.004 73.922 204.71 73.79 204.506 73.706C203.402 73.226 202.85 72.644 202.85 71.96C202.85 71.276 203.054 70.724 203.462 70.304C203.882 69.872 204.428 69.656 205.1 69.656C206.06 69.656 206.822 69.902 207.386 70.394L206.666 71.366ZM211.6 75.974C211.6 76.298 211.486 76.58 211.258 76.82C211.042 77.048 210.772 77.162 210.448 77.162C210.124 77.162 209.848 77.048 209.62 76.82C209.392 76.592 209.278 76.322 209.278 76.01C209.278 75.686 209.392 75.41 209.62 75.182C209.848 74.954 210.118 74.84 210.43 74.84C210.754 74.84 211.03 74.948 211.258 75.164C211.486 75.38 211.6 75.65 211.6 75.974ZM209.548 66.074H211.33V73.85H209.548V66.074Z" fill="#7353F4"/>
<path d="M3.00049 17.1962C8.99591 28.6722 28.6161 44.9422 47.9661 34.4102C76.7162 18.7619 101.887 8.37723 113.274 19.9159C127.107 33.9324 124.661 41.3747 155.284 39.7896C163.018 39.3892 169.011 37.2237 178 34.339" stroke="#6F6F6F" stroke-width="6" stroke-linecap="round" stroke-linejoin="round" stroke-dasharray="2.5 0"/>
<path d="M19.9902 22.4445C19.9105 24.0431 20.0464 25.4288 20.3979 26.6017C20.7494 27.7746 21.297 28.7523 22.0407 29.5347C22.8029 30.3181 23.7422 30.9147 24.8585 31.3244C25.9934 31.735 27.2951 31.9769 28.7636 32.0501C30.511 32.1372 32.585 32.0263 34.9857 31.7173C37.0212 31.4554 39.2454 31.0354 41.6585 30.4573C42.3135 30.3004 42.9412 30.813 42.9077 31.4858L42.3606 42.4618C42.3392 42.891 42.0461 43.2594 41.6311 43.3707C38.8324 44.1215 36.1091 44.6375 33.4611 44.9187C30.6134 45.224 27.814 45.3081 25.0629 45.171C21.6983 45.0033 18.5684 44.428 15.673 43.4451C12.7963 42.4632 10.3168 40.9885 8.23459 39.0213C6.17187 37.0363 4.58867 34.5908 3.48498 31.6846C2.38129 28.7785 1.92534 25.4015 2.11713 21.5536C2.30428 17.7987 3.03245 14.5925 4.30163 11.9351C5.5894 9.27857 7.3178 7.12853 9.48683 5.48496C11.6754 3.82373 14.2497 2.6476 17.2098 1.95656C20.1885 1.26646 23.4624 1.01035 27.0314 1.18824C29.2249 1.29757 31.1898 1.50731 32.926 1.81746C34.6808 2.12855 36.2562 2.48659 37.6523 2.89161C39.0484 3.29662 40.2748 3.73976 41.3316 4.22104C42.1694 4.58188 42.9342 4.93344 43.6261 5.27573C43.9771 5.44934 44.1871 5.81683 44.1676 6.20789L43.6101 17.3934C43.5826 17.945 43.1132 18.3699 42.5616 18.3424L35.684 17.9996C35.36 17.9834 35.0662 17.8095 34.8815 17.5429C34.0695 16.371 33.1544 15.4766 32.1362 14.8598C31.0152 14.1703 29.8412 13.795 28.6144 13.7339C27.5734 13.682 26.5501 13.836 25.5445 14.1958C24.5575 14.5566 23.6635 15.1084 22.8625 15.8511C22.0614 16.5938 21.4003 17.5206 20.879 18.6313C20.3587 19.7235 20.0624 20.9945 19.9902 22.4445Z" fill="#7353F4"/>
<path d="M80.4271 42.199C80.3793 42.7335 79.9183 43.135 79.3823 43.1088L67.3629 42.5221C66.9737 42.5031 66.6318 42.2616 66.4857 41.9005C65.9317 40.5305 64.5835 37.1917 64.28 36.3919C63.8957 35.3789 63.5361 34.3361 63.2014 33.2634C62.914 32.2984 62.6717 31.3105 62.4747 30.2997C62.4362 30.1025 62.2691 29.9558 62.0685 29.9458C61.8328 29.9341 61.6311 30.1132 61.6149 30.3487L60.8676 41.2027C60.8302 41.7463 60.3644 42.1599 59.8202 42.1328L45.0466 41.3964C44.4857 41.3685 44.0578 40.8843 44.0991 40.3243L44.6857 32.3561C44.7203 31.8866 45.0777 31.5048 45.5439 31.4393L46.7414 31.271C47.2164 31.2043 47.5772 30.8097 47.601 30.3306L48.1777 18.7604C48.2016 18.2813 47.8819 17.8527 47.4159 17.7391L46.2602 17.4573C45.7942 17.3437 45.4745 16.9151 45.4983 16.436L45.8637 9.1053C45.8912 8.5537 46.3607 8.12883 46.9123 8.15632L64.9437 9.05505C67.4687 9.1809 69.6397 9.39781 71.4568 9.70579C73.2894 10.0145 74.8304 10.4097 76.0798 10.8912C77.3446 11.3736 78.357 11.9365 79.1169 12.58C79.8776 13.208 80.4559 13.9124 80.8518 14.693C81.264 15.459 81.5251 16.295 81.6352 17.2012C81.7454 18.1074 81.7753 19.0639 81.7251 20.0708C81.6742 21.0932 81.5272 22.0176 81.2841 22.844C81.0565 23.6713 80.6775 24.4211 80.1471 25.0934C79.6166 25.7658 78.903 26.3747 78.0062 26.9201C77.3615 27.3086 76.5889 27.6741 75.6885 28.0166C75.1364 28.2266 74.857 28.8513 75.1429 29.3681C75.3264 29.6999 75.539 30.0582 75.7808 30.4429C76.3006 31.2298 76.8657 32.0422 77.4762 32.8801C78.0874 33.7025 78.6921 34.5014 79.2901 35.2766C79.7913 35.9104 80.2341 36.4689 80.6185 36.9519C80.7786 37.1531 80.8554 37.4083 80.8325 37.6645L80.4271 42.199ZM62.0077 22.629C61.9802 23.1806 62.4051 23.653 62.9574 23.6583C63.4222 23.6627 63.8578 23.652 64.2641 23.6263C64.9658 23.5681 65.5637 23.4115 66.0578 23.1566C66.5682 22.887 66.9689 22.4799 67.26 21.9354C67.5512 21.3909 67.7203 20.6461 67.7674 19.7012C67.8137 18.7718 67.7191 18.0217 67.4836 17.4509C67.248 16.8801 66.8897 16.4352 66.4087 16.1162C65.9439 15.7824 65.3653 15.5517 64.6729 15.424C64.2716 15.3488 63.8395 15.2884 63.3767 15.2428C62.8271 15.1887 62.3572 15.6171 62.3297 16.1687L62.0077 22.629Z" fill="#7353F4"/>
<path d="M100.675 24.8272C100.643 25.4626 101.205 25.9656 101.833 25.8642L106.224 25.1554C106.852 25.054 107.413 25.557 107.382 26.1924L107.158 30.6735C107.127 31.3103 106.515 31.7551 105.9 31.5893L101.609 30.4335C100.993 30.2677 100.382 30.7126 100.35 31.3493L100.193 34.5042C100.165 35.0558 100.59 35.528 101.142 35.5295C101.768 35.5312 102.382 35.5043 102.983 35.4488C103.901 35.3479 104.756 35.1948 105.549 34.9898C106.342 34.7847 107.072 34.5357 107.739 34.2429C108.279 34.0054 108.762 33.749 109.186 33.4737C109.376 33.3509 109.597 33.2838 109.822 33.295L111.818 33.3945C112.37 33.422 112.795 33.8914 112.767 34.443L112.303 43.7474C112.276 44.299 111.806 44.7239 111.255 44.6964L83.097 43.293C82.5454 43.2655 82.1205 42.796 82.148 42.2444L82.483 35.5237C82.5069 35.0446 82.8676 34.6499 83.3426 34.5832L84.6612 34.398C85.1362 34.3312 85.497 33.9366 85.5209 33.4575L86.128 21.275C86.1519 20.7959 85.8322 20.3674 85.3662 20.2537L84.0726 19.9383C83.6065 19.8246 83.2868 19.3961 83.3107 18.917L83.6421 12.2694C83.6696 11.7178 84.139 11.2929 84.6906 11.3204L112.848 12.7239C113.4 12.7514 113.825 13.2208 113.797 13.7724L113.334 23.0768C113.306 23.6284 112.837 24.0533 112.285 24.0258L110.277 23.9257C110.059 23.9149 109.852 23.8315 109.68 23.698C109.283 23.3909 108.826 23.0917 108.309 22.8004C107.675 22.4427 106.973 22.1224 106.205 21.8395C105.436 21.5566 104.6 21.3192 103.696 21.1275C103.105 21.0018 102.497 20.9069 101.874 20.8427C101.325 20.7861 100.855 21.214 100.827 21.7656L100.675 24.8272Z" fill="#7353F4"/>
<path d="M123.484 45.455C123.03 45.4324 122.648 45.1064 122.555 44.6614L118.057 23.2013C117.975 22.814 117.674 22.511 117.287 22.4285L115.692 22.0882C115.212 21.9858 114.877 21.5504 114.902 21.0604L115.256 13.959C115.283 13.4074 115.753 12.9825 116.304 13.01L130.458 13.7154C131.009 13.7429 131.434 14.2124 131.407 14.764L131.05 21.9146C131.027 22.3826 130.682 22.7717 130.22 22.8505L129.678 22.9431C129.152 23.0329 128.789 23.5192 128.853 24.0486L129.988 33.4571C130.114 34.4954 131.547 34.6689 131.917 33.6905L135.393 24.4804C135.601 23.9297 135.29 23.3194 134.723 23.1631L134.332 23.0555C133.88 22.9311 133.576 22.5096 133.599 22.0416L133.955 14.891C133.983 14.3394 134.452 13.9145 135.004 13.942L150.347 14.7067C150.899 14.7342 151.323 15.2037 151.296 15.7553L150.939 22.9076C150.916 23.3749 150.572 23.7635 150.111 23.8432L149.662 23.9209C149.107 24.0167 148.741 24.5508 148.851 25.1024L150.753 34.609C150.958 35.635 152.402 35.6966 152.694 34.6917L155.387 25.4194C155.542 24.8838 155.23 24.3245 154.692 24.1764L154.222 24.0468C153.77 23.9224 153.465 23.501 153.488 23.0329L153.85 15.7687C153.878 15.2171 154.347 14.7923 154.899 14.8198L167.848 15.4652C168.4 15.4927 168.824 15.9621 168.797 16.5137L168.437 23.7297C168.413 24.2193 168.037 24.619 167.55 24.6737L165.915 24.8571C165.54 24.8992 165.22 25.1492 165.089 25.5034L157.329 46.4415C157.177 46.8508 156.778 47.1144 156.342 47.0927L145.733 46.564C145.298 46.5423 144.928 46.2424 144.816 45.8221L142.493 37.0801C142.242 36.1378 140.929 36.0744 140.589 36.9883L137.44 45.4514C137.288 45.8601 136.889 46.1231 136.453 46.1014L123.484 45.455Z" fill="#7353F4"/>
<g clip-path="url(#clip0_1225_9867)">
<path d="M209.854 31.9879C206.96 39.2734 193.812 46.0197 188.942 44.086C184.073 42.1522 179.421 27.5019 182.314 20.2164C185.343 12.5901 194.294 9.70197 201.466 12.5499C208.637 15.3979 213.169 23.6401 209.854 31.9879Z" stroke="#7353F4" stroke-width="4" stroke-linecap="round" stroke-linejoin="round"/>
<path d="M201.466 28.5807C200.245 31.6543 196.764 33.1564 193.691 31.9359C190.617 30.7153 189.115 27.2343 190.335 24.1607C191.556 21.0871 195.037 19.585 198.111 20.8055C201.184 22.0261 202.686 25.5072 201.466 28.5807Z" stroke="#7353F4" stroke-width="4" stroke-linecap="round" stroke-linejoin="round"/>
<path d="M197.52 43.1509C197.952 45.5961 198.815 50.4865 198.815 50.4865C199.821 50.4865 201.835 50.4865 201.835 50.4865" stroke="#7353F4" stroke-width="4" stroke-linecap="round" stroke-linejoin="round"/>
<path d="M212.856 37.1095L212.856 39.1095C213.534 39.1095 214.167 38.7651 214.535 38.1949L212.856 37.1095ZM217.324 33.8799C217.923 32.9521 217.657 31.7141 216.729 31.1146C215.801 30.5151 214.563 30.7813 213.964 31.709L217.324 33.8799ZM205.288 39.1095L212.856 39.1095L212.856 35.1095L205.288 35.1095L205.288 39.1095ZM214.535 38.1949L217.324 33.8799L213.964 31.709L211.176 36.0241L214.535 38.1949Z" fill="#7353F4"/>
<path d="M184.576 40.5615C183.281 42.5752 180.692 46.6026 180.692 46.6026C179.685 45.8835 177.671 44.4451 177.671 44.4451" stroke="#7353F4" stroke-width="4" stroke-linecap="round" stroke-linejoin="round"/>
<path d="M176.101 29.779L174.687 28.3648C174.151 28.9005 173.964 29.6928 174.204 30.4115L176.101 29.779ZM175.395 33.9849C175.744 35.0328 176.877 35.5991 177.925 35.2498C178.973 34.9006 179.539 33.7679 179.19 32.72L175.395 33.9849ZM180.643 22.409L174.687 28.3648L177.515 31.1932L183.471 25.2375L180.643 22.409ZM174.204 30.4115L175.395 33.9849L179.19 32.72L177.998 29.1466L174.204 30.4115Z" fill="#7353F4"/>
</g>
<path d="M3.00049 16C3.00049 16 6.64335 20.0833 11.5005 18.7222C16.3576 17.3611 20.0005 18.7222 20.0005 18.7222" stroke="#6F6F6F" stroke-width="5" stroke-linecap="round" stroke-linejoin="round" stroke-dasharray="2.5 0"/>
<defs>
<clipPath id="clip0_1225_9867">
<rect width="47.9035" height="47.9035" fill="white" transform="translate(180.68) rotate(21.6587)"/>
</clipPath>
</defs>
</svg>
