<svg width="24" height="24" viewBox="0 0 24 24" fill="none" xmlns="http://www.w3.org/2000/svg">
<path fill-rule="evenodd" clip-rule="evenodd" d="M7.71316 12.0031C7.71316 12.2281 7.66882 12.451 7.58269 12.659C7.49655 12.8669 7.3703 13.0559 7.21114 13.215C7.05198 13.3742 6.86303 13.5005 6.65508 13.5866C6.44712 13.6727 6.22424 13.7171 5.99916 13.7171C5.77407 13.7171 5.55119 13.6727 5.34324 13.5866C5.13528 13.5005 4.94634 13.3742 4.78718 13.215C4.62802 13.0559 4.50176 12.8669 4.41563 12.659C4.32949 12.451 4.28516 12.2281 4.28516 12.0031C4.28516 11.5485 4.46574 11.1125 4.78718 10.7911C5.10861 10.4696 5.54458 10.2891 5.99916 10.2891C6.45374 10.2891 6.8897 10.4696 7.21114 10.7911C7.53257 11.1125 7.71316 11.5485 7.71316 12.0031ZM11.9992 13.7181C12.4539 13.7181 12.89 13.5374 13.2115 13.2159C13.533 12.8944 13.7137 12.4583 13.7137 12.0036C13.7137 11.5488 13.533 11.1128 13.2115 10.7912C12.89 10.4697 12.4539 10.2891 11.9992 10.2891C11.5444 10.2891 11.1084 10.4697 10.7868 10.7912C10.4653 11.1128 10.2847 11.5488 10.2847 12.0036C10.2847 12.4583 10.4653 12.8944 10.7868 13.2159C11.1084 13.5374 11.5444 13.7181 11.9992 13.7181ZM17.9992 13.7181C18.4539 13.7181 18.89 13.5374 19.2115 13.2159C19.533 12.8944 19.7137 12.4583 19.7137 12.0036C19.7137 11.5488 19.533 11.1128 19.2115 10.7912C18.89 10.4697 18.4539 10.2891 17.9992 10.2891C17.5444 10.2891 17.1084 10.4697 16.7868 10.7912C16.4653 11.1128 16.2847 11.5488 16.2847 12.0036C16.2847 12.4583 16.4653 12.8944 16.7868 13.2159C17.1084 13.5374 17.5444 13.7181 17.9992 13.7181Z" fill="current"/>
</svg>
