<svg width="16" height="16" viewBox="0 0 16 16" fill="none" xmlns="http://www.w3.org/2000/svg">
<g id="users">
<path id="Vector" d="M11.4574 8.2C11.8934 7.88188 12.2478 7.46475 12.4911 6.98295C12.7345 6.50115 12.86 5.96845 12.8574 5.42867C12.8574 3.54267 11.3134 2 9.42869 2C8.82686 2.00129 8.23587 2.16021 7.71455 2.46093C7.19324 2.76165 6.75979 3.19367 6.45736 3.714C4.62869 3.77133 3.14269 5.286 3.14269 7.14267C3.14269 8.286 3.68602 9.286 4.54269 9.914C3.77785 10.2875 3.13369 10.8688 2.68399 11.5915C2.23429 12.3141 1.99725 13.1489 2.00002 14H3.14269C3.14269 12.6573 3.94269 11.486 5.05736 10.914C5.48602 10.714 5.94269 10.5713 6.45736 10.5713H6.57136C8.45736 10.5713 10 12.114 10 14H11.1427C11.1427 12.2 10.114 10.6573 8.60002 9.914C8.97867 9.62502 9.29862 9.26637 9.54269 8.85733C11.3714 8.914 12.8574 10.4287 12.8574 12.286H14C14 10.486 12.9714 8.94267 11.4574 8.2ZM5.94269 9.34267C5.00002 9.05733 4.28669 8.2 4.28669 7.14267C4.28669 6.05733 5.02936 5.17133 6.02936 4.914C6.20069 4.886 6.37202 4.85733 6.57202 4.85733C6.80069 4.85733 7.00069 4.886 7.20069 4.94267C8.17202 5.22867 8.85802 6.086 8.85802 7.14267C8.85802 7.314 8.82936 7.45733 8.80069 7.62867C8.57202 8.65733 7.65802 9.42867 6.57202 9.42867C6.34336 9.42867 6.14336 9.4 5.94336 9.34267H5.94269ZM9.97136 7.65733C10 7.486 10 7.314 10 7.14267C10 5.65733 9.05736 4.4 7.71402 3.914C7.92732 3.66941 8.19099 3.47384 8.48695 3.34071C8.78292 3.20757 9.10417 3.14001 9.42869 3.14267C10.0343 3.1446 10.6146 3.38609 11.0428 3.8144C11.4709 4.24271 11.7123 4.82304 11.714 5.42867C11.714 6.514 10.9714 7.4 9.97136 7.65733Z" fill="black"/>
</g>
</svg>
