<svg width="25" height="24" viewBox="0 0 25 24" fill="none" xmlns="http://www.w3.org/2000/svg">
<g id="UserCircle">
<path id="Vector" d="M12.5 21C17.4706 21 21.5 16.9706 21.5 12C21.5 7.02944 17.4706 3 12.5 3C7.52944 3 3.5 7.02944 3.5 12C3.5 16.9706 7.52944 21 12.5 21Z" stroke="#B9B7C2" stroke-width="2" stroke-linecap="round" stroke-linejoin="round"/>
<path id="Vector_2" d="M12.5 15C14.5711 15 16.25 13.3211 16.25 11.25C16.25 9.17893 14.5711 7.5 12.5 7.5C10.4289 7.5 8.75 9.17893 8.75 11.25C8.75 13.3211 10.4289 15 12.5 15Z" stroke="#B9B7C2" stroke-width="2" stroke-linecap="round" stroke-linejoin="round"/>
<path id="Vector_3" d="M6.48145 18.6909C7.04574 17.5794 7.90678 16.6459 8.96914 15.9938C10.0315 15.3418 11.2537 14.9966 12.5002 14.9966C13.7467 14.9966 14.9689 15.3418 16.0312 15.9938C17.0936 16.6459 17.9547 17.5794 18.5189 18.6909" stroke="#B9B7C2" stroke-width="2" stroke-linecap="round" stroke-linejoin="round"/>
</g>
</svg>
