<svg width="168" height="204" viewBox="0 0 168 204" fill="none" xmlns="http://www.w3.org/2000/svg">
<rect width="168" height="204" rx="16" fill="#7353F4"/>
<path d="M27.8594 17.0234V34.7969H25.457V25.9102H23.7969V33.9375H21.4531V17.3164H23.7969V23.8984H25.457V17.0234H27.8594ZM13.25 30.4609V18.9961H15.75V28.2832C17.1758 28.2441 18.748 28.1172 20.457 27.7852L20.7109 29.9336C18.3281 30.3438 16.2969 30.4707 14.4609 30.4609H13.25ZM49.8328 26.8281V28.8203H42.9188V34.7969H40.4578V28.8203H33.6219V26.8281H49.8328ZM34.4227 23.8398C38.0164 23.4004 40.0086 21.6621 40.2723 19.9141H35.0867V17.9609H48.3875V19.9141H43.202C43.4559 21.6621 45.4188 23.4004 49.0711 23.8398L48.1727 25.793C45.0477 25.373 42.8113 24.0449 41.7371 22.2188C40.6531 24.0449 38.4363 25.373 35.3406 25.793L34.4227 23.8398ZM65.4875 17.043V30.1484H63.007V25.8125H59.7258V27.3359H51.2687V18.1953H53.7687V20.9297H57.2648V18.1953H59.7258V20.0117H63.007V17.043H65.4875ZM53.6516 34.4844V28.8398H56.1711V32.4922H65.8586V34.4844H53.6516ZM53.7687 25.3828H57.2648V22.8242H53.7687V25.3828ZM59.7258 23.8203H63.007V22.0234H59.7258V23.8203ZM87.8711 30.6758V32.7266H71.6016V30.6758H78.457V27.043H73.3203V18.332H86.0547V27.043H80.9375V30.6758H87.8711ZM75.7812 25.0898H83.5938V20.3242H75.7812V25.0898ZM103.37 17.043V27.082H100.87V17.043H103.37ZM88.7602 22.1406C88.7602 19.6016 90.85 17.8438 93.6234 17.8438C96.3871 17.8438 98.477 19.6016 98.4867 22.1406C98.477 24.582 96.3871 26.3789 93.6234 26.3789C90.85 26.3789 88.7602 24.582 88.7602 22.1406ZM91.2016 22.1406C91.182 23.459 92.1977 24.2891 93.6234 24.2891C95.0102 24.2891 96.016 23.459 96.0258 22.1406C96.016 20.7441 95.0102 19.9336 93.6234 19.9336C92.1977 19.9336 91.182 20.7441 91.2016 22.1406ZM91.4555 34.6016V27.8828H103.37V34.6016H91.4555ZM93.9164 32.6094H100.928V29.8555H93.9164V32.6094ZM119.718 18.7422V20.7148H116.124C116.173 22.4727 117.443 24.25 120.284 24.9727L119.191 26.8867C117.13 26.3691 115.714 25.2559 114.913 23.8301C114.122 25.4023 112.696 26.6328 110.616 27.2188L109.445 25.2461C112.286 24.5137 113.605 22.6289 113.644 20.7148H110.07V18.7422H113.644V16.9453H116.163V18.7422H119.718ZM111.163 32.8242C114.279 32.4434 116.017 31.2129 116.476 29.875H111.925V27.9219H123.898V29.875H119.366C119.825 31.1836 121.583 32.4531 124.679 32.8633L123.8 34.7578C120.939 34.377 118.937 33.2441 117.902 31.7207C116.886 33.2344 114.894 34.3477 112.062 34.7188L111.163 32.8242ZM121.183 27.1602V17.0234H123.683V21.0078H126.085V23.0586H123.683V27.1602H121.183ZM141.408 17.0234V34.7969H138.888V17.0234H141.408ZM126.525 29.7578C131.115 27.5898 133.136 24.7773 133.537 20.832H127.482V18.8789H136.076C136.066 24.2695 134.181 28.752 127.834 31.75L126.525 29.7578Z" fill="white"/>
<path d="M22.202 140.025C21.3543 139.816 20.5224 139.547 19.7123 139.221C19.0237 140.599 18.2291 142.163 17.3991 143.798L18.335 144.293C18.3866 144.319 18.4324 144.356 18.4699 144.4C18.5074 144.445 18.5357 144.496 18.5533 144.551C18.571 144.607 18.5775 144.665 18.5726 144.723C18.5677 144.781 18.5515 144.837 18.5248 144.889C18.4982 144.941 18.4616 144.986 18.4172 145.024C18.3728 145.061 18.3215 145.09 18.2662 145.107C18.2108 145.125 18.1525 145.132 18.0947 145.127C18.0368 145.122 17.9805 145.106 17.9289 145.079L17.046 144.584L14.3973 149.806C15.2516 150.156 16.139 150.419 17.046 150.592C18.5645 147.464 20.4363 143.842 22.202 140.025ZM24.7448 134.477C23.8619 134.273 23.0585 134.035 22.2727 133.779C21.6723 135.272 21.1691 136.279 20.1008 138.435C20.9051 138.761 21.7349 139.021 22.5817 139.212C23.3145 137.657 24.0385 136.067 24.7448 134.477ZM13.9735 141.81C14.9182 142.402 15.8629 142.941 16.6222 143.365C17.4345 141.766 18.2202 140.228 18.9 138.868C17.9362 138.424 17.0014 137.919 16.1013 137.357C15.5098 138.55 14.7681 140.105 13.9735 141.81ZM21.4428 133.478C20.4544 133.112 19.4876 132.69 18.5469 132.215C17.9603 133.707 17.276 135.159 16.4986 136.562C17.3913 137.137 18.3236 137.647 19.2885 138.09C20.2774 136.093 20.8865 134.874 21.4428 133.478ZM11.0777 148.136C11.8546 148.627 12.6626 149.067 13.4968 149.452C14.3797 147.747 15.3155 145.918 16.2161 144.151C15.4656 143.727 14.5386 143.197 13.5674 142.614C12.764 144.416 11.8987 146.325 11.0777 148.136ZM15.5451 129.432C16.2249 129.891 17.0725 130.421 18.079 130.969C18.644 129.449 19.1561 127.868 19.624 126.331C18.5912 125.825 17.5862 125.265 16.6134 124.652C16.4251 126.278 16.0671 127.88 15.5451 129.432ZM22.5993 132.957C23.3939 133.222 24.2327 133.452 25.1068 133.655C25.1597 133.54 26.537 130.333 27.1021 128.981C26.1574 128.778 25.2392 128.531 24.3386 128.248C23.703 130.041 23.0849 131.667 22.5993 132.957ZM18.8647 131.384C19.8075 131.864 20.7774 132.289 21.7694 132.657C22.2639 131.384 22.8554 129.767 23.5352 127.965C22.4581 127.585 21.4251 127.161 20.4628 126.719C19.9507 128.266 19.4386 129.847 18.8647 131.384ZM31.7549 116.435C30.6804 116.345 29.6199 116.132 28.5942 115.799C28.1086 117.275 27.57 118.891 27.005 120.544C28.0631 120.765 29.1383 120.895 30.2187 120.932C30.8808 119.086 31.3841 117.593 31.7549 116.435ZM24.63 127.417C25.5129 127.7 26.4841 127.956 27.4376 128.151C28.4352 125.712 29.2034 123.601 29.9008 121.798C28.8318 121.747 27.7688 121.608 26.7224 121.383C26.0338 123.424 25.3098 125.5 24.63 127.417ZM43.5238 113.007C43.3119 112.574 43.0912 112.124 42.8881 111.567C41.6256 111.973 39.8598 112.548 38.2971 113.193C38.562 113.873 38.8092 114.553 39.0564 115.234C40.4814 114.369 41.9756 113.624 43.5238 113.007ZM13.3732 134.344C14.1854 134.954 14.927 135.51 15.7746 136.111C16.5428 134.724 17.2154 133.287 17.7876 131.808C16.7811 131.261 15.9159 130.722 15.2272 130.262C14.8564 130.987 14.1854 132.453 13.3732 134.344ZM38.5885 116.568C37.2818 117.451 36.0369 118.335 34.845 119.218C35.0922 119.854 35.4542 120.835 35.8338 121.931C36.9021 121.383 38.2971 120.738 39.7362 120.102C39.4007 118.989 38.9769 117.787 38.5885 116.568ZM8.32304 146.121C8.91458 146.607 9.5944 147.12 10.3272 147.623C11.1483 145.856 12.0135 143.913 12.8434 142.128C12.0577 141.624 11.2895 141.094 10.6186 140.582C9.84161 142.437 9.04701 144.354 8.32304 146.121ZM16.5074 151.423C15.6172 151.228 14.7457 150.956 13.9029 150.61C13.0995 152.174 12.349 153.623 11.7222 154.824C12.6051 155.239 13.4085 155.602 14.1413 155.875C14.8388 154.559 15.6422 153.057 16.5074 151.423ZM10.9805 139.76C11.7007 140.322 12.4492 140.847 13.2231 141.333C14.0177 139.628 14.7593 138.064 15.3508 136.915C14.4679 136.297 13.6292 135.705 12.9759 135.219C12.3667 136.562 11.678 138.17 10.9805 139.76ZM13.0906 150.239C12.27 149.855 11.4739 149.422 10.7068 148.94L8.79098 153.19C9.49729 153.614 10.2213 154.02 10.9364 154.382C11.5544 153.19 12.296 151.785 13.0906 150.239ZM6.31006 151.555C6.86628 151.961 7.45781 152.368 8.07584 152.757C8.6144 151.546 9.27656 150.106 10.0005 148.454C9.27656 147.968 8.6144 147.473 8.02286 146.996C7.32538 148.657 6.73384 150.212 6.31006 151.555ZM106.182 79.9193C106.64 79.968 107.102 79.914 107.536 79.7612C107.97 79.6083 108.364 79.3605 108.69 79.0358C108.858 78.8317 108.971 78.5872 109.017 78.3263C109.063 78.0654 109.04 77.7971 108.951 77.5477C108.862 77.2983 108.71 77.0763 108.509 76.9035C108.309 76.7306 108.067 76.613 107.807 76.5619C106.2 76.1025 103.225 76.5619 103.225 78.382C103.198 79.6808 104.902 79.9193 106.182 79.9193ZM103.763 78.2848C103.763 77.1274 106.544 76.9065 107.56 77.2069C108.919 77.5957 108.743 79.239 106.377 79.2832C105.45 79.3097 103.763 79.2125 103.763 78.2848ZM88.4187 85.0437C89.0014 85.0437 89.4163 84.5578 89.8225 84.2309C90.7695 83.3753 91.8265 82.6503 92.9656 82.0751C97.4859 80.202 98.7043 82.3755 100.347 81.1209C101.229 80.4848 100.744 79.1683 100.099 78.3466C99.7875 77.9806 99.4042 77.682 98.9731 77.4693C98.5419 77.2566 98.072 77.1343 97.5919 77.1097C96.1477 77.0775 94.712 77.339 93.3717 77.8784C90.8179 78.4621 88.3877 79.4941 86.1938 80.9265C85.7435 81.2358 85.1167 81.6598 85.3109 82.3313C85.77 83.3915 87.4034 85.0437 88.4187 85.0437ZM97.3623 77.631C99.6225 77.631 100.629 79.9812 100.011 80.5908C99.596 80.9884 98.5277 80.9177 97.6625 80.7233C94.2193 80.1844 92.065 81.6068 89.3545 83.7008C88.9043 84.0453 88.5688 84.4871 88.0567 84.2309C86.8913 83.6478 85.8848 82.1811 86.0172 81.9602C88.2068 79.8575 94.8284 77.631 97.3977 77.631H97.3623Z" fill="white"/>
<path d="M167.993 203.621C159.491 178.273 152.984 156.574 149.117 143.612C146.221 133.894 145.029 129.98 144.703 129.688C144.614 129.617 143.705 129.396 138.982 127.744C140.438 122.991 140.315 118.732 138.39 115.667C138.258 115.446 135 110.365 130.126 110.365C126.109 110.365 121.077 114.43 120.476 120.552C115.25 118.255 114.066 117.513 113.908 117.575C107.189 120.137 94.1043 125.173 87.9065 128.054L60.6605 116.736C60.5546 116.736 55.0718 118.503 48.6974 120.517C48.522 118.426 48.1555 116.356 47.6026 114.332C48.2559 114.094 50.0129 113.617 50.3661 113.449C50.4347 113.412 50.4881 113.351 50.5171 113.279C50.5461 113.206 50.5489 113.126 50.525 113.051C49.58 110.026 48.8368 106.942 48.3001 103.819C56.4138 102.052 63.5652 100.391 67.4499 99.3391C67.8208 100.382 69.3393 100.638 70.2222 99.1536C70.7166 99.613 71.882 99.5954 72.4029 98.111C73.3832 97.9726 74.3258 97.6391 75.1752 97.1303C77.9298 95.1071 75.8285 91.4316 72.4559 91.9971C70.593 92.3151 67.2557 92.8806 63.0532 93.5256C60.9784 91.6437 56.6787 88.0389 55.1866 86.749C55.4427 81.492 54.754 77.2511 53.0853 73.7877C51.7257 70.9693 49.4478 68.7605 47.2583 66.5606C47.6468 65.677 48.5296 63.0265 46.8168 61.6128C47.4723 60.9501 47.9938 60.1672 48.3531 59.3069C49.2214 57.2831 49.8897 55.1791 50.3484 53.025C51.1808 53.9175 51.7307 55.0365 51.9288 56.241C52.0612 57.1246 53.6327 53.5905 52.9264 49.703C53.1281 49.958 53.3696 50.1788 53.6416 50.3568C53.6628 50.3672 53.6864 50.372 53.71 50.3709C53.7337 50.3698 53.7566 50.3628 53.7769 50.3505C53.7971 50.3382 53.8139 50.321 53.8257 50.3004C53.8376 50.2799 53.8441 50.2568 53.8446 50.2331C53.8183 48.9422 53.5014 47.6738 52.9176 46.5223C54.1978 45.3473 56.4492 42.4846 55.3809 41.071C54.3126 39.6574 50.6927 40.0991 49.0947 40.2317C47.4702 37.8815 43.9386 36.8213 41.4136 37.0245C39.1036 37.3041 36.988 38.4575 35.5007 40.2482C34.0134 42.0388 33.267 44.3311 33.4146 46.6549C32.258 47.5384 30.3951 49.0934 29.574 50.7191C28.6911 52.1238 28.9913 54.0853 30.6423 54.5712C31.993 54.9102 33.4112 54.8674 34.7389 54.4475C35.2951 55.9318 35.2422 55.172 35.2687 56.4619C34.7306 56.4242 34.1906 56.4973 33.6819 56.6766C33.1732 56.8559 32.7066 57.1377 32.311 57.5045C30.8719 58.7591 30.3951 60.6498 29.7947 62.355C26.6646 62.9026 23.6858 64.107 21.0542 65.8891C8.37588 72.8689 3.14918 87.5353 8.95858 100.002C9.00273 100.108 9.13516 100.072 9.24994 100.055C9.29993 100.8 9.44228 101.536 9.67372 102.246C8.87912 102.37 7.15749 102.617 6.23929 102.697C1.98377 103.076 -0.523637 107.035 0.217989 109.517C0.800695 111.664 3.66125 112.548 5.78019 112.548C6.77785 112.548 6.6101 112.548 15.1653 110.781C13.0287 116.312 12.19 115.94 14.2383 117.222C13.3554 120.013 12.4725 126.145 12.9581 128.151C7.20164 139.831 2.18683 154.762 2.36341 155.001C2.76782 155.539 3.20107 156.055 3.66125 156.547C2.77837 157.81 0.950786 160.461 0.668262 161.071C-0.823819 164.26 0.217989 165.55 3.44053 167.034C4.5618 167.556 9.04687 168.96 9.13516 168.987C9.83264 169.226 10.6008 169.455 11.157 168.987C12.1546 168.033 11.2806 166.858 10.5036 165.815C9.69912 164.535 9.20059 163.087 9.04687 161.583C9.09102 161.53 9.56778 160.823 9.68255 160.7C10.153 160.903 10.6445 161.054 11.1481 161.15C11.2453 161.15 11.1481 161.406 13.7174 156.68C12.9757 156.397 12.1635 156.043 11.3159 155.628C10.5213 157.174 10.0092 158.155 9.98273 158.199C9.92171 158.288 9.83011 158.352 9.72529 158.378C9.62047 158.404 9.5097 158.391 9.41396 158.341C9.31822 158.291 9.24415 158.208 9.20579 158.107C9.16742 158.005 9.16743 157.894 9.20579 157.793C9.20579 157.793 9.73553 156.768 10.5301 155.239C9.83264 154.877 9.1175 154.488 8.42885 154.073L7.54596 156.088C7.49161 156.182 7.4044 156.253 7.30107 156.287C7.19773 156.32 7.08554 156.315 6.98599 156.271C6.88644 156.227 6.80655 156.148 6.76162 156.049C6.71669 155.95 6.7099 155.838 6.74253 155.734L7.6784 153.614C7.09569 153.243 6.52181 152.863 5.98325 152.474C5.84199 152.925 5.70955 153.358 5.60361 153.729C5.572 153.846 5.49517 153.946 5.39003 154.006C5.28489 154.067 5.16005 154.083 5.04297 154.051C4.9259 154.019 4.82617 153.943 4.76574 153.837C4.7053 153.732 4.68911 153.607 4.72072 153.49C4.85315 153.022 5.0209 152.492 5.21514 151.917L4.79135 151.573C4.73987 151.539 4.69611 151.494 4.66288 151.442C4.62966 151.39 4.60772 151.332 4.59848 151.271C4.58924 151.209 4.59291 151.147 4.60924 151.088C4.62557 151.028 4.65421 150.972 4.6933 150.925C4.73239 150.877 4.78106 150.838 4.83618 150.81C4.8913 150.782 4.95164 150.766 5.0133 150.763C5.07495 150.76 5.13656 150.77 5.19414 150.792C5.25172 150.815 5.30399 150.849 5.34757 150.892C5.63892 151.122 5.18865 151.643 7.25461 146.475C7.06037 146.316 6.8838 146.157 6.70722 145.998C6.6284 145.917 6.58324 145.81 6.58099 145.697C6.57874 145.585 6.61956 145.475 6.6951 145.392C6.77065 145.308 6.87522 145.257 6.98742 145.248C7.09962 145.239 7.21099 145.273 7.29875 145.344L7.60776 145.609C8.33173 143.842 9.12633 141.907 9.90327 140.087C9.65623 139.879 9.42323 139.655 9.20579 139.416C9.13535 139.329 9.10051 139.218 9.1083 139.107C9.1161 138.995 9.16595 138.89 9.24778 138.814C9.32962 138.738 9.43734 138.695 9.54918 138.696C9.66102 138.696 9.76864 138.738 9.8503 138.815L10.2653 139.23C10.9627 137.613 11.6426 136.067 12.2429 134.706C11.9781 134.512 11.7397 134.344 11.5543 134.229C11.4966 134.204 11.4448 134.167 11.4026 134.121C11.3603 134.074 11.3285 134.019 11.3092 133.959C11.29 133.899 11.2837 133.836 11.2909 133.773C11.2981 133.711 11.3186 133.651 11.3509 133.597C11.3833 133.543 11.4268 133.496 11.4785 133.46C11.5303 133.425 11.5891 133.4 11.651 133.389C11.7128 133.378 11.7764 133.38 11.8374 133.395C11.8984 133.411 11.9554 133.439 12.0045 133.478C12.1811 133.584 12.3842 133.717 12.6137 133.876C13.4348 132.021 14.4413 129.856 14.4501 129.829L13.9469 129.476C13.426 129.114 13.9469 128.407 14.3972 128.707L14.7856 128.99C15.2655 127.419 15.6024 125.807 15.7921 124.175C15.3463 123.868 14.9243 123.529 14.5296 123.159C14.4453 123.077 14.397 122.965 14.3954 122.847C14.3937 122.729 14.4388 122.616 14.5208 122.532C14.6027 122.447 14.7148 122.399 14.8324 122.397C14.9499 122.396 15.0633 122.441 15.1476 122.523C15.3972 122.764 15.6627 122.988 15.9422 123.194C16.0438 122.459 16.1883 121.73 16.3748 121.012C16.4065 120.895 16.4833 120.795 16.5884 120.734C16.6936 120.674 16.8184 120.658 16.9355 120.689C17.0526 120.721 17.1523 120.798 17.2127 120.903C17.2732 121.008 17.2893 121.133 17.2577 121.25C17.0473 122.08 16.8851 122.92 16.7721 123.768C17.7791 124.417 18.8226 125.007 19.8976 125.535C20.0035 125.182 20.648 123.035 20.8599 122.355C20.8939 122.238 20.9729 122.139 21.0797 122.08C21.1865 122.021 21.3123 122.007 21.4294 122.041C21.5465 122.075 21.6453 122.154 21.704 122.261C21.7628 122.368 21.7768 122.494 21.7428 122.611L20.7363 125.915C21.7529 126.39 22.7931 126.811 23.8529 127.179C24.5151 125.297 25.2214 123.256 25.91 121.233C25.1213 121.03 24.3528 120.755 23.6145 120.411C23.5284 120.353 23.4654 120.267 23.4367 120.167C23.408 120.067 23.4154 119.96 23.4576 119.865C23.4997 119.77 23.574 119.693 23.6673 119.648C23.7606 119.602 23.8669 119.591 23.9677 119.616C24.6722 119.949 25.4088 120.21 26.1661 120.393C26.7311 118.715 27.2873 117.063 27.7818 115.552C26.9382 115.224 26.1423 114.784 25.4156 114.244C25.322 114.174 25.26 114.069 25.2435 113.953C25.2269 113.837 25.2571 113.719 25.3273 113.626C25.3976 113.532 25.5022 113.47 25.6181 113.453C25.734 113.437 25.8517 113.467 25.9454 113.537C26.5917 114.021 27.3018 114.414 28.0555 114.704C28.6117 113.016 29.0884 111.532 29.4328 110.41C29.4439 110.348 29.4679 110.29 29.5032 110.239C29.5385 110.187 29.5842 110.144 29.6374 110.112C29.6906 110.079 29.75 110.058 29.8118 110.051C29.8736 110.043 29.9364 110.048 29.9959 110.066C30.0555 110.085 30.1106 110.115 30.1575 110.156C30.2044 110.197 30.2421 110.248 30.2681 110.304C30.2941 110.361 30.3079 110.422 30.3085 110.485C30.3091 110.547 30.2965 110.609 30.2715 110.666C29.9537 111.717 29.4681 113.237 28.8854 115.004C29.9134 115.334 30.9777 115.539 32.0549 115.614L32.514 114.182C32.7348 113.528 34.2798 113.299 33.7942 114.73L31.2957 121.86C31.2957 121.948 31.2515 121.798 32.567 125.765C28.8589 126.976 29.0355 126.914 29.0355 127.011C20.3302 155.734 9.17931 203.594 9.56778 203.877C9.95625 204.16 22.608 197.578 51.505 185.668C56.1843 186.666 86.0524 202.729 88.9571 203.983C89.0454 204.027 88.807 204.089 91.8971 202.667C98.3952 199.654 110.438 194.061 125.226 185.818C142.663 195.802 166.589 203.647 167.561 203.966C167.613 203.99 167.671 203.999 167.728 203.992C167.785 203.985 167.839 203.963 167.883 203.927C167.928 203.891 167.962 203.844 167.982 203.79C168.001 203.736 168.005 203.677 167.993 203.621ZM8.50831 161.928C8.64237 163.589 9.25581 165.176 10.2741 166.495C10.6654 166.897 10.9163 167.415 10.9892 167.971C11.0051 168.13 10.9641 168.289 10.8735 168.42C10.7829 168.551 10.6487 168.645 10.4948 168.687C7.6731 167.826 4.90481 166.8 2.20449 165.612C0.182673 164.375 0.482855 163.368 1.20682 161.539C1.49166 160.841 1.83732 160.17 2.2398 159.533C2.849 162.025 5.64775 163.279 8.50831 161.928ZM9.03804 160.39C8.86147 160.664 8.5966 161.088 8.49948 161.274C7.97027 161.58 7.38432 161.776 6.77723 161.849C6.17014 161.922 5.55458 161.87 4.96793 161.698C4.2263 161.336 2.82251 160.32 2.79602 159.047C2.79602 159.047 3.72306 157.704 4.13801 157.086C5.56626 158.465 7.22461 159.583 9.03804 160.39ZM88.0919 131.234V128.469C89.7076 127.753 91.0937 127.143 92.3915 126.596C91.4733 127.568 88.2508 131.102 88.0919 131.261V131.234ZM127.142 143.789C130.25 143.709 146.627 143.312 148.155 143.25C148.499 144.407 151.289 153.64 152.693 158.217L127.142 143.789ZM124.273 177.822L164.479 195.369C165.142 197.374 166.748 201.969 167.199 203.188C144.994 195.44 131.883 188.477 126.93 185.853C126.286 185.509 125.791 185.244 125.438 185.076C125.376 185.076 125.359 185.032 124.97 185.235C124.926 182.964 124.467 180.119 124.273 177.849V177.822ZM51.1518 185.138C43.559 188.009 13.5496 201.35 10.3182 202.861C10.539 201.898 15.8539 178.803 16.7986 174.96C16.9733 175.033 17.1651 175.057 17.3523 175.027C17.5396 174.997 17.7148 174.916 17.8581 174.792L19.0853 173.723C19.7563 175.56 25.0801 189.971 25.5481 191.181C25.6452 191.428 26.0425 191.305 25.9454 191.04C25.4245 189.599 24.9124 188.186 24.4444 186.816C29.4681 183.362 42.1022 175.799 43.7356 174.827L51.5756 180.296C51.5315 180.826 51.3372 183.68 51.1518 185.164V185.138ZM128.925 141.748L117.448 142.022C117.121 139.698 114.711 119.05 114.658 118.591C115.841 119.165 117.677 120.049 120.379 121.242C120.123 127.064 123.125 134.468 128.925 141.775V141.748ZM66.982 184.758C68.2092 186.445 73.4447 193.593 75.5902 196.438C75.29 196.279 62.4704 189.502 60.2279 188.389L66.982 184.758ZM56.458 186.675C54.9447 186.042 53.3866 185.522 51.7963 185.12C52.0082 183.918 52.176 182.717 52.3614 181.321L56.458 186.675ZM87.7034 153.481L85.1254 151.493C85.761 151.431 87.103 151.29 87.6239 151.202L87.7034 153.481ZM135.618 171.249L158.767 190.775L124.07 175.578C123.849 173.325 122.948 166.858 122.648 165.038C126.268 166.999 135.062 171.01 135.618 171.249ZM24.2414 186.269C23.9147 185.332 23.1554 183.167 22.9347 182.558C27.7376 179.536 38.6236 173.334 40.1863 172.38L43.0822 174.394C40.2305 176.02 26.272 184.899 24.2414 186.269ZM22.7493 182.01C22.1401 180.243 20.9835 176.992 20.7893 176.347C24.8417 174.191 34.4652 169.764 35.6483 169.226L39.4712 171.876C37.5818 172.972 24.6299 180.826 22.7493 182.01ZM20.6039 175.825C20.6039 175.825 19.8623 173.661 19.721 173.175L26.3868 167.379C27.2876 167.907 28.3359 168.128 29.373 168.007C30.4101 167.886 31.3795 167.429 32.1344 166.707L34.9155 168.651C32.6818 169.685 22.299 174.915 20.6039 175.825ZM28.7529 160.602C29.4812 160.602 30.1796 160.892 30.6945 161.407C31.2094 161.922 31.4987 162.621 31.4987 163.35C31.4987 164.079 31.2094 164.778 30.6945 165.293C30.1796 165.808 29.4812 166.098 28.7529 166.098C26.7046 166.098 25.6452 165.32 25.707 163.05C25.9072 162.381 26.3057 161.789 26.8496 161.352C27.3935 160.915 28.0573 160.654 28.7529 160.602ZM85.9818 162.131C82.618 162.493 72.1204 163.651 70.2575 163.898L56.6346 149.125L57.8265 139.937L62.6647 136.703L87.8005 156.07C87.8005 156.741 87.9859 160.125 88.0565 161.504C87.4278 161.882 86.7147 162.098 85.9818 162.131ZM51.2578 145.706L57.1201 140.564C57.1201 140.564 56.2373 147.517 56.0254 148.728L51.2578 145.706ZM38.9768 156.441L49.6597 147.076L53.8181 149.726C53.103 150.301 43.6649 157.996 43.5502 158.067C43.3029 158.226 43.4354 158.137 38.9768 156.441ZM52.0877 142.305C51.4432 142.19 42.526 140.75 41.0163 140.485C41.131 140.37 43.9651 137.622 44.6714 136.951C47.0376 136.827 55.8311 136.747 57.6057 136.685L57.5174 137.702L52.0877 142.305ZM45.3601 143.4C45.393 143.376 45.4197 143.344 45.4381 143.307C45.4564 143.27 45.466 143.229 45.466 143.188C45.466 143.147 45.4564 143.106 45.4381 143.07C45.4197 143.033 45.393 143.001 45.3601 142.976C44.9603 142.725 44.5445 142.501 44.1152 142.305C43.4883 142.057 43.5501 142.481 41.4665 145.203C41.3253 145.388 41.6166 145.591 41.7579 145.406C42.2611 144.761 43.5766 143.162 43.8415 142.879C44.0093 142.941 44.4154 143.162 44.7244 143.303C44.2211 143.851 42.5348 145.75 42.0757 146.387C41.4842 146.289 37.988 145.689 36.0897 145.291C36.0897 145.291 39.3829 142.048 40.4512 141.024C42.7114 141.43 49.3684 142.596 51.399 142.914L46.8521 146.89C45.519 146.784 44.0975 146.66 42.6849 146.475C43.3912 145.68 45.157 143.603 45.3866 143.391L45.3601 143.4ZM34.633 149.24C34.7124 149.302 36.3988 149.611 38.2793 150.124C37.8962 150.48 37.4955 150.816 37.0786 151.131C36.6901 150.972 35.5424 150.61 33.6441 150.044C34.6065 149.214 34.5623 149.187 34.6595 149.231L34.633 149.24ZM38.8355 150.124C38.8645 150.103 38.8872 150.075 38.9012 150.042C38.9152 150.009 38.92 149.974 38.915 149.938C38.915 149.753 38.915 149.744 35.6395 148.913C34.5888 148.657 34.5182 148.578 34.2887 148.754C34.0591 148.931 33.2468 149.709 32.9996 149.885C32.9608 149.911 32.9301 149.947 32.911 149.99C32.8919 150.032 32.8852 150.079 32.8916 150.126C32.8981 150.172 32.9175 150.215 32.9475 150.251C32.9775 150.286 33.017 150.313 33.0614 150.327C33.3175 150.424 35.2157 151.105 36.2663 151.44C34.3769 151.246 30.5452 150.893 30.351 150.875C30.863 150.345 35.1009 146.219 35.5335 145.786C39.067 146.57 42.6518 147.101 46.2606 147.376L40.9633 151.988C40.2746 151.864 38.7737 151.696 37.0962 151.529C37.52 151.29 38.5618 150.389 38.862 150.142L38.8355 150.124ZM33.5382 163.315C33.5912 163.359 43.1175 168.616 43.5943 168.616C44.0711 168.616 45.6514 166.425 45.7309 166.213C45.7464 166.186 45.7545 166.155 45.7545 166.124C45.7545 166.093 45.7464 166.063 45.7309 166.036C44.066 164.886 42.342 163.825 40.566 162.855C40.8309 162.414 41.9345 160.991 42.2611 160.355C42.2963 160.261 42.2963 160.157 42.2611 160.063C42.1993 159.896 42.111 159.896 41.6255 159.639C40.0274 158.756 39.0916 158.394 38.7561 158.694C38.4206 158.994 34.0061 162.228 33.5205 162.82C33.4756 162.373 33.3656 161.936 33.1939 161.521L38.4912 156.9C40.1391 157.632 41.8353 158.249 43.5678 158.747C43.9121 158.694 53.5003 150.848 54.4627 150.062C55.6546 150.813 55.3455 150.574 55.7605 151.016L52.9882 171.514C52.0259 171.664 46.3401 173.016 45.104 173.281L33.2557 165.011C33.4521 164.474 33.5479 163.905 33.5382 163.332V163.315ZM40.0363 162.299C39.8597 162.493 39.5683 162.811 39.8508 163.182C40.4433 163.607 41.0659 163.988 41.7137 164.322C42.8615 164.976 44.2653 165.78 45.0422 166.336C43.4354 168.042 43.7885 168.156 43.091 167.803C41.3253 166.92 35.9661 164.207 34.2092 163.191L39.1269 159.295C39.3211 159.1 39.3211 159.171 41.44 160.355C41.0296 161.048 40.5599 161.704 40.0363 162.316V162.299ZM53.6504 171.558C54.2066 167.432 55.8223 155.178 56.2991 151.643L80.8434 178.37C74.1864 178.935 73.5154 178.962 73.4271 179.015L66.5141 182.735C60.3339 174.2 61.2167 174.677 60.3339 173.97C58.1518 173.049 55.9206 172.25 53.6504 171.576V171.558ZM119.735 152.774C119.514 151.838 117.969 145.22 117.828 144.319L118.066 144.01L123.231 143.886L136.095 151.166C133.64 151.423 121.253 152.624 119.735 152.792V152.774ZM121.5 159.312L133.861 169.703C131.212 168.439 123.61 164.781 122.569 164.251C122.189 162.564 121.845 160.903 121.465 159.374L121.5 159.312ZM79.7397 163.518C82.0176 165.771 84.2072 168.121 86.3614 170.427C84.8517 170.613 78.4154 171.372 77.3383 171.549L70.902 164.552C72.5972 164.384 78.0005 163.739 79.7044 163.536L79.7397 163.518ZM88.1272 162.255C88.2243 163.969 88.5598 170.056 88.5598 170.056C88.0777 170.232 87.5716 170.333 87.0589 170.356C84.8693 167.883 82.5208 165.497 80.4549 163.43C84.887 162.908 87.2266 162.723 88.0919 162.272L88.1272 162.255ZM100.285 145.759C98.6777 145.565 94.431 145.105 93.2215 144.982C93.9454 144.019 96.5058 140.414 96.806 140.087C97.3004 139.548 97.3445 139.654 106.933 139.495C105.82 140.502 100.611 145.468 100.249 145.777L100.285 145.759ZM92.9301 156.521C92.5593 156.909 89.2485 160.443 88.7275 160.938C88.6746 159.957 88.5333 157.404 88.4892 156.273L92.9301 156.521ZM99.8961 146.369C99.1191 147.12 92.1178 153.764 91.4468 154.453L88.8512 154.329L88.4009 153.985C88.3538 152.925 88.3185 151.864 88.2949 150.804C88.7011 150.354 91.5086 147.155 92.7094 145.583L99.8961 146.369ZM108.584 157.519C107.952 157.489 107.355 157.218 106.916 156.762C106.477 156.305 106.229 155.699 106.222 155.066C106.215 154.432 106.45 153.821 106.88 153.355C107.309 152.89 107.899 152.606 108.531 152.562C111.727 152.562 111.762 157.457 108.54 157.519H108.584ZM104.169 154.921C104.169 154.921 95.6847 154.63 92.3739 154.497C94.2015 152.783 107.816 139.477 107.816 139.477C108.698 139.477 109.652 139.477 110.65 139.539C111.533 141.916 112.53 144.301 113.466 146.607L110.129 150.795C109.457 150.547 108.734 150.464 108.024 150.554C107.313 150.644 106.634 150.904 106.045 151.313C105.456 151.721 104.974 152.265 104.64 152.9C104.305 153.534 104.129 154.24 104.125 154.957L104.169 154.921ZM104.681 157.121C105.052 157.827 105.607 158.418 106.287 158.834C106.967 159.249 107.746 159.473 108.542 159.481C109.339 159.489 110.122 159.281 110.811 158.88C111.499 158.478 112.065 157.898 112.451 157.201L119.664 157.766L120.626 158.579C121.041 160.267 121.43 162.06 121.774 163.88C118.622 165.449 115.081 166.063 111.586 165.647C111.586 165.647 96.5764 164.764 94.484 164.667C95.6494 163.279 99.6489 158.482 101 156.883L104.681 157.121ZM117.722 155.602C117.986 155.337 119.081 154.188 119.381 153.888L119.902 155.77L117.722 155.602ZM116.097 166.442C114.658 168.262 110.358 174.05 109.228 175.781H108.478C108.345 175.781 89.734 185.111 89.6899 185.058V182.469C89.9724 182.151 102.792 167.052 103.693 166.001C105.856 166.018 113.36 166.557 116.097 166.442ZM109.917 175.772C111.232 173.926 115.523 168.006 116.812 166.345C118.513 165.916 120.169 165.324 121.756 164.578C121.933 164.675 123.081 173.272 123.301 175.507L109.917 175.772ZM119.885 153.534C120.229 153.446 121.094 153.322 121.483 153.278C124.564 155.602 132.96 161.848 134.594 163.076L129.641 163.642L120.582 156.017C120.423 155.301 120.3 154.842 119.92 153.499L119.885 153.534ZM116.786 155.575L112.91 155.275C112.91 154.683 112.91 152.88 111.727 151.988L117.263 145.035C117.704 147.411 118.869 152.271 119.081 153.11C118.282 153.876 117.528 154.687 116.821 155.54L116.786 155.575ZM93.7159 156.574L100.134 156.9C97.8125 159.675 90.511 168.112 89.222 169.588C89.1425 168.103 88.8423 162.917 88.7805 161.813C89.3809 161.23 92.833 157.466 93.7159 156.574ZM129.173 152.554C130.938 153.87 140.377 160.708 142.31 162.06C139.661 162.422 137.507 162.705 135.485 162.944C134.602 162.263 124.396 154.594 122.472 153.154L129.173 152.554ZM88.1537 144.77C88.9306 144.973 90.9966 145.344 91.8883 145.468C91.0054 146.51 88.2684 149.806 88.2596 149.823C88.1802 148.454 88.1184 145.627 88.1095 144.77H88.1537ZM60.9872 135.422L58.1796 137.286C58.3474 136.085 58.5063 134.883 58.6652 133.682L60.9872 135.422ZM58.0913 133.284L57.7117 136.129C56.2461 136.129 47.9204 136.226 45.2983 136.323C45.6073 136.041 47.2141 134.503 47.7527 134.026L58.0913 133.284ZM52.8558 172.229C52.688 173.484 52.0877 177.964 52.0524 178.211L45.6691 173.793C46.8345 173.511 51.7787 172.344 52.8558 172.229ZM53.5621 172.229C54.5421 172.45 58.8594 173.855 59.4421 174.129C60.6076 174.668 60.325 174.924 65.7901 183.07L59.036 186.763L52.7057 178.706C53.2354 174.703 53.3414 173.873 53.5621 172.274V172.229ZM88.5598 170.754C88.6216 172.044 88.9306 179.024 88.9836 182.24C88.7011 182.576 88.4009 182.938 88.1007 183.309L77.9475 172.265C79.5897 172.097 87.1295 171.178 88.5598 170.798V170.754ZM93.8571 165.391C94.9431 165.506 101.203 165.806 102.889 165.895C101.185 167.918 89.6458 181.436 89.6458 181.436C89.5751 177.822 89.4427 174.129 89.2396 170.445C90.0431 169.87 93.398 165.948 93.8306 165.435L93.8571 165.391ZM144.447 175.993L130.444 164.181C134.973 163.624 153.214 160.973 153.567 160.929C154.829 165.02 157.646 173.97 158.114 175.454C156.401 175.56 146.989 175.949 144.42 176.055L144.447 175.993ZM143.078 161.857C142.036 161.026 132.13 153.826 130.117 152.368C131.53 152.253 135.874 151.882 137.18 151.696L152.702 160.452C149.929 160.92 144.985 161.663 143.052 161.954L143.078 161.857ZM83.6068 133.62L75.1752 128.601L77.4531 127.117C79.7221 128.433 85.8405 131.844 86.6086 132.268C85.9376 132.568 84.2954 133.31 83.6068 133.62ZM84.2425 150.813L74.5925 143.374C75.0075 142.746 76.7732 140.131 77.1529 139.566C78.3271 140.22 86.3614 144.116 87.465 144.566C87.465 144.637 87.5533 148.834 87.6063 150.451C87.1119 150.539 85.0371 150.778 84.2425 150.813ZM87.4562 143.922C86.8117 143.63 78.1947 139.336 77.5149 139.027C79.4572 136.129 79.4925 136.235 81.6026 135.272C83.3684 134.477 86.5027 133.045 87.4209 132.621C87.3856 136.279 87.3944 140.096 87.4562 143.922ZM80.0046 135.281C78.4066 134.397 72.6325 131.641 71.37 131.057L74.5837 128.964C75.4666 129.529 81.0464 132.939 82.8652 133.964C81.1965 134.742 80.2342 135.184 80.0046 135.281ZM73.3653 136.023C72.4824 135.555 69.3835 133.469 68.5359 132.904L70.7608 131.455C71.5465 131.808 77.5855 134.671 79.4572 135.643C78.4949 136.27 78.3713 136.526 74.0893 142.985L64.4569 135.563L67.8737 133.337C68.5359 133.761 72.2882 135.899 73.1711 136.376C73.1942 136.392 73.2203 136.403 73.2477 136.408C73.2751 136.414 73.3034 136.414 73.3308 136.409C73.3583 136.404 73.3844 136.393 73.4078 136.377C73.4311 136.362 73.4512 136.342 73.4668 136.319C73.4825 136.296 73.4934 136.27 73.499 136.242C73.5046 136.215 73.5047 136.186 73.4994 136.159C73.4941 136.131 73.4834 136.105 73.4679 136.082C73.4525 136.059 73.4326 136.039 73.4094 136.023H73.3653ZM87.4297 131.808C86.9883 132.091 88.0389 132.215 77.9475 126.772C79.5985 125.703 79.7133 125.695 79.8633 125.315C80.9052 125.748 85.558 127.727 87.4738 128.548C87.4562 129.635 87.4385 130.722 87.4297 131.808ZM62.7618 134.265L58.9654 131.34L60.8194 117.425C62.4263 118.123 77.1176 124.175 77.8239 124.493L62.7618 134.265ZM59.3274 124.033C59.0095 126.428 58.6829 128.822 58.365 131.217L41.1928 132.489C42.526 130.147 43.8415 127.788 45.1835 125.173C46.7197 125.156 57.6234 124.201 59.3274 124.033ZM29.6182 150.804C29.581 150.87 29.5615 150.945 29.5615 151.021C29.5615 151.096 29.581 151.171 29.6182 151.237C29.7683 151.476 30.1479 151.493 30.4216 151.511C31.3045 151.564 38.0939 152.182 40.4689 152.492L32.0285 159.887C31.443 159.343 30.7302 158.956 29.9558 158.76C29.1814 158.565 28.3703 158.568 27.5972 158.768C26.8241 158.969 26.114 159.361 25.5322 159.909C24.9503 160.456 24.5155 161.141 24.2679 161.901L20.2242 161.539C20.8158 159.312 26.8371 137.101 27.2873 135.546L46.9228 134.088C44.6891 136.2 29.7418 150.477 29.6182 150.804ZM145.206 176.718C145.868 176.718 157.151 176.179 158.273 176.099C159.482 179.907 162.581 189.546 163.393 192.056L145.206 176.718ZM116.865 142.322L113.943 145.989C113.06 143.727 112.177 141.377 111.224 139.089C111.1 138.797 110.888 138.832 110.667 138.832C108.902 138.832 99.5164 138.903 97.424 139.124C96.1173 139.265 96.3645 139.654 92.3032 144.902C90.8937 144.722 89.494 144.472 88.1095 144.151C88.0566 140.228 88.0566 136.2 88.1095 132.144C88.6746 131.561 93.504 126.499 94.0072 125.96C95.4463 125.359 111.347 119.28 113.925 118.317C114.022 119.139 116.609 140.502 116.865 142.322ZM59.4068 123.512C59.4068 123.512 46.7462 124.484 45.5013 124.617C46.0311 123.609 46.5696 122.602 47.117 121.595C49.4567 120.835 57.7911 118.149 60.2367 117.389C59.9542 119.433 59.6776 121.474 59.4068 123.512ZM46.3048 121.86C44.3977 125.35 42.3494 128.928 40.5042 132.551L27.8259 133.496C28.2674 131.87 29.3092 128.08 29.5211 127.311C31.0308 126.896 44.6538 122.408 46.3048 121.86ZM17.4078 172.556C18.123 169.685 18.8822 166.716 19.721 163.491L24.0825 163.889C24.1728 164.663 24.4517 165.404 24.8947 166.045L17.4078 172.556ZM67.7325 184.36L74.0539 180.959L82.5826 180.234L89.0366 187.302C89.0366 188.274 88.6922 201.439 88.6393 203.276C85.1872 201.447 76.8968 197.145 76.8968 197.145C76.1994 196.173 68.633 185.632 67.706 184.36H67.7325ZM89.7252 187.382L108.963 177.751L123.407 177.504L124.29 185.624C112.557 191.967 102.218 197.472 89.2043 203.294C89.4868 198.868 89.6899 188.787 89.6987 187.382H89.7252ZM130.965 141.704C134.359 137.753 136.996 133.209 138.743 128.301C140.509 128.902 142.363 129.538 144.341 130.192C144.835 131.897 146.989 139.327 147.546 141.324L130.965 141.704ZM134.788 118.414C134.788 119.592 134.32 120.721 133.488 121.554C132.656 122.386 131.528 122.854 130.351 122.854C129.175 122.854 128.046 122.386 127.214 121.554C126.382 120.721 125.915 119.592 125.915 118.414C126.03 112.548 134.673 112.548 134.788 118.432V118.414ZM55.0454 88.4277C55.0454 88.1449 55.116 87.8445 55.1513 87.5441C55.5663 87.9152 60.7223 92.483 62.1526 93.7288L50.2954 95.5577C49.3386 95.1728 48.5179 94.5115 47.9381 93.6581C47.2276 87.7108 47.0032 81.7153 47.2671 75.7315C48.2295 73.6994 48.3972 74.3709 45.5896 70.1388C45.7662 69.697 46.6667 67.8947 47.064 67.0553C53.8976 73.7524 54.9217 79.2744 54.5421 88.3658C54.5432 88.4275 54.5666 88.4868 54.6079 88.5326C54.6492 88.5785 54.7057 88.6079 54.7669 88.6154C54.8281 88.623 54.89 88.6081 54.9412 88.5736C54.9923 88.5391 55.0293 88.4873 55.0454 88.4277ZM13.0817 104.154C12.4737 103.503 11.9758 102.757 11.6072 101.946C11.5909 101.899 11.5565 101.86 11.5118 101.839C11.4671 101.817 11.4157 101.814 11.3689 101.831C11.322 101.847 11.2836 101.881 11.2621 101.926C11.2406 101.971 11.2377 102.022 11.2541 102.069C11.5148 102.977 11.963 103.82 12.5696 104.543C12.9051 104.896 12.1458 105.002 11.8103 104.746C11.247 104.201 10.7969 103.549 10.486 102.829C10.158 101.895 9.94171 100.925 9.84147 99.9399C11.0536 99.6586 12.2361 99.2621 13.373 98.756C13.991 99.8604 15.492 100.267 15.801 101.407C15.801 101.46 15.5979 101.468 15.4743 101.477C15.3502 101.459 15.2235 101.471 15.1051 101.513C14.9867 101.554 14.8801 101.624 14.7945 101.716C14.3354 102.29 15.2624 102.794 15.6774 103.359C16.0923 103.925 15.8628 104.87 14.9446 104.101C14.1856 103.418 13.5073 102.65 12.9228 101.813C12.9005 101.773 12.8634 101.744 12.8195 101.731C12.7756 101.719 12.7286 101.724 12.6888 101.747C12.649 101.769 12.6196 101.806 12.6072 101.85C12.5948 101.894 12.6003 101.941 12.6226 101.981C13.0719 102.84 13.6201 103.644 14.2559 104.375C14.291 104.419 14.3101 104.474 14.3101 104.53C14.3101 104.586 14.291 104.641 14.2559 104.684C14.2254 104.731 14.18 104.766 14.1271 104.784C14.0743 104.801 14.017 104.801 13.9646 104.782C13.6209 104.653 13.3167 104.436 13.0817 104.154ZM16.3572 87.9594C15.8672 92.3135 15.8732 96.7092 16.3748 101.062H16.2424C15.8363 99.7986 14.9269 99.9929 13.7174 98.4114C14.1765 97.4307 15.4302 91.2284 16.3572 87.9594ZM31.5429 90.61C32.1344 84.5402 30.7748 78.3555 29.5299 72.3123C29.2562 70.9605 29.2297 71.2874 33.5647 68.2657C34.4476 69.0609 35.3305 69.8649 36.3546 70.7396C34.8714 78.17 33.6795 83.3121 31.5429 90.6011V90.61ZM46.0929 77.1451C41.4842 87.9594 42.3141 95.3456 43.5325 73.2046C44.1016 72.9875 44.6368 72.69 45.1217 72.3211C45.2844 71.8914 45.3739 71.4375 45.3866 70.9782C45.7397 71.5083 47.223 73.7082 47.2848 73.9556C46.9659 75.0465 46.5675 76.1125 46.0929 77.1451ZM36.8402 71.1549C37.8815 72.0695 38.9848 72.9108 40.1422 73.6729C41.0706 73.9095 42.0528 73.8094 42.9145 73.3902C42.6673 76.7475 41.8727 93.0043 41.7137 96.8829L29.4946 98.8709C32.594 89.8174 35.0487 80.5555 36.8402 71.1549ZM42.5878 89.7088C43.6606 85.4233 45.0264 81.2167 46.6756 77.1186C46.3189 83.4229 46.6148 89.7472 47.5585 95.9906L42.2611 96.8741C42.217 96.7504 42.5083 90.1329 42.5878 89.7176V89.7088ZM44.6361 71.8175C44.5037 72.1444 41.7314 73.1958 41.0251 73.1958C40.402 73.1279 39.8247 72.8359 39.4006 72.3741C39.4006 72.3741 30.7394 64.7228 30.2362 64.2016C30.1171 64.0916 30.0377 63.9453 30.0106 63.7854C29.9834 63.6255 30.01 63.4612 30.0861 63.318C30.0861 63.1678 31.2957 59.6338 32.1697 58.5029C32.5153 58.0087 32.9814 57.6112 33.5239 57.3483C34.0663 57.0854 34.667 56.9658 35.2687 57.0009C35.2687 57.3631 35.2687 60.4731 35.3216 61.2859C34.9391 60.8118 34.5881 60.313 34.271 59.7928C34.1386 59.5277 33.7589 59.7398 33.8737 59.996C34.4299 61.1888 40.7337 68.7605 41.0251 69.0874C41.2015 69.307 41.4476 69.4597 41.7226 69.5203C42.2435 69.5822 42.5437 69.1228 42.8174 68.6368C44.742 65.3943 44.9804 66.6842 43.1705 62.7438C43.714 62.8762 44.2808 62.8806 44.8263 62.7564C45.3717 62.6322 45.8809 62.3829 46.3136 62.0281C46.6937 62.3449 46.9819 62.7579 47.148 63.2241C47.3142 63.6904 47.3523 64.1927 47.2583 64.6787C46.9228 67.3557 44.6891 69.1316 44.6361 71.8263V71.8175ZM45.1658 42.0429C47.425 41.4116 49.7521 41.0556 52.0965 40.9827C53.6063 40.9827 55.4338 40.9827 55.0277 42.467C54.5711 43.8433 53.743 45.0663 52.6351 46.0011C51.7982 44.7892 50.6813 43.7973 49.3794 43.1098C48.0776 42.4222 46.6291 42.0592 45.157 42.0517L45.1658 42.0429ZM29.9978 64.8377C29.9978 64.8377 32.2139 67.02 33.0526 67.8063C29.2738 70.4569 29.0531 70.4569 28.8236 71.0223C28.7684 71.9435 28.8577 72.8677 29.0884 73.7612C31.2692 84.1161 31.7901 90.3449 28.9648 98.9769C24.0118 99.7721 19.7651 100.47 16.9399 100.965C16.5391 96.8993 16.5273 92.8047 16.9046 88.7369C17.5756 82.137 18.0347 84.9554 24.2767 78.2672C24.3055 78.2259 24.3187 78.1757 24.3139 78.1256C24.3091 78.0755 24.2867 78.0287 24.2506 77.9936C24.2145 77.9585 24.1671 77.9375 24.1168 77.9342C24.0666 77.9309 24.0169 77.9456 23.9765 77.9756C20.339 81.6687 17.5756 82.6671 16.6397 85.3972C14.9887 90.177 13.6026 97.4131 13.3819 97.9785C13.3201 98.1375 12.6932 98.5175 9.21462 99.2773C4.44702 86.9257 8.87029 74.2383 20.4891 66.9493C23.1378 65.2971 26.1926 63.5036 29.6182 62.8851C29.265 63.9542 29.3621 64.2016 29.9978 64.8377ZM43.9651 62.3108C43.4442 62.3108 42.4819 61.5687 42.2876 62.9646C42.2855 63.1309 42.2365 63.2932 42.1464 63.4329C41.8638 63.7598 42.5613 64.1839 42.7732 63.265C43.1529 64.0779 43.9298 65.7566 43.7179 66.1541C43.4265 66.6842 42.0669 68.7252 41.9521 68.8489C41.8373 68.9726 41.7491 68.9107 41.6078 68.7959C41.2193 68.469 37.988 64.6787 35.9308 62.0899C36.0103 60.8884 35.9308 57.1952 35.869 55.9583C36.8932 54.6419 36.9726 54.6242 36.8225 54.5093C36.6002 54.3504 36.4249 54.1343 36.315 53.884C36.2051 53.6336 36.1647 53.3582 36.1982 53.0869C36.2316 52.8155 36.3376 52.5581 36.505 52.342C36.6724 52.1259 36.8949 51.9589 37.1492 51.8588C37.3748 51.7839 37.6167 51.7725 37.8483 51.8258C38.08 51.879 38.2926 51.9949 38.4629 52.1608C38.6333 52.3267 38.7548 52.5363 38.8143 52.7666C38.8738 52.9969 38.8689 53.2391 38.8002 53.4668C38.7954 53.4916 38.7977 53.5172 38.8069 53.5407C38.8161 53.5642 38.8319 53.5846 38.8523 53.5995C38.8727 53.6143 38.8969 53.623 38.9221 53.6246C38.9473 53.6261 38.9724 53.6204 38.9944 53.6082C39.4489 53.4086 39.8509 53.1062 40.1687 52.7246C40.4689 52.4154 38.8444 51.8411 36.7961 49.7472C36.1869 49.1199 36.6548 48.74 37.264 49.3584C38.3874 50.3115 39.5667 51.1966 40.7955 52.009C40.9721 52.1238 41.0781 51.8058 41.546 51.0725C41.5668 51.046 41.578 51.0133 41.578 50.9797C41.578 50.946 41.5668 50.9134 41.546 50.8869C40.8573 50.4275 40.2217 49.8002 39.586 49.2877C39.118 48.9078 39.3211 48.4042 39.8597 48.7841C40.3982 49.1641 41.546 50.0122 41.7844 50.1536C41.8087 50.1753 41.8401 50.1873 41.8727 50.1873C41.9052 50.1873 41.9367 50.1753 41.961 50.1536C42.1853 49.432 42.3651 48.6973 42.4995 47.9536C44.5037 52.7865 48.0087 51.6114 49.9511 52.8042C49.7304 53.6877 49.4832 54.5712 49.183 55.5784C48.1941 58.5294 47.3289 62.2755 43.9651 62.2932V62.3108ZM48.2736 40.32C43.2878 41.0527 38.5482 42.9638 34.4476 45.895C34.1562 38.3321 43.2323 35.0719 48.2736 40.32ZM33.8737 47.989C33.707 49.9497 33.9229 51.9242 34.5094 53.8025C33.4559 53.9983 32.3805 54.0488 31.3133 53.9527C29.7594 53.8909 29.7153 52.1857 30.5717 51.1873C31.5761 50.026 32.6811 48.9557 33.8737 47.989ZM70.955 98.756C70.8049 98.756 70.5577 98.6942 70.5224 98.5705C70.8706 97.7672 71.0103 96.8889 70.9285 96.0171C72.0498 95.3014 72.4824 95.6902 72.2617 96.9006C72.0939 97.2805 71.9174 98.5881 70.9373 98.756H70.955ZM67.9885 98.6677C67.9976 98.6269 67.9976 98.5847 67.9885 98.544C67.9885 96.9625 68.7743 95.6283 70.3458 96.0436C70.4172 96.9933 70.244 97.9455 69.8426 98.809C69.2863 99.7897 68.1121 99.8781 67.9708 98.6677H67.9885ZM21.9635 120.385L15.3419 117.195C15.2271 117.089 13.682 116.206 13.7615 115.861C13.841 115.516 15.1476 112.592 15.8716 110.684L26.016 108.563C24.2414 112.61 22.2019 116.435 21.9635 120.385ZM33.6795 118.732C33.6366 118.629 33.6343 118.514 33.6729 118.409C33.7116 118.305 33.7883 118.219 33.8878 118.168C33.9873 118.118 34.1021 118.107 34.2092 118.138C34.3163 118.169 34.4078 118.239 34.4652 118.335C35.6748 117.451 36.9285 116.515 38.2528 115.684C37.9968 114.96 37.7231 114.235 37.4494 113.511C37.0079 113.705 36.5665 113.908 36.2487 114.103C36.1474 114.153 36.0309 114.162 35.923 114.129C35.8152 114.095 35.7242 114.022 35.6688 113.923C35.6134 113.825 35.5978 113.709 35.6252 113.599C35.6526 113.49 35.7209 113.395 35.816 113.334C36.2045 113.122 36.646 112.901 37.1227 112.689C37.1227 112.583 37.0433 112.477 36.9991 112.371C36.9558 112.262 36.9575 112.14 37.0039 112.033C37.0502 111.925 37.1374 111.84 37.2463 111.797C37.3552 111.753 37.4768 111.755 37.5845 111.802C37.6921 111.848 37.7769 111.935 37.8202 112.044C38.0498 112.61 37.3434 112.336 42.5613 110.701C42.3651 110.076 42.2262 109.434 42.1464 108.784C42.1464 108.651 42.0846 108.616 41.9786 108.651C36.593 110.498 32.3375 110.321 28.285 108.051L30.4393 107.6C34.2132 108.745 38.2502 108.683 41.9874 107.423C42.217 107.353 41.9874 106.946 42.2435 105.073L47.6909 103.889C48.2228 106.909 48.9095 109.899 49.748 112.848C48.9135 113.041 48.091 113.283 47.2848 113.573C47.1965 113.511 47.3819 113.467 44.433 114.668C44.3359 114.518 44.1417 114.209 43.9033 113.785C42.3266 114.417 40.8081 115.185 39.3653 116.082C39.8067 117.336 40.2481 118.573 40.5572 119.731C41.599 119.271 42.6408 118.847 43.5678 118.432C43.3824 117.831 43.1793 117.239 42.9586 116.665C42.9266 116.56 42.9349 116.447 42.9818 116.347C43.0288 116.248 43.1109 116.17 43.2124 116.128C43.3138 116.086 43.4272 116.083 43.5305 116.121C43.6337 116.158 43.7194 116.232 43.7709 116.329C44.0075 116.889 44.2139 117.461 44.3889 118.043L46.7815 117.054C46.8904 117.009 47.0125 117.01 47.121 117.055C47.2294 117.101 47.3153 117.188 47.3598 117.297C47.4043 117.406 47.4037 117.528 47.3582 117.636C47.3127 117.745 47.2259 117.831 47.117 117.875L44.6273 118.953C44.8833 119.89 45.0952 120.826 45.2541 121.604L44.3712 121.878C44.2123 121.109 44.0181 120.199 43.7709 119.28L40.7691 120.579C41.0074 121.392 41.2105 122.152 41.3782 122.841L40.4954 123.115C40.3453 122.461 40.151 121.728 39.9215 120.932C38.4735 121.577 37.0874 122.222 36.0456 122.761C36.2222 123.291 36.3899 123.848 36.5488 124.387L35.666 124.661C35.2422 122.797 34.3681 120.376 33.6795 118.732Z" fill="white"/>
<path d="M44.6096 131.278L48.1941 131.057C48.3474 131.07 48.5013 131.043 48.6407 130.978C48.7801 130.913 48.9001 130.812 48.9887 130.686C48.9887 130.686 49.6421 127.523 49.2801 127.249C48.1021 127.196 46.9218 127.228 45.7485 127.347C45.3247 127.515 44.4242 130.43 44.3182 130.881C44.3046 130.927 44.3017 130.975 44.3099 131.022C44.318 131.069 44.337 131.113 44.3652 131.152C44.3934 131.191 44.4302 131.222 44.4726 131.244C44.515 131.266 44.5619 131.278 44.6096 131.278ZM45.051 130.642C45.2276 130.121 45.8456 128.177 46.0046 127.886C46.3312 127.886 48.3001 127.762 48.8121 127.753C48.8121 128.239 48.5296 130.121 48.4943 130.315C48.459 130.51 48.6885 130.483 45.051 130.642ZM35.1097 131.8C36.4263 131.85 37.7448 131.812 39.0562 131.685C39.4535 131.614 39.5595 131.314 39.6566 131.013C40.1972 129.53 40.8342 128.084 41.5636 126.684C41.5936 126.636 41.6085 126.58 41.6065 126.524C41.6046 126.468 41.5857 126.413 41.5525 126.367C41.5192 126.322 41.4731 126.287 41.42 126.268C41.3669 126.249 41.3093 126.246 41.2546 126.26C41.2546 126.26 37.105 127.143 36.8402 127.338C36.0836 128.645 35.4369 130.014 34.9067 131.429C34.8848 131.505 34.8938 131.586 34.9318 131.656C34.9699 131.725 35.0338 131.777 35.1097 131.8ZM38.9238 131.084C38.2705 131.084 36.3281 131.269 35.613 131.252C36.0721 130.042 36.6058 128.862 37.211 127.718C37.4141 127.585 39.9744 127.09 40.7425 126.923C40.4159 127.744 39.1622 130.739 38.9238 131.102V131.084ZM27.8789 143.983C31.172 143.701 31.0926 143.762 31.2603 143.524C31.4281 143.285 32.1962 137.834 32.1962 137.118C32.1939 137.054 32.1668 136.994 32.1207 136.949C32.0746 136.905 32.013 136.88 31.949 136.88C28.4969 137.03 28.4174 137.136 28.3645 137.189C28.3115 137.242 27.4816 143.003 27.4816 143.692C27.4723 143.742 27.4774 143.795 27.4964 143.842C27.5154 143.89 27.5474 143.932 27.5889 143.962C27.6304 143.993 27.6796 144.011 27.7308 144.014C27.7821 144.018 27.8334 144.007 27.8789 143.983ZM30.8983 142.852C30.8365 143.365 31.2338 143.206 28.0466 143.515C28.0466 143.409 28.7088 138.214 28.8059 137.595C29.2473 137.525 31.0043 137.348 31.6488 137.348C31.5252 137.975 31.278 139.822 30.8983 142.852ZM36.8755 140.723C37.0874 140.838 37.264 140.723 37.4582 140.626C38.8342 139.656 40.1303 138.578 41.3341 137.401C41.4577 137.224 41.1752 136.995 38.8355 135.502C38.5795 135.334 38.4029 135.192 38.1557 135.502C38.1557 135.502 35.251 139.124 35.4452 139.495C35.8619 139.97 36.3434 140.383 36.8755 140.723ZM37.0521 140.264C36.6807 139.941 36.3271 139.599 35.9926 139.239C36.3104 138.779 38.2616 136.2 38.4912 135.934C38.7119 136.067 40.1598 137.004 40.6189 137.304C40.4777 137.436 37.3611 140.423 37.0521 140.264ZM40.9721 147.774C39.4447 147.252 37.7672 146.705 35.8425 146.086C35.807 146.076 35.7697 146.073 35.7331 146.078C35.6964 146.083 35.6614 146.097 35.6303 146.117C35.5993 146.137 35.573 146.164 35.5532 146.195C35.5334 146.226 35.5207 146.261 35.5159 146.298C34.7831 147.676 34.7301 147.685 34.8007 147.844C34.8158 147.878 34.839 147.908 34.8682 147.931C34.8975 147.954 34.9319 147.97 34.9685 147.977C35.4099 148.101 39.9126 149.532 40.3894 149.567C40.7249 149.567 40.5483 149.196 41.0869 148.039C41.0982 148.014 41.1042 147.987 41.1044 147.96C41.1047 147.933 41.0993 147.906 41.0884 147.881C41.0776 147.856 41.0617 147.833 41.0416 147.815C41.0216 147.796 40.9979 147.782 40.9721 147.774ZM35.3922 147.579L35.8778 146.643L40.6543 148.074C40.5042 148.41 40.3717 148.728 40.2658 149.028C39.4977 148.772 36.2045 147.809 35.3922 147.579ZM63.3886 165.63C63.3886 165.63 64.9602 164.251 65.4634 163.792C65.4947 163.761 65.5195 163.725 65.5364 163.685C65.5534 163.645 65.5621 163.601 65.5621 163.558C65.5621 163.514 65.5534 163.471 65.5364 163.431C65.5195 163.39 65.4947 163.354 65.4634 163.324C62.3468 160.187 62.2762 159.675 61.7288 159.922C61.5169 160.019 60.1661 160.806 59.963 160.991C59.896 161.031 59.8409 161.088 59.8037 161.156C59.7664 161.225 59.7482 161.302 59.7511 161.38C60.726 162.804 61.7875 164.168 62.9295 165.462C62.9452 165.506 62.9704 165.546 63.0033 165.579C63.0362 165.612 63.0759 165.637 63.1197 165.653C63.1636 165.669 63.2104 165.676 63.2568 165.671C63.3033 165.667 63.3483 165.653 63.3886 165.63ZM60.3074 161.397C61.4198 160.806 61.8171 160.585 61.8789 160.576C61.9407 160.567 64.6688 163.456 64.7483 163.544L63.1767 164.976C62.8942 164.614 60.4928 161.627 60.3074 161.397ZM64.2362 167.158C64.1965 167.18 64.1623 167.212 64.1364 167.249C64.1105 167.287 64.0935 167.33 64.0867 167.375C64.0799 167.42 64.0835 167.466 64.0971 167.51C64.1108 167.553 64.1342 167.593 64.1656 167.626C65.4281 169.102 71.4406 175.905 71.4494 175.923C71.5493 176.039 71.6722 176.134 71.8105 176.201C71.9487 176.268 72.0994 176.306 72.2528 176.311C73.5369 175.991 74.7898 175.557 75.9963 175.013C76.0452 174.987 76.0876 174.95 76.1201 174.905C76.1526 174.86 76.1744 174.808 76.1838 174.754C76.1931 174.699 76.1899 174.643 76.1742 174.59C76.1585 174.537 76.1309 174.488 76.0934 174.447C74.7337 172.777 68.9508 166.071 68.527 165.753C67.6353 165.073 66.0285 166.292 64.2362 167.158ZM68.324 166.425C68.6153 166.734 74.204 173.263 75.2458 174.544C74.4865 174.845 72.5177 175.551 72.3941 175.578C72.3136 175.603 72.2274 175.603 72.1469 175.578C72.0665 175.552 71.9956 175.503 71.9438 175.437C71.9438 175.437 66.2668 169.128 64.8807 167.485C65.8166 167.008 67.5294 166.169 67.7501 166.124C67.8666 166.114 67.9837 166.138 68.086 166.195C68.1884 166.252 68.2713 166.338 68.324 166.442V166.425ZM76.8703 159.648C75.4865 160.014 74.1222 160.451 72.7826 160.956C72.3853 161.035 72.6413 160.956 70.5312 158.102C70.0898 157.492 69.5424 156.733 68.6507 157.104C67.9708 157.492 65.8254 157.89 66.3905 158.544C66.9555 159.198 70.1781 162.917 70.3017 163.032C70.3893 163.13 70.4969 163.208 70.6171 163.262C70.7374 163.315 70.8676 163.342 70.9991 163.341C71.2552 163.341 70.9373 163.412 78.1858 161.654C78.2346 161.642 78.2799 161.618 78.3179 161.586C78.356 161.553 78.3857 161.511 78.4046 161.465C78.4236 161.418 78.4312 161.368 78.427 161.318C78.4227 161.268 78.4066 161.219 78.3801 161.177C77.9576 160.593 77.4485 160.078 76.8703 159.648ZM68.8625 157.607C68.9392 157.574 69.0218 157.557 69.1053 157.557C69.1889 157.557 69.2715 157.574 69.3481 157.607C69.613 157.837 72.0498 161.521 72.5354 161.583C72.7914 161.583 76.5172 160.231 76.8792 160.328C77.1369 160.561 77.3679 160.822 77.5678 161.106C76.3759 161.389 71.3258 162.608 70.9373 162.652C70.7784 162.511 69.9662 161.636 67.1144 158.367C67.7854 158.04 68.6771 157.713 68.8625 157.607Z" fill="white"/>
<path d="M72.191 158.314C72.2367 158.356 72.2966 158.38 72.3587 158.38C72.4209 158.38 72.4808 158.356 72.5265 158.314C73.3387 157.704 75.078 156.547 75.078 156.308C75.078 156.07 73.8508 155.001 73.7272 154.948C73.2946 154.762 71.3876 156.185 71.1757 156.291C71.087 156.328 71.0143 156.395 70.9707 156.481C70.927 156.567 70.9152 156.665 70.9373 156.759C71.2787 157.335 71.7009 157.858 72.191 158.314ZM74.3541 156.326L72.3499 157.793C72.1557 157.572 71.6613 156.909 71.52 156.759C71.829 156.529 73.0739 155.725 73.3917 155.549C73.7439 155.766 74.0672 156.027 74.3541 156.326ZM81.8674 153.879C79.5013 154.206 77.6826 152.854 76.6761 152.677C76.548 152.65 76.4148 152.661 76.2927 152.708C76.1705 152.755 76.0645 152.836 75.9874 152.942C74.6101 154.391 74.4159 154.806 74.4953 154.895C74.8986 155.323 75.3323 155.722 75.7932 156.088C76.1728 156.406 76.4289 156.185 76.8085 155.911C77.0133 155.747 77.2286 155.596 77.453 155.46C77.6647 155.509 77.8715 155.577 78.071 155.663C78.9974 156.084 79.9951 156.323 81.011 156.37C81.2799 156.427 81.5597 156.403 81.8145 156.3C81.9734 156.211 82.1323 155.884 82.2029 154.161C82.2054 154.119 82.198 154.076 82.1811 154.037C82.1643 153.998 82.1386 153.963 82.106 153.936C82.0734 153.908 82.0349 153.889 81.9935 153.879C81.9521 153.869 81.9089 153.869 81.8674 153.879ZM76.6231 153.234C76.7732 153.234 77.6296 153.631 78.0181 153.808C79.1501 154.297 80.38 154.518 81.6114 154.453C81.4878 155.858 81.6114 155.778 81.2406 155.814C79.7397 155.946 77.9121 154.93 77.5678 154.886C77.2234 154.842 76.3406 155.708 76.1287 155.708C75.7387 155.416 75.3726 155.094 75.0339 154.745C75.5289 154.206 76.0599 153.701 76.6231 153.234ZM67.4499 142.976C66.7083 142.402 62.3644 138.629 61.9318 138.629C60.7915 139.289 59.6945 140.021 58.6475 140.82C58.6092 140.846 58.5779 140.881 58.5563 140.922C58.5346 140.963 58.5233 141.008 58.5233 141.054C58.5233 141.101 58.5346 141.146 58.5563 141.187C58.5779 141.228 58.6092 141.263 58.6475 141.289C59.5304 141.987 64.4569 145.291 64.501 145.326C65.0749 145.706 65.5428 145.088 65.896 144.787C66.3992 144.372 66.929 143.904 67.4587 143.444C67.4918 143.415 67.5181 143.378 67.5358 143.338C67.5536 143.297 67.5623 143.253 67.5615 143.208C67.5606 143.164 67.5502 143.12 67.531 143.08C67.5117 143.04 67.4841 143.004 67.4499 142.976ZM66.7701 143.206C65.0573 144.637 64.9336 144.84 64.8277 144.778C64.7218 144.717 60.4133 141.845 59.2743 141.024C60.0518 140.323 60.9187 139.729 61.8524 139.256C62.1261 139.38 65.7812 142.375 66.7701 143.206ZM69.2863 122.735C67.8429 123.561 66.4751 124.513 65.1985 125.58C64.7129 126.039 65.5428 126.463 65.7547 126.666L66.9996 127.709C66.5582 128.094 66.089 128.445 65.5958 128.76C65.5463 128.789 65.5053 128.83 65.4767 128.88C65.4482 128.929 65.4331 128.986 65.4331 129.043C65.4331 129.1 65.4482 129.156 65.4767 129.206C65.5053 129.256 65.5463 129.297 65.5958 129.326C65.8201 129.475 66.053 129.611 66.2933 129.732C66.876 130.059 67.1144 130.298 67.5205 130.05C68.2003 129.626 74.7779 125.783 74.8485 125.491C74.9191 125.2 74.6101 125.041 74.46 124.97C69.5865 122.743 69.6571 122.682 69.2863 122.735ZM69.5512 123.362C69.7807 123.415 72.3146 124.59 74.098 125.429C73.5771 125.712 67.2998 129.423 67.2203 129.485C66.9104 129.346 66.6147 129.177 66.3374 128.981C66.7524 128.592 67.2203 128.248 67.6265 127.912C67.6532 127.887 67.6745 127.857 67.6891 127.824C67.7037 127.79 67.7112 127.754 67.7112 127.718C67.7112 127.681 67.7037 127.645 67.6891 127.612C67.6745 127.578 67.6532 127.548 67.6265 127.523C67.3792 127.32 65.9401 126.216 65.6311 125.871C66.258 125.438 69.1892 123.362 69.5512 123.362ZM108.787 180.702C108.632 180.552 108.439 180.448 108.228 180.401C108.018 180.354 107.799 180.367 107.595 180.437C107.542 180.437 100.373 184.219 100.232 184.334C100.201 184.363 100.179 184.399 100.166 184.439C100.154 184.48 100.152 184.522 100.161 184.563C100.161 184.846 100.708 185.359 104.019 187.214C104.133 187.271 104.262 187.294 104.388 187.28C104.515 187.266 104.635 187.215 104.734 187.134C105.238 186.843 111.056 183.468 111.338 183.247C111.621 183.026 111.585 182.761 111.532 182.664C111.48 182.567 109.237 181.02 108.787 180.702ZM107.736 181.02C108.01 180.897 108.204 181.02 108.504 181.224L110.95 182.823C110.332 183.256 104.77 186.56 104.302 186.781C103.072 186.155 101.892 185.438 100.77 184.634C101.768 184.113 104.717 182.416 107.736 181.02ZM93.345 180.057C93.8803 180.42 94.536 180.56 95.1726 180.446C95.5348 180.441 95.8887 180.337 96.1967 180.146C96.5499 179.89 99.5605 177.31 100.611 176.135C100.641 176.103 100.663 176.065 100.675 176.024C100.688 175.983 100.691 175.939 100.684 175.896C100.677 175.854 100.661 175.813 100.636 175.778C100.611 175.743 100.578 175.714 100.541 175.693C99.7011 175.298 98.8405 174.95 97.9625 174.65C97.8743 174.627 97.7814 174.629 97.6941 174.656C97.6069 174.682 97.5286 174.732 97.4681 174.8C97.4681 174.8 93.601 179.218 93.2479 179.695C93.2278 179.725 93.2144 179.758 93.2084 179.793C93.2025 179.828 93.2042 179.864 93.2134 179.899C93.2226 179.933 93.2392 179.965 93.2619 179.992C93.2846 180.02 93.3129 180.042 93.345 180.057ZM93.9542 179.748C94.5634 179.059 97.574 175.657 97.9184 175.331C98.615 175.505 99.2946 175.742 99.949 176.037C98.7394 177.151 96.6558 178.9 96.4174 179.183C96.2006 179.454 95.9221 179.669 95.6052 179.81C95.0623 179.966 94.4839 179.944 93.9542 179.748ZM99.6841 172.857C99.8431 172.998 103.101 173.405 103.348 173.184C103.595 172.963 104.628 171.496 104.796 171.249C104.83 171.225 104.858 171.193 104.876 171.156C104.895 171.119 104.903 171.078 104.902 171.037C104.902 170.895 104.734 170.798 104.584 170.727C104.434 170.657 102.465 170.56 101.741 170.409C101.563 170.359 101.373 170.366 101.199 170.429C101.024 170.492 100.874 170.609 100.77 170.763L99.6576 172.318C99.4546 172.627 99.6047 172.795 99.6841 172.857ZM101.362 171.09C102.249 171.103 103.135 171.182 104.01 171.328C102.916 172.839 103.048 172.76 102.704 172.76C101.888 172.731 101.077 172.64 100.276 172.486C101 171.478 101.273 171.152 101.362 171.063V171.09ZM102.968 169.155C105.414 169.331 111.126 169.968 111.453 169.8C111.78 169.632 112.336 167.883 112.433 167.662C112.455 167.616 112.465 167.565 112.463 167.514C112.46 167.463 112.445 167.413 112.419 167.37C112.393 167.326 112.356 167.289 112.312 167.263C112.269 167.237 112.219 167.222 112.168 167.22C111.453 167.22 104.514 167.078 104.372 167.087C104.231 167.096 103.648 167.653 102.96 168.607C102.818 168.801 102.712 168.89 102.783 169.022C102.798 169.06 102.824 169.092 102.856 169.116C102.889 169.139 102.928 169.153 102.968 169.155ZM104.416 167.573C105.087 167.626 110.658 167.785 111.753 167.821C111.206 169.331 111.232 169.305 111.091 169.296C110.95 169.287 106.032 169.013 103.375 168.766C103.931 167.989 104.31 167.591 104.416 167.573ZM97.3621 163.597C97.4946 163.73 104.575 164.26 104.77 164.26C105.961 164.26 105.335 163.677 106.933 161.557C106.96 161.513 106.975 161.463 106.976 161.412C106.977 161.361 106.964 161.31 106.939 161.266C106.913 161.221 106.876 161.185 106.832 161.16C106.787 161.135 106.737 161.122 106.685 161.124C105.803 161.185 102.845 161.424 102.271 161.468C102.836 160.85 103.392 160.258 103.922 159.701C103.961 159.659 103.984 159.605 103.989 159.548C103.994 159.491 103.979 159.434 103.948 159.386C103.916 159.339 103.869 159.303 103.815 159.284C103.761 159.266 103.702 159.267 103.648 159.286C103.322 159.286 101.238 158.623 101 158.703C101 158.703 97.2297 163.315 97.2827 163.536C97.3 163.566 97.3285 163.588 97.3621 163.597ZM101.379 159.233C102.016 159.34 102.645 159.494 103.26 159.692C102.704 160.275 102.13 160.903 101.494 161.592C101.468 161.635 101.455 161.683 101.455 161.733C101.455 161.783 101.468 161.832 101.494 161.875C101.626 162.14 101.697 161.954 106.147 161.716C105.77 162.412 105.342 163.079 104.867 163.712C104.646 163.712 100.09 163.465 98.2362 163.182C98.4746 162.838 101.017 159.463 101.379 159.233ZM109.29 142.782C108.197 142.656 107.096 142.612 105.997 142.649C105.82 142.738 102.748 147.482 102.739 147.676C102.739 148.145 105.847 148.145 106.27 148.145C106.404 148.165 106.541 148.143 106.662 148.081C106.782 148.019 106.88 147.921 106.941 147.8C106.941 147.8 108.778 144.761 109.475 143.162C109.496 143.125 109.507 143.085 109.509 143.043C109.51 143.001 109.501 142.96 109.483 142.923C109.464 142.885 109.437 142.853 109.404 142.828C109.37 142.804 109.331 142.788 109.29 142.782ZM106.553 147.5C105.501 147.63 104.435 147.597 103.392 147.403C104.196 146.166 105.988 143.524 106.182 143.276C106.376 143.029 106.244 143.276 108.831 143.276C108.178 144.743 107.321 146.121 106.553 147.5ZM108.778 130.218C108.16 130.218 105.652 129.714 105.396 129.776C105.14 129.838 99.6135 136.632 99.587 136.694C99.5787 136.715 99.5751 136.736 99.5767 136.758C99.5783 136.78 99.5849 136.801 99.596 136.82C99.6071 136.839 99.6225 136.855 99.6408 136.867C99.6592 136.879 99.6801 136.886 99.7018 136.889C99.8607 136.889 102.986 137.039 104.187 137.039C104.45 137.088 104.722 137.043 104.956 136.912C105.19 136.782 105.371 136.573 105.467 136.323C105.467 136.323 108.425 131.747 109.052 130.713C109.078 130.663 109.092 130.608 109.092 130.551C109.092 130.495 109.077 130.44 109.05 130.391C109.023 130.341 108.984 130.3 108.936 130.269C108.888 130.239 108.834 130.222 108.778 130.218ZM105.547 130.448C105.873 130.448 107.763 130.748 108.195 130.81C104.425 136.65 105.026 136.42 104.205 136.482C103.79 136.482 101.459 136.535 100.39 136.482C101.282 135.457 105.132 130.89 105.547 130.465V130.448ZM102.068 126.622C103.209 126.697 104.353 126.697 105.494 126.622C105.697 126.622 106.014 126.622 106.182 126.437C106.252 126.346 106.283 126.232 106.27 126.119C106.351 125.237 106.383 124.353 106.368 123.468C106.365 123.432 106.354 123.396 106.336 123.364C106.319 123.333 106.294 123.305 106.265 123.283C106.236 123.261 106.202 123.246 106.167 123.238C106.131 123.231 106.094 123.231 106.059 123.238C105.52 123.371 102.606 124.254 102.527 124.298C102.156 124.44 102.165 124.731 102.121 125.111C102.085 125.521 102.026 125.928 101.944 126.331C101.924 126.386 101.925 126.447 101.948 126.501C101.971 126.555 102.014 126.599 102.068 126.622ZM102.615 124.731C102.889 124.608 104.902 124.007 105.873 123.777C105.873 124.484 105.741 125.641 105.705 125.933C105.255 126.004 103.057 126.198 102.43 126.198C102.483 125.88 102.545 124.917 102.615 124.731ZM100.779 125.297C100.812 125.255 100.831 125.203 100.833 125.15C100.836 125.096 100.821 125.044 100.792 124.999C100.763 124.954 100.72 124.919 100.67 124.9C100.621 124.88 100.566 124.877 100.514 124.89C99.3706 125.239 98.2551 125.673 97.1767 126.189C97.062 126.348 96.5675 127.576 96.3556 128.009C96.3321 128.054 96.3207 128.103 96.3227 128.153C96.3246 128.203 96.3399 128.252 96.3668 128.294C96.3938 128.337 96.4315 128.371 96.4761 128.394C96.5206 128.417 96.5705 128.427 96.6205 128.425C97.7749 128.379 98.9251 128.258 100.064 128.062C100.152 128 100.664 125.8 100.779 125.297ZM97.0973 127.833C97.2385 127.532 97.6005 126.666 97.6182 126.622C98.4545 126.192 99.3222 125.826 100.214 125.527C100.099 126.057 99.8166 127.373 99.7371 127.612C99.3839 127.665 97.8389 127.78 97.0884 127.833H97.0973ZM118.234 133.752C118.18 133.846 118.146 133.951 118.136 134.059C118.125 134.167 118.137 134.276 118.172 134.379C118.172 134.379 119.346 139.018 119.514 139.424C119.549 139.531 119.616 139.624 119.706 139.69C119.796 139.757 119.905 139.794 120.017 139.795C120.485 139.795 122.842 139.442 123.354 139.362C123.387 139.354 123.417 139.34 123.443 139.32C123.47 139.3 123.492 139.274 123.508 139.245C123.525 139.217 123.535 139.185 123.539 139.152C123.543 139.119 123.54 139.085 123.531 139.053C123.372 138.47 122.313 133.805 122.162 133.611C122.094 133.54 122.008 133.489 121.914 133.461C121.82 133.433 121.72 133.43 121.624 133.452C118.366 133.637 118.437 133.567 118.234 133.752ZM119.999 139.177C119.788 138.408 118.825 135.024 118.71 134.256C119.152 134.159 121.218 134.008 121.633 134.008C121.827 134.521 122.772 138.02 122.992 138.921C122.009 139.09 121.014 139.182 120.017 139.195L119.999 139.177ZM142.275 135.908C142.001 135.758 137.86 136.244 137.587 136.571C137.313 136.897 137.472 139.566 137.489 139.795C137.492 139.88 137.525 139.961 137.584 140.021C137.643 140.082 137.723 140.118 137.807 140.122C137.807 140.122 141.568 139.769 143.228 139.725C143.776 139.725 143.961 139.292 143.696 138.841C143.311 137.823 142.835 136.841 142.275 135.908ZM138.081 137.216C138.081 137.039 138.125 137.048 138.452 136.995C141.1 136.588 141.807 136.535 141.983 136.535C142.16 136.871 142.963 138.726 143.158 139.186C142.946 139.186 139.758 139.292 138.152 139.433C138.099 137.931 138.09 137.392 138.09 137.216H138.081ZM144.341 148.357C143.617 147.8 141.692 145.901 141.365 145.6C141.222 145.479 141.056 145.387 140.877 145.331C140.699 145.275 140.51 145.255 140.323 145.273C138.519 145.203 136.713 145.229 134.911 145.353C134.839 145.365 134.774 145.402 134.727 145.458C134.68 145.514 134.654 145.585 134.654 145.658C134.654 145.731 134.68 145.801 134.727 145.857C134.774 145.913 134.839 145.95 134.911 145.962C139.502 149.602 139.255 149.576 140.456 149.426C140.456 149.426 143.158 149.099 144.138 148.966C144.21 148.968 144.28 148.947 144.339 148.906C144.398 148.864 144.442 148.805 144.465 148.737C144.488 148.669 144.488 148.595 144.466 148.526C144.443 148.458 144.399 148.398 144.341 148.357ZM143.369 148.41C142.698 148.507 139.979 148.922 139.723 148.86C139.467 148.798 136.651 146.599 135.732 145.883C136.986 145.821 140.491 145.883 140.694 145.962C140.897 146.042 142.734 147.888 143.369 148.41ZM141.286 164.225C139.088 164.373 136.902 164.668 134.744 165.108C134.702 165.131 134.665 165.162 134.637 165.201C134.61 165.24 134.591 165.284 134.583 165.331C134.576 165.379 134.579 165.427 134.593 165.472C134.607 165.518 134.631 165.56 134.664 165.594C135.362 166.407 137.048 168.342 137.551 168.748C137.843 169.084 138.231 169.005 138.628 168.899C139.026 168.793 138.496 168.899 144.005 167.874C144.056 167.864 144.104 167.841 144.144 167.806C144.183 167.772 144.212 167.727 144.228 167.678C144.245 167.628 144.247 167.575 144.236 167.524C144.225 167.473 144.2 167.426 144.164 167.388C141.648 164.313 141.683 164.295 141.286 164.225ZM137.957 168.386C137.613 167.847 135.997 166.151 135.415 165.506C136.456 165.267 140.509 164.773 141.021 164.781C141.392 164.781 143.025 166.919 143.396 167.379C137.86 168.527 138.046 168.474 137.957 168.386ZM151.686 167.944C150.53 168.607 148.72 168.607 148.296 168.731C148.239 168.749 148.189 168.782 148.149 168.827C148.109 168.871 148.082 168.926 148.071 168.984C148.059 169.043 148.063 169.103 148.082 169.16C148.102 169.216 148.136 169.266 148.181 169.305L149.947 172.371C150.022 172.5 150.133 172.604 150.266 172.671C150.399 172.739 150.549 172.766 150.697 172.751C151.218 172.751 153.161 172.68 153.805 172.636C154.282 172.574 154.088 171.867 153.92 171.408C153.752 170.948 152.843 168.881 152.481 168.183C152.453 168.108 152.408 168.04 152.349 167.985C152.29 167.93 152.22 167.889 152.143 167.866C152.066 167.843 151.985 167.838 151.905 167.852C151.826 167.865 151.751 167.897 151.686 167.944ZM153.452 172.017C152.482 172.071 151.509 172.071 150.538 172.017L148.967 169.305C150.005 169.184 151.029 168.96 152.022 168.633C152.287 169.243 153.231 171.434 153.452 172.017ZM42.729 60.1726C42.4026 60.0221 42.1256 59.782 41.9303 59.4801C41.7349 59.1782 41.6292 58.8271 41.6254 58.4675C41.6254 58.0434 40.8926 58.0964 40.9014 58.5381C40.9431 59.0108 41.1289 59.4592 41.4337 59.8227C41.7385 60.1861 42.1475 60.4471 42.6054 60.5702C42.6543 60.5757 42.7036 60.5639 42.7448 60.5369C42.786 60.51 42.8165 60.4695 42.8311 60.4225C42.8457 60.3754 42.8436 60.3248 42.8249 60.2792C42.8063 60.2336 42.7724 60.1959 42.729 60.1726ZM43.2676 54.0499C43.2058 54.2796 42.8879 55.1896 42.8173 55.4105C42.8077 55.463 42.8088 55.5169 42.8205 55.569C42.8323 55.6211 42.8543 55.6703 42.8855 55.7136C42.9166 55.757 42.9561 55.7937 43.0017 55.8214C43.0473 55.8491 43.0979 55.8674 43.1507 55.8751C43.2035 55.8829 43.2573 55.8799 43.3089 55.8663C43.3605 55.8528 43.4089 55.829 43.4511 55.7963C43.4933 55.7637 43.5285 55.7229 43.5546 55.6763C43.5807 55.6297 43.5972 55.5784 43.6031 55.5253C43.6031 55.1366 43.6914 54.3591 43.7178 54.1559C43.7248 54.1263 43.7259 54.0956 43.721 54.0656C43.7161 54.0356 43.7053 54.0069 43.6894 53.981C43.6734 53.9552 43.6525 53.9328 43.6278 53.915C43.6031 53.8973 43.5752 53.8845 43.5457 53.8776C43.5161 53.8706 43.4855 53.8695 43.4555 53.8744C43.4255 53.8793 43.3968 53.8901 43.371 53.9061C43.3451 53.9221 43.3227 53.943 43.305 53.9677C43.2872 53.9923 43.2745 54.0203 43.2676 54.0499ZM47.8056 55.1189C47.7615 55.2868 47.3112 56.5679 47.3465 56.4795C47.3369 56.5321 47.3381 56.586 47.3498 56.6381C47.3615 56.6901 47.3835 56.7393 47.4147 56.7827C47.4458 56.8261 47.4853 56.8627 47.5309 56.8905C47.5765 56.9182 47.6272 56.9365 47.68 56.9442C47.7327 56.9519 47.7865 56.9489 47.8382 56.9354C47.8898 56.9218 47.9381 56.898 47.9803 56.8654C48.0225 56.8327 48.0577 56.7919 48.0839 56.7454C48.11 56.6988 48.1264 56.6475 48.1323 56.5944C48.1323 56.188 48.2206 55.4193 48.2471 55.2161C48.2492 55.1622 48.2324 55.1093 48.1995 55.0665C48.1666 55.0238 48.1197 54.9941 48.067 54.9825C48.0144 54.9709 47.9593 54.9782 47.9115 55.0031C47.8637 55.0281 47.8262 55.0691 47.8056 55.1189ZM45.4924 56.5679C45.4816 56.5114 45.4515 56.4604 45.4072 56.4238C45.3628 56.3871 45.3071 56.367 45.2496 56.367C45.1922 56.367 45.1365 56.3871 45.0921 56.4238C45.0478 56.4604 45.0177 56.5114 45.0069 56.5679C45.0475 57.1285 45.1512 57.6827 45.3159 58.2201C45.1393 58.2731 44.8303 58.3703 44.7067 58.3968C44.6524 58.4074 44.6035 58.4365 44.5683 58.4792C44.5332 58.522 44.514 58.5756 44.514 58.6309C44.514 58.6862 44.5332 58.7399 44.5683 58.7826C44.6035 58.8253 44.6524 58.8544 44.7067 58.865C45.1057 58.882 45.5053 58.8553 45.8986 58.7855C45.9529 58.7694 46.0028 58.741 46.0445 58.7026C46.0862 58.6641 46.1185 58.6166 46.139 58.5637C46.1594 58.5108 46.1675 58.4539 46.1626 58.3974C46.1576 58.3409 46.1398 58.2863 46.1105 58.2377C45.8239 57.7144 45.6157 57.1518 45.4924 56.5679ZM43.8679 52.2563C43.5276 52.19 43.175 52.2308 42.8588 52.3732C42.5426 52.5156 42.2783 52.7526 42.1022 53.0515C42.0868 53.1023 42.0895 53.157 42.1099 53.2061C42.1303 53.2551 42.167 53.2956 42.2139 53.3206C42.2607 53.3456 42.3148 53.3536 42.3669 53.3432C42.4189 53.3328 42.4658 53.3046 42.4995 53.2635C42.6326 53.1149 42.8076 53.01 43.0014 52.9627C43.1952 52.9154 43.3988 52.9279 43.5854 52.9985C44.1505 53.131 44.2741 52.3093 43.8679 52.2563ZM49.1917 54.0145C49.1498 53.7192 49.0075 53.4473 48.7889 53.2446C48.5702 53.0419 48.2885 52.9206 47.991 52.9013C47.5761 52.8394 47.5054 53.5109 47.8144 53.5551C48.5208 53.6699 48.768 53.9438 48.8033 54.0852C48.8126 54.1367 48.8421 54.1825 48.8851 54.2123C48.9282 54.2421 48.9813 54.2536 49.0328 54.2442C49.0843 54.2349 49.13 54.2054 49.1598 54.1623C49.1896 54.1192 49.2011 54.0661 49.1917 54.0145ZM12.0839 96.1231C11.9159 96.1422 11.7607 96.2226 11.6481 96.3489C11.5354 96.4751 11.4731 96.6385 11.4731 96.8078C11.4731 96.9771 11.5354 97.1404 11.6481 97.2667C11.7607 97.393 11.9159 97.4734 12.0839 97.4925C12.1803 97.5035 12.2779 97.494 12.3704 97.4646C12.4628 97.4352 12.548 97.3865 12.6204 97.3219C12.6928 97.2572 12.7507 97.178 12.7903 97.0894C12.83 97.0008 12.8505 96.9049 12.8505 96.8078C12.8505 96.7107 12.83 96.6147 12.7903 96.5261C12.7507 96.4375 12.6928 96.3583 12.6204 96.2937C12.548 96.229 12.4628 96.1804 12.3704 96.151C12.2779 96.1216 12.1803 96.1121 12.0839 96.1231ZM12.0221 93.5697C12.0221 93.7595 12.0975 93.9415 12.2316 94.0757C12.3657 94.2099 12.5476 94.2853 12.7373 94.2853C12.927 94.2853 13.1089 94.2099 13.243 94.0757C13.3771 93.9415 13.4524 93.7595 13.4524 93.5697C13.4524 93.3799 13.3771 93.1978 13.243 93.0636C13.1089 92.9294 12.927 92.854 12.7373 92.854C12.5476 92.854 12.3657 92.9294 12.2316 93.0636C12.0975 93.1978 12.0221 93.3799 12.0221 93.5697ZM118.031 106.213C117.775 105.992 117.413 106.354 117.66 106.593C119.14 108.087 120.526 109.671 121.809 111.337C122.11 111.717 122.736 111.231 122.445 110.842C121.127 109.159 119.649 107.609 118.031 106.213ZM129.199 99.4981C129.199 101.68 128.996 103.916 129.04 106.071C129.04 106.189 129.087 106.301 129.169 106.384C129.252 106.467 129.365 106.513 129.482 106.513C129.599 106.513 129.711 106.467 129.794 106.384C129.877 106.301 129.923 106.189 129.923 106.071C129.967 103.889 129.799 101.654 129.764 99.4981C129.764 99.4231 129.734 99.3512 129.681 99.2982C129.628 99.2452 129.557 99.2154 129.482 99.2154C129.407 99.2154 129.335 99.2452 129.282 99.2982C129.229 99.3512 129.199 99.4231 129.199 99.4981ZM139.679 109.146C140.889 107.273 142.001 105.312 143.29 103.5C143.493 103.209 143.043 102.926 142.831 103.2C141.524 104.967 140.103 106.734 138.937 108.696C138.878 108.794 138.859 108.912 138.887 109.024C138.914 109.136 138.985 109.232 139.083 109.292C139.181 109.352 139.299 109.37 139.411 109.343C139.523 109.315 139.619 109.245 139.679 109.146ZM73.7714 90.336C74.6347 90.3337 75.4784 90.5931 76.1915 91.0801C76.9045 91.5671 77.4535 92.2588 77.766 93.0641C78.0786 93.8695 78.14 94.7506 77.9423 95.5916C77.7446 96.4325 77.297 97.1938 76.6584 97.7752C76.642 97.7876 76.6286 97.8036 76.6194 97.822C76.6102 97.8404 76.6054 97.8607 76.6054 97.8813C76.6054 97.9018 76.6102 97.9221 76.6194 97.9405C76.6286 97.9589 76.642 97.9749 76.6584 97.9873C83.0064 101.751 91.1466 103.085 96.9648 103.085C102.783 103.085 107.445 102.016 113.572 100.602C116.853 99.7321 120.059 98.6005 123.16 97.2186C127.001 95.5753 128.749 94.1616 129.852 90.0268C130.295 88.1707 130.438 86.2558 130.276 84.3546C130.091 79.1153 130.417 75.8021 117.033 72.6126C108.954 70.6954 85.3107 71.5259 76.5878 80.1048C75.217 81.3622 74.2112 82.9668 73.6766 84.7491C73.142 86.5313 73.0985 88.425 73.5506 90.23C73.6124 90.3183 73.6831 90.336 73.7714 90.336ZM128.201 84.761C119.196 98.8973 93.5657 98.7118 78.8391 91.9528C78.7625 91.9122 78.7036 91.8448 78.6735 91.7634C78.6433 91.6821 78.6442 91.5925 78.6758 91.5117C78.7074 91.4309 78.7676 91.3646 78.845 91.3254C78.9223 91.2862 79.0114 91.2768 79.0952 91.299C95.2962 96.7769 117.686 98.2258 127.433 84.2309C127.468 84.1804 127.512 84.1373 127.564 84.104C127.615 84.0707 127.673 84.0478 127.733 84.0368C127.793 84.0257 127.855 84.0266 127.915 84.0394C127.975 84.0523 128.032 84.0768 128.082 84.1116C128.133 84.1464 128.176 84.1908 128.209 84.2423C128.242 84.2938 128.265 84.3513 128.276 84.4116C128.287 84.4719 128.286 84.5338 128.274 84.5937C128.261 84.6537 128.236 84.7105 128.201 84.761ZM125.553 79.7514C125.819 80.7847 125.694 81.8803 125.2 82.8261C120.105 95.16 79.6779 93.4637 77.8238 86.0421C78.5831 72.0206 123.575 71.199 125.57 79.7514H125.553Z" fill="white"/>
</svg>
