<svg width="168" height="204" viewBox="0 0 168 204" fill="none" xmlns="http://www.w3.org/2000/svg">
<rect width="168" height="204" rx="16" fill="#F3F0FF"/>
<path d="M28.7969 30.6758V32.7266H12.5273V30.6758H19.3828V27.043H14.2461V18.332H26.9805V27.043H21.8633V30.6758H28.7969ZM16.707 25.0898H24.5195V20.3242H16.707V25.0898ZM44.2953 17.043V27.082H41.7953V17.043H44.2953ZM29.6859 22.1406C29.6859 19.6016 31.7758 17.8438 34.5492 17.8438C37.3129 17.8438 39.4027 19.6016 39.4125 22.1406C39.4027 24.582 37.3129 26.3789 34.5492 26.3789C31.7758 26.3789 29.6859 24.582 29.6859 22.1406ZM32.1273 22.1406C32.1078 23.459 33.1234 24.2891 34.5492 24.2891C35.9359 24.2891 36.9418 23.459 36.9516 22.1406C36.9418 20.7441 35.9359 19.9336 34.5492 19.9336C33.1234 19.9336 32.1078 20.7441 32.1273 22.1406ZM32.3813 34.6016V27.8828H44.2953V34.6016H32.3813ZM34.8422 32.6094H41.8539V29.8555H34.8422V32.6094ZM56.1906 20.1875C56.1906 22.1113 57.1867 24.0059 59.55 24.9141L58.2219 26.8086C56.6984 26.2324 55.6535 25.1777 55.0187 23.8691C54.3742 25.4023 53.2609 26.6816 51.6008 27.375L50.2531 25.4609C52.7629 24.3574 53.7687 22.1699 53.7687 20.1875V18.0977H56.1906V20.1875ZM53.5539 31.4766C53.5441 29.3965 55.9367 28.1465 59.7062 28.1562C63.4562 28.1465 65.8586 29.3965 65.8781 31.4766C65.8586 33.5371 63.4562 34.8066 59.7062 34.7969C55.9367 34.8066 53.5441 33.5371 53.5539 31.4766ZM56.0539 31.4766C56.0344 32.4336 57.3723 32.9219 59.7062 32.9219C62.0207 32.9219 63.3586 32.4336 63.3586 31.4766C63.3586 30.5098 62.0207 30.0117 59.7062 30.0117C57.3723 30.0117 56.0344 30.5098 56.0539 31.4766ZM59.6086 27.3555V17.3555H61.9328V21.3789H63.4172V17.043H65.7805V27.9023H63.4172V23.3906H61.9328V27.3555H59.6086ZM74.1109 19.4453C74.1012 21.8184 75.3219 24.0156 78.1734 24.8945L76.8648 26.8477C74.9508 26.1836 73.652 24.9629 72.9 23.3613C72.1188 25.2168 70.6832 26.6719 68.5445 27.3945L67.2359 25.4023C70.273 24.4258 71.5816 22.043 71.5914 19.5625V17.9414H74.1109V19.4453ZM70.1852 31.3594C70.1852 29.1719 72.5094 27.8926 76.2984 27.9023C80.0973 27.8926 82.4215 29.1719 82.4313 31.3594C82.4215 33.5566 80.0973 34.8066 76.2984 34.7969C72.5094 34.8066 70.1852 33.5566 70.1852 31.3594ZM72.6656 31.3594C72.6656 32.3457 73.9449 32.8633 76.2984 32.8633C78.6617 32.8633 79.941 32.3457 79.9508 31.3594C79.941 30.3438 78.6617 29.8359 76.2984 29.8359C73.9449 29.8359 72.6656 30.3438 72.6656 31.3594ZM76.5523 22.3164V20.2852H79.8922V17.0234H82.3727V27.4336H79.8922V22.3164H76.5523Z" fill="#212121"/>
<path fill-rule="evenodd" clip-rule="evenodd" d="M106.714 184.446C108.034 183.168 112.432 178.446 113.854 177.342C113.897 177.296 113.956 177.266 114.02 177.258C114.083 177.251 114.147 177.266 114.2 177.301C114.253 177.337 114.292 177.39 114.31 177.451C114.328 177.512 114.324 177.578 114.298 177.636C113.59 178.914 107.416 184.716 107.056 185.058C106.81 185.364 105.754 186.636 105.466 186.9C105.475 187.139 105.412 187.375 105.286 187.578C105.16 187.782 104.976 187.942 104.758 188.04C103.985 188.303 103.228 188.61 102.49 188.958C102.382 189.054 102.256 188.958 102.286 188.856C102.656 188.392 102.966 187.884 103.21 187.344C103.262 186.986 103.444 186.66 103.72 186.427C103.996 186.194 104.348 186.07 104.71 186.078C104.752 186 106.342 184.692 106.714 184.446ZM104.692 186.174C104.368 186.192 104.061 186.327 103.828 186.553C103.594 186.779 103.449 187.08 103.42 187.404C103.285 187.811 103.082 188.193 102.82 188.532C104.338 187.902 104.854 187.992 105.184 187.482C105.288 187.312 105.354 187.122 105.376 186.924C104.956 186.81 104.662 186.102 104.692 186.174ZM106.594 184.668C106.126 185.094 105.64 185.55 104.926 186.168C105.031 186.376 105.188 186.554 105.382 186.684L106.948 185.01C106.81 184.921 106.691 184.804 106.6 184.668H106.594ZM103.924 177.6C104.608 177.15 113.89 171.042 113.98 171.342C114.07 171.642 104.872 178.602 104.794 178.65C104.404 179.094 101.794 181.908 101.452 182.028C101.017 182.012 100.604 181.83 100.3 181.518C99.8828 181.092 99.5738 180.571 99.3998 180C99.2858 179.592 103.552 177.756 103.924 177.6ZM99.6938 180.27C99.8119 180.651 100.026 180.994 100.315 181.268C100.603 181.543 100.958 181.738 101.344 181.836C100.912 181.428 99.9998 180.558 99.6938 180.27ZM101.494 178.884C100.835 179.198 100.203 179.566 99.6038 179.982C99.6818 180.24 99.6038 179.982 100.204 180.48C100.691 180.862 101.118 181.315 101.47 181.824C101.77 181.602 102.988 180.39 102.916 180.456C102.466 179.905 101.985 179.38 101.476 178.884H101.494ZM103.948 177.684C102.958 178.146 102.298 178.47 101.548 178.836C102.143 179.216 102.626 179.749 102.946 180.378C103.306 180.018 104.53 178.776 104.71 178.578C104.536 178.41 104.08 177.888 103.93 177.696L103.948 177.684ZM118.486 170.826C118.792 168.138 119.242 164.796 119.608 164.778C119.974 164.76 119.578 168.138 119.2 170.844C120.4 170.946 121.828 171.606 121.6 172.746C121.611 172.949 121.584 173.153 121.522 173.346C122.122 177.42 121.588 178.26 121.63 178.194C121.28 178.615 120.843 178.954 120.349 179.189C119.854 179.423 119.315 179.546 118.768 179.55C118.219 179.553 117.675 179.439 117.173 179.216C116.672 178.992 116.223 178.664 115.858 178.254C115.36 177.504 115.678 174.336 115.774 173.454C115.721 173.269 115.69 173.077 115.684 172.884C115.611 172.569 115.652 172.238 115.799 171.949C115.946 171.661 116.19 171.433 116.488 171.306C117.101 170.977 117.79 170.812 118.486 170.826ZM121.408 176.094C120.934 177.066 119.608 177.372 118.54 177.372C118.525 177.66 118.493 177.946 118.444 178.23C118.396 178.458 118.342 178.656 118.108 178.65C117.77 178.582 117.473 178.384 117.28 178.098C117.124 177.864 117.16 177.744 117.358 177.228C117.098 177.16 116.856 177.037 116.649 176.866C116.441 176.695 116.274 176.481 116.158 176.238C116.16 176.774 116.215 177.309 116.32 177.834C116.446 178.073 116.627 178.278 116.848 178.434C118.204 179.538 119.848 179.226 121.222 178.044C121.282 177.6 121.366 176.73 121.408 176.094ZM115.9 173.694C115.858 174.42 115.696 177.486 116.104 178.086C116.418 178.451 116.815 178.735 117.262 178.914C116.793 178.686 116.412 178.311 116.176 177.846C116.073 177.204 116.038 176.552 116.074 175.902C116.036 175.72 116.043 175.532 116.094 175.353C116.145 175.174 116.239 175.011 116.368 174.876C116.794 174.384 116.896 174.666 116.506 174.396C116.251 174.224 116.042 173.991 115.9 173.718V173.694ZM117.514 177.234C117.441 177.429 117.387 177.63 117.352 177.834C117.352 178.038 117.892 178.494 118.132 178.47C118.216 178.47 118.24 178.344 118.27 178.194C118.323 177.923 118.359 177.648 118.378 177.372C118.086 177.366 117.797 177.328 117.514 177.258V177.234ZM121.45 173.55C121.244 173.93 120.928 174.24 120.544 174.438C121.234 174.654 121.69 175.116 121.504 175.818C121.504 176.196 121.504 176.568 121.468 176.904C121.408 178.158 121.366 178.104 121.426 178.014C121.708 176.946 121.564 174.702 121.45 173.574V173.55ZM120.442 174.492C119.881 174.764 119.265 174.905 118.642 174.906C118.643 175.265 118.596 175.622 118.504 175.968C118.528 176.368 118.528 176.769 118.504 177.168C119.255 177.194 119.998 177.004 120.646 176.622C121.6 176.022 121.75 174.936 120.442 174.516V174.492ZM117.964 175.992C117.928 176.076 117.628 176.91 117.574 177.06C117.843 177.126 118.119 177.16 118.396 177.162C118.396 176.868 118.456 176.304 118.45 176.01C118.29 176.045 118.125 176.047 117.964 176.016V175.992ZM116.842 174.6C115.69 175.392 116.176 176.652 117.442 177.036C117.568 176.718 117.766 176.274 117.91 175.968C117.926 175.61 117.966 175.253 118.03 174.9C117.62 174.869 117.218 174.767 116.842 174.6ZM118.084 174.906L118.03 175.878C118.132 175.878 118.462 175.926 118.426 175.878C118.39 175.83 118.504 175.314 118.546 174.918C118.39 174.93 118.234 174.924 118.084 174.912V174.906ZM121.348 173.316C120.28 174.654 117.052 174.672 115.948 173.316C116.064 173.617 116.257 173.883 116.506 174.087C116.755 174.292 117.052 174.43 117.37 174.486C118.738 174.858 120.796 174.558 121.348 173.322V173.316ZM119.11 171.468C118.93 172.71 118.774 173.718 118.72 174.048C119.626 174.048 120.838 173.718 121.258 172.986C121.126 172.05 120.058 171.564 119.11 171.474V171.468ZM118.414 171.468C117.918 171.493 117.439 171.65 117.025 171.923C116.611 172.197 116.279 172.576 116.062 173.022C116.446 173.622 117.412 173.952 118.156 174.024C118.186 173.694 118.282 172.698 118.414 171.474V171.468ZM118.474 170.94C117.82 170.964 117.182 171.152 116.62 171.486C116.086 171.828 115.726 172.356 116.02 172.926C116.224 172.454 116.558 172.048 116.983 171.756C117.407 171.464 117.905 171.298 118.42 171.276L118.474 170.94ZM119.2 171C119.2 171.102 119.17 171.204 119.152 171.306C120.142 171.396 121.18 171.906 121.342 172.866C121.558 172.32 121.198 171.828 120.694 171.51C120.238 171.235 119.729 171.061 119.2 171ZM124.948 173.436C124.666 172.038 122.386 161.622 123.148 161.016C123.418 160.867 123.713 160.766 124.018 160.716C124.858 160.536 130.216 159.816 130.462 160.542C130.708 161.268 129.262 172.326 129.154 172.92C129.154 173.322 129.004 174.444 129.004 174.444C128.848 174.77 128.617 175.053 128.331 175.272C128.044 175.491 127.709 175.639 127.354 175.703C127 175.768 126.634 175.747 126.289 175.643C125.944 175.539 125.628 175.354 125.368 175.104C125.167 174.565 125.027 174.006 124.948 173.436ZM130.156 161.874C127.858 161.905 125.566 162.105 123.298 162.474C123.484 164.994 124.576 170.874 125.05 173.382C125.674 173.724 126.386 173.872 127.095 173.809C127.805 173.746 128.479 173.475 129.034 173.028C129.1 172.518 130.108 162.546 130.156 161.874ZM129.616 165.354C129.616 165.354 129.652 164.946 129.148 165.048C128.644 165.15 127.726 166.014 126.598 165.918C125.47 165.822 124.396 165.192 124.06 165.612C123.724 166.032 125.146 167.358 126.988 167.046C129.1 166.692 129.658 165.822 129.616 165.354ZM123.676 161.094C123.586 161.094 123.34 161.19 123.316 161.268C123.265 161.649 123.265 162.034 123.316 162.414L123.916 162.3C123.78 161.911 123.699 161.505 123.676 161.094ZM124.714 160.872C124.408 160.926 124.048 160.992 123.754 161.07C123.843 161.466 123.909 161.867 123.952 162.27C124.18 162.228 124.816 162.12 125.002 162.102C124.984 162.06 124.84 161.562 124.714 160.872ZM125.86 160.722C125.482 160.764 125.122 160.812 124.792 160.86C124.939 161.262 125.028 161.682 125.056 162.108L126.064 161.982C126.028 161.784 125.902 161.16 125.86 160.722ZM126.982 160.614C126.778 160.614 126.346 160.662 125.938 160.71C126.064 161.12 126.127 161.547 126.124 161.976L127.204 161.874C127.186 161.772 127.06 161.232 127 160.614H126.982ZM128.182 160.536L127.06 160.608C127.189 161.016 127.258 161.44 127.264 161.868C127.612 161.868 127.996 161.82 128.338 161.808C128.338 161.796 128.2 160.614 128.2 160.536H128.182ZM129.634 160.536C129.612 160.957 129.566 161.375 129.496 161.79H130.162C130.162 161.64 130.264 160.632 130.162 160.59C129.988 160.556 129.811 160.54 129.634 160.542V160.536ZM129.556 160.536H128.266C128.382 160.95 128.426 161.38 128.398 161.808H129.442C129.424 161.381 129.462 160.953 129.556 160.536ZM84.3997 168.798C85.1857 168.798 85.8277 169.086 85.8277 169.452C85.8277 169.818 85.1857 170.106 84.3997 170.106C83.6137 170.106 82.9777 169.812 82.9777 169.452C82.9777 169.092 83.5897 168.798 84.3997 168.798ZM69.2317 165.342C69.2317 165.474 68.9857 165.594 68.6737 165.606C68.3617 165.618 68.0737 165.516 68.0737 165.378C68.0857 165.06 69.2197 165 69.2317 165.342Z" fill="#212121"/>
<path d="M74.9138 180.486C75.2982 180.486 75.6098 180.301 75.6098 180.072C75.6098 179.844 75.2982 179.658 74.9138 179.658C74.5294 179.658 74.2178 179.844 74.2178 180.072C74.2178 180.301 74.5294 180.486 74.9138 180.486Z" fill="#212121"/>
<path fill-rule="evenodd" clip-rule="evenodd" d="M104.878 160.2C105.478 160.2 105.994 160.374 105.994 160.584C105.994 160.794 105.496 160.974 104.878 160.974C104.26 160.974 103.768 160.8 103.768 160.584C103.768 160.368 104.266 160.2 104.878 160.2ZM66.6759 144.882C66.6759 145.032 66.5859 146.166 66.6339 147.822C66.6339 148.044 66.6759 148.8 66.6759 148.8C66.6759 148.8 66.7479 148.842 66.7479 148.8C66.7479 148.758 66.7839 148.044 66.7899 147.822C66.8259 146.442 66.7479 144.822 66.7479 144.882C66.7479 144.873 66.7442 144.864 66.7373 144.856C66.7305 144.85 66.7214 144.846 66.7119 144.846C66.7023 144.846 66.6932 144.85 66.6864 144.856C66.6797 144.864 66.6759 144.873 66.6759 144.882ZM91.6657 79.32C92.4157 79.524 93.7417 79.95 94.2217 80.568C94.2392 80.5907 94.2487 80.6183 94.2487 80.6469C94.2487 80.6753 94.2403 80.7032 94.2233 80.7261C94.2063 80.749 94.1823 80.7659 94.1552 80.7742C94.1277 80.7825 94.0988 80.7818 94.0718 80.772C91.6718 79.794 87.8497 81.042 85.4259 82.05C84.4659 82.452 90.2257 75.954 94.3657 76.974C94.3942 76.9827 94.4188 77.0001 94.4368 77.0239C94.4542 77.0477 94.4637 77.0764 94.4637 77.106C94.4637 77.1356 94.4542 77.1644 94.4368 77.1881C94.4188 77.2119 94.3942 77.2294 94.3657 77.238C93.4247 77.4587 92.5007 77.7454 91.5998 78.096C92.2897 78.126 93.8797 78.228 94.4137 78.696C94.4352 78.7143 94.4503 78.7384 94.4583 78.7653C94.4658 78.7923 94.4658 78.8208 94.4573 78.8475C94.4488 78.8742 94.4333 78.898 94.4118 78.9159C94.3898 78.9337 94.3638 78.9449 94.3357 78.948C93.4402 79.0259 92.5487 79.15 91.6657 79.32ZM93.6577 77.142C92.4792 77.1377 91.3203 77.444 90.2977 78.03C88.4683 79.0007 86.8394 80.3099 85.4979 81.888C87.7957 80.892 91.0658 79.764 93.5198 80.328C92.7458 79.9326 91.9228 79.6421 91.0718 79.464C91.0408 79.4575 91.0133 79.4405 90.9932 79.4159C90.9732 79.3913 90.9622 79.3606 90.9622 79.329C90.9622 79.2974 90.9732 79.2668 90.9932 79.2422C91.0133 79.2176 91.0408 79.2006 91.0718 79.194C91.9863 78.9477 92.9192 78.7791 93.8618 78.69C92.9418 78.4731 91.9992 78.3643 91.0537 78.366C91.0232 78.3669 90.9928 78.3574 90.9682 78.3392C90.9432 78.3209 90.9252 78.2949 90.9167 78.2652C90.9088 78.2355 90.9107 78.2039 90.9223 78.1755C90.9343 78.1469 90.9552 78.1233 90.9818 78.108C91.8347 77.6868 92.7328 77.3628 93.6577 77.142ZM53.1399 127.332C52.5431 127.41 51.9416 127.447 51.3399 127.44C51.3093 127.441 51.2792 127.432 51.2549 127.414C51.2306 127.395 51.2133 127.369 51.2062 127.339C51.1991 127.309 51.2026 127.278 51.216 127.25C51.2295 127.222 51.252 127.201 51.2799 127.188C52.0239 126.786 53.7759 126.39 54.6759 125.766L56.9019 124.278C56.9063 124.273 56.9119 124.269 56.9181 124.266C56.9243 124.263 56.9311 124.262 56.9379 124.262C56.9447 124.262 56.9514 124.263 56.9576 124.266C56.9638 124.269 56.9694 124.273 56.9739 124.278C57.0399 124.356 56.9019 124.362 56.1519 125.352C55.654 125.965 55.2496 126.649 54.9519 127.38C54.6302 128.145 54.3477 128.926 54.1059 129.72C54.1059 129.9 53.6739 130.032 53.7939 129.048C53.8436 128.681 53.9116 128.317 53.9979 127.956C53.3754 128.406 52.7195 128.806 52.0359 129.156C52.0112 129.17 51.9828 129.177 51.9546 129.174C51.9263 129.171 51.8995 129.16 51.8779 129.142C51.8562 129.123 51.8408 129.099 51.8336 129.071C51.8264 129.044 51.8279 129.015 51.8379 128.988C52.1447 128.347 52.5893 127.782 53.1399 127.332ZM56.5359 124.674C53.5959 126.744 54.9099 125.994 51.9759 127.164C52.5374 127.162 53.0955 127.078 53.6319 126.912L53.6979 126.858C53.8299 126.756 54.0639 126.96 53.8059 127.128C53.2292 127.582 52.72 128.115 52.2939 128.712C52.9583 128.372 53.5806 127.955 54.1479 127.47C54.169 127.446 54.198 127.429 54.23 127.424C54.262 127.419 54.2947 127.425 54.3226 127.441C54.3504 127.458 54.3717 127.484 54.3825 127.514C54.3933 127.545 54.3932 127.578 54.3819 127.608C54.2577 128.061 54.1577 128.519 54.0819 128.982C54.5562 127.376 55.3961 125.901 56.5359 124.674ZM56.9439 121.872C57.9614 120.223 59.415 118.888 61.1439 118.014C63.4719 116.916 64.3239 118.086 63.2679 120.186C62.3686 121.864 61.0832 123.303 59.5179 124.386C59.6942 125.002 59.7651 125.643 59.7279 126.282C59.5719 126.882 56.6379 127.89 56.2359 127.842C56.2054 127.84 56.1759 127.831 56.1506 127.814C56.1252 127.797 56.105 127.774 56.0919 127.746C56.0319 127.608 56.1699 127.482 56.3019 127.38C57.0344 126.845 57.8021 126.36 58.5999 125.928L58.5579 124.932L58.2159 125.1C58.1936 125.106 58.17 125.106 58.1478 125.1C58.1256 125.094 58.1056 125.081 58.0899 125.064L56.1999 123.222C56.191 123.212 56.1861 123.2 56.1861 123.186C56.1861 123.172 56.191 123.16 56.1999 123.15C56.1999 123.15 56.2599 123.024 56.3859 122.802H55.3359C55.1799 123.126 54.1359 125.238 53.7999 125.382C53.7758 125.394 53.7491 125.4 53.7224 125.398C53.6956 125.398 53.6693 125.391 53.6458 125.378C53.6223 125.365 53.6023 125.347 53.5874 125.325C53.5724 125.302 53.5629 125.277 53.5599 125.25C53.4879 124.8 54.3759 121.866 54.9639 121.692C55.6168 121.632 56.275 121.677 56.9139 121.824C56.9234 121.828 56.9313 121.834 56.9367 121.843C56.9421 121.852 56.9446 121.862 56.9439 121.872ZM59.3859 124.428C59.1477 124.587 58.9014 124.733 58.6479 124.866L58.7739 126C58.7739 126.09 58.7739 126.036 57.5739 126.828C57.2079 127.062 56.8359 127.308 56.5839 127.494C57.4943 127.243 58.3723 126.886 59.1999 126.432C59.2659 126.39 59.4399 126.27 59.4639 126.192C59.5272 125.604 59.501 125.009 59.3859 124.428ZM56.7399 122.466C56.5059 122.814 56.3619 123.066 56.3079 123.168L58.1679 124.89C58.3839 124.782 58.6179 124.65 58.8639 124.5C58.0889 123.896 57.3773 123.214 56.7399 122.466ZM56.8899 121.956C56.271 121.868 55.6427 121.868 55.0239 121.956C54.8139 122.028 54.4539 122.982 54.3879 123.156C54.176 123.721 54.0056 124.3 53.8779 124.89C54.2379 124.356 55.2219 122.61 55.1799 122.694C55.188 122.677 55.2008 122.663 55.2168 122.654C55.2328 122.644 55.2512 122.64 55.2699 122.64L56.4399 122.7C56.5599 122.472 56.7039 122.238 56.8899 121.956ZM60.1959 118.842C58.8358 119.765 57.68 120.958 56.7999 122.346C57.5966 122.958 58.3248 123.654 58.9719 124.422C60.341 123.52 61.5161 122.353 62.4279 120.99L60.1959 118.842ZM59.1219 120.348C59.0064 120.469 58.916 120.611 58.8556 120.767C58.7952 120.923 58.7662 121.09 58.7702 121.257C58.774 121.424 58.8107 121.589 58.8784 121.742C58.9459 121.894 59.0429 122.032 59.1639 122.148C59.2848 122.264 59.4273 122.354 59.5832 122.415C59.7392 122.475 59.9054 122.504 60.0726 122.5C60.2397 122.496 60.4044 122.459 60.5574 122.392C60.7103 122.324 60.8484 122.227 60.9639 122.106C61.197 121.862 61.3235 121.535 61.3157 121.197C61.3078 120.86 61.1661 120.539 60.9219 120.306C60.6776 120.073 60.3508 119.946 60.0131 119.954C59.6756 119.962 59.355 120.104 59.1219 120.348ZM60.7959 120.444C60.989 120.642 61.0971 120.908 61.0971 121.185C61.0971 121.462 60.989 121.728 60.7959 121.926C60.6065 122.102 60.3572 122.199 60.099 122.197C59.8407 122.194 59.5928 122.095 59.406 121.916C59.2192 121.738 59.1075 121.495 59.0937 121.237C59.08 120.979 59.1651 120.725 59.3319 120.528C59.5175 120.327 59.7739 120.206 60.047 120.19C60.32 120.175 60.5885 120.266 60.7959 120.444ZM60.4659 120.786C60.5476 120.871 60.6026 120.978 60.6239 121.094C60.6452 121.209 60.6321 121.329 60.5861 121.437C60.54 121.545 60.4631 121.638 60.365 121.703C60.2667 121.768 60.1516 121.802 60.0339 121.802C59.9162 121.802 59.801 121.768 59.7028 121.703C59.6047 121.638 59.5278 121.545 59.4818 121.437C59.4356 121.329 59.4224 121.209 59.4439 121.094C59.4652 120.978 59.5202 120.871 59.6019 120.786C59.6578 120.728 59.7249 120.682 59.7992 120.65C59.8734 120.619 59.9532 120.602 60.0339 120.602C60.1145 120.602 60.1943 120.619 60.2685 120.65C60.3428 120.682 60.4099 120.728 60.4659 120.786Z" fill="#212121"/>
<path fill-rule="evenodd" clip-rule="evenodd" d="M79.4619 80.034C79.407 79.9875 79.364 79.9286 79.3362 79.8622C79.3085 79.7958 79.2968 79.7238 79.3023 79.6521C79.3076 79.5804 79.33 79.5109 79.3673 79.4495C79.4047 79.388 79.4561 79.3362 79.5173 79.2984C79.5785 79.2606 79.6477 79.2378 79.7194 79.2319C79.7911 79.226 79.8633 79.2371 79.9299 79.2644C79.9964 79.2916 80.0555 79.3342 80.1024 79.3888C80.1495 79.4433 80.1828 79.5081 80.2 79.578C80.2042 79.6535 80.1906 79.729 80.1603 79.7983C80.1298 79.8675 80.0836 79.9287 80.025 79.9766C79.9665 80.0246 79.8976 80.058 79.8237 80.0743C79.7498 80.0905 79.6732 80.089 79.6 80.07C79.6 80.13 79.51 80.796 79.33 81.576C80.1635 81.5792 80.9684 81.8815 81.598 82.428C81.607 82.4113 81.622 82.3985 81.64 82.392C86.32 81.732 86.8059 83.28 85.2999 84.522C83.6079 85.92 78.4119 87.522 75.5439 87.144C74.7939 87.054 73.6299 86.706 73.6179 85.998C73.6179 85.086 76.06 84.072 76.156 84.024C76.5471 83.0335 77.3028 82.2304 78.2679 81.78C77.8419 81.318 77.398 80.646 77.296 80.532C76.786 80.808 76.306 80.154 76.696 79.818C76.7818 79.7427 76.8939 79.7039 77.008 79.71C77.1031 79.6907 77.2018 79.7041 77.2885 79.7479C77.3752 79.7917 77.4444 79.8634 77.4853 79.9514C77.5263 80.0394 77.5363 80.1387 77.5139 80.2331C77.4916 80.3276 77.438 80.4117 77.3619 80.472C77.5638 80.6174 77.7437 80.7912 77.896 80.988C78.76 82.032 78.028 81.672 79.096 81.588C79.1277 81.0528 79.2514 80.5271 79.4619 80.034ZM76.0539 84.192C75.5139 84.456 73.7739 85.392 73.7979 85.992C73.7979 86.19 73.9719 86.388 74.2899 86.562C76.5219 87.762 83.164 85.878 85.09 84.312C86.188 83.43 86.0739 82.584 83.9859 82.434C83.1852 82.3977 82.383 82.4218 81.5859 82.506C81.4359 82.854 79.9899 85.59 76.0539 84.192ZM75.4539 85.62C75.4278 85.6755 75.4136 85.736 75.4123 85.7973C75.411 85.8586 75.4227 85.9196 75.4463 85.9761C75.4702 86.0326 75.5056 86.0835 75.5502 86.1256C75.5949 86.1676 75.6479 86.1998 75.706 86.22C75.7635 86.2343 75.8232 86.2371 75.8818 86.2283C75.9405 86.2195 75.9967 86.1992 76.0474 86.1685C76.0983 86.1379 76.1423 86.0974 76.1775 86.0496C76.2126 86.0018 76.2378 85.9476 76.2519 85.89C76.2877 85.7842 76.28 85.6684 76.2305 85.5683C76.1809 85.4682 76.0937 85.3918 75.988 85.356C75.882 85.3202 75.7664 85.3279 75.6663 85.3774C75.5661 85.4269 75.4897 85.5142 75.4539 85.62ZM75.946 85.452C76.21 85.572 76.0299 86.052 75.7779 85.98C75.5259 85.908 75.658 85.398 75.946 85.452ZM80.0859 85.11C80.0434 85.0784 79.9944 85.0568 79.9426 85.0465C79.8906 85.0364 79.8371 85.0379 79.786 85.0512C79.7347 85.0644 79.687 85.089 79.6465 85.123C79.606 85.1571 79.5737 85.1998 79.5519 85.248C79.5058 85.3556 79.5012 85.4763 79.5389 85.5872C79.5765 85.6979 79.6539 85.7908 79.756 85.848C79.8046 85.8782 79.8595 85.8971 79.9165 85.9033C79.9735 85.9095 80.0311 85.9029 80.0852 85.8838C80.1393 85.8648 80.1885 85.8339 80.2291 85.7936C80.2697 85.7531 80.3008 85.704 80.3199 85.65C80.3536 85.5469 80.3483 85.4351 80.3052 85.3357C80.2621 85.2362 80.1841 85.1559 80.0859 85.11ZM80.038 85.194C80.278 85.374 80.122 85.794 79.87 85.65C79.618 85.506 79.75 85.074 80.038 85.2V85.194ZM83.248 83.478C83.2131 83.4454 83.1712 83.421 83.1256 83.4068C83.0801 83.3925 83.0319 83.3887 82.9846 83.3955C82.9373 83.4025 82.8922 83.42 82.8526 83.4467C82.813 83.4734 82.78 83.5088 82.756 83.55C82.7095 83.6461 82.6998 83.7558 82.7285 83.8585C82.7572 83.9613 82.8224 84.05 82.9119 84.108C82.9519 84.1406 82.9986 84.1639 83.0487 84.1762C83.0987 84.1885 83.151 84.1895 83.2015 84.1792C83.252 84.1689 83.2996 84.1474 83.3409 84.1164C83.3821 84.0854 83.416 84.0457 83.44 84C83.462 83.9532 83.4746 83.9025 83.4768 83.8508C83.4791 83.7991 83.4712 83.7474 83.4534 83.6988C83.4355 83.6502 83.4081 83.6056 83.3729 83.5677C83.3375 83.5298 83.2951 83.4993 83.248 83.478ZM83.1999 83.556C83.3799 83.724 83.254 84.06 83.044 83.916C82.834 83.772 82.9539 83.436 83.1999 83.556ZM77.008 79.8C77.0855 79.8029 77.1593 79.8346 77.2148 79.889C77.2702 79.9433 77.3035 80.0164 77.3079 80.094C77.3048 80.1635 77.275 80.2291 77.2246 80.2772C77.1743 80.3253 77.1076 80.3521 77.038 80.352C77.0017 80.354 76.9654 80.3488 76.9312 80.3367C76.8969 80.3247 76.8654 80.306 76.8383 80.2818C76.7838 80.2328 76.7508 80.1642 76.7469 80.091C76.7429 80.0178 76.7682 79.946 76.8172 79.8914C76.866 79.8369 76.9348 79.804 77.008 79.8ZM79.666 79.29C79.7435 79.2929 79.8173 79.3246 79.8728 79.379C79.9282 79.4333 79.9615 79.5064 79.9659 79.584C79.9628 79.6535 79.933 79.7191 79.8826 79.7672C79.8323 79.8153 79.7656 79.8421 79.696 79.842C79.6572 79.8495 79.6174 79.8487 79.579 79.8395C79.5406 79.8303 79.5047 79.813 79.4736 79.7888C79.4425 79.7645 79.4169 79.7339 79.3987 79.699C79.3804 79.664 79.3699 79.6256 79.3677 79.5862C79.3655 79.5468 79.3717 79.5075 79.3861 79.4707C79.4004 79.434 79.4225 79.4008 79.4507 79.3733C79.479 79.3458 79.5128 79.3246 79.55 79.3113C79.5871 79.298 79.6267 79.2928 79.666 79.296V79.29ZM109.276 109.08C109.557 108.558 110.019 108.157 110.575 107.95C111.131 107.744 111.743 107.747 112.296 107.958C112.85 108.17 113.308 108.576 113.585 109.1C113.861 109.624 113.938 110.231 113.8 110.808C114.683 111.237 115.525 111.743 116.32 112.32C116.668 112.632 116.62 112.92 116.002 112.878C114.929 112.782 113.867 112.581 112.834 112.278C112.503 112.52 112.117 112.674 111.711 112.727C111.305 112.781 110.892 112.731 110.51 112.583C110.128 112.434 109.789 112.193 109.526 111.879C109.262 111.566 109.081 111.191 109 110.79C108.4 110.502 106.318 109.428 106.192 108.822C106.15 108.6 106.366 108.498 106.594 108.474C107.516 108.522 108.422 108.727 109.276 109.08ZM113.752 110.934C113.635 111.342 113.413 111.712 113.11 112.008C114.129 112.302 115.174 112.503 116.23 112.608C115.888 112.164 114.244 111.216 113.752 110.934ZM109.216 110.88C109.313 111.218 109.487 111.528 109.724 111.788C109.961 112.047 110.255 112.249 110.581 112.376C110.909 112.504 111.261 112.555 111.611 112.524C111.961 112.493 112.299 112.383 112.6 112.2C111.441 111.844 110.309 111.403 109.216 110.88ZM112.924 111.954C113.345 111.578 113.614 111.06 113.678 110.499C113.742 109.938 113.598 109.373 113.272 108.912C113.101 108.66 112.88 108.446 112.624 108.282C112.367 108.118 112.08 108.009 111.779 107.96C111.479 107.911 111.171 107.924 110.876 107.998C110.581 108.072 110.304 108.205 110.062 108.39C109.736 108.63 109.479 108.951 109.317 109.322C109.154 109.693 109.093 110.1 109.138 110.502C110.359 111.087 111.625 111.573 112.924 111.954ZM109.216 109.2C108.772 109.056 106.816 108.492 106.462 108.768C106.6 109.2 108.55 110.214 109 110.4C108.966 109.988 109.04 109.574 109.216 109.2ZM65.7159 146.178C66.4403 146.654 67.2029 147.069 67.9959 147.42C68.0036 147.423 68.0119 147.422 68.0194 147.42C68.027 147.417 68.0333 147.411 68.0374 147.404C68.0416 147.397 68.0433 147.389 68.0423 147.381C68.0414 147.373 68.0376 147.366 68.0319 147.36C67.3066 146.885 66.5442 146.47 65.7519 146.118C65.7442 146.115 65.7359 146.116 65.7284 146.119C65.7208 146.121 65.7144 146.127 65.7103 146.134C65.7062 146.14 65.7044 146.149 65.7055 146.157C65.7065 146.165 65.7101 146.173 65.7159 146.178ZM52.7079 93.498C52.7079 92.046 52.7919 90.678 52.7919 90.738C52.7958 90.726 52.8034 90.7155 52.8137 90.7081C52.8239 90.7007 52.8363 90.6968 52.8489 90.6968C52.8616 90.6968 52.8738 90.7007 52.884 90.7081C52.8943 90.7155 52.9019 90.726 52.9059 90.738C52.9059 91.176 52.9839 91.566 52.9899 93.594C53.4333 93.3055 53.8919 93.041 54.3639 92.802C54.3702 92.7981 54.3772 92.7955 54.3845 92.7942C54.3919 92.793 54.3994 92.7932 54.4066 92.7948C54.4138 92.7966 54.4207 92.7996 54.4268 92.804C54.4328 92.8082 54.4379 92.8137 54.4419 92.82C54.4458 92.8263 54.4485 92.8333 54.4497 92.8407C54.451 92.8479 54.4507 92.8555 54.4491 92.8628C54.4474 92.87 54.4443 92.8768 54.44 92.8828C54.4356 92.889 54.4302 92.8941 54.4239 92.898C54.0399 93.2131 53.6392 93.5075 53.2239 93.78C54.0879 94.254 54.2619 94.38 54.6759 94.632C55.0899 94.884 55.0959 94.884 55.0659 94.944C55.0359 95.004 55.0059 94.98 54.5919 94.788C54.1779 94.596 53.8959 94.476 52.9899 93.978C52.9899 96.276 52.8999 97.326 52.8999 97.266C52.8959 97.278 52.8883 97.2885 52.878 97.2959C52.8678 97.3033 52.8556 97.3072 52.8429 97.3072C52.8303 97.3072 52.8179 97.3033 52.8077 97.2959C52.7974 97.2885 52.7898 97.278 52.7859 97.266C52.7859 96.834 52.7019 96.456 52.7019 94.116C52.2338 94.4262 51.7491 94.7106 51.2499 94.968C51.2435 94.9719 51.2366 94.9747 51.2292 94.9759C51.2219 94.9771 51.2144 94.9768 51.2072 94.9752C51.1999 94.9735 51.193 94.9704 51.187 94.966C51.181 94.9618 51.1758 94.9563 51.1719 94.95C51.1679 94.9437 51.1653 94.9367 51.1641 94.9294C51.1628 94.9221 51.163 94.9146 51.1648 94.9072C51.1664 94.9 51.1695 94.8932 51.1738 94.8872C51.1781 94.8811 51.1835 94.8759 51.1899 94.872C51.6623 94.4852 52.1572 94.1265 52.6719 93.798C52.1859 93.528 52.0299 93.432 51.6459 93.198C51.2619 92.964 51.1359 92.892 51.1659 92.826C51.1772 92.8177 51.1908 92.8132 51.2049 92.8132C51.2189 92.8132 51.2326 92.8177 51.2439 92.826C51.9999 93.108 52.4499 93.366 52.7079 93.498Z" fill="#212121"/>
<path fill-rule="evenodd" clip-rule="evenodd" d="M65.7521 147.42C66.4242 147.068 67.0611 146.652 67.6541 146.178C67.6961 146.178 67.6541 146.094 67.6181 146.118C66.9464 146.471 66.3095 146.887 65.7161 147.36C65.6801 147.384 65.7161 147.444 65.7521 147.42ZM84.3521 111.24C84.3521 112.926 84.4121 113.196 84.4121 113.502C84.4095 113.508 84.4086 113.515 84.4092 113.522C84.41 113.529 84.4124 113.535 84.4162 113.541C84.4202 113.547 84.4253 113.551 84.4314 113.555C84.4374 113.558 84.4442 113.56 84.451 113.56C84.4579 113.56 84.4647 113.558 84.4707 113.555C84.4768 113.551 84.482 113.547 84.4858 113.541C84.4896 113.535 84.492 113.529 84.4928 113.522C84.4936 113.515 84.4926 113.508 84.4901 113.502C84.4901 113.562 84.5561 112.59 84.5561 111.138C85.0211 111.401 85.4998 111.639 85.9901 111.852C86.0381 111.852 86.0801 111.804 86.0321 111.78C85.6097 111.498 85.1731 111.237 84.7241 111C85.0212 110.817 85.3077 110.616 85.5821 110.4C85.5902 110.394 85.5957 110.385 85.5978 110.375C85.5998 110.365 85.598 110.354 85.5928 110.346C85.5876 110.337 85.5795 110.33 85.5698 110.327C85.56 110.324 85.5495 110.324 85.5401 110.328C85.5401 110.328 85.0481 110.58 84.5561 110.898C84.5561 109.404 84.4961 109.098 84.4961 108.846C84.4961 108.835 84.4916 108.824 84.4838 108.816C84.4759 108.808 84.4652 108.804 84.4541 108.804C84.443 108.804 84.4323 108.808 84.4244 108.816C84.4164 108.824 84.4121 108.835 84.4121 108.846C84.4121 108.786 84.3581 109.812 84.3521 110.832C84.1781 110.742 83.8301 110.556 83.3021 110.328C83.2541 110.328 83.2121 110.376 83.2601 110.4C83.3081 110.424 83.7041 110.706 84.3281 111.048C83.9586 111.272 83.602 111.516 83.2601 111.78C83.2121 111.78 83.2601 111.882 83.3021 111.852C83.2421 111.882 83.6921 111.66 84.3521 111.24ZM99.436 153.636C98.782 153.366 91.882 152.94 91.822 152.934C91.636 152.934 90.292 153.204 90.202 153.228C90.112 153.252 90.202 153.228 90.202 153.258C90.7265 153.498 91.268 153.698 91.822 153.858C92.422 153.984 93.622 153.996 99.31 154.608C99.418 154.608 99.646 154.236 99.514 153.696C99.508 153.678 99.466 153.654 99.436 153.636ZM91.792 153.798L90.886 153.48C90.921 153.432 90.944 153.377 90.952 153.318C90.9605 153.26 90.9545 153.2 90.934 153.144C91.2274 153.085 91.5239 153.043 91.822 153.018C91.966 153.162 91.582 153.216 91.87 153.402C91.906 153.402 91.912 153.402 91.87 153.444C91.8549 153.452 91.8415 153.462 91.8305 153.475C91.8189 153.488 91.811 153.503 91.8059 153.52C91.8009 153.536 91.799 153.553 91.8009 153.57C91.8024 153.587 91.808 153.603 91.816 153.618C91.864 153.702 91.918 153.738 91.792 153.798ZM91.864 153.798C92.032 153.708 91.804 153.57 91.918 153.498C92.17 153.324 90.97 153.372 98.896 154.098C98.8795 154.222 98.907 154.347 98.974 154.452L91.864 153.798ZM98.902 154.05C98.632 154.02 91.99 153.39 91.948 153.354C91.906 153.318 91.798 153.288 91.852 153.216C91.906 153.144 91.936 153.078 91.852 153.006C91.912 153.006 97.798 153.474 99.052 153.684C98.9645 153.792 98.912 153.924 98.902 154.062V154.05ZM99.286 154.464C99.244 154.422 99.238 154.434 99.196 154.314C99.154 154.194 99.196 153.786 99.388 153.786C99.4174 153.902 99.4234 154.023 99.406 154.141C99.3885 154.26 99.3479 154.374 99.286 154.476V154.464ZM103.456 136.758C103.449 136.736 103.438 136.716 103.422 136.699C103.407 136.682 103.388 136.668 103.367 136.659C103.345 136.65 103.322 136.646 103.299 136.648C103.276 136.649 103.254 136.655 103.233 136.666C103.213 136.677 103.195 136.692 103.182 136.71C103.168 136.729 103.158 136.75 103.154 136.773C103.149 136.795 103.15 136.819 103.155 136.841C103.161 136.864 103.171 136.884 103.186 136.902C103.246 136.998 103.306 137.094 103.372 137.19C103.381 137.211 103.394 137.229 103.411 137.244C103.428 137.259 103.448 137.27 103.47 137.277C103.492 137.283 103.515 137.285 103.537 137.282C103.56 137.279 103.581 137.27 103.6 137.258C103.619 137.246 103.635 137.229 103.647 137.21C103.659 137.191 103.667 137.17 103.669 137.147C103.673 137.125 103.67 137.102 103.663 137.08C103.657 137.059 103.645 137.039 103.63 137.022C103.6 136.938 103.51 136.848 103.456 136.758ZM95.98 124.014C96.016 123.732 96.346 122.298 96.22 122.268C96.213 122.265 96.2055 122.264 96.1979 122.264C96.1904 122.265 96.183 122.267 96.176 122.27C96.1689 122.274 96.1629 122.278 96.1584 122.284C96.1534 122.29 96.1499 122.297 96.148 122.304C95.978 122.723 95.8474 123.156 95.758 123.6C95.7239 123.756 95.702 123.915 95.692 124.074C95.693 124.099 95.6999 124.122 95.7125 124.144C95.7249 124.164 95.7429 124.182 95.764 124.194C95.9145 124.271 96.077 124.322 96.244 124.344C96.376 124.344 96.844 124.38 96.79 124.254C96.736 124.128 96.664 124.356 95.98 124.014ZM98.674 123.144V122.832C98.674 122.616 98.374 122.586 98.368 122.832V123.174C98.3665 123.197 98.3695 123.22 98.378 123.241C98.386 123.262 98.3985 123.281 98.4144 123.297C98.4309 123.313 98.4504 123.325 98.4719 123.333C98.4934 123.34 98.5164 123.343 98.5389 123.341C98.5615 123.339 98.5834 123.331 98.603 123.32C98.6225 123.308 98.6395 123.293 98.6519 123.274C98.6649 123.255 98.6734 123.234 98.6775 123.212C98.6815 123.189 98.68 123.166 98.674 123.144ZM99.07 124.8C98.878 125.52 98.62 125.628 98.308 125.664C98.2439 125.669 98.18 125.669 98.116 125.664C98.102 125.659 98.086 125.661 98.0724 125.667C98.0589 125.674 98.049 125.686 98.044 125.7C98.0395 125.715 98.0405 125.73 98.0469 125.744C98.054 125.757 98.066 125.767 98.08 125.772C98.602 126.072 99.316 125.706 99.184 124.8C99.1799 124.788 99.1725 124.778 99.1625 124.77C99.152 124.763 99.1395 124.759 99.1269 124.759C99.1145 124.759 99.1019 124.763 99.092 124.77C99.0814 124.778 99.074 124.788 99.07 124.8ZM101.326 132.3C101.322 132.281 101.315 132.262 101.304 132.245C101.293 132.228 101.28 132.213 101.263 132.202C101.246 132.191 101.228 132.183 101.208 132.178C101.189 132.174 101.169 132.174 101.149 132.177C101.13 132.181 101.111 132.188 101.094 132.199C101.077 132.21 101.062 132.224 101.051 132.24C101.04 132.257 101.031 132.275 101.027 132.295C101.023 132.314 101.022 132.335 101.026 132.354C101.052 132.466 101.084 132.576 101.122 132.684C101.124 132.707 101.131 132.73 101.142 132.75C101.154 132.77 101.169 132.787 101.189 132.8C101.208 132.813 101.229 132.822 101.252 132.826C101.275 132.83 101.298 132.828 101.321 132.822C101.342 132.816 101.363 132.804 101.38 132.789C101.398 132.774 101.412 132.755 101.421 132.734C101.43 132.713 101.434 132.69 101.433 132.666C101.432 132.643 101.426 132.621 101.416 132.6C101.38 132.498 101.35 132.396 101.326 132.3ZM95.422 122.25C95.4264 122.228 95.426 122.204 95.4204 122.182C95.415 122.159 95.4045 122.139 95.3895 122.121C95.375 122.103 95.3565 122.089 95.336 122.079C95.315 122.069 95.2919 122.064 95.2689 122.064C95.246 122.064 95.223 122.069 95.2025 122.079C95.1814 122.089 95.163 122.103 95.1485 122.121C95.134 122.139 95.1235 122.159 95.1179 122.182C95.1119 122.204 95.1115 122.228 95.116 122.25V122.592C95.1115 122.615 95.1119 122.638 95.1179 122.661C95.1235 122.683 95.134 122.704 95.1485 122.722C95.163 122.739 95.1814 122.754 95.2025 122.764C95.223 122.774 95.246 122.779 95.2689 122.779C95.2919 122.779 95.315 122.774 95.336 122.764C95.3565 122.754 95.375 122.739 95.3895 122.722C95.4045 122.704 95.415 122.683 95.4204 122.661C95.426 122.638 95.4264 122.615 95.422 122.592C95.415 122.478 95.415 122.364 95.422 122.25ZM142.852 147.384C142.816 147.39 142.852 147.384 142.852 147.384V147.384Z" fill="#212121"/>
<path fill-rule="evenodd" clip-rule="evenodd" d="M145.846 147C145.18 146.676 143.596 146.946 142.846 147.102C142.57 146.794 142.223 146.56 141.834 146.42C141.446 146.279 141.028 146.238 140.62 146.298C139.948 146.466 139.786 147.294 139.816 147.99C139.384 147.912 138.916 147.858 138.484 147.816C138.52 147.684 138.634 147.498 138.598 147.366C138.578 147.319 138.549 147.276 138.512 147.242C138.474 147.207 138.43 147.181 138.381 147.165C138.333 147.149 138.282 147.144 138.231 147.15C138.18 147.155 138.131 147.172 138.088 147.198C137.968 147.294 137.858 147.4 137.758 147.516C137.758 147.306 137.932 146.97 137.722 146.916C137.512 146.862 136.858 147.45 136.672 147.66C135.294 147.509 133.904 147.509 132.526 147.66C130.722 147.79 129.022 148.553 127.726 149.814C135.022 141.414 138.226 135.642 138.142 128.448C138.058 121.254 129.508 117.822 125.992 117.732C122.578 117.648 119.056 119.532 118.876 119.532C115.792 120.132 107.704 119.238 106.006 119.946C106.027 119.186 105.89 118.429 105.605 117.724C105.32 117.019 104.893 116.38 104.35 115.848C103.378 114.786 101.824 114.39 100.246 114.456C97.996 114.558 95.764 115.5 94.648 117.456C94.2779 118.089 94.0605 118.8 94.012 119.532C94.012 119.718 93.628 122.778 94.612 125.094C94.834 125.681 95.1889 126.208 95.649 126.633C96.1094 127.059 96.662 127.372 97.264 127.548C96.2939 128.834 95.4045 130.179 94.6 131.574C94.414 131.964 94.552 132.174 94.822 132.174C95.092 132.174 95.452 132.102 95.704 132.114C95.308 133.2 94.3 136.032 94.054 137.154C92.8205 137.985 91.7095 138.984 90.754 140.124C88.954 142.188 88.114 144.426 86.074 145.62L85.474 145.956C86.29 143.478 87.832 138.558 87.274 138.552C86.716 138.546 85.3601 143.28 84.4961 146.49C83.5721 147 83.104 147.324 82.78 148.332C82.6744 148.587 82.62 148.86 82.62 149.136C82.62 149.412 82.6744 149.685 82.78 149.94C82.8185 150.022 82.8774 150.093 82.9509 150.145C83.0244 150.198 83.1103 150.23 83.2001 150.24C83.2721 150.24 83.2721 150.174 83.0741 150.612C82.9797 150.639 82.8905 150.682 82.81 150.738L79.9241 148.98C79.8581 148.98 80.686 148.866 63.124 151.152C62.794 150.906 62.446 150.648 62.086 150.366C53.458 143.652 81.634 136.446 83.89 127.272C85.912 119.058 74.29 117.402 76.87 109.686C79.45 101.97 96.3219 104.13 112.204 103.206C128.086 102.282 134.404 86.2501 122.842 77.898C111.28 69.546 99.4 81.408 96.592 84.4381C93.784 87.4681 90.544 91.4341 81.4481 91.0381C72.3521 90.6421 60.448 92.1841 56.086 105.372C53.986 111.684 55.87 116.112 58.672 119.622C59.6105 118.667 60.7712 117.96 62.05 117.564C62.794 117.384 63.532 117.48 63.742 118.218C64.138 119.574 62.494 121.68 61.54 122.73C63.94 125.046 66.244 127.002 67.15 129.024C68.662 132.42 61.414 134.934 58.354 136.92C55.294 138.906 50.62 145.05 53.488 151.014C53.7034 151.471 53.9438 151.916 54.208 152.346C48.124 153.132 47.914 153.132 47.854 153.168C47.794 153.204 47.812 153.312 47.854 153.372H47.812C48.352 153.972 64.246 176.688 74.002 188.232L74.176 188.268C76.288 187.254 114.616 168.648 112.576 167.502C112.576 167.502 84.556 151.86 83.89 151.464C83.9942 151.285 84.0845 151.098 84.16 150.906C84.1932 150.904 84.2245 150.89 84.2486 150.867C84.2726 150.844 84.288 150.813 84.2921 150.78V150.456C84.6641 150.582 85.2461 150.222 85.5461 149.952C86.1461 149.4 87.046 147.864 87.712 147.66C89.0399 147.329 90.35 146.928 91.636 146.46C96.982 144.456 99.202 142.212 101.53 138.588C101.915 138.022 102.242 137.419 102.508 136.788C103.866 138.255 105.518 139.421 107.356 140.208C102.508 145.806 103.27 149.358 105.022 151.296C106.624 153.066 109.222 152.442 109.648 152.31C109.648 154.974 110.548 160.89 110.848 161.484C111.004 161.826 110.482 162.084 110.374 162.762C110.317 163.107 110.362 163.46 110.502 163.78C110.643 164.1 110.873 164.371 111.166 164.562C111.832 164.982 112.966 165.006 112.522 164.34C112.374 164.15 112.207 163.975 112.024 163.818C112.198 163.872 112.39 163.944 112.624 164.028C114.814 164.886 115.102 165.276 115.504 165.162C115.558 165.149 115.608 165.125 115.652 165.091C115.695 165.057 115.731 165.014 115.756 164.964C115.804 164.997 115.859 165.02 115.915 165.03C115.973 165.041 116.031 165.04 116.088 165.026C116.145 165.012 116.198 164.987 116.244 164.951C116.29 164.916 116.328 164.871 116.356 164.82C116.376 164.781 116.387 164.738 116.387 164.694C116.387 164.65 116.376 164.607 116.356 164.568C116.432 164.44 116.458 164.288 116.428 164.142C116.428 163.602 114.364 161.838 113.944 161.49C114.004 160.89 114.322 159.558 115.114 156.018C119.206 160.632 132.964 154.218 133.714 153.894C133.84 154.026 138.922 151.86 139.51 151.548C139.45 151.548 145.954 148.608 146.2 147.528C146.2 147.276 146.038 147.114 145.846 147ZM122.638 92.6761C122.737 92.6791 122.831 92.7212 122.899 92.793C122.968 92.8649 123.005 92.9608 123.004 93.0601C123.005 93.1094 122.997 93.1586 122.98 93.2047C122.962 93.2507 122.935 93.293 122.901 93.3287C122.867 93.3644 122.826 93.3931 122.781 93.4129C122.736 93.4326 122.687 93.4432 122.638 93.4441C122.588 93.4432 122.539 93.4327 122.494 93.413C122.448 93.3932 122.407 93.3647 122.372 93.3291C122.338 93.2934 122.311 93.2513 122.292 93.2051C122.274 93.159 122.265 93.1096 122.266 93.0601C122.265 93.0104 122.274 92.961 122.292 92.9149C122.311 92.8687 122.338 92.8266 122.372 92.7909C122.407 92.7553 122.448 92.7268 122.494 92.707C122.539 92.6873 122.588 92.6768 122.638 92.6761ZM119.248 82.2C119.296 82.2 119.344 82.2097 119.389 82.2284C119.434 82.2472 119.475 82.2747 119.509 82.3093C119.543 82.3439 119.57 82.385 119.588 82.4301C119.606 82.4752 119.615 82.5234 119.614 82.572C119.62 82.6236 119.616 82.676 119.601 82.7257C119.586 82.7755 119.561 82.8214 119.526 82.8605C119.491 82.8995 119.449 82.9309 119.402 82.9522C119.354 82.9737 119.303 82.9847 119.251 82.9847C119.199 82.9847 119.147 82.9737 119.1 82.9522C119.053 82.9309 119.01 82.8995 118.976 82.8605C118.942 82.8214 118.916 82.7755 118.901 82.7257C118.886 82.676 118.881 82.6236 118.888 82.572C118.887 82.5239 118.896 82.4762 118.913 82.4315C118.931 82.3868 118.957 82.346 118.991 82.3114C119.024 82.2769 119.064 82.2493 119.108 82.2301C119.152 82.211 119.2 82.2008 119.248 82.2ZM107.968 98.7541C107.925 98.7462 107.886 98.7236 107.858 98.6902C107.83 98.6567 107.815 98.6146 107.815 98.571C107.815 98.5275 107.83 98.4853 107.858 98.4519C107.886 98.4184 107.925 98.3958 107.968 98.3881C108.018 98.3881 108.066 98.4079 108.101 98.4434C108.137 98.4788 108.157 98.5269 108.157 98.577C108.157 98.6272 108.137 98.6753 108.101 98.7106C108.066 98.7461 108.018 98.7661 107.968 98.7661V98.7541ZM106.336 82.272C106.336 82.032 106.936 81.912 107.2 81.876C107.636 81.8184 108.078 81.8184 108.514 81.876C108.784 81.3797 109.117 80.92 109.504 80.508C109.63 80.406 109.744 80.37 109.858 80.508C110.129 81.056 110.304 81.6466 110.374 82.254C111.304 82.494 112.6 82.9381 111.82 83.4961C111.58 83.6701 111.154 83.8501 110.692 84.0961C110.744 84.5802 110.76 85.0675 110.74 85.5541C110.74 85.7761 110.68 86.1121 110.458 86.1541C110.008 86.2321 109.66 85.6081 108.952 84.9961C108.274 85.3321 106.918 86.0761 106.888 85.3621C106.961 84.753 107.142 84.1618 107.422 83.6161C106.732 82.9621 106.294 82.644 106.336 82.284V82.272ZM105.736 93.3061C105.734 93.7249 105.625 94.1362 105.418 94.5004C105.212 94.8646 104.915 95.1694 104.556 95.3854C104.197 95.6013 103.788 95.721 103.37 95.7331C102.951 95.7451 102.536 95.649 102.166 95.4541L105.658 92.6821C105.711 92.8899 105.74 93.1034 105.742 93.3181L105.736 93.3061ZM105.586 92.4601C104.626 93.1981 103.336 94.2601 102.046 95.3821C101.949 95.3235 101.856 95.2573 101.77 95.1841C103.024 93.9181 104.254 92.4901 105.016 91.5841C105.267 91.8374 105.463 92.1397 105.592 92.4721L105.586 92.4601ZM104.884 91.4581C104.644 91.7161 102.556 94.0681 101.656 95.0581C101.4 94.8227 101.195 94.5367 101.056 94.2181C101.968 93.5581 103.21 92.6401 104.59 91.5541L104.806 91.3801L104.884 91.4581ZM103.306 90.8581C103.787 90.8575 104.258 91.0017 104.656 91.2721L103.81 91.8721C103.618 92.0161 102.16 93.1621 101.008 94.0621C100.886 93.6964 100.852 93.3069 100.909 92.9255C100.967 92.5443 101.113 92.182 101.337 91.8682C101.561 91.5545 101.856 91.2983 102.199 91.1206C102.541 90.943 102.92 90.8489 103.306 90.8461V90.8581ZM97.522 89.8741C97.5949 89.8717 97.6669 89.8911 97.7285 89.9298C97.7904 89.9685 97.839 90.0248 97.8684 90.0915C97.898 90.1581 97.9069 90.232 97.8945 90.3038C97.8814 90.3755 97.8479 90.4419 97.797 90.4942C97.7465 90.5467 97.6814 90.5827 97.61 90.5979C97.5384 90.613 97.4645 90.6065 97.3969 90.5791C97.3294 90.5518 97.2715 90.505 97.2305 90.4445C97.19 90.3842 97.168 90.3129 97.168 90.2401C97.174 90.1487 97.215 90.0632 97.2814 90.0008C97.3485 89.9384 97.4364 89.9038 97.528 89.9041L97.522 89.8741ZM94.216 98.9581C94.3559 98.9627 94.492 99.0086 94.606 99.0898C94.72 99.1711 94.808 99.2842 94.8585 99.415C94.9085 99.5458 94.9195 99.6885 94.8895 99.8254C94.8589 99.9623 94.7894 100.087 94.6884 100.185C94.588 100.282 94.4604 100.348 94.323 100.374C94.185 100.399 94.0425 100.384 93.9134 100.329C93.7845 100.274 93.6744 100.183 93.597 100.066C93.5194 99.9493 93.478 99.8122 93.478 99.6721C93.483 99.4799 93.5629 99.2974 93.7009 99.1639C93.8389 99.0304 94.024 98.9564 94.216 98.9581ZM84.88 97.2661C85.138 97.2661 85.138 97.7281 84.88 97.7281C84.622 97.7281 84.616 97.2661 84.88 97.2661ZM60.478 110.532C60.4496 110.537 60.4204 110.536 60.3924 110.528C60.3645 110.521 60.3385 110.507 60.3164 110.489C60.2942 110.47 60.2765 110.447 60.2642 110.421C60.252 110.394 60.2457 110.366 60.2457 110.337C60.2457 110.308 60.252 110.28 60.2642 110.253C60.2765 110.227 60.2942 110.204 60.3164 110.185C60.3385 110.167 60.3645 110.153 60.3924 110.146C60.4204 110.138 60.4496 110.137 60.478 110.142C60.5065 110.137 60.5357 110.138 60.5637 110.146C60.5915 110.153 60.6175 110.167 60.6396 110.185C60.6618 110.204 60.6796 110.227 60.6918 110.253C60.7041 110.28 60.7103 110.308 60.7103 110.337C60.7103 110.366 60.7041 110.394 60.6918 110.421C60.6796 110.447 60.6618 110.47 60.6396 110.489C60.6175 110.507 60.5915 110.521 60.5637 110.528C60.5357 110.536 60.5065 110.537 60.478 110.532ZM73.378 134.088C73.2974 134.079 73.2212 134.046 73.1586 133.995C73.0961 133.943 73.0498 133.874 73.0254 133.797C73.001 133.72 72.9996 133.637 73.0213 133.559C73.043 133.48 73.087 133.41 73.1478 133.356C73.2085 133.302 73.2836 133.268 73.3639 133.256C73.4442 133.244 73.5262 133.255 73.6001 133.289C73.6739 133.322 73.7364 133.377 73.7801 133.445C73.8238 133.513 73.8466 133.593 73.846 133.674C73.8383 133.791 73.7848 133.9 73.6972 133.977C73.6096 134.055 73.4949 134.094 73.378 134.088ZM74.8 93.9601C74.8822 93.9589 74.9627 93.9821 75.0317 94.0268C75.1005 94.0717 75.1545 94.1358 75.1868 94.2114C75.219 94.2869 75.2281 94.3703 75.2128 94.4511C75.1975 94.5317 75.1585 94.6061 75.1009 94.6646C75.0432 94.723 74.9695 94.7631 74.889 94.7795C74.8086 94.796 74.725 94.7882 74.649 94.7571C74.573 94.7259 74.508 94.6729 74.4622 94.6047C74.4165 94.5364 74.3921 94.4561 74.392 94.3741C74.392 94.2652 74.4348 94.1608 74.5112 94.0834C74.5876 94.0059 74.6913 93.9616 74.8 93.9601ZM75.148 115.506C75.1474 115.565 75.1301 115.622 75.098 115.671C75.0658 115.72 75.0203 115.759 74.9668 115.782C74.9133 115.806 74.8541 115.814 74.7961 115.806C74.7382 115.797 74.684 115.772 74.6399 115.733C74.596 115.694 74.564 115.644 74.5478 115.587C74.5318 115.531 74.5321 115.471 74.5489 115.415C74.5658 115.359 74.5985 115.309 74.643 115.271C74.6875 115.233 74.7419 115.208 74.8 115.2C74.8422 115.197 74.8845 115.202 74.9245 115.216C74.9645 115.23 75.0011 115.252 75.0321 115.281C75.0631 115.309 75.0878 115.344 75.1046 115.383C75.1216 115.422 75.1302 115.464 75.13 115.506H75.148ZM75.286 124.368C75.646 124.086 76.708 123.21 77.026 123.486C77.344 123.762 77.068 124.344 77.026 125.172C77.692 125.49 79.072 126.096 78.532 126.48C78.0033 126.738 77.4357 126.909 76.852 126.984C76.75 127.854 76.756 128.298 76.462 128.448C76.258 128.544 75.808 128.178 75.64 128.022C75.3173 127.746 75.0345 127.428 74.8 127.074C74.252 127.14 73.698 127.14 73.15 127.074C73.006 127.038 72.898 126.972 72.928 126.828C72.994 126.498 73.738 125.796 73.984 125.562C73.828 125.22 73.462 124.362 73.588 124.02C73.768 123.546 74.542 124.068 75.268 124.368H75.286ZM73.336 105.036C73.462 105.036 73.528 105.126 73.51 105.282C73.3845 105.727 73.1945 106.152 72.946 106.542C73.2033 106.811 73.4232 107.114 73.6 107.442C74.2 108.6 73.366 108.306 72.13 108.042C71.8386 108.475 71.4681 108.85 71.038 109.146C70.48 109.422 70.354 108.246 70.258 107.58C69.412 107.358 68.74 107.388 68.566 107.046C68.392 106.704 69.688 106.182 70.06 106.014C70.018 105.414 69.76 104.61 70.276 104.634C70.7989 104.792 71.2792 105.067 71.68 105.438C72.2073 105.217 72.7663 105.082 73.336 105.036ZM65.692 121.8C65.6251 121.811 65.5567 121.807 65.4914 121.789C65.4261 121.77 65.3656 121.738 65.314 121.694C65.2624 121.65 65.2209 121.596 65.1924 121.534C65.1641 121.473 65.1493 121.406 65.1493 121.338C65.1493 121.27 65.1641 121.203 65.1924 121.142C65.2209 121.08 65.2624 121.026 65.314 120.982C65.3656 120.938 65.4261 120.906 65.4914 120.887C65.5567 120.869 65.6251 120.865 65.692 120.876C65.7589 120.865 65.8274 120.869 65.8927 120.887C65.9579 120.906 66.0185 120.938 66.0701 120.982C66.1217 121.026 66.1631 121.08 66.1916 121.142C66.22 121.203 66.2347 121.27 66.2347 121.338C66.2347 121.406 66.22 121.473 66.1916 121.534C66.1631 121.596 66.1217 121.65 66.0701 121.694C66.0185 121.738 65.9579 121.77 65.8927 121.789C65.8274 121.807 65.7589 121.811 65.692 121.8ZM62.308 103.674C62.2859 103.668 62.2663 103.656 62.2522 103.638C62.2382 103.62 62.2306 103.598 62.2306 103.575C62.2306 103.552 62.2382 103.53 62.2522 103.512C62.2663 103.494 62.2859 103.482 62.308 103.476C63.622 103.386 65.116 103.344 66.43 103.344C65.3349 102.576 64.1626 101.924 62.932 101.4C62.906 101.392 62.884 101.374 62.8702 101.351C62.8566 101.327 62.8524 101.299 62.8584 101.273C62.8645 101.246 62.8805 101.223 62.903 101.208C62.9255 101.192 62.953 101.186 62.98 101.19C64.3439 101.205 65.6855 101.537 66.898 102.162C66.1005 101.367 65.257 100.62 64.372 99.9241C64.3531 99.9087 64.3402 99.887 64.3358 99.863C64.3315 99.839 64.336 99.8142 64.3482 99.7931C64.3606 99.7721 64.38 99.7562 64.4032 99.7483C64.4262 99.7403 64.4514 99.741 64.474 99.7501C65.9865 100.238 67.4062 100.976 68.674 101.934C69.9256 102.851 71.0111 103.975 71.884 105.258C71.884 105.312 71.83 105.354 71.794 105.3C70.9218 104.026 69.8382 102.91 68.59 102C67.4781 101.184 66.2532 100.536 64.954 100.074C65.392 100.428 67.168 101.874 67.402 102.408C67.45 102.504 67.33 102.594 67.228 102.534C66.5873 102.177 65.9065 101.897 65.2 101.7C64.6495 101.535 64.0817 101.435 63.508 101.4C64.198 101.73 66.34 102.78 66.778 103.404C66.7893 103.421 66.7955 103.44 66.7963 103.46C66.797 103.48 66.7921 103.5 66.7821 103.518C66.7722 103.535 66.7576 103.55 66.7398 103.559C66.7221 103.569 66.7021 103.573 66.682 103.572C66.616 103.572 64.96 103.572 63.202 103.632C65.278 104.028 68.002 104.79 69.736 106.032C69.784 106.068 69.736 106.14 69.676 106.104C67.792 104.79 64.534 103.974 62.308 103.674ZM96.28 116.064C98.326 114.522 102.382 114.114 104.158 116.064C104.681 116.574 105.092 117.187 105.365 117.865C105.637 118.543 105.766 119.27 105.742 120C105.602 121.323 105.033 122.565 104.122 123.534C104.014 123.642 104.014 123.534 104.05 123.48C104.153 123.332 104.221 123.162 104.25 122.984C104.278 122.805 104.266 122.622 104.214 122.45C104.162 122.277 104.072 122.118 103.95 121.984C103.828 121.851 103.678 121.747 103.51 121.68C102.376 121.164 102.034 123.066 101.206 123.3C100.486 123.51 100.756 121.83 100.81 120.708C100.885 120.215 100.772 119.711 100.492 119.298C99.9934 118.763 99.3775 118.352 98.692 118.098C97.4904 117.614 96.1859 117.443 94.9 117.6C95.251 117 95.7204 116.477 96.28 116.064ZM94.858 125.01C93.868 122.67 94.3 119.562 94.3 119.562C94.3485 118.931 94.5305 118.317 94.834 117.762C96.1305 117.63 97.4389 117.837 98.632 118.362C99.2809 118.605 99.866 118.993 100.342 119.496C100.942 120.288 100.342 121.8 100.534 122.982C100.606 123.444 100.822 123.738 101.272 123.582C102.202 123.318 102.514 121.554 103.408 121.962C104.302 122.37 104.14 123.54 103.084 123.984C102.676 124.158 102.712 124.548 103.024 124.584C103.186 124.584 103.504 124.494 103.99 124.104C104.702 123.408 105.261 122.573 105.634 121.65C106.469 121.826 107.275 122.112 108.034 122.502C109.102 122.988 110.362 123.666 111.358 124.248C109.84 124.61 108.456 125.396 107.368 126.515C106.28 127.634 105.533 129.039 105.214 130.566C104.986 130.566 105.004 130.242 104.848 130.122C104.692 130.002 104.596 130.122 104.41 130.182C104.414 130.034 104.381 129.888 104.314 129.756C104.314 129.408 103.744 129.612 103.414 129.72C103.418 129.571 103.395 129.423 103.348 129.282C103.486 128.838 102.682 129.06 102.232 129.186C102.266 129.016 102.266 128.841 102.232 128.67C102.274 128.322 101.512 128.544 101.194 128.67C101.221 128.47 101.209 128.266 101.158 128.07C100.99 127.836 100.102 128.328 100.066 128.106C100.069 127.942 100.101 127.779 100.162 127.626C100.264 127.26 99.766 127.488 99.622 127.464C99.6165 127.467 99.6105 127.469 99.604 127.469C99.5974 127.469 99.5914 127.467 99.586 127.464V127.392C100.088 127.254 100.57 127.053 101.02 126.792C101.249 127.129 101.592 127.372 101.986 127.476C102.344 127.583 102.725 127.584 103.083 127.479C103.442 127.374 103.763 127.168 104.006 126.885C104.25 126.603 104.407 126.255 104.459 125.886C104.51 125.516 104.454 125.139 104.296 124.8C104.296 124.734 104.164 124.8 104.194 124.842C104.272 125.072 104.302 125.315 104.283 125.557C104.265 125.799 104.197 126.035 104.085 126.25C103.973 126.465 103.818 126.656 103.631 126.81C103.443 126.964 103.227 127.078 102.994 127.146L101.542 126.252C101.488 126.216 101.494 126.252 101.176 126.456C100.976 126.062 100.923 125.61 101.025 125.181C101.127 124.751 101.378 124.372 101.734 124.11C102.153 123.829 102.652 123.69 103.156 123.714C103.168 123.71 103.178 123.702 103.186 123.692C103.193 123.682 103.197 123.67 103.197 123.657C103.197 123.645 103.193 123.632 103.186 123.622C103.178 123.612 103.168 123.604 103.156 123.6C102.616 123.534 102.069 123.651 101.602 123.93C101.178 124.212 100.873 124.641 100.748 125.135C100.623 125.628 100.685 126.15 100.924 126.6C99.8604 127.205 98.6405 127.479 97.42 127.386C96.8349 127.222 96.2974 126.921 95.852 126.508C95.4065 126.094 95.066 125.581 94.858 125.01ZM104.2 130.338C104.357 130.304 104.511 130.252 104.656 130.182C104.92 130.086 104.848 130.614 105.184 130.62C105.124 130.902 105.088 131.124 105.07 131.262C104.788 131.16 104.524 131.046 104.26 130.938C104.271 130.736 104.251 130.534 104.2 130.338ZM104.2 130.206C104.2 130.206 104.2 130.176 104.26 129.972C104.275 130.048 104.305 130.119 104.35 130.182L104.2 130.2V130.206ZM104.14 130.32C104.109 130.519 104.109 130.721 104.14 130.92C103.72 130.746 103.33 130.566 102.94 130.386C102.94 130.272 102.917 130.161 102.874 130.056C103.15 130.056 104.074 129.612 104.116 129.744C104.158 129.876 103.942 130.2 104.14 130.32ZM102.814 130.014C102.813 130.108 102.827 130.201 102.856 130.29C102.7 130.218 102.058 129.894 101.896 129.81C101.893 129.682 101.873 129.555 101.836 129.432C102.195 129.383 102.551 129.304 102.898 129.198C102.94 129.198 103.21 129.162 103.186 129.198C103.162 129.372 102.55 129.876 102.814 130.014ZM101.764 129.738C101.458 129.576 101.164 129.42 100.936 129.276C100.94 129.149 100.917 129.022 100.87 128.904C100.967 128.921 101.066 128.904 101.152 128.856C101.428 128.73 101.725 128.659 102.028 128.646C101.901 128.793 101.792 128.954 101.704 129.126C101.681 129.332 101.701 129.54 101.764 129.738ZM100.798 129.198L100.132 128.796C100.145 128.618 100.127 128.44 100.078 128.268C100.27 128.31 100.768 128.112 100.996 128.13C100.887 128.277 100.789 128.432 100.702 128.592C100.702 128.798 100.734 129.003 100.798 129.198ZM101.056 128.328C101.041 128.448 101.041 128.568 101.056 128.688C101.014 128.688 100.876 128.754 100.864 128.688C100.852 128.622 100.984 128.4 101.056 128.328ZM102.112 128.844C102.108 128.962 102.122 129.079 102.154 129.192C102.062 129.226 101.964 129.245 101.866 129.246C101.866 129.246 101.842 129.162 102.112 128.844ZM103.264 129.444C103.272 129.543 103.294 129.64 103.33 129.732C103.211 129.778 103.088 129.816 102.964 129.846C103.036 129.738 103.132 129.6 103.264 129.438V129.444ZM99.958 128.196C99.955 128.376 99.9775 128.556 100.024 128.73C99.922 128.668 99.8215 128.602 99.724 128.532L99.586 127.524C99.736 127.524 100.048 127.434 100.048 127.524C100.048 127.614 99.796 128.01 99.958 128.19V128.196ZM101.242 126.576C101.326 126.522 101.416 126.456 101.5 126.39L102.82 127.2C102.527 127.259 102.223 127.234 101.944 127.128C101.665 127.022 101.422 126.839 101.242 126.6V126.576ZM94.816 131.904C94.672 131.862 95.5 130.578 95.596 130.428C95.89 129.954 97.312 127.758 97.432 127.578C97.928 127.607 98.4254 127.577 98.914 127.488C99.01 131.04 99.652 132.516 100.432 133.902C100.03 133.776 99.622 133.962 99.268 133.836C98.77 133.668 98.788 132.948 98.068 132.906C97.5974 132.962 97.1449 133.119 96.742 133.368C96.58 133.434 96.544 133.368 96.502 133.296C96.4425 132.89 96.3545 132.489 96.238 132.096C95.962 131.622 95.098 132 94.816 131.904ZM79.8581 149.136L82.69 150.846C82.525 151.002 82.3463 151.143 82.156 151.266C81.694 151.512 81.214 151.326 81.208 151.692C78.622 152.682 74.728 157.248 79.582 161.418C85.786 166.74 92.848 168.864 86.278 173.94C84.478 175.35 82.624 175.14 80.482 173.754C78.13 172.212 78.154 165.42 75.898 161.226C72.148 154.248 70.6 156.6 63.352 151.356L79.8581 149.136ZM88.192 174.336C88.184 174.336 88.1765 174.335 88.1689 174.332C88.162 174.329 88.155 174.324 88.1494 174.318C88.144 174.313 88.1395 174.306 88.1364 174.299C88.1335 174.292 88.132 174.284 88.132 174.276C88.132 174.268 88.1335 174.261 88.1364 174.253C88.1395 174.246 88.144 174.239 88.1494 174.233C88.155 174.228 88.162 174.224 88.1689 174.221C88.1765 174.218 88.184 174.216 88.192 174.216C88.204 174.22 88.2144 174.228 88.222 174.238C88.2295 174.248 88.2334 174.261 88.2334 174.273C88.2334 174.286 88.2295 174.298 88.222 174.308C88.2144 174.318 88.204 174.326 88.192 174.33V174.336ZM85.12 176.136C85.0949 176.141 85.069 176.14 85.0442 176.134C85.0195 176.127 84.9965 176.115 84.9767 176.099C84.9571 176.082 84.9413 176.062 84.9304 176.039C84.9196 176.016 84.9139 175.991 84.9139 175.965C84.9139 175.94 84.9196 175.914 84.9304 175.891C84.9413 175.868 84.9571 175.848 84.9767 175.831C84.9965 175.815 85.0195 175.803 85.0442 175.797C85.069 175.79 85.0949 175.79 85.12 175.794C85.1686 175.794 85.2151 175.814 85.2494 175.847C85.2838 175.882 85.303 175.929 85.303 175.977C85.303 176.026 85.2838 176.072 85.2494 176.106C85.2151 176.141 85.1686 176.16 85.12 176.16V176.136ZM77.392 175.716C77.4535 175.538 77.5448 175.372 77.662 175.224C77.392 174.852 77.2301 174.666 77.6981 174.69C77.8352 174.7 77.9704 174.729 78.1 174.774C78.58 174.246 78.6641 174.282 78.6461 175.002C78.7661 175.062 79.048 175.206 79.102 175.326C79.156 175.446 78.85 175.518 78.634 175.584C78.634 175.728 78.58 176.184 78.442 176.184C78.304 176.184 78.2261 175.962 78.0461 175.734C77.8001 175.8 77.362 175.956 77.392 175.74V175.716ZM77.314 168.072C77.2889 168.077 77.263 168.076 77.2382 168.07C77.2135 168.063 77.1905 168.051 77.1707 168.035C77.1511 168.018 77.1353 167.998 77.1244 167.975C77.1136 167.952 77.1079 167.927 77.1079 167.901C77.1079 167.876 77.1136 167.85 77.1244 167.827C77.1353 167.804 77.1511 167.784 77.1707 167.767C77.1905 167.751 77.2135 167.739 77.2382 167.733C77.263 167.726 77.2889 167.726 77.314 167.73C77.3626 167.73 77.4091 167.75 77.4434 167.784C77.4778 167.818 77.497 167.865 77.497 167.913C77.497 167.962 77.4778 168.008 77.4434 168.042C77.4091 168.077 77.3626 168.096 77.314 168.096V168.072ZM70.066 159.372C70.0409 159.377 70.015 159.376 69.9902 159.37C69.9655 159.363 69.9425 159.351 69.9227 159.335C69.9031 159.318 69.8873 159.298 69.8764 159.275C69.8656 159.252 69.8599 159.227 69.8599 159.201C69.8599 159.176 69.8656 159.15 69.8764 159.127C69.8873 159.104 69.9031 159.084 69.9227 159.067C69.9425 159.051 69.9655 159.039 69.9902 159.033C70.015 159.026 70.0409 159.026 70.066 159.03C70.0912 159.026 70.117 159.026 70.1418 159.033C70.1665 159.039 70.1896 159.051 70.2093 159.067C70.2289 159.084 70.2448 159.104 70.2557 159.127C70.2666 159.15 70.2722 159.176 70.2722 159.201C70.2722 159.227 70.2666 159.252 70.2557 159.275C70.2448 159.298 70.2289 159.318 70.2093 159.335C70.1896 159.351 70.1665 159.363 70.1418 159.37C70.117 159.376 70.0912 159.377 70.066 159.372ZM67.666 155.628C67.6409 155.633 67.615 155.632 67.5902 155.626C67.5655 155.619 67.5425 155.607 67.5227 155.591C67.5031 155.574 67.4873 155.554 67.4764 155.531C67.4656 155.508 67.4599 155.483 67.4599 155.457C67.4599 155.432 67.4656 155.406 67.4764 155.383C67.4873 155.36 67.5031 155.34 67.5227 155.323C67.5425 155.307 67.5655 155.295 67.5902 155.289C67.615 155.282 67.6409 155.281 67.666 155.286C67.6908 155.28 67.7166 155.28 67.7416 155.285C67.7664 155.291 67.7899 155.301 67.8103 155.316C67.8307 155.332 67.8474 155.351 67.8594 155.374C67.8714 155.396 67.8784 155.421 67.8797 155.446C67.881 155.472 67.8767 155.497 67.8671 155.52C67.8576 155.544 67.8429 155.566 67.8244 155.583C67.8057 155.6 67.7834 155.613 67.7592 155.621C67.735 155.629 67.7093 155.631 67.684 155.628H67.666ZM60.628 154.428C60.6532 154.424 60.679 154.424 60.7038 154.431C60.7285 154.437 60.7516 154.449 60.7713 154.465C60.7909 154.482 60.8068 154.502 60.8177 154.525C60.8286 154.548 60.8342 154.574 60.8342 154.599C60.8342 154.625 60.8286 154.65 60.8177 154.673C60.8068 154.696 60.7909 154.716 60.7713 154.733C60.7516 154.749 60.7285 154.761 60.7038 154.768C60.679 154.774 60.6532 154.775 60.628 154.77C60.6028 154.773 60.5771 154.771 60.5529 154.763C60.5286 154.755 60.5064 154.742 60.4878 154.725C60.4691 154.708 60.4545 154.686 60.4449 154.662C60.4354 154.639 60.4312 154.614 60.4324 154.588C60.4338 154.563 60.4406 154.538 60.4526 154.516C60.4646 154.493 60.4814 154.474 60.5017 154.458C60.5221 154.443 60.5456 154.433 60.5706 154.427C60.5954 154.422 60.6213 154.422 60.646 154.428H60.628ZM56.674 142.428C56.9221 142.228 57.2049 142.076 57.508 141.978C57.508 141.198 57.448 140.778 58.066 141.24C58.2465 141.387 58.4078 141.557 58.546 141.744C58.8246 141.66 59.1131 141.614 59.404 141.606C59.488 141.606 59.542 141.654 59.536 141.738C59.4335 142.048 59.2793 142.338 59.08 142.596C59.2531 142.865 59.36 143.172 59.392 143.49C59.338 143.784 58.876 143.526 58.504 143.418C58.342 143.61 57.844 144.246 57.658 144.102C57.472 143.958 57.574 143.586 57.55 143.082C57.184 142.95 56.44 142.71 56.692 142.428H56.674ZM54.466 147.72C54.4912 147.715 54.517 147.716 54.5418 147.723C54.5665 147.729 54.5896 147.741 54.6093 147.757C54.6289 147.774 54.6448 147.794 54.6557 147.817C54.6666 147.84 54.6722 147.866 54.6722 147.891C54.6722 147.917 54.6666 147.942 54.6557 147.965C54.6448 147.988 54.6289 148.008 54.6093 148.025C54.5896 148.041 54.5665 148.053 54.5418 148.06C54.517 148.066 54.4912 148.067 54.466 148.062C54.4408 148.065 54.4151 148.063 54.3909 148.055C54.3666 148.047 54.3444 148.034 54.3258 148.017C54.3071 148 54.2925 147.978 54.2829 147.954C54.2734 147.931 54.2692 147.906 54.2704 147.88C54.2718 147.855 54.2786 147.83 54.2906 147.808C54.3026 147.785 54.3194 147.766 54.3397 147.75C54.3601 147.735 54.3836 147.725 54.4086 147.719C54.4334 147.714 54.4593 147.714 54.484 147.72H54.466ZM112.336 167.646C110.14 170.508 77.35 186.42 74.158 187.961C66.664 179.064 55 162.84 48.16 153.372L54.34 152.562C58.192 158.64 64.096 157.23 67.264 159.162C70.828 161.34 72.664 162.984 73.744 167.208C75.214 172.95 73.3601 175.428 77.6561 177.258C81.7721 179.004 89.944 178.302 93.256 172.62C96.568 166.938 90.082 164.454 84.256 161.82C78.43 159.186 79.456 155.538 80.248 154.506C80.8528 153.721 81.5543 153.015 82.336 152.406C82.6317 152.407 82.9224 152.331 83.1792 152.184C83.4361 152.038 83.6501 151.827 83.8 151.572C84.502 151.95 111.13 166.956 112.354 167.646H112.336ZM90.136 174.72C90.1439 174.72 90.1514 174.722 90.159 174.725C90.1665 174.728 90.1729 174.732 90.1785 174.738C90.184 174.743 90.1884 174.75 90.1915 174.757C90.1944 174.765 90.196 174.772 90.196 174.78C90.196 174.788 90.1944 174.796 90.1915 174.803C90.1884 174.81 90.184 174.817 90.1785 174.822C90.1729 174.828 90.1665 174.833 90.159 174.836C90.1514 174.839 90.1439 174.84 90.136 174.84C90.128 174.84 90.1205 174.838 90.1135 174.834C90.106 174.831 90.1 174.826 90.0945 174.821C90.0889 174.815 90.085 174.808 90.0825 174.8C90.08 174.792 90.0785 174.785 90.079 174.777C90.0794 174.769 90.0814 174.762 90.0849 174.754C90.088 174.747 90.093 174.741 90.099 174.736C90.1044 174.73 90.1114 174.726 90.1189 174.724C90.1265 174.721 90.134 174.72 90.142 174.72H90.136ZM91.672 168.642C91.6 168.69 91.492 168.642 91.324 168.558C91.06 168.852 90.934 168.936 90.964 168.438C90.706 168.354 90.562 168.312 90.802 168.174C90.874 168.135 90.9504 168.105 91.03 168.084C91.096 167.67 91.15 167.664 91.378 168.012C91.4885 167.985 91.6034 167.985 91.714 168.012C91.798 168.06 91.66 168.174 91.564 168.288C91.6 168.372 91.744 168.6 91.678 168.642H91.672ZM82.816 152.046C82.5846 152.123 82.3363 152.132 82.0996 152.074C81.8629 152.015 81.6475 151.892 81.478 151.716H81.532C82.666 151.542 82.498 151.074 83.086 150.786C83.14 150.846 83.086 150.828 84.04 150.9C83.7991 151.428 83.3592 151.841 82.816 152.046ZM84.202 149.646C84.1152 149.808 84.0816 149.993 84.1061 150.174C84.1061 150.216 84.064 150.408 84.04 150.588L83.392 150.534C83.392 150.504 83.818 149.49 83.848 149.394H84.256L84.202 149.646ZM84.0821 147.96C83.6681 148.734 83.4821 150.174 83.1161 149.922C82.9882 149.789 82.9153 149.614 82.9121 149.43C82.8928 149.084 82.9417 148.738 83.0561 148.41C83.1539 148.067 83.3261 147.749 83.5604 147.479C83.7947 147.21 84.0856 146.994 84.4121 146.85C84.0941 148.074 84.1841 147.798 84.0821 147.984V147.96ZM84.514 148.866C84.61 148.584 84.7421 148.17 84.9281 147.63C85.0061 147.588 85.024 147.63 85.126 147.882C85.288 148.302 84.34 149.37 84.34 149.37C84.4 149.196 84.466 149.028 84.514 148.89V148.866ZM101.458 138.468C99.34 141.654 97.768 143.082 95.296 144.468C92.8865 145.75 90.3239 146.722 87.67 147.36C86.602 147.69 85.7081 150.06 84.5381 150.168C84.4061 150.168 84.316 150.168 84.424 149.868C84.694 149.118 85.672 148.494 85.39 147.78C85.3542 147.672 85.306 147.57 85.246 147.474C85.1974 147.396 85.1232 147.336 85.036 147.306C85.072 147.186 85.192 146.838 85.354 146.346C85.492 146.25 85.588 146.22 86.218 145.848C88.33 144.6 89.158 142.362 90.934 140.268C91.8719 139.121 92.967 138.111 94.186 137.268C94.276 137.214 94.126 137.304 94.822 135.108C95.224 133.842 95.692 132.504 95.83 132.108C95.8559 132.112 95.881 132.121 95.9025 132.136C95.9244 132.15 95.943 132.17 95.956 132.192C96.112 132.486 96.082 133.05 96.214 133.392C96.526 134.148 97.3 133.134 98.014 133.152C98.614 133.152 98.614 133.842 99.214 134.016C99.664 134.148 100.114 133.872 100.534 134.07C101.084 135.006 101.732 135.881 102.466 136.68C102.193 137.317 101.855 137.925 101.458 138.492V138.468ZM105.142 138.66C103.326 137.362 101.808 135.69 100.69 133.758C99.952 132.474 99.268 131.04 99.034 127.44C99.1754 127.416 99.316 127.383 99.454 127.344L99.58 128.544C100.241 129.045 100.939 129.494 101.668 129.888C101.668 129.888 101.158 132.774 103.468 136.488C104.578 138.312 105.142 138.684 105.142 138.684V138.66ZM116.296 146.4C116.404 147.708 115.216 154.848 115.054 155.82C115.044 155.824 115.036 155.829 115.028 155.837C115.021 155.843 115.015 155.853 115.012 155.862C115.09 155.568 113.74 160.11 113.638 161.532C113.638 161.646 113.638 161.592 114.664 162.48C115.012 162.786 116.206 163.8 116.266 164.154C116.293 164.246 116.293 164.344 116.266 164.436C115.73 163.868 115.09 163.408 114.382 163.08C114.369 163.072 114.354 163.07 114.339 163.073C114.324 163.076 114.312 163.085 114.304 163.098C114.296 163.11 114.293 163.126 114.297 163.14C114.3 163.156 114.309 163.168 114.322 163.176L114.808 163.572C115.294 163.902 115.741 164.286 116.14 164.718C116.08 164.868 115.948 164.88 115.792 164.838C115.792 164.526 114.424 163.77 113.992 163.512C113.926 163.476 113.866 163.572 113.932 163.608C114.534 163.956 115.096 164.37 115.606 164.844C115.414 165.276 114.832 164.658 112.714 163.788C112.332 163.617 111.928 163.499 111.514 163.44C111.486 163.438 111.458 163.445 111.434 163.461C111.41 163.476 111.392 163.498 111.382 163.524C111.328 163.68 111.496 163.674 112.036 164.22C112.151 164.321 112.25 164.438 112.33 164.568C111.97 164.61 111.607 164.526 111.304 164.328C111.063 164.167 110.874 163.942 110.757 163.677C110.64 163.413 110.601 163.12 110.644 162.834C110.746 162.234 111.34 161.928 111.094 161.394C110.848 160.86 110.344 157.392 110.272 156.894C109.606 152.388 109.858 152.292 109.732 152.256C109.732 146.004 109.93 145.98 109.882 145.656C109.882 145.59 108.538 136.362 108.526 136.29C108.922 136.29 109.204 136.728 109.426 137.088C109.75 137.604 110.026 137.94 110.674 137.742C111.322 137.544 111.874 136.998 112.474 136.782C113.074 136.566 113.392 136.782 114.046 136.992C114.298 137.112 114.582 137.147 114.856 137.089C115.129 137.032 115.376 136.886 115.558 136.674C116.602 135.804 116.11 135.588 118.246 136.428C117.832 138.042 116.902 142.602 116.884 142.674C116.505 143.88 116.307 145.136 116.296 146.4ZM108.454 135.996C107.983 136.166 107.524 136.366 107.08 136.596C106.978 136.596 106.936 136.596 106.906 136.476C106.72 135.618 108.904 125.46 114.346 125.076C116.83 124.908 118.546 129.366 119.296 131.742C119.789 133.252 120.173 134.796 120.442 136.362C120.55 137.448 117.382 135.414 116.47 135.624C116.11 135.708 115.948 136.014 115.432 136.446C114.916 136.878 114.652 136.878 114.196 136.716C113.657 136.421 113.026 136.344 112.432 136.5C111.796 136.728 111.268 137.262 110.632 137.46C110.092 137.634 109.924 137.262 109.618 136.782C109.312 136.302 109 135.894 108.454 135.972V135.996ZM117.394 141.66C117.646 140.664 118.09 138.6 118.42 136.44C118.972 136.656 120.178 137.184 120.58 136.8C120.64 136.736 120.683 136.658 120.706 136.574C120.729 136.488 120.731 136.4 120.712 136.314C120.494 135.048 120.194 133.797 119.812 132.57C119.008 129.9 117.13 124.77 114.334 124.944C108.658 125.34 106.444 135.582 106.636 136.506C106.641 136.566 106.66 136.623 106.692 136.674C106.723 136.725 106.765 136.768 106.816 136.8C106.866 136.831 106.923 136.851 106.983 136.858C107.042 136.864 107.102 136.857 107.158 136.836C107.5 136.752 107.986 136.38 108.43 136.278C108.496 137.37 108.622 138.822 108.886 140.7C107.874 140.302 106.896 139.82 105.964 139.26C104.081 137.432 102.755 135.108 102.136 132.558C101.925 131.724 101.804 130.869 101.776 130.008C102.865 130.617 103.996 131.148 105.16 131.598C105.179 131.606 105.2 131.609 105.221 131.607C105.241 131.604 105.261 131.598 105.279 131.586C105.296 131.576 105.311 131.561 105.322 131.543C105.332 131.525 105.338 131.505 105.34 131.484C105.559 129.789 106.278 128.198 107.404 126.912C108.551 125.64 110.076 124.77 111.754 124.428C111.781 124.424 111.806 124.41 111.825 124.392C111.845 124.372 111.858 124.347 111.863 124.32C111.867 124.293 111.863 124.265 111.851 124.241C111.839 124.216 111.82 124.195 111.796 124.182C110.607 123.496 109.381 122.877 108.124 122.328C107.345 121.966 106.528 121.692 105.688 121.512C105.85 121.064 105.959 120.599 106.012 120.126C107.212 119.616 113.266 120.366 117.346 119.94C117.964 119.902 118.577 119.803 119.176 119.646C122.854 119.544 128.392 124.068 129.412 126.108C130.432 128.148 130.27 130.698 128.008 133.872C125.878 136.842 118.222 141.174 117.4 141.636L117.394 141.66ZM133.72 153.774C134.554 151.146 133.234 148.686 132.76 147.924L136.732 147.816C137.243 148.119 137.633 148.59 137.836 149.148C138.161 149.985 138.334 150.873 138.346 151.77C137.158 152.304 134.956 153.312 133.72 153.75V153.774ZM138.604 151.608C138.571 150.729 138.367 149.865 138.004 149.064C137.763 148.499 137.341 148.03 136.804 147.732C137.043 147.475 137.333 147.27 137.656 147.132C137.656 147.324 137.422 147.732 137.704 147.774C137.986 147.816 138.016 147.54 138.19 147.45C138.262 147.414 138.406 147.408 138.346 147.564C138.286 147.72 138.154 147.954 138.292 148.164C138.393 148.284 138.533 148.364 138.688 148.392C138.724 148.392 138.484 148.56 138.418 148.752C138.402 148.798 138.405 148.847 138.425 148.89C138.445 148.935 138.481 148.968 138.526 148.986C138.73 149.064 139.084 148.86 139.306 149.082C139.396 149.178 139.348 149.268 139.234 149.334C138.958 149.508 138.922 149.712 139.18 149.934C139.309 150.024 139.425 150.134 139.522 150.258C139.333 150.257 139.15 150.318 139 150.432C138.971 150.454 138.948 150.482 138.932 150.514C138.916 150.546 138.908 150.582 138.908 150.618C138.908 150.654 138.916 150.69 138.932 150.722C138.948 150.754 138.971 150.782 139 150.804C139.132 150.918 139.456 151.038 139.528 151.14C139.242 151.331 138.931 151.48 138.604 151.584V151.608ZM145.882 147.456C145.636 148.458 140.236 150.876 139.852 151.056C139.786 150.822 139.408 150.708 139.252 150.594C139.42 150.504 139.756 150.54 139.822 150.33C139.888 150.12 139.42 149.772 139.312 149.634C139.414 149.538 139.78 149.364 139.618 149.034C139.544 148.91 139.433 148.812 139.3 148.755C139.168 148.698 139.021 148.685 138.88 148.716H138.79C138.922 148.548 139.138 148.332 138.94 148.188C138.742 148.044 138.61 148.188 138.508 147.99C139.078 148.062 139.546 148.14 139.906 148.218C139.918 148.22 139.93 148.219 139.942 148.216C139.953 148.212 139.964 148.206 139.973 148.198C139.982 148.19 139.99 148.18 139.994 148.169C139.999 148.158 140.002 148.146 140.002 148.134C140.002 148.374 139.834 146.748 140.686 146.556C141.066 146.516 141.451 146.57 141.805 146.713C142.16 146.856 142.474 147.085 142.72 147.378C142.734 147.396 142.753 147.409 142.774 147.416C142.795 147.424 142.818 147.425 142.84 147.42C143.062 147.378 144.904 147 145.642 147.27C145.726 147.264 145.9 147.348 145.882 147.432V147.456Z" fill="#212121"/>
</svg>
