<svg width="80" height="80" viewBox="0 0 80 80" fill="none" xmlns="http://www.w3.org/2000/svg">
<g clip-path="url(#clip0_2108_44012)">
<rect width="80" height="80" rx="22" fill="none"/>
<path d="M14.4557 16.6602C14.4489 17.8975 15.1666 19.1279 16.7389 19.6406L15.9596 20.9531C14.859 20.5635 14.1071 19.8457 13.6627 18.957C13.2252 19.9346 12.4664 20.7207 11.3248 21.1445L10.5319 19.8594C12.0973 19.2715 12.7946 17.9863 12.8014 16.6602V16.5918H10.8737V15.2246H12.8014V13.9395H14.4557V15.2246H16.3698V16.5918H14.4557V16.6602ZM12.6237 23.373V21.9648H21.2233V26.2578H19.487V23.373H12.6237ZM16.9303 21.4043V14.0215H18.5709V16.9473H19.569V13.8301H21.2233V21.4316H19.569V18.3555H18.5709V21.4043H16.9303ZM27.4746 14.6367L24.2754 26.4902H22.5391L25.7246 14.6367H27.4746ZM38.142 14.3223V15.1699C38.1488 15.9697 38.1488 16.9678 37.9027 18.2188H39.4955V19.5859H28.1068V18.2188H36.1459C36.3441 17.207 36.3851 16.3936 36.3988 15.7031H29.5013V14.3223H38.142ZM29.392 21.8145V20.4609H38.0873V23.9473H31.142V24.8223H38.4291V26.1621H29.4056V22.6348H36.3646V21.8145H29.392Z" fill="#121212"/>
<g opacity="0.15" clip-path="url(#clip1_2108_44012)">
<path d="M52.5 47.3438C52.5 45.1889 53.356 43.1222 54.8798 41.5985C56.4035 40.0748 58.4701 39.2188 60.625 39.2188H76.875C77.4137 39.2188 77.9304 39.4328 78.3113 39.8137C78.6922 40.1946 78.9062 40.7113 78.9062 41.25V73.75C78.9062 74.2887 78.6922 74.8054 78.3113 75.1863C77.9304 75.5672 77.4137 75.7812 76.875 75.7812H60.625C58.4701 75.7812 56.4035 76.6373 54.8798 78.161C53.356 79.6847 52.5 81.7514 52.5 83.9062" stroke="#1090B8" stroke-width="4" stroke-linecap="round" stroke-linejoin="round"/>
<path d="M27 73.5312C27 74.07 27.214 74.5866 27.5949 74.9676C27.9759 75.3485 28.4925 75.5625 29.0312 75.5625H45.2812C47.4361 75.5625 49.5028 76.4185 51.0265 77.9423C52.5502 79.466 53.4062 81.5326 53.4062 83.6875V47.125C53.4062 44.9701 52.5502 42.9035 51.0265 41.3798C49.5028 39.856 47.4361 39 45.2812 39H29.0312C28.4925 39 27.9759 39.214 27.5949 39.5949C27.214 39.9759 27 40.4925 27 41.0312V73.5312Z" stroke="#1090B8" stroke-width="4" stroke-linecap="round" stroke-linejoin="round"/>
<path d="M60.625 49.375H70.7812" stroke="#1090B8" stroke-width="4" stroke-linecap="round" stroke-linejoin="round"/>
<path d="M60.625 57.5H70.7812" stroke="#1090B8" stroke-width="4" stroke-linecap="round" stroke-linejoin="round"/>
<path d="M60.625 65.625H70.7812" stroke="#1090B8" stroke-width="4" stroke-linecap="round" stroke-linejoin="round"/>
</g>
</g>
<defs>
<clipPath id="clip0_2108_44012">
<rect width="80" height="80" rx="22" fill="white"/>
</clipPath>
<clipPath id="clip1_2108_44012">
<rect width="65" height="65" fill="white" transform="translate(20 25)"/>
</clipPath>
</defs>
</svg>
