<svg width="81" height="80" viewBox="0 0 81 80" fill="none" xmlns="http://www.w3.org/2000/svg">
<g clip-path="url(#clip0_2108_44021)">
<rect x="0.666504" width="80" height="80" rx="22" fill="none"/>
<path d="M17.0642 21.5684C19.7849 21.5684 21.4939 22.4297 21.5076 23.9199C21.4939 25.3896 19.7849 26.2646 17.0642 26.2578C14.364 26.2646 12.6277 25.3896 12.6346 23.9199C12.6277 22.4297 14.364 21.5684 17.0642 21.5684ZM11.4861 20.7754V19.3672H15.7244V17.1934H17.4471V19.3672H22.7791V20.7754H11.4861ZM12.7576 15.7441V14.377H21.4392V15.3887C21.4461 16.3799 21.4461 17.4463 21.0838 18.7246L19.3748 18.5605C19.6551 17.4326 19.6892 16.5918 19.7029 15.7441H12.7576ZM14.3709 23.9199C14.364 24.5898 15.3484 24.9316 17.0642 24.9316C18.7801 24.9316 19.7713 24.5898 19.7713 23.9199C19.7713 23.2295 18.7801 22.8604 17.0642 22.8672C15.3484 22.8604 14.364 23.2295 14.3709 23.9199ZM34.1847 13.8301V22.9219H32.4484V19.9688H29.6046C29.0031 20.6045 28.1417 20.9941 27.171 20.9941C25.2843 20.9941 23.8488 19.627 23.8624 17.7812C23.8488 15.9082 25.2843 14.5479 27.171 14.541C28.1349 14.5479 28.9962 14.9307 29.5978 15.5664H32.4484V13.8301H34.1847ZM25.5167 17.7812C25.5099 18.8203 26.2003 19.4492 27.171 19.4492C28.0871 19.4492 28.7912 18.8203 28.798 17.7812C28.7912 16.7285 28.0871 16.0996 27.171 16.0996C26.2003 16.0996 25.5099 16.7285 25.5167 17.7812ZM25.9269 26.0391V22.0059H27.6769V24.6445H34.4855V26.0391H25.9269ZM30.3497 16.9609C30.4181 17.2207 30.4523 17.4941 30.4523 17.7812C30.4523 18.0547 30.4181 18.3213 30.3566 18.5742H32.4484V16.9609H30.3497ZM40.6411 14.6367L37.4419 26.4902H35.7056L38.8911 14.6367H40.6411ZM52.621 19.9414V21.3223H47.7948V22.4023H51.2401V26.2441H49.5038V23.7832H42.5311V22.4023H46.0721V21.3223H41.2733V19.9414H52.621ZM41.7518 18.1914C44.452 18.0068 45.7167 17.2002 45.9286 16.3047H42.3671V14.9512H46.0721V13.8301H47.7948V14.9512H51.5272V16.3047H47.9315C48.1366 17.2002 49.3944 18.0068 52.1151 18.1914L51.5819 19.4902C49.2919 19.333 47.7128 18.6768 46.9266 17.6719C46.1473 18.6768 44.5614 19.333 42.285 19.4902L41.7518 18.1914ZM64.2727 13.8164V26.2578H62.6184V13.8164H64.2727ZM53.2531 22.6211C55.0852 21.4932 55.7688 19.2646 55.7688 17.1523V16.4824H53.7317V15.0879H59.3371V16.4824H57.4504V17.1523C57.4436 19.2168 58.093 21.3086 59.9113 22.3477L58.886 23.6328C57.7717 22.9766 57.0471 21.8691 56.6233 20.5293C56.1994 21.9785 55.4475 23.209 54.3059 23.9062L53.2531 22.6211ZM58.4485 19.4902V18.082H60.0891V14.0215H61.7297V25.6836H60.0891V19.4902H58.4485Z" fill="#121212"/>
<g opacity="0.15" clip-path="url(#clip1_2108_44021)">
<path d="M45.125 44.9062V78.0938" stroke="#7353F4" stroke-width="4" stroke-linecap="round" stroke-linejoin="round"/>
<path d="M28.5312 70.5321C28.5317 70.1074 28.6787 69.696 28.9474 69.3672C29.2162 69.0384 29.5902 68.8124 30.0062 68.7275C31.6734 68.389 33.1723 67.4845 34.2489 66.1673C35.3255 64.8501 35.9136 63.2012 35.9136 61.5C35.9136 59.7988 35.3255 58.1499 34.2489 56.8327C33.1723 55.5155 31.6734 54.611 30.0062 54.2725C29.5902 54.1876 29.2162 53.9616 28.9474 53.6328C28.6787 53.304 28.5317 52.8926 28.5312 52.4679V46.75C28.5312 46.261 28.7255 45.792 29.0713 45.4463C29.417 45.1005 29.886 44.9062 30.375 44.9062H74.625C75.114 44.9062 75.583 45.1005 75.9287 45.4463C76.2745 45.792 76.4688 46.261 76.4688 46.75V52.4679C76.4683 52.8926 76.3213 53.304 76.0526 53.6328C75.7838 53.9616 75.4098 54.1876 74.9938 54.2725C73.3266 54.611 71.8277 55.5155 70.7511 56.8327C69.6745 58.1499 69.0864 59.7988 69.0864 61.5C69.0864 63.2012 69.6745 64.8501 70.7511 66.1673C71.8277 67.4845 73.3266 68.389 74.9938 68.7275C75.4098 68.8124 75.7838 69.0384 76.0526 69.3672C76.3213 69.696 76.4683 70.1074 76.4688 70.5321V76.25C76.4688 76.739 76.2745 77.208 75.9287 77.5537C75.583 77.8995 75.114 78.0938 74.625 78.0938H30.375C29.886 78.0938 29.417 77.8995 29.0713 77.5537C28.7255 77.208 28.5312 76.739 28.5312 76.25V70.5321Z" stroke="#7353F4" stroke-width="4" stroke-linecap="round" stroke-linejoin="round"/>
</g>
</g>
<defs>
<clipPath id="clip0_2108_44021">
<rect x="0.666504" width="80" height="80" rx="22" fill="white"/>
</clipPath>
<clipPath id="clip1_2108_44021">
<rect width="59" height="59" fill="white" transform="translate(23 32)"/>
</clipPath>
</defs>
</svg>
