<svg width="80" height="80" viewBox="0 0 80 80" fill="none" xmlns="http://www.w3.org/2000/svg">
<g clip-path="url(#clip0_2108_44035)">
<rect width="80" height="80" rx="22" fill="none"/>
<path d="M21.4866 13.8164V26.2578H19.846V13.8164H21.4866ZM10.5491 22.4434C13.0648 20.9531 14.1722 19.1416 14.4114 16.7012H11.2327V15.293H16.1409C16.1409 16.4824 16.0111 17.5898 15.7103 18.6152H17.2073V14.0898H18.8343V25.7109H17.2073V19.9961H15.1702C14.4593 21.418 13.304 22.6484 11.5335 23.6738L10.5491 22.4434ZM33.3571 13.8301V20.8574H31.6071V13.8301H33.3571ZM23.1305 17.3984C23.1305 15.6211 24.5934 14.3906 26.5348 14.3906C28.4694 14.3906 29.9323 15.6211 29.9391 17.3984C29.9323 19.1074 28.4694 20.3652 26.5348 20.3652C24.5934 20.3652 23.1305 19.1074 23.1305 17.3984ZM24.8395 17.3984C24.8259 18.3213 25.5368 18.9023 26.5348 18.9023C27.5055 18.9023 28.2096 18.3213 28.2165 17.3984C28.2096 16.4209 27.5055 15.8535 26.5348 15.8535C25.5368 15.8535 24.8259 16.4209 24.8395 17.3984ZM25.0173 26.1211V21.418H33.3571V26.1211H25.0173ZM26.7399 24.7266H31.6481V22.7988H26.7399V24.7266Z" fill="#121212"/>
<g opacity="0.15" clip-path="url(#clip1_2108_44035)">
<path d="M44.375 66.6875H26.25C25.2886 66.6875 24.3666 66.3056 23.6867 65.6258C23.0069 64.9459 22.625 64.0239 22.625 63.0625V46.75C22.625 45.7886 23.0069 44.8666 23.6867 44.1867C24.3666 43.5069 25.2886 43.125 26.25 43.125H44.375" stroke="#4F4E55" stroke-width="4" stroke-linecap="round" stroke-linejoin="round"/>
<path d="M44.375 73.9375H33.5" stroke="#4F4E55" stroke-width="4" stroke-linecap="round" stroke-linejoin="round"/>
<path d="M66.125 41.3125H58.875" stroke="#4F4E55" stroke-width="4" stroke-linecap="round" stroke-linejoin="round"/>
<path d="M66.125 48.5625H58.875" stroke="#4F4E55" stroke-width="4" stroke-linecap="round" stroke-linejoin="round"/>
<path d="M71.5625 34.0625H53.4375C52.4365 34.0625 51.625 34.874 51.625 35.875V72.125C51.625 73.126 52.4365 73.9375 53.4375 73.9375H71.5625C72.5635 73.9375 73.375 73.126 73.375 72.125V35.875C73.375 34.874 72.5635 34.0625 71.5625 34.0625Z" stroke="#4F4E55" stroke-width="4" stroke-linecap="round" stroke-linejoin="round"/>
<path d="M38.9375 66.6875V73.9375" stroke="#4F4E55" stroke-width="4" stroke-linecap="round" stroke-linejoin="round"/>
<path d="M62.5 68.5C64.0015 68.5 65.2188 67.2828 65.2188 65.7812C65.2188 64.2797 64.0015 63.0625 62.5 63.0625C60.9985 63.0625 59.7812 64.2797 59.7812 65.7812C59.7812 67.2828 60.9985 68.5 62.5 68.5Z" fill="#4F4E55"/>
</g>
</g>
<defs>
<clipPath id="clip0_2108_44035">
<rect width="80" height="80" rx="22" fill="white"/>
</clipPath>
<clipPath id="clip1_2108_44035">
<rect width="58" height="58" fill="white" transform="translate(19 25)"/>
</clipPath>
</defs>
</svg>
