<svg width="81" height="80" viewBox="0 0 81 80" fill="none" xmlns="http://www.w3.org/2000/svg">
<rect x="0.333496" width="80" height="80" rx="22" fill="#E2E1E7"/>
<path d="M21.2797 13.8164V21.1992H19.5434V18.2598H17.602V16.8516H19.5434V13.8164H21.2797ZM10.7114 19.832C12.7485 19.1484 13.6782 17.5215 13.7192 15.9629H11.2172V14.5684H17.9712V15.9629H15.4965C15.5307 17.4121 16.4194 18.875 18.354 19.5176L17.4926 20.8848C16.1255 20.4404 15.1753 19.5381 14.6352 18.4238C14.0883 19.6885 13.0903 20.707 11.6137 21.2129L10.7114 19.832ZM12.7485 23.8789C12.7485 22.3682 14.3755 21.4795 17.0278 21.4727C19.687 21.4795 21.3139 22.3682 21.3208 23.8789C21.3139 25.3896 19.687 26.2715 17.0278 26.2715C14.3755 26.2715 12.7485 25.3896 12.7485 23.8789ZM14.4848 23.8789C14.4848 24.5898 15.3803 24.9453 17.0278 24.9453C18.6821 24.9453 19.5776 24.5898 19.5844 23.8789C19.5776 23.1611 18.6821 22.8057 17.0278 22.8125C15.3803 22.8057 14.4848 23.1611 14.4848 23.8789ZM33.492 13.8164V26.2578H31.7283V13.8164H33.492ZM23.074 22.7305C26.2869 21.2129 27.702 19.2441 27.9822 16.4824H23.744V15.1152H29.7596C29.7528 18.8887 28.4334 22.0264 23.9901 24.125L23.074 22.7305ZM46.6613 23.373V24.8086H35.2726V23.373H40.0715V20.8301H36.4758V14.7324H45.3898V20.8301H41.8078V23.373H46.6613ZM38.1984 19.4629H43.6672V16.127H38.1984V19.4629ZM57.9302 13.8301V20.8574H56.1802V13.8301H57.9302ZM47.7037 17.3984C47.7037 15.6211 49.1665 14.3906 51.1079 14.3906C53.0425 14.3906 54.5054 15.6211 54.5122 17.3984C54.5054 19.1074 53.0425 20.3652 51.1079 20.3652C49.1665 20.3652 47.7037 19.1074 47.7037 17.3984ZM49.4126 17.3984C49.399 18.3213 50.1099 18.9023 51.1079 18.9023C52.0787 18.9023 52.7828 18.3213 52.7896 17.3984C52.7828 16.4209 52.0787 15.8535 51.1079 15.8535C50.1099 15.8535 49.399 16.4209 49.4126 17.3984ZM49.5904 26.1211V21.418H57.9302V26.1211H49.5904ZM51.313 24.7266H56.2212V22.7988H51.313V24.7266Z" fill="#121212"/>
<g opacity="0.15">
<path d="M69.875 32.75H64.8125V31.0625C64.8125 30.6149 64.6347 30.1857 64.3182 29.8693C64.0018 29.5528 63.5726 29.375 63.125 29.375C62.6774 29.375 62.2482 29.5528 61.9318 29.8693C61.6153 30.1857 61.4375 30.6149 61.4375 31.0625V32.75H44.5625V31.0625C44.5625 30.6149 44.3847 30.1857 44.0682 29.8693C43.7518 29.5528 43.3226 29.375 42.875 29.375C42.4274 29.375 41.9982 29.5528 41.6818 29.8693C41.3653 30.1857 41.1875 30.6149 41.1875 31.0625V32.75H36.125C35.2299 32.75 34.3714 33.1056 33.7385 33.7385C33.1056 34.3714 32.75 35.2299 32.75 36.125V69.875C32.75 70.7701 33.1056 71.6285 33.7385 72.2615C34.3714 72.8944 35.2299 73.25 36.125 73.25H69.875C70.7701 73.25 71.6285 72.8944 72.2615 72.2615C72.8944 71.6285 73.25 70.7701 73.25 69.875V36.125C73.25 35.2299 72.8944 34.3714 72.2615 33.7385C71.6285 33.1056 70.7701 32.75 69.875 32.75ZM41.1875 36.125V37.8125C41.1875 38.2601 41.3653 38.6893 41.6818 39.0057C41.9982 39.3222 42.4274 39.5 42.875 39.5C43.3226 39.5 43.7518 39.3222 44.0682 39.0057C44.3847 38.6893 44.5625 38.2601 44.5625 37.8125V36.125H61.4375V37.8125C61.4375 38.2601 61.6153 38.6893 61.9318 39.0057C62.2482 39.3222 62.6774 39.5 63.125 39.5C63.5726 39.5 64.0018 39.3222 64.3182 39.0057C64.6347 38.6893 64.8125 38.2601 64.8125 37.8125V36.125H69.875V42.875H36.125V36.125H41.1875ZM69.875 69.875H36.125V46.25H69.875V69.875ZM61.7877 51.8061C61.9446 51.9628 62.069 52.1489 62.1539 52.3538C62.2389 52.5586 62.2826 52.7782 62.2826 53C62.2826 53.2218 62.2389 53.4414 62.1539 53.6462C62.069 53.8511 61.9446 54.0372 61.7877 54.1939L51.6627 64.3189C51.5059 64.4758 51.3198 64.6003 51.115 64.6852C50.9101 64.7701 50.6905 64.8138 50.4688 64.8138C50.247 64.8138 50.0274 64.7701 49.8225 64.6852C49.6177 64.6003 49.4316 64.4758 49.2748 64.3189L44.2123 59.2564C43.8957 58.9398 43.7178 58.5103 43.7178 58.0625C43.7178 57.6147 43.8957 57.1852 44.2123 56.8686C44.529 56.5519 44.9584 56.3741 45.4062 56.3741C45.8541 56.3741 46.2835 56.5519 46.6002 56.8686L50.4688 60.7393L59.3998 51.8061C59.5566 51.6492 59.7427 51.5247 59.9475 51.4398C60.1524 51.3549 60.372 51.3112 60.5938 51.3112C60.8155 51.3112 61.0351 51.3549 61.24 51.4398C61.4448 51.5247 61.6309 51.6492 61.7877 51.8061Z" fill="#4F4E55"/>
</g>
</svg>
