<svg width="81" height="80" viewBox="0 0 81 80" fill="none" xmlns="http://www.w3.org/2000/svg">
<g clip-path="url(#clip0_2108_43998)">
<rect x="0.333496" width="80" height="80" rx="22" fill="#ECE8FF"/>
<path d="M15.3872 17.207C15.3803 19.1006 16.3921 21.2881 18.436 22.2383L17.4653 23.6055C16.0776 22.9697 15.0932 21.6982 14.5327 20.208C13.979 21.8486 12.9536 23.2432 11.518 23.9199L10.5063 22.5391C12.5776 21.5752 13.6235 19.2646 13.6372 17.207V16.4414H10.9985V15.0195H17.8891V16.4414H15.3872V17.207ZM18.8598 26.2578V13.8164H20.6098V18.5605H22.4419V20.0234H20.6098V26.2578H18.8598ZM33.492 13.8164V26.2578H31.7283V13.8164H33.492ZM23.074 22.7305C26.2869 21.2129 27.702 19.2441 27.9822 16.4824H23.744V15.1152H29.7596C29.7528 18.8887 28.4334 22.0264 23.9901 24.125L23.074 22.7305ZM46.0597 13.8164V26.2578H44.4191V13.8164H46.0597ZM35.0812 22.4434C37.6037 20.9531 38.7111 19.1416 38.9504 16.7012H35.8058V15.293H40.6867C40.6867 15.915 40.6457 16.5166 40.5705 17.0977H41.8078V14.0898H43.4621V25.7109H41.8078V21.6094H40.0441V20.2012H41.8078V18.5059H40.2834C39.7023 20.5635 38.4308 22.293 36.1066 23.6738L35.0812 22.4434ZM49.6177 14.377V15.8535H52.1607V14.377H53.9107V19.8047H47.8814V14.377H49.6177ZM49.1255 21.9648V20.6113H57.3833V23.9883H50.8619V24.7949H57.7388V26.1758H49.1529V22.7441H55.647V21.9648H49.1255ZM49.6177 18.4375H52.1607V17.166H49.6177V18.4375ZM55.6333 20.1465V13.8164H57.3833V16.2363H59.065V17.6445H57.3833V20.1465H55.6333Z" fill="#121212"/>
<g opacity="0.15">
<path d="M78.5174 39.3228L54.1424 31.1978C53.7254 31.0588 53.2746 31.0588 52.8576 31.1978L28.4826 39.3228C28.0782 39.4576 27.7264 39.7163 27.4771 40.0621C27.2278 40.408 27.0937 40.8236 27.0938 41.2499V61.5624C27.0938 62.1011 27.3078 62.6178 27.6887 62.9987C28.0696 63.3797 28.5863 63.5937 29.125 63.5937C29.6637 63.5937 30.1804 63.3797 30.5613 62.9987C30.9422 62.6178 31.1562 62.1011 31.1562 61.5624V44.0683L39.685 46.9095C37.419 50.5703 36.6984 54.9808 37.6815 59.1724C38.6645 63.364 41.2708 66.9942 44.9281 69.2659C40.3578 71.0585 36.407 74.3009 33.5176 78.7341C33.3673 78.9574 33.2629 79.2084 33.2105 79.4725C33.1581 79.7365 33.1587 80.0083 33.2122 80.2721C33.2658 80.5359 33.3713 80.7865 33.5225 81.0092C33.6737 81.2319 33.8677 81.4223 34.0932 81.5693C34.3187 81.7164 34.5711 81.8172 34.8359 81.8658C35.1006 81.9145 35.3724 81.91 35.6354 81.8527C35.8985 81.7953 36.1475 81.6863 36.368 81.5319C36.5885 81.3775 36.7761 81.1808 36.9199 80.9532C40.7463 75.0829 46.7893 71.7187 53.5 71.7187C60.2107 71.7187 66.2537 75.0829 70.0801 80.9532C70.378 81.396 70.8382 81.7038 71.3612 81.81C71.8842 81.9161 72.428 81.8122 72.8751 81.5207C73.3221 81.2291 73.6364 80.7733 73.75 80.2519C73.8637 79.7304 73.7675 79.1852 73.4824 78.7341C70.593 74.3009 66.6269 71.0585 62.0719 69.2659C65.7257 66.9943 68.3295 63.3665 69.3124 59.1779C70.2953 54.9893 69.577 50.5819 67.315 46.9222L78.5174 43.1897C78.9219 43.055 79.2738 42.7964 79.5232 42.4505C79.7725 42.1046 79.9067 41.689 79.9067 41.2626C79.9067 40.8362 79.7725 40.4206 79.5232 40.0747C79.2738 39.7288 78.9219 39.4702 78.5174 39.3355V39.3228ZM65.6875 55.4687C65.688 57.3954 65.2317 59.2949 64.356 61.0112C63.4804 62.7275 62.2102 64.2117 60.6498 65.342C59.0894 66.4724 57.2833 67.2167 55.3796 67.5138C53.4758 67.811 51.5288 67.6525 49.6981 67.0514C47.8675 66.4504 46.2055 65.4239 44.8484 64.0561C43.4913 62.6883 42.4778 61.0183 41.8912 59.183C41.3045 57.3477 41.1613 55.3994 41.4734 53.4981C41.7855 51.5967 42.544 49.7965 43.6865 48.245L52.8576 51.2919C53.2746 51.4309 53.7254 51.4309 54.1424 51.2919L63.3135 48.245C64.8567 50.3372 65.6887 52.8689 65.6875 55.4687ZM53.5 47.2345L35.5488 41.2499L53.5 35.2653L71.4512 41.2499L53.5 47.2345Z" fill="#7353F4"/>
</g>
</g>
<defs>
<clipPath id="clip0_2108_43998">
<rect x="0.333496" width="80" height="80" rx="22" fill="white"/>
</clipPath>
</defs>
</svg>
