<svg width="80" height="80" viewBox="0 0 80 80" fill="none" xmlns="http://www.w3.org/2000/svg">
<g clip-path="url(#clip0_2108_44059)">
<rect width="80" height="80" rx="22" fill="#D1F4FF"/>
<path d="M20.331 13.8164V17.207H22.0127V18.6426H20.331V22.8125H18.581V13.8164H20.331ZM10.9384 20.7617V14.8145H16.5576V16.209H12.6884V19.3535C14.9443 19.3398 16.1816 19.2646 17.5693 18.9707L17.747 20.3652C16.1816 20.6865 14.7461 20.7617 11.9912 20.7617H10.9384ZM12.2646 26.0391V21.8555H14.0009V24.6445H20.7822V26.0391H12.2646ZM33.1585 13.8164V26.2578H31.3948V13.8164H33.1585ZM22.7405 22.7305C25.9534 21.2129 27.3685 19.2441 27.6488 16.4824H23.4105V15.1152H29.4261C29.4193 18.8887 28.0999 22.0264 23.6566 24.125L22.7405 22.7305ZM46.3278 23.373V24.8086H34.9391V23.373H39.738V20.8301H36.1423V14.7324H45.0563V20.8301H41.4743V23.373H46.3278ZM37.8649 19.4629H43.3337V16.127H37.8649V19.4629ZM57.5967 13.8301V20.8574H55.8467V13.8301H57.5967ZM47.3702 17.3984C47.3702 15.6211 48.833 14.3906 50.7745 14.3906C52.709 14.3906 54.1719 15.6211 54.1787 17.3984C54.1719 19.1074 52.709 20.3652 50.7745 20.3652C48.833 20.3652 47.3702 19.1074 47.3702 17.3984ZM49.0791 17.3984C49.0655 18.3213 49.7764 18.9023 50.7745 18.9023C51.7452 18.9023 52.4493 18.3213 52.4561 17.3984C52.4493 16.4209 51.7452 15.8535 50.7745 15.8535C49.7764 15.8535 49.0655 16.4209 49.0791 17.3984ZM49.2569 26.1211V21.418H57.5967V26.1211H49.2569ZM50.9795 24.7266H55.8877V22.7988H50.9795V24.7266Z" fill="#121212"/>
<g opacity="0.15">
<path d="M80.7902 51.0042C80.7133 50.6786 80.5572 50.3771 80.3357 50.1264C80.1142 49.8757 79.8343 49.6836 79.5207 49.5671L64.8931 44.0802L68.6154 25.4612C68.6997 25.0286 68.641 24.5803 68.4481 24.184C68.2553 23.7877 67.9388 23.4649 67.5464 23.2642C67.154 23.0636 66.7069 22.996 66.2728 23.0717C65.8386 23.1474 65.4408 23.3623 65.1394 23.6839L36.7019 54.1526C36.471 54.396 36.3039 54.6928 36.2156 55.0165C36.1273 55.3402 36.1206 55.6807 36.1961 56.0076C36.2715 56.3346 36.4268 56.6377 36.648 56.89C36.8691 57.1423 37.1494 57.3358 37.4636 57.4534L52.0963 62.9403L48.3842 81.5389C48.2999 81.9715 48.3586 82.4198 48.5514 82.8161C48.7442 83.2124 49.0608 83.5353 49.4532 83.7359C49.8456 83.9366 50.2926 84.0042 50.7268 83.9285C51.161 83.8528 51.5588 83.6379 51.8601 83.3163L80.2976 52.8475C80.5244 52.6041 80.6879 52.3087 80.7738 51.9873C80.8597 51.6659 80.8653 51.3283 80.7902 51.0042ZM53.7695 75.336L56.4279 62.0364C56.523 61.5647 56.4477 61.0746 56.2152 60.6533C55.9827 60.232 55.6082 59.907 55.1584 59.736L41.742 54.696L63.2275 31.6768L60.5717 44.9764C60.4765 45.4481 60.5519 45.9383 60.7844 46.3595C61.0169 46.7808 61.3914 47.1059 61.8412 47.2768L75.2474 52.3042L53.7695 75.336Z" fill="#1090B8"/>
</g>
</g>
<defs>
<clipPath id="clip0_2108_44059">
<rect width="80" height="80" rx="22" fill="white"/>
</clipPath>
</defs>
</svg>
