<svg width="80" height="80" viewBox="0 0 80 80" fill="none" xmlns="http://www.w3.org/2000/svg">
<g clip-path="url(#clip0_2108_44047)">
<rect width="80" height="80" rx="22" fill="#ECE8FF"/>
<path d="M14.0009 14.1855C15.8945 14.1787 17.3164 15.3682 17.3232 17.0293C17.3164 18.6768 15.8945 19.8525 14.0009 19.8594C12.08 19.8525 10.6513 18.6768 10.6513 17.0293C10.6513 15.3682 12.08 14.1787 14.0009 14.1855ZM12.3466 17.0293C12.333 17.918 13.0371 18.4443 14.0009 18.4512C14.9443 18.4443 15.6347 17.918 15.6416 17.0293C15.6347 16.1338 14.9443 15.6074 14.0009 15.6074C13.0439 15.6074 12.333 16.1338 12.3466 17.0293ZM12.5244 21.9102V20.5703H20.8779V23.9473H14.2607V24.7539H21.2197V26.1211H12.5517V22.6758H19.1416V21.9102H12.5244ZM19.1279 20.0508V13.8164H20.8779V20.0508H19.1279ZM26.2405 14.1855C28.1341 14.1787 29.556 15.3682 29.5628 17.0293C29.556 18.6768 28.1341 19.8525 26.2405 19.8594C24.3196 19.8525 22.8909 18.6768 22.8909 17.0293C22.8909 15.3682 24.3196 14.1787 26.2405 14.1855ZM24.5863 17.0293C24.5726 17.918 25.2767 18.4443 26.2405 18.4512C27.1839 18.4443 27.8743 17.918 27.8812 17.0293C27.8743 16.1338 27.1839 15.6074 26.2405 15.6074C25.2835 15.6074 24.5726 16.1338 24.5863 17.0293ZM24.764 21.9102V20.5703H33.1175V23.9473H26.5003V24.7539H33.4593V26.1211H24.7913V22.6758H31.3812V21.9102H24.764ZM31.3675 20.0508V13.8164H33.1175V20.0508H31.3675ZM38.822 17.6035C38.822 19.4902 39.4987 21.3838 41.2692 22.334L40.3122 23.6055C39.1911 23.0312 38.446 22.0264 38.0085 20.8164C37.5778 22.1357 36.8327 23.25 35.7048 23.9062L34.7067 22.5938C36.5046 21.5547 37.1677 19.5244 37.1813 17.6035V17.3164H35.1716V15.9219H37.1813V14.2402H38.8083V15.9219H40.777V17.3164H38.822V17.6035ZM40.0524 19.9551V18.5332H41.5153V14.0215H43.1559V25.6836H41.5153V19.9551H40.0524ZM44.0446 26.2578V13.8164H45.6989V26.2578H44.0446ZM57.6651 13.8164V21.3359H55.9287V18.8887H54.3155V17.4668H55.9287V13.8164H57.6651ZM47.2061 16.291V14.8965H50.0225V13.707H51.7452V14.8965H54.5342V16.291H47.2061ZM47.8897 18.9297C47.8897 17.6309 49.1407 16.7012 50.8838 16.7012C52.6338 16.7012 53.8643 17.6309 53.8643 18.9297C53.8643 20.29 52.627 21.1787 50.8838 21.1855C49.1407 21.1787 47.8897 20.29 47.8897 18.9297ZM49.2979 26.1211V21.8691H57.6651V26.1211H49.2979ZM49.5713 18.9297C49.5577 19.5586 50.0704 19.8936 50.8838 19.9004C51.6768 19.8936 52.1963 19.5586 52.1963 18.9297C52.1963 18.3418 51.6768 18.0068 50.8838 18.0137C50.0704 18.0068 49.5577 18.3418 49.5713 18.9297ZM51.0479 24.7266H55.9561V23.2363H51.0479V24.7266Z" fill="#121212"/>
<g opacity="0.15">
<path d="M68.8123 77.8439C68.8123 78.2997 68.6312 78.7369 68.3089 79.0592C67.9866 79.3815 67.5494 79.5626 67.0935 79.5626H49.906C49.4502 79.5626 49.013 79.3815 48.6907 79.0592C48.3684 78.7369 48.1873 78.2997 48.1873 77.8439C48.1873 77.388 48.3684 76.9509 48.6907 76.6285C49.013 76.3062 49.4502 76.1251 49.906 76.1251H67.0935C67.5494 76.1251 67.9866 76.3062 68.3089 76.6285C68.6312 76.9509 68.8123 77.388 68.8123 77.8439ZM77.406 50.3439C77.4135 53.2091 76.7662 56.0382 75.5136 58.6152C74.2611 61.1921 72.4363 63.4489 70.1787 65.2132C69.7566 65.5368 69.414 65.9526 69.1772 66.4288C68.9403 66.9051 68.8155 67.4292 68.8123 67.9611V69.2501C68.8123 70.1618 68.4501 71.0361 67.8055 71.6808C67.1608 72.3254 66.2865 72.6876 65.3748 72.6876H51.6248C50.7131 72.6876 49.8388 72.3254 49.1941 71.6808C48.5495 71.0361 48.1873 70.1618 48.1873 69.2501V67.9611C48.1869 67.4355 48.0661 66.9171 47.8341 66.4456C47.602 65.9741 47.265 65.562 46.8488 65.2411C44.5968 63.4872 42.7733 61.2441 41.5163 58.6813C40.2594 56.1186 39.6018 53.3035 39.5935 50.4491C39.5377 40.2097 47.8135 31.6825 58.0443 31.4376C60.5652 31.3769 63.0727 31.821 65.4194 32.7439C67.766 33.6668 69.9043 35.0498 71.7085 36.8115C73.5126 38.5732 74.9461 40.678 75.9246 43.002C76.9031 45.326 77.4068 47.8223 77.406 50.3439ZM73.9685 50.3439C73.9691 48.2806 73.557 46.2381 72.7563 44.3366C71.9557 42.4351 70.7827 40.7129 69.3065 39.2715C67.8303 37.8301 66.0806 36.6986 64.1605 35.9435C62.2404 35.1885 60.1886 34.8253 58.126 34.8751C49.7471 35.0728 42.9859 42.0487 43.031 50.4277C43.0389 52.7621 43.5776 55.0642 44.6064 57.1598C45.6352 59.2553 47.1271 61.0895 48.9693 62.5234C49.7974 63.1671 50.4673 63.9918 50.9275 64.9343C51.3878 65.8768 51.6263 66.9122 51.6248 67.9611V69.2501H65.3748V67.9611C65.3772 66.9092 65.6198 65.8717 66.0841 64.9279C66.5484 63.984 67.2221 63.1586 68.0539 62.5148C69.9018 61.0707 71.3952 59.2234 72.4203 57.1141C73.4454 55.0047 73.9749 52.6891 73.9685 50.3439ZM70.5074 48.3372C70.0617 45.8478 68.864 43.5547 67.0756 41.7667C65.2871 39.9786 62.9938 38.7814 60.5043 38.3362C60.2817 38.2987 60.0539 38.3054 59.8338 38.3559C59.6138 38.4065 59.4059 38.4998 59.222 38.6307C59.038 38.7616 58.8817 38.9274 58.7618 39.1187C58.642 39.31 58.561 39.523 58.5234 39.7456C58.4859 39.9682 58.4926 40.196 58.5431 40.4161C58.5936 40.6361 58.687 40.844 58.8179 41.0279C58.9487 41.2119 59.1146 41.3682 59.3059 41.4881C59.4972 41.608 59.7102 41.689 59.9328 41.7265C63.4928 42.3259 66.5135 45.3466 67.1172 48.913C67.1852 49.3133 67.3927 49.6766 67.703 49.9385C68.0133 50.2004 68.4063 50.344 68.8123 50.3439C68.9094 50.3433 69.0064 50.3354 69.1023 50.3202C69.5516 50.2435 69.952 49.9915 70.2155 49.6197C70.479 49.2478 70.584 48.7865 70.5074 48.3372Z" fill="#7353F4"/>
</g>
</g>
<defs>
<clipPath id="clip0_2108_44047">
<rect width="80" height="80" rx="22" fill="white"/>
</clipPath>
</defs>
</svg>
