<svg width="80" height="80" viewBox="0 0 80 80" fill="none" xmlns="http://www.w3.org/2000/svg">
<g clip-path="url(#clip0_2108_44002)">
<rect width="80" height="80" rx="22" fill="#E0FFED"/>
<path d="M20.331 13.8301V17.3301H22.0127V18.7656H20.331V22.9902H18.581V13.8301H20.331ZM10.8291 21.0078V14.7051H12.5654V16.5098H15.1084V14.7051H16.8584V21.0078H10.8291ZM12.2646 26.0391V22.0469H14.0009V24.6445H20.7822V26.0391H12.2646ZM12.5654 19.6406H15.1084V17.8496H12.5654V19.6406ZM33.1859 13.8164V26.2852H31.4495V21.2676H29.3167V19.832H31.4495V17.877H29.3577V16.4551H31.4495V13.8164H33.1859ZM23.1097 16.2363V14.8555H28.7015V19.6406H24.8734V22.0674C26.4114 22.0537 27.7718 21.9854 29.3441 21.7461L29.4808 23.168C27.6214 23.4619 26.0355 23.5029 24.1214 23.4961H23.137V18.2871H26.9925V16.2363H23.1097ZM46.3141 19.6953V21.0625H34.9391V19.6953H39.779V18.6289H36.32V14.3633H44.947V15.7168H38.0563V17.2617H45.0153V18.6289H41.488V19.6953H46.3141ZM36.238 23.9883C36.238 22.5117 37.8786 21.6914 40.5993 21.6914C43.2995 21.6914 44.9196 22.5117 44.9333 23.9883C44.9196 25.4443 43.2995 26.2715 40.5993 26.2715C37.8786 26.2715 36.238 25.4443 36.238 23.9883ZM38.0153 23.9883C38.0085 24.6377 38.8766 24.9453 40.5993 24.9453C42.2878 24.9453 43.1764 24.6377 43.1833 23.9883C43.1764 23.3457 42.2878 23.0176 40.5993 23.0176C38.8766 23.0176 38.0085 23.3457 38.0153 23.9883ZM58.5264 18.752V20.1328H53.7139V20.9258H57.1455V24.1113H50.2139V24.8633H57.4737V26.1758H48.5049V22.8809H55.4229V22.2383H48.4912V20.9258H51.9639V20.1328H47.1787V18.752H58.5264ZM48.587 18.0957V14.1719H57.0909V18.0957H48.587ZM50.2959 16.7559H55.3545V15.5254H50.2959V16.7559Z" fill="#121212"/>
<g opacity="0.15" clip-path="url(#clip1_2108_44002)">
<path d="M69.8594 54.5C72.4051 54.5 74.4688 52.4363 74.4688 49.8906C74.4688 47.3449 72.4051 45.2812 69.8594 45.2812C67.3137 45.2812 65.25 47.3449 65.25 49.8906C65.25 52.4363 67.3137 54.5 69.8594 54.5Z" stroke="#1ED066" stroke-width="4" stroke-linecap="round" stroke-linejoin="round"/>
<path d="M31.1406 54.5C33.6863 54.5 35.75 52.4363 35.75 49.8906C35.75 47.3449 33.6863 45.2812 31.1406 45.2812C28.5949 45.2812 26.5312 47.3449 26.5312 49.8906C26.5312 52.4363 28.5949 54.5 31.1406 54.5Z" stroke="#1ED066" stroke-width="4" stroke-linecap="round" stroke-linejoin="round"/>
<path d="M42.2031 43.4375C44.7488 43.4375 46.8125 41.3738 46.8125 38.8281C46.8125 36.2824 44.7488 34.2188 42.2031 34.2188C39.6574 34.2188 37.5938 36.2824 37.5938 38.8281C37.5938 41.3738 39.6574 43.4375 42.2031 43.4375Z" stroke="#1ED066" stroke-width="4" stroke-linecap="round" stroke-linejoin="round"/>
<path d="M58.7969 43.4375C61.3426 43.4375 63.4062 41.3738 63.4062 38.8281C63.4062 36.2824 61.3426 34.2188 58.7969 34.2188C56.2512 34.2188 54.1875 36.2824 54.1875 38.8281C54.1875 41.3738 56.2512 43.4375 58.7969 43.4375Z" stroke="#1ED066" stroke-width="4" stroke-linecap="round" stroke-linejoin="round"/>
<path d="M50.5 48.9688C48.7021 48.9694 46.953 49.5541 45.5161 50.6348C44.0791 51.7155 43.0322 53.2337 42.5327 54.9609C41.7948 57.5013 40.0824 59.647 37.7689 60.9301C36.0895 61.8255 34.8213 63.3356 34.2294 65.1445C33.6376 66.9534 33.768 68.921 34.5933 70.636C35.4187 72.351 36.8751 73.6805 38.658 74.3465C40.4409 75.0125 42.4122 74.9635 44.1598 74.2097C48.221 72.5445 52.7744 72.5445 56.8356 74.2097C58.5832 74.9635 60.5546 75.0125 62.3375 74.3465C64.1204 73.6805 65.5768 72.351 66.4022 70.636C67.2275 68.921 67.3579 66.9534 66.766 65.1445C66.1742 63.3356 64.906 61.8255 63.2265 60.9301C60.9143 59.6466 59.2035 57.5009 58.4673 54.9609C57.9679 53.2337 56.9209 51.7155 55.484 50.6348C54.0471 49.5541 52.298 48.9694 50.5 48.9688Z" stroke="#1ED066" stroke-width="4" stroke-linecap="round" stroke-linejoin="round"/>
</g>
</g>
<defs>
<clipPath id="clip0_2108_44002">
<rect width="80" height="80" rx="22" fill="white"/>
</clipPath>
<clipPath id="clip1_2108_44002">
<rect width="59" height="59" fill="white" transform="translate(21 25)"/>
</clipPath>
</defs>
</svg>
