<svg width="81" height="80" viewBox="0 0 81 80" fill="none" xmlns="http://www.w3.org/2000/svg">
<g clip-path="url(#clip0_2108_44051)">
<rect x="0.666504" width="80" height="80" rx="22" fill="#E0FFED"/>
<path d="M21.784 13.8301V22.9219H20.034V13.8301H21.784ZM11.4754 20.2559C13.533 19.6543 14.449 18.1914 14.4422 16.7148V16.6191H11.8992V15.2656H14.4422V13.8848H16.2196V15.2656H18.7488V16.6191H16.2059V16.7148C16.1922 18.1025 17.1356 19.4834 19.1863 20.0371L18.3524 21.4043C16.9168 21.0078 15.9256 20.1807 15.3582 19.1211C14.7977 20.2764 13.786 21.1924 12.3094 21.6094L11.4754 20.2559ZM13.4442 26.0391V22.1152H15.2078V24.6445H22.1121V26.0391H13.4442ZM33.5178 14.3086V18.6836H30.1408V19.873H34.9533V21.2812H23.6056V19.873H28.3908V18.6836H25.0138V14.3086H33.5178ZM24.8635 23.5645V22.1973H33.5724V26.2578H31.8361V23.5645H24.8635ZM26.7228 17.3164H31.8088V15.6621H26.7228V17.3164Z" fill="#121212"/>
<g opacity="0.15">
<path d="M13.6063 59.9938C13.8722 60.1932 14.1748 60.3383 14.4968 60.4208C14.8188 60.5033 15.1539 60.5216 15.483 60.4746C15.812 60.4276 16.1286 60.3162 16.4147 60.1468C16.7007 59.9775 16.9506 59.7534 17.15 59.4875C18.6826 57.4441 20.6698 55.7856 22.9544 54.6433C25.239 53.501 27.7582 52.9063 30.3125 52.9063C32.8668 52.9063 35.386 53.501 37.6706 54.6433C39.9552 55.7856 41.9424 57.4441 43.475 59.4875C43.8783 60.0241 44.4781 60.3785 45.1427 60.4729C45.8073 60.5672 46.4821 60.3937 47.0188 59.9906C47.2101 59.8483 47.3796 59.6788 47.5218 59.4875C49.0544 57.4441 51.0417 55.7856 53.3263 54.6433C55.6109 53.501 58.1301 52.9063 60.6843 52.9063C63.2386 52.9063 65.7578 53.501 68.0424 54.6433C70.327 55.7856 72.3143 57.4441 73.8468 59.4875C74.2501 60.0246 74.8501 60.3795 75.515 60.4741C76.1799 60.5688 76.8551 60.3954 77.3922 59.9922C77.9292 59.589 78.2841 58.9889 78.3788 58.324C78.4734 57.6592 78.3001 56.9839 77.8968 56.4469C75.6563 53.4431 72.6684 51.0782 69.2305 49.5872C71.1153 47.8664 72.4358 45.6159 73.0187 43.1312C73.6016 40.6465 73.4197 38.0436 72.4969 35.6641C71.574 33.2846 69.9534 31.2397 67.8475 29.7978C65.7417 28.3558 63.2492 27.5842 60.697 27.5842C58.1448 27.5842 55.6523 28.3558 53.5464 29.7978C51.4406 31.2397 49.82 33.2846 48.8971 35.6641C47.9743 38.0436 47.7924 40.6465 48.3753 43.1312C48.9582 45.6159 50.2787 47.8664 52.1635 49.5872C49.6811 50.6606 47.4261 52.1972 45.519 54.1149C43.6119 52.1972 41.3568 50.6606 38.8745 49.5872C40.7592 47.8664 42.0798 45.6159 42.6627 43.1312C43.2456 40.6465 43.0637 38.0436 42.1409 35.6641C41.218 33.2846 39.5973 31.2397 37.4915 29.7978C35.3857 28.3558 32.8932 27.5842 30.341 27.5842C27.7888 27.5842 25.2962 28.3558 23.1904 29.7978C21.0846 31.2397 19.4639 33.2846 18.5411 35.6641C17.6182 38.0436 17.4363 40.6465 18.0193 43.1312C18.6022 45.6159 19.9227 47.8664 21.8075 49.5872C18.3544 51.0733 15.3519 53.4398 13.1 56.45C12.9006 56.7159 12.7554 57.0185 12.6729 57.3406C12.5904 57.6626 12.5722 57.9977 12.6192 58.3267C12.6662 58.6558 12.7776 58.9724 12.9469 59.2584C13.1163 59.5444 13.3403 59.7943 13.6063 59.9938ZM60.6875 32.6563C62.1894 32.6563 63.6576 33.1016 64.9064 33.936C66.1551 34.7705 67.1285 35.9564 67.7032 37.344C68.278 38.7316 68.4283 40.2584 68.1353 41.7315C67.8423 43.2045 67.1191 44.5576 66.0571 45.6196C64.9951 46.6816 63.642 47.4048 62.169 47.6979C60.6959 47.9909 59.1691 47.8405 57.7815 47.2657C56.3939 46.691 55.2079 45.7177 54.3735 44.4689C53.5391 43.2201 53.0938 41.7519 53.0938 40.25C53.0938 38.236 53.8938 36.3045 55.3179 34.8804C56.742 33.4563 58.6735 32.6563 60.6875 32.6563ZM30.3125 32.6563C31.8144 32.6563 33.2826 33.1016 34.5314 33.936C35.7801 34.7705 36.7535 35.9564 37.3282 37.344C37.903 38.7316 38.0533 40.2584 37.7603 41.7315C37.4673 43.2045 36.7441 44.5576 35.6821 45.6196C34.6201 46.6816 33.267 47.4048 31.794 47.6979C30.3209 47.9909 28.7941 47.8405 27.4065 47.2657C26.0189 46.691 24.8329 45.7177 23.9985 44.4689C23.1641 43.2201 22.7188 41.7519 22.7188 40.25C22.7188 38.236 23.5188 36.3045 24.9429 34.8804C26.367 33.4563 28.2985 32.6563 30.3125 32.6563ZM69.2305 82.4934C71.1153 80.7726 72.4358 78.5222 73.0187 76.0375C73.6016 73.5527 73.4197 70.9498 72.4969 68.5703C71.574 66.1908 69.9534 64.1459 67.8475 62.704C65.7417 61.2621 63.2492 60.4905 60.697 60.4905C58.1448 60.4905 55.6523 61.2621 53.5464 62.704C51.4406 64.1459 49.82 66.1908 48.8971 68.5703C47.9743 70.9498 47.7924 73.5527 48.3753 76.0375C48.9582 78.5222 50.2787 80.7726 52.1635 82.4934C49.6811 83.5668 47.4261 85.1035 45.519 87.0212C43.6119 85.1035 41.3568 83.5668 38.8745 82.4934C40.7592 80.7726 42.0798 78.5222 42.6627 76.0375C43.2456 73.5527 43.0637 70.9498 42.1409 68.5703C41.218 66.1908 39.5973 64.1459 37.4915 62.704C35.3857 61.2621 32.8932 60.4905 30.341 60.4905C27.7888 60.4905 25.2962 61.2621 23.1904 62.704C21.0846 64.1459 19.4639 66.1908 18.5411 68.5703C17.6182 70.9498 17.4363 73.5527 18.0193 76.0375C18.6022 78.5222 19.9227 80.7726 21.8075 82.4934C18.3544 83.9796 15.3519 86.346 13.1 89.3563C12.9006 89.6222 12.7554 89.9248 12.6729 90.2468C12.5904 90.5688 12.5722 90.9039 12.6192 91.233C12.6662 91.5621 12.7776 91.8786 12.9469 92.1647C13.1163 92.4507 13.3403 92.7006 13.6063 92.9C13.8722 93.0995 14.1748 93.2446 14.4968 93.3271C14.8188 93.4096 15.1539 93.4278 15.483 93.3808C15.812 93.3338 16.1286 93.2224 16.4147 93.0531C16.7007 92.8837 16.9506 92.6597 17.15 92.3938C18.6826 90.3504 20.6698 88.6918 22.9544 87.5495C25.239 86.4072 27.7582 85.8125 30.3125 85.8125C32.8668 85.8125 35.386 86.4072 37.6706 87.5495C39.9552 88.6918 41.9424 90.3504 43.475 92.3938C43.8783 92.9303 44.4781 93.2848 45.1427 93.3791C45.8073 93.4735 46.4821 93.3 47.0188 92.8969C47.2101 92.7546 47.3796 92.5851 47.5218 92.3938C49.0544 90.3504 51.0417 88.6918 53.3263 87.5495C55.6109 86.4072 58.1301 85.8125 60.6843 85.8125C63.2386 85.8125 65.7578 86.4072 68.0424 87.5495C70.327 88.6918 72.3143 90.3504 73.8468 92.3938C74.2501 92.9308 74.8501 93.2857 75.515 93.3804C76.1799 93.475 76.8551 93.3017 77.3922 92.8984C77.9292 92.4952 78.2841 91.8952 78.3788 91.2303C78.4734 90.5654 78.3001 89.8902 77.8968 89.3531C75.6563 86.3494 72.6684 83.9844 69.2305 82.4934ZM30.3125 65.5625C31.8144 65.5625 33.2826 66.0079 34.5314 66.8423C35.7801 67.6767 36.7535 68.8627 37.3282 70.2503C37.903 71.6378 38.0533 73.1647 37.7603 74.6377C37.4673 76.1108 36.7441 77.4639 35.6821 78.5259C34.6201 79.5879 33.267 80.3111 31.794 80.6041C30.3209 80.8971 28.7941 80.7467 27.4065 80.172C26.0189 79.5972 24.8329 78.6239 23.9985 77.3751C23.1641 76.1263 22.7188 74.6582 22.7188 73.1563C22.7188 71.1423 23.5188 69.2108 24.9429 67.7867C26.367 66.3626 28.2985 65.5625 30.3125 65.5625ZM60.6875 65.5625C62.1894 65.5625 63.6576 66.0079 64.9064 66.8423C66.1551 67.6767 67.1285 68.8627 67.7032 70.2503C68.278 71.6378 68.4283 73.1647 68.1353 74.6377C67.8423 76.1108 67.1191 77.4639 66.0571 78.5259C64.9951 79.5879 63.642 80.3111 62.169 80.6041C60.6959 80.8971 59.1691 80.7467 57.7815 80.172C56.3939 79.5972 55.2079 78.6239 54.3735 77.3751C53.5391 76.1263 53.0938 74.6582 53.0938 73.1563C53.0938 71.1423 53.8938 69.2108 55.3179 67.7867C56.742 66.3626 58.6735 65.5625 60.6875 65.5625Z" fill="#1ED066"/>
</g>
</g>
<defs>
<clipPath id="clip0_2108_44051">
<rect x="0.666504" width="80" height="80" rx="22" fill="white"/>
</clipPath>
</defs>
</svg>
