<svg width="80" height="80" viewBox="0 0 80 80" fill="none" xmlns="http://www.w3.org/2000/svg">
<g clip-path="url(#clip0_2108_43979)">
<rect width="80" height="80" rx="22" fill="none"/>
<g opacity="0.15">
<path d="M60.75 75.7812C57.3845 75.7812 54.6562 73.053 54.6562 69.6875C54.6562 66.322 57.3845 63.5938 60.75 63.5938C64.1155 63.5938 66.8438 66.322 66.8438 69.6875C66.8438 73.053 64.1155 75.7812 60.75 75.7812Z" stroke="#4F4E55" stroke-width="4" stroke-linecap="round" stroke-linejoin="round"/>
<path d="M28.25 75.7812C24.8845 75.7812 22.1562 73.053 22.1562 69.6875C22.1562 66.322 24.8845 63.5938 28.25 63.5938C31.6155 63.5938 34.3438 66.322 34.3438 69.6875C34.3438 73.053 31.6155 75.7812 28.25 75.7812Z" stroke="#4F4E55" stroke-width="4" stroke-linecap="round" stroke-linejoin="round"/>
<path d="M54.6562 69.6875H34.3438" stroke="#4F4E55" stroke-width="4" stroke-linecap="round" stroke-linejoin="round"/>
<path d="M22.1562 69.6875H16.0625C15.5238 69.6875 15.0071 69.4735 14.6262 69.0926C14.2453 68.7116 14.0312 68.195 14.0312 67.6562V57.5C14.0312 56.9613 14.2453 56.4446 14.6262 56.0637C15.0071 55.6828 15.5238 55.4688 16.0625 55.4688H24.1875L35.7809 43.8754C36.1615 43.4952 36.6774 43.2815 37.2154 43.2812H65.757C66.0911 43.2815 66.42 43.364 66.7145 43.5217C67.009 43.6794 67.2601 43.9073 67.4455 44.1852L74.9688 55.4688V67.6562C74.9688 68.195 74.7547 68.7116 74.3738 69.0926C73.9929 69.4735 73.4762 69.6875 72.9375 69.6875H66.8438" stroke="#4F4E55" stroke-width="4" stroke-linecap="round" stroke-linejoin="round"/>
<path d="M24.1875 55.4688H74.9688" stroke="#4F4E55" stroke-width="4" stroke-linecap="round" stroke-linejoin="round"/>
</g>
<path d="M14.1312 14.6914C15.2523 14.6914 16.182 15.2998 16.7493 16.373H19.4769V13.8164H21.1995V26.2852H19.4769V21.623H16.8792C16.3255 22.8535 15.3343 23.5645 14.1312 23.5645C12.2445 23.5645 10.8909 21.8555 10.9046 19.1211C10.8909 16.4072 12.2445 14.6914 14.1312 14.6914ZM12.5726 19.1211C12.5657 20.9736 13.2015 21.9854 14.1312 21.9785C15.0677 21.9854 15.6898 20.9736 15.6898 19.1211C15.6898 17.2754 15.0677 16.2637 14.1312 16.2637C13.2015 16.2637 12.5657 17.2754 12.5726 19.1211ZM17.2347 17.7812C17.3167 18.1914 17.3577 18.6426 17.3577 19.1211C17.3577 19.5107 17.3304 19.8799 17.2757 20.2285H19.4769V17.7812H17.2347ZM33.6305 13.8164V21.623H31.9763V18.3145H30.9782V21.2129H29.3513V14.0488H30.9782V16.8926H31.9763V13.8164H33.6305ZM22.8708 16.4551V15.1016H25.072V13.9258H26.8083V15.1016H28.9821V16.4551H22.8708ZM23.2536 19.0391C23.2468 17.7334 24.3884 16.8652 25.947 16.8652C27.5261 16.8652 28.6608 17.7334 28.6677 19.0391C28.6608 20.3311 27.5261 21.1924 25.947 21.1992C24.3884 21.1924 23.2468 20.3311 23.2536 19.0391ZM24.8122 19.0391C24.8054 19.6133 25.2634 19.9619 25.947 19.9551C26.6237 19.9619 27.0886 19.6133 27.0954 19.0391C27.0886 18.458 26.6237 18.1162 25.947 18.123C25.2702 18.1162 24.8054 18.458 24.8122 19.0391ZM25.072 24.002C25.0651 22.5596 26.6989 21.7393 29.3786 21.7324C32.0651 21.7393 33.6852 22.5596 33.6989 24.002C33.6852 25.4375 32.0651 26.2646 29.3786 26.2578C26.6989 26.2646 25.0651 25.4375 25.072 24.002ZM26.822 24.002C26.8083 24.6309 27.6901 24.9453 29.3786 24.9453C31.0739 24.9453 31.9352 24.6309 31.9352 24.002C31.9352 23.3457 31.0739 23.0381 29.3786 23.0449C27.6901 23.0381 26.8083 23.3457 26.822 24.002Z" fill="#121212"/>
</g>
<defs>
<clipPath id="clip0_2108_43979">
<rect width="80" height="80" rx="22" fill="white"/>
</clipPath>
</defs>
</svg>
