<svg width="81" height="80" viewBox="0 0 81 80" fill="none" xmlns="http://www.w3.org/2000/svg">
<g clip-path="url(#clip0_2108_44027)">
<rect x="0.333496" width="80" height="80" rx="22" fill="#E0FFED"/>
<path d="M14.5984 14.4863C15.5896 14.4795 16.4578 14.8486 17.0525 15.457H19.8758V13.8164H21.6121V21.1035H19.8758V19.6133H17.0388C16.4441 20.2148 15.5828 20.5771 14.5984 20.5703C12.7117 20.5771 11.2762 19.292 11.2898 17.5352C11.2762 15.7578 12.7117 14.4795 14.5984 14.4863ZM12.9441 17.5352C12.9373 18.4922 13.6277 19.1006 14.5984 19.0938C15.5349 19.1006 16.2185 18.4922 16.2254 17.5352C16.2185 16.5439 15.5349 15.9697 14.5984 15.9766C13.6277 15.9697 12.9373 16.5439 12.9441 17.5352ZM13.0808 23.8105C13.0808 22.2656 14.7283 21.3564 17.3601 21.3633C19.992 21.3564 21.6463 22.2656 21.6531 23.8105C21.6463 25.3555 19.992 26.2646 17.3601 26.2578C14.7283 26.2646 13.0808 25.3555 13.0808 23.8105ZM14.7898 23.8105C14.7898 24.5352 15.7127 24.9043 17.3601 24.9043C19.0418 24.9043 19.9373 24.5352 19.9441 23.8105C19.9373 23.0654 19.0418 22.6963 17.3601 22.6895C15.7127 22.6963 14.7898 23.0654 14.7898 23.8105ZM17.7976 16.8379C17.8523 17.0566 17.8797 17.2959 17.8797 17.5352C17.8797 17.7744 17.8523 18 17.8045 18.2188H19.8758V16.8379H17.7976ZM33.3185 13.8164V18.875H34.9454V20.3242H33.3185V26.2578H31.5548V13.8164H33.3185ZM23.215 22.7441C24.1242 22.7441 25.1837 22.7441 26.2912 22.7168V21.6504C24.9718 21.3906 24.1105 20.5498 24.1173 19.3945C24.1105 18.0068 25.3683 17.0566 27.1798 17.0566C28.9572 17.0566 30.2287 18.0068 30.2423 19.3945C30.2287 20.5498 29.3537 21.3975 28.0412 21.6504V22.6553C29.0255 22.6006 30.0167 22.5186 30.9396 22.3887L31.049 23.6602C28.4035 24.1523 25.546 24.1729 23.4474 24.166L23.215 22.7441ZM23.4611 16.5645V15.1973H26.2912V13.8848H28.0412V15.1973H30.8439V16.5645H23.4611ZM25.7716 19.3945C25.7648 20.0508 26.3253 20.4062 27.1798 20.4062C28.007 20.4062 28.5607 20.0508 28.5607 19.3945C28.5607 18.752 28.007 18.3896 27.1798 18.3828C26.3253 18.3896 25.7648 18.752 25.7716 19.3945ZM40.3081 14.6367L37.1089 26.4902H35.3726L38.5581 14.6367H40.3081ZM46.6141 14.0488C49.3827 14.042 51.1327 14.9648 51.1395 16.4824C51.1327 17.9932 49.3827 18.8955 46.6141 18.8887C43.8592 18.8955 42.0751 17.9932 42.0751 16.4824C42.0751 14.9648 43.8592 14.042 46.6141 14.0488ZM40.9403 21.0078V19.6133H52.2879V21.0078H40.9403ZM42.2528 26.1211V21.8828H50.9344V26.1211H42.2528ZM43.8934 16.4824C43.8797 17.1797 44.871 17.5352 46.6141 17.5352C48.3299 17.5352 49.3348 17.1797 49.3348 16.4824C49.3348 15.7646 48.3299 15.4023 46.6141 15.4023C44.871 15.4023 43.8797 15.7646 43.8934 16.4824ZM43.9754 24.7266H49.2254V23.2637H43.9754V24.7266ZM56.6799 14.5C58.6076 14.4932 60.0705 15.7646 60.0705 17.5215C60.0705 19.3193 58.6076 20.5771 56.6799 20.5703C54.7317 20.5771 53.2551 19.3193 53.2619 17.5215C53.2551 15.7646 54.7317 14.4932 56.6799 14.5ZM54.6701 23.0176V21.6094H63.051V26.2715H61.301V23.0176H54.6701ZM54.9846 17.5215C54.9709 18.5264 55.7024 19.1006 56.6799 19.0938C57.6369 19.1006 58.3684 18.5264 58.3752 17.5215C58.3684 16.5508 57.6369 15.9834 56.6799 15.9902C55.7024 15.9834 54.9709 16.5508 54.9846 17.5215ZM61.301 21.0898V13.8164H63.051V16.7422H64.7326V18.1641H63.051V21.0898H61.301Z" fill="#121212"/>
<g opacity="0.15" clip-path="url(#clip1_2108_44027)">
<path d="M67.4844 71.0938C71.0483 71.0938 73.9375 68.2046 73.9375 64.6406C73.9375 61.0767 71.0483 58.1875 67.4844 58.1875C63.9204 58.1875 61.0312 61.0767 61.0312 64.6406C61.0312 68.2046 63.9204 71.0938 67.4844 71.0938Z" stroke="#1ED066" stroke-width="4" stroke-linecap="round" stroke-linejoin="round"/>
<path d="M37.9844 78.4688C41.5483 78.4688 44.4375 75.5796 44.4375 72.0156C44.4375 68.4517 41.5483 65.5625 37.9844 65.5625C34.4204 65.5625 31.5312 68.4517 31.5312 72.0156C31.5312 75.5796 34.4204 78.4688 37.9844 78.4688Z" stroke="#1ED066" stroke-width="4" stroke-linecap="round" stroke-linejoin="round"/>
<path d="M73.9375 43.4375L44.4375 50.8125" stroke="#1ED066" stroke-width="4" stroke-linecap="round" stroke-linejoin="round"/>
<path d="M44.4375 72.0156V39.75L73.9375 32.375V64.6406" stroke="#1ED066" stroke-width="4" stroke-linecap="round" stroke-linejoin="round"/>
</g>
</g>
<defs>
<clipPath id="clip0_2108_44027">
<rect x="0.333496" width="80" height="80" rx="22" fill="white"/>
</clipPath>
<clipPath id="clip1_2108_44027">
<rect width="59" height="59" fill="white" transform="translate(26 25)"/>
</clipPath>
</defs>
</svg>
