<svg width="81" height="80" viewBox="0 0 81 80" fill="none" xmlns="http://www.w3.org/2000/svg">
<g clip-path="url(#clip0_2108_43988)">
<rect x="0.666504" width="80" height="80" rx="22" fill="none"/>
<path d="M22.741 19.873V21.2676H18.0242V23.4277H16.2606V21.2676H11.3524V19.873H22.741ZM12.5281 16.6328C12.5281 15.0537 14.3328 14.0625 17.0399 14.0488C19.7332 14.0625 21.5311 15.0537 21.5379 16.6328C21.5311 18.2188 19.7332 19.2031 17.0399 19.2031C14.3328 19.2031 12.5281 18.2188 12.5281 16.6328ZM12.7059 26.0391V22.3203H14.4696V24.6309H21.4832V26.0391H12.7059ZM14.4149 16.6328C14.408 17.3916 15.4334 17.8018 17.0399 17.8086C18.6463 17.8018 19.6649 17.3916 19.6649 16.6328C19.6649 15.8398 18.6463 15.4297 17.0399 15.4297C15.4334 15.4297 14.408 15.8398 14.4149 16.6328ZM34.9806 19.6953V21.0625H23.6056V19.6953H28.4455V18.6289H24.9865V14.3633H33.6135V15.7168H26.7228V17.2617H33.6818V18.6289H30.1545V19.6953H34.9806ZM24.9045 23.9883C24.9045 22.5117 26.5451 21.6914 29.2658 21.6914C31.966 21.6914 33.5861 22.5117 33.5998 23.9883C33.5861 25.4443 31.966 26.2715 29.2658 26.2715C26.5451 26.2715 24.9045 25.4443 24.9045 23.9883ZM26.6818 23.9883C26.675 24.6377 27.5431 24.9453 29.2658 24.9453C30.9543 24.9453 31.8429 24.6377 31.8498 23.9883C31.8429 23.3457 30.9543 23.0176 29.2658 23.0176C27.5431 23.0176 26.675 23.3457 26.6818 23.9883Z" fill="#121212"/>
<g opacity="0.15" clip-path="url(#clip1_2108_43988)">
<path d="M37.9688 38.3438H32.25C31.1972 38.3438 30.3438 39.1972 30.3438 40.25V70.75C30.3438 71.8028 31.1972 72.6562 32.25 72.6562H37.9688C39.0215 72.6562 39.875 71.8028 39.875 70.75V40.25C39.875 39.1972 39.0215 38.3438 37.9688 38.3438Z" stroke="#1090B8" stroke-width="4" stroke-linecap="round" stroke-linejoin="round"/>
<path d="M62.75 38.3438H57.0312C55.9785 38.3438 55.125 39.1972 55.125 40.25V70.75C55.125 71.8028 55.9785 72.6562 57.0312 72.6562H62.75C63.8028 72.6562 64.6562 71.8028 64.6562 70.75V40.25C64.6562 39.1972 63.8028 38.3438 62.75 38.3438Z" stroke="#1090B8" stroke-width="4" stroke-linecap="round" stroke-linejoin="round"/>
<path d="M64.6562 44.0625H70.375C70.8806 44.0625 71.3654 44.2633 71.7229 44.6208C72.0804 44.9783 72.2812 45.4632 72.2812 45.9688V65.0312C72.2812 65.5368 72.0804 66.0217 71.7229 66.3792C71.3654 66.7367 70.8806 66.9375 70.375 66.9375H64.6562" stroke="#1090B8" stroke-width="4" stroke-linecap="round" stroke-linejoin="round"/>
<path d="M30.3438 66.9375H24.625C24.1194 66.9375 23.6346 66.7367 23.2771 66.3792C22.9196 66.0217 22.7188 65.5368 22.7188 65.0312V45.9688C22.7188 45.4632 22.9196 44.9783 23.2771 44.6208C23.6346 44.2633 24.1194 44.0625 24.625 44.0625H30.3438" stroke="#1090B8" stroke-width="4" stroke-linecap="round" stroke-linejoin="round"/>
<path d="M39.875 55.5H55.125" stroke="#1090B8" stroke-width="4" stroke-linecap="round" stroke-linejoin="round"/>
<path d="M72.2812 55.5H76.0938" stroke="#1090B8" stroke-width="4" stroke-linecap="round" stroke-linejoin="round"/>
<path d="M18.9062 55.5H22.7188" stroke="#1090B8" stroke-width="4" stroke-linecap="round" stroke-linejoin="round"/>
</g>
</g>
<defs>
<clipPath id="clip0_2108_43988">
<rect x="0.666504" width="80" height="80" rx="22" fill="white"/>
</clipPath>
<clipPath id="clip1_2108_43988">
<rect width="61" height="61" fill="white" transform="translate(17 25)"/>
</clipPath>
</defs>
</svg>
